G04 #@! TF.GenerationSoftware,KiCad,Pcbnew,(6.0.0-rc1-dev-1521-g81a0ab4d7)*
G04 #@! TF.CreationDate,2019-02-16T05:45:15+09:00
G04 #@! TF.ProjectId,STM32F303VET6,53544d33-3246-4333-9033-564554362e6b,rev?*
G04 #@! TF.SameCoordinates,Original*
G04 #@! TF.FileFunction,Soldermask,Bot*
G04 #@! TF.FilePolarity,Negative*
%FSLAX46Y46*%
G04 Gerber Fmt 4.6, Leading zero omitted, Abs format (unit mm)*
G04 Created by KiCad (PCBNEW (6.0.0-rc1-dev-1521-g81a0ab4d7)) date 2019/02/16 5:45:15*
%MOMM*%
%LPD*%
G04 APERTURE LIST*
%ADD10C,0.100000*%
G04 APERTURE END LIST*
D10*
G36*
X96686630Y-118542299D02*
G01*
X96846855Y-118590903D01*
X96994520Y-118669831D01*
X97123949Y-118776051D01*
X97230169Y-118905480D01*
X97309097Y-119053145D01*
X97357701Y-119213370D01*
X97374112Y-119380000D01*
X97357701Y-119546630D01*
X97309097Y-119706855D01*
X97230169Y-119854520D01*
X97123949Y-119983949D01*
X96994520Y-120090169D01*
X96846855Y-120169097D01*
X96686630Y-120217701D01*
X96561752Y-120230000D01*
X96478248Y-120230000D01*
X96353370Y-120217701D01*
X96193145Y-120169097D01*
X96045480Y-120090169D01*
X95916051Y-119983949D01*
X95809831Y-119854520D01*
X95730903Y-119706855D01*
X95682299Y-119546630D01*
X95665888Y-119380000D01*
X95682299Y-119213370D01*
X95730903Y-119053145D01*
X95809831Y-118905480D01*
X95916051Y-118776051D01*
X96045480Y-118669831D01*
X96193145Y-118590903D01*
X96353370Y-118542299D01*
X96478248Y-118530000D01*
X96561752Y-118530000D01*
X96686630Y-118542299D01*
X96686630Y-118542299D01*
G37*
G36*
X124626630Y-118542299D02*
G01*
X124786855Y-118590903D01*
X124934520Y-118669831D01*
X125063949Y-118776051D01*
X125170169Y-118905480D01*
X125249097Y-119053145D01*
X125297701Y-119213370D01*
X125314112Y-119380000D01*
X125297701Y-119546630D01*
X125249097Y-119706855D01*
X125170169Y-119854520D01*
X125063949Y-119983949D01*
X124934520Y-120090169D01*
X124786855Y-120169097D01*
X124626630Y-120217701D01*
X124501752Y-120230000D01*
X124418248Y-120230000D01*
X124293370Y-120217701D01*
X124133145Y-120169097D01*
X123985480Y-120090169D01*
X123856051Y-119983949D01*
X123749831Y-119854520D01*
X123670903Y-119706855D01*
X123622299Y-119546630D01*
X123605888Y-119380000D01*
X123622299Y-119213370D01*
X123670903Y-119053145D01*
X123749831Y-118905480D01*
X123856051Y-118776051D01*
X123985480Y-118669831D01*
X124133145Y-118590903D01*
X124293370Y-118542299D01*
X124418248Y-118530000D01*
X124501752Y-118530000D01*
X124626630Y-118542299D01*
X124626630Y-118542299D01*
G37*
G36*
X150026630Y-118542299D02*
G01*
X150186855Y-118590903D01*
X150334520Y-118669831D01*
X150463949Y-118776051D01*
X150570169Y-118905480D01*
X150649097Y-119053145D01*
X150697701Y-119213370D01*
X150714112Y-119380000D01*
X150697701Y-119546630D01*
X150649097Y-119706855D01*
X150570169Y-119854520D01*
X150463949Y-119983949D01*
X150334520Y-120090169D01*
X150186855Y-120169097D01*
X150026630Y-120217701D01*
X149901752Y-120230000D01*
X149818248Y-120230000D01*
X149693370Y-120217701D01*
X149533145Y-120169097D01*
X149385480Y-120090169D01*
X149256051Y-119983949D01*
X149149831Y-119854520D01*
X149070903Y-119706855D01*
X149022299Y-119546630D01*
X149005888Y-119380000D01*
X149022299Y-119213370D01*
X149070903Y-119053145D01*
X149149831Y-118905480D01*
X149256051Y-118776051D01*
X149385480Y-118669831D01*
X149533145Y-118590903D01*
X149693370Y-118542299D01*
X149818248Y-118530000D01*
X149901752Y-118530000D01*
X150026630Y-118542299D01*
X150026630Y-118542299D01*
G37*
G36*
X144946630Y-118542299D02*
G01*
X145106855Y-118590903D01*
X145254520Y-118669831D01*
X145383949Y-118776051D01*
X145490169Y-118905480D01*
X145569097Y-119053145D01*
X145617701Y-119213370D01*
X145634112Y-119380000D01*
X145617701Y-119546630D01*
X145569097Y-119706855D01*
X145490169Y-119854520D01*
X145383949Y-119983949D01*
X145254520Y-120090169D01*
X145106855Y-120169097D01*
X144946630Y-120217701D01*
X144821752Y-120230000D01*
X144738248Y-120230000D01*
X144613370Y-120217701D01*
X144453145Y-120169097D01*
X144305480Y-120090169D01*
X144176051Y-119983949D01*
X144069831Y-119854520D01*
X143990903Y-119706855D01*
X143942299Y-119546630D01*
X143925888Y-119380000D01*
X143942299Y-119213370D01*
X143990903Y-119053145D01*
X144069831Y-118905480D01*
X144176051Y-118776051D01*
X144305480Y-118669831D01*
X144453145Y-118590903D01*
X144613370Y-118542299D01*
X144738248Y-118530000D01*
X144821752Y-118530000D01*
X144946630Y-118542299D01*
X144946630Y-118542299D01*
G37*
G36*
X142406630Y-118542299D02*
G01*
X142566855Y-118590903D01*
X142714520Y-118669831D01*
X142843949Y-118776051D01*
X142950169Y-118905480D01*
X143029097Y-119053145D01*
X143077701Y-119213370D01*
X143094112Y-119380000D01*
X143077701Y-119546630D01*
X143029097Y-119706855D01*
X142950169Y-119854520D01*
X142843949Y-119983949D01*
X142714520Y-120090169D01*
X142566855Y-120169097D01*
X142406630Y-120217701D01*
X142281752Y-120230000D01*
X142198248Y-120230000D01*
X142073370Y-120217701D01*
X141913145Y-120169097D01*
X141765480Y-120090169D01*
X141636051Y-119983949D01*
X141529831Y-119854520D01*
X141450903Y-119706855D01*
X141402299Y-119546630D01*
X141385888Y-119380000D01*
X141402299Y-119213370D01*
X141450903Y-119053145D01*
X141529831Y-118905480D01*
X141636051Y-118776051D01*
X141765480Y-118669831D01*
X141913145Y-118590903D01*
X142073370Y-118542299D01*
X142198248Y-118530000D01*
X142281752Y-118530000D01*
X142406630Y-118542299D01*
X142406630Y-118542299D01*
G37*
G36*
X139866630Y-118542299D02*
G01*
X140026855Y-118590903D01*
X140174520Y-118669831D01*
X140303949Y-118776051D01*
X140410169Y-118905480D01*
X140489097Y-119053145D01*
X140537701Y-119213370D01*
X140554112Y-119380000D01*
X140537701Y-119546630D01*
X140489097Y-119706855D01*
X140410169Y-119854520D01*
X140303949Y-119983949D01*
X140174520Y-120090169D01*
X140026855Y-120169097D01*
X139866630Y-120217701D01*
X139741752Y-120230000D01*
X139658248Y-120230000D01*
X139533370Y-120217701D01*
X139373145Y-120169097D01*
X139225480Y-120090169D01*
X139096051Y-119983949D01*
X138989831Y-119854520D01*
X138910903Y-119706855D01*
X138862299Y-119546630D01*
X138845888Y-119380000D01*
X138862299Y-119213370D01*
X138910903Y-119053145D01*
X138989831Y-118905480D01*
X139096051Y-118776051D01*
X139225480Y-118669831D01*
X139373145Y-118590903D01*
X139533370Y-118542299D01*
X139658248Y-118530000D01*
X139741752Y-118530000D01*
X139866630Y-118542299D01*
X139866630Y-118542299D01*
G37*
G36*
X137326630Y-118542299D02*
G01*
X137486855Y-118590903D01*
X137634520Y-118669831D01*
X137763949Y-118776051D01*
X137870169Y-118905480D01*
X137949097Y-119053145D01*
X137997701Y-119213370D01*
X138014112Y-119380000D01*
X137997701Y-119546630D01*
X137949097Y-119706855D01*
X137870169Y-119854520D01*
X137763949Y-119983949D01*
X137634520Y-120090169D01*
X137486855Y-120169097D01*
X137326630Y-120217701D01*
X137201752Y-120230000D01*
X137118248Y-120230000D01*
X136993370Y-120217701D01*
X136833145Y-120169097D01*
X136685480Y-120090169D01*
X136556051Y-119983949D01*
X136449831Y-119854520D01*
X136370903Y-119706855D01*
X136322299Y-119546630D01*
X136305888Y-119380000D01*
X136322299Y-119213370D01*
X136370903Y-119053145D01*
X136449831Y-118905480D01*
X136556051Y-118776051D01*
X136685480Y-118669831D01*
X136833145Y-118590903D01*
X136993370Y-118542299D01*
X137118248Y-118530000D01*
X137201752Y-118530000D01*
X137326630Y-118542299D01*
X137326630Y-118542299D01*
G37*
G36*
X134786630Y-118542299D02*
G01*
X134946855Y-118590903D01*
X135094520Y-118669831D01*
X135223949Y-118776051D01*
X135330169Y-118905480D01*
X135409097Y-119053145D01*
X135457701Y-119213370D01*
X135474112Y-119380000D01*
X135457701Y-119546630D01*
X135409097Y-119706855D01*
X135330169Y-119854520D01*
X135223949Y-119983949D01*
X135094520Y-120090169D01*
X134946855Y-120169097D01*
X134786630Y-120217701D01*
X134661752Y-120230000D01*
X134578248Y-120230000D01*
X134453370Y-120217701D01*
X134293145Y-120169097D01*
X134145480Y-120090169D01*
X134016051Y-119983949D01*
X133909831Y-119854520D01*
X133830903Y-119706855D01*
X133782299Y-119546630D01*
X133765888Y-119380000D01*
X133782299Y-119213370D01*
X133830903Y-119053145D01*
X133909831Y-118905480D01*
X134016051Y-118776051D01*
X134145480Y-118669831D01*
X134293145Y-118590903D01*
X134453370Y-118542299D01*
X134578248Y-118530000D01*
X134661752Y-118530000D01*
X134786630Y-118542299D01*
X134786630Y-118542299D01*
G37*
G36*
X132246630Y-118542299D02*
G01*
X132406855Y-118590903D01*
X132554520Y-118669831D01*
X132683949Y-118776051D01*
X132790169Y-118905480D01*
X132869097Y-119053145D01*
X132917701Y-119213370D01*
X132934112Y-119380000D01*
X132917701Y-119546630D01*
X132869097Y-119706855D01*
X132790169Y-119854520D01*
X132683949Y-119983949D01*
X132554520Y-120090169D01*
X132406855Y-120169097D01*
X132246630Y-120217701D01*
X132121752Y-120230000D01*
X132038248Y-120230000D01*
X131913370Y-120217701D01*
X131753145Y-120169097D01*
X131605480Y-120090169D01*
X131476051Y-119983949D01*
X131369831Y-119854520D01*
X131290903Y-119706855D01*
X131242299Y-119546630D01*
X131225888Y-119380000D01*
X131242299Y-119213370D01*
X131290903Y-119053145D01*
X131369831Y-118905480D01*
X131476051Y-118776051D01*
X131605480Y-118669831D01*
X131753145Y-118590903D01*
X131913370Y-118542299D01*
X132038248Y-118530000D01*
X132121752Y-118530000D01*
X132246630Y-118542299D01*
X132246630Y-118542299D01*
G37*
G36*
X129706630Y-118542299D02*
G01*
X129866855Y-118590903D01*
X130014520Y-118669831D01*
X130143949Y-118776051D01*
X130250169Y-118905480D01*
X130329097Y-119053145D01*
X130377701Y-119213370D01*
X130394112Y-119380000D01*
X130377701Y-119546630D01*
X130329097Y-119706855D01*
X130250169Y-119854520D01*
X130143949Y-119983949D01*
X130014520Y-120090169D01*
X129866855Y-120169097D01*
X129706630Y-120217701D01*
X129581752Y-120230000D01*
X129498248Y-120230000D01*
X129373370Y-120217701D01*
X129213145Y-120169097D01*
X129065480Y-120090169D01*
X128936051Y-119983949D01*
X128829831Y-119854520D01*
X128750903Y-119706855D01*
X128702299Y-119546630D01*
X128685888Y-119380000D01*
X128702299Y-119213370D01*
X128750903Y-119053145D01*
X128829831Y-118905480D01*
X128936051Y-118776051D01*
X129065480Y-118669831D01*
X129213145Y-118590903D01*
X129373370Y-118542299D01*
X129498248Y-118530000D01*
X129581752Y-118530000D01*
X129706630Y-118542299D01*
X129706630Y-118542299D01*
G37*
G36*
X127166630Y-118542299D02*
G01*
X127326855Y-118590903D01*
X127474520Y-118669831D01*
X127603949Y-118776051D01*
X127710169Y-118905480D01*
X127789097Y-119053145D01*
X127837701Y-119213370D01*
X127854112Y-119380000D01*
X127837701Y-119546630D01*
X127789097Y-119706855D01*
X127710169Y-119854520D01*
X127603949Y-119983949D01*
X127474520Y-120090169D01*
X127326855Y-120169097D01*
X127166630Y-120217701D01*
X127041752Y-120230000D01*
X126958248Y-120230000D01*
X126833370Y-120217701D01*
X126673145Y-120169097D01*
X126525480Y-120090169D01*
X126396051Y-119983949D01*
X126289831Y-119854520D01*
X126210903Y-119706855D01*
X126162299Y-119546630D01*
X126145888Y-119380000D01*
X126162299Y-119213370D01*
X126210903Y-119053145D01*
X126289831Y-118905480D01*
X126396051Y-118776051D01*
X126525480Y-118669831D01*
X126673145Y-118590903D01*
X126833370Y-118542299D01*
X126958248Y-118530000D01*
X127041752Y-118530000D01*
X127166630Y-118542299D01*
X127166630Y-118542299D01*
G37*
G36*
X147486630Y-118542299D02*
G01*
X147646855Y-118590903D01*
X147794520Y-118669831D01*
X147923949Y-118776051D01*
X148030169Y-118905480D01*
X148109097Y-119053145D01*
X148157701Y-119213370D01*
X148174112Y-119380000D01*
X148157701Y-119546630D01*
X148109097Y-119706855D01*
X148030169Y-119854520D01*
X147923949Y-119983949D01*
X147794520Y-120090169D01*
X147646855Y-120169097D01*
X147486630Y-120217701D01*
X147361752Y-120230000D01*
X147278248Y-120230000D01*
X147153370Y-120217701D01*
X146993145Y-120169097D01*
X146845480Y-120090169D01*
X146716051Y-119983949D01*
X146609831Y-119854520D01*
X146530903Y-119706855D01*
X146482299Y-119546630D01*
X146465888Y-119380000D01*
X146482299Y-119213370D01*
X146530903Y-119053145D01*
X146609831Y-118905480D01*
X146716051Y-118776051D01*
X146845480Y-118669831D01*
X146993145Y-118590903D01*
X147153370Y-118542299D01*
X147278248Y-118530000D01*
X147361752Y-118530000D01*
X147486630Y-118542299D01*
X147486630Y-118542299D01*
G37*
G36*
X119546630Y-118542299D02*
G01*
X119706855Y-118590903D01*
X119854520Y-118669831D01*
X119983949Y-118776051D01*
X120090169Y-118905480D01*
X120169097Y-119053145D01*
X120217701Y-119213370D01*
X120234112Y-119380000D01*
X120217701Y-119546630D01*
X120169097Y-119706855D01*
X120090169Y-119854520D01*
X119983949Y-119983949D01*
X119854520Y-120090169D01*
X119706855Y-120169097D01*
X119546630Y-120217701D01*
X119421752Y-120230000D01*
X119338248Y-120230000D01*
X119213370Y-120217701D01*
X119053145Y-120169097D01*
X118905480Y-120090169D01*
X118776051Y-119983949D01*
X118669831Y-119854520D01*
X118590903Y-119706855D01*
X118542299Y-119546630D01*
X118525888Y-119380000D01*
X118542299Y-119213370D01*
X118590903Y-119053145D01*
X118669831Y-118905480D01*
X118776051Y-118776051D01*
X118905480Y-118669831D01*
X119053145Y-118590903D01*
X119213370Y-118542299D01*
X119338248Y-118530000D01*
X119421752Y-118530000D01*
X119546630Y-118542299D01*
X119546630Y-118542299D01*
G37*
G36*
X117006630Y-118542299D02*
G01*
X117166855Y-118590903D01*
X117314520Y-118669831D01*
X117443949Y-118776051D01*
X117550169Y-118905480D01*
X117629097Y-119053145D01*
X117677701Y-119213370D01*
X117694112Y-119380000D01*
X117677701Y-119546630D01*
X117629097Y-119706855D01*
X117550169Y-119854520D01*
X117443949Y-119983949D01*
X117314520Y-120090169D01*
X117166855Y-120169097D01*
X117006630Y-120217701D01*
X116881752Y-120230000D01*
X116798248Y-120230000D01*
X116673370Y-120217701D01*
X116513145Y-120169097D01*
X116365480Y-120090169D01*
X116236051Y-119983949D01*
X116129831Y-119854520D01*
X116050903Y-119706855D01*
X116002299Y-119546630D01*
X115985888Y-119380000D01*
X116002299Y-119213370D01*
X116050903Y-119053145D01*
X116129831Y-118905480D01*
X116236051Y-118776051D01*
X116365480Y-118669831D01*
X116513145Y-118590903D01*
X116673370Y-118542299D01*
X116798248Y-118530000D01*
X116881752Y-118530000D01*
X117006630Y-118542299D01*
X117006630Y-118542299D01*
G37*
G36*
X114466630Y-118542299D02*
G01*
X114626855Y-118590903D01*
X114774520Y-118669831D01*
X114903949Y-118776051D01*
X115010169Y-118905480D01*
X115089097Y-119053145D01*
X115137701Y-119213370D01*
X115154112Y-119380000D01*
X115137701Y-119546630D01*
X115089097Y-119706855D01*
X115010169Y-119854520D01*
X114903949Y-119983949D01*
X114774520Y-120090169D01*
X114626855Y-120169097D01*
X114466630Y-120217701D01*
X114341752Y-120230000D01*
X114258248Y-120230000D01*
X114133370Y-120217701D01*
X113973145Y-120169097D01*
X113825480Y-120090169D01*
X113696051Y-119983949D01*
X113589831Y-119854520D01*
X113510903Y-119706855D01*
X113462299Y-119546630D01*
X113445888Y-119380000D01*
X113462299Y-119213370D01*
X113510903Y-119053145D01*
X113589831Y-118905480D01*
X113696051Y-118776051D01*
X113825480Y-118669831D01*
X113973145Y-118590903D01*
X114133370Y-118542299D01*
X114258248Y-118530000D01*
X114341752Y-118530000D01*
X114466630Y-118542299D01*
X114466630Y-118542299D01*
G37*
G36*
X111926630Y-118542299D02*
G01*
X112086855Y-118590903D01*
X112234520Y-118669831D01*
X112363949Y-118776051D01*
X112470169Y-118905480D01*
X112549097Y-119053145D01*
X112597701Y-119213370D01*
X112614112Y-119380000D01*
X112597701Y-119546630D01*
X112549097Y-119706855D01*
X112470169Y-119854520D01*
X112363949Y-119983949D01*
X112234520Y-120090169D01*
X112086855Y-120169097D01*
X111926630Y-120217701D01*
X111801752Y-120230000D01*
X111718248Y-120230000D01*
X111593370Y-120217701D01*
X111433145Y-120169097D01*
X111285480Y-120090169D01*
X111156051Y-119983949D01*
X111049831Y-119854520D01*
X110970903Y-119706855D01*
X110922299Y-119546630D01*
X110905888Y-119380000D01*
X110922299Y-119213370D01*
X110970903Y-119053145D01*
X111049831Y-118905480D01*
X111156051Y-118776051D01*
X111285480Y-118669831D01*
X111433145Y-118590903D01*
X111593370Y-118542299D01*
X111718248Y-118530000D01*
X111801752Y-118530000D01*
X111926630Y-118542299D01*
X111926630Y-118542299D01*
G37*
G36*
X109386630Y-118542299D02*
G01*
X109546855Y-118590903D01*
X109694520Y-118669831D01*
X109823949Y-118776051D01*
X109930169Y-118905480D01*
X110009097Y-119053145D01*
X110057701Y-119213370D01*
X110074112Y-119380000D01*
X110057701Y-119546630D01*
X110009097Y-119706855D01*
X109930169Y-119854520D01*
X109823949Y-119983949D01*
X109694520Y-120090169D01*
X109546855Y-120169097D01*
X109386630Y-120217701D01*
X109261752Y-120230000D01*
X109178248Y-120230000D01*
X109053370Y-120217701D01*
X108893145Y-120169097D01*
X108745480Y-120090169D01*
X108616051Y-119983949D01*
X108509831Y-119854520D01*
X108430903Y-119706855D01*
X108382299Y-119546630D01*
X108365888Y-119380000D01*
X108382299Y-119213370D01*
X108430903Y-119053145D01*
X108509831Y-118905480D01*
X108616051Y-118776051D01*
X108745480Y-118669831D01*
X108893145Y-118590903D01*
X109053370Y-118542299D01*
X109178248Y-118530000D01*
X109261752Y-118530000D01*
X109386630Y-118542299D01*
X109386630Y-118542299D01*
G37*
G36*
X106846630Y-118542299D02*
G01*
X107006855Y-118590903D01*
X107154520Y-118669831D01*
X107283949Y-118776051D01*
X107390169Y-118905480D01*
X107469097Y-119053145D01*
X107517701Y-119213370D01*
X107534112Y-119380000D01*
X107517701Y-119546630D01*
X107469097Y-119706855D01*
X107390169Y-119854520D01*
X107283949Y-119983949D01*
X107154520Y-120090169D01*
X107006855Y-120169097D01*
X106846630Y-120217701D01*
X106721752Y-120230000D01*
X106638248Y-120230000D01*
X106513370Y-120217701D01*
X106353145Y-120169097D01*
X106205480Y-120090169D01*
X106076051Y-119983949D01*
X105969831Y-119854520D01*
X105890903Y-119706855D01*
X105842299Y-119546630D01*
X105825888Y-119380000D01*
X105842299Y-119213370D01*
X105890903Y-119053145D01*
X105969831Y-118905480D01*
X106076051Y-118776051D01*
X106205480Y-118669831D01*
X106353145Y-118590903D01*
X106513370Y-118542299D01*
X106638248Y-118530000D01*
X106721752Y-118530000D01*
X106846630Y-118542299D01*
X106846630Y-118542299D01*
G37*
G36*
X104306630Y-118542299D02*
G01*
X104466855Y-118590903D01*
X104614520Y-118669831D01*
X104743949Y-118776051D01*
X104850169Y-118905480D01*
X104929097Y-119053145D01*
X104977701Y-119213370D01*
X104994112Y-119380000D01*
X104977701Y-119546630D01*
X104929097Y-119706855D01*
X104850169Y-119854520D01*
X104743949Y-119983949D01*
X104614520Y-120090169D01*
X104466855Y-120169097D01*
X104306630Y-120217701D01*
X104181752Y-120230000D01*
X104098248Y-120230000D01*
X103973370Y-120217701D01*
X103813145Y-120169097D01*
X103665480Y-120090169D01*
X103536051Y-119983949D01*
X103429831Y-119854520D01*
X103350903Y-119706855D01*
X103302299Y-119546630D01*
X103285888Y-119380000D01*
X103302299Y-119213370D01*
X103350903Y-119053145D01*
X103429831Y-118905480D01*
X103536051Y-118776051D01*
X103665480Y-118669831D01*
X103813145Y-118590903D01*
X103973370Y-118542299D01*
X104098248Y-118530000D01*
X104181752Y-118530000D01*
X104306630Y-118542299D01*
X104306630Y-118542299D01*
G37*
G36*
X101766630Y-118542299D02*
G01*
X101926855Y-118590903D01*
X102074520Y-118669831D01*
X102203949Y-118776051D01*
X102310169Y-118905480D01*
X102389097Y-119053145D01*
X102437701Y-119213370D01*
X102454112Y-119380000D01*
X102437701Y-119546630D01*
X102389097Y-119706855D01*
X102310169Y-119854520D01*
X102203949Y-119983949D01*
X102074520Y-120090169D01*
X101926855Y-120169097D01*
X101766630Y-120217701D01*
X101641752Y-120230000D01*
X101558248Y-120230000D01*
X101433370Y-120217701D01*
X101273145Y-120169097D01*
X101125480Y-120090169D01*
X100996051Y-119983949D01*
X100889831Y-119854520D01*
X100810903Y-119706855D01*
X100762299Y-119546630D01*
X100745888Y-119380000D01*
X100762299Y-119213370D01*
X100810903Y-119053145D01*
X100889831Y-118905480D01*
X100996051Y-118776051D01*
X101125480Y-118669831D01*
X101273145Y-118590903D01*
X101433370Y-118542299D01*
X101558248Y-118530000D01*
X101641752Y-118530000D01*
X101766630Y-118542299D01*
X101766630Y-118542299D01*
G37*
G36*
X99226630Y-118542299D02*
G01*
X99386855Y-118590903D01*
X99534520Y-118669831D01*
X99663949Y-118776051D01*
X99770169Y-118905480D01*
X99849097Y-119053145D01*
X99897701Y-119213370D01*
X99914112Y-119380000D01*
X99897701Y-119546630D01*
X99849097Y-119706855D01*
X99770169Y-119854520D01*
X99663949Y-119983949D01*
X99534520Y-120090169D01*
X99386855Y-120169097D01*
X99226630Y-120217701D01*
X99101752Y-120230000D01*
X99018248Y-120230000D01*
X98893370Y-120217701D01*
X98733145Y-120169097D01*
X98585480Y-120090169D01*
X98456051Y-119983949D01*
X98349831Y-119854520D01*
X98270903Y-119706855D01*
X98222299Y-119546630D01*
X98205888Y-119380000D01*
X98222299Y-119213370D01*
X98270903Y-119053145D01*
X98349831Y-118905480D01*
X98456051Y-118776051D01*
X98585480Y-118669831D01*
X98733145Y-118590903D01*
X98893370Y-118542299D01*
X99018248Y-118530000D01*
X99101752Y-118530000D01*
X99226630Y-118542299D01*
X99226630Y-118542299D01*
G37*
G36*
X122086630Y-118542299D02*
G01*
X122246855Y-118590903D01*
X122394520Y-118669831D01*
X122523949Y-118776051D01*
X122630169Y-118905480D01*
X122709097Y-119053145D01*
X122757701Y-119213370D01*
X122774112Y-119380000D01*
X122757701Y-119546630D01*
X122709097Y-119706855D01*
X122630169Y-119854520D01*
X122523949Y-119983949D01*
X122394520Y-120090169D01*
X122246855Y-120169097D01*
X122086630Y-120217701D01*
X121961752Y-120230000D01*
X121878248Y-120230000D01*
X121753370Y-120217701D01*
X121593145Y-120169097D01*
X121445480Y-120090169D01*
X121316051Y-119983949D01*
X121209831Y-119854520D01*
X121130903Y-119706855D01*
X121082299Y-119546630D01*
X121065888Y-119380000D01*
X121082299Y-119213370D01*
X121130903Y-119053145D01*
X121209831Y-118905480D01*
X121316051Y-118776051D01*
X121445480Y-118669831D01*
X121593145Y-118590903D01*
X121753370Y-118542299D01*
X121878248Y-118530000D01*
X121961752Y-118530000D01*
X122086630Y-118542299D01*
X122086630Y-118542299D01*
G37*
G36*
X122086630Y-116002299D02*
G01*
X122246855Y-116050903D01*
X122394520Y-116129831D01*
X122523949Y-116236051D01*
X122630169Y-116365480D01*
X122709097Y-116513145D01*
X122757701Y-116673370D01*
X122774112Y-116840000D01*
X122757701Y-117006630D01*
X122709097Y-117166855D01*
X122630169Y-117314520D01*
X122523949Y-117443949D01*
X122394520Y-117550169D01*
X122246855Y-117629097D01*
X122086630Y-117677701D01*
X121961752Y-117690000D01*
X121878248Y-117690000D01*
X121753370Y-117677701D01*
X121593145Y-117629097D01*
X121445480Y-117550169D01*
X121316051Y-117443949D01*
X121209831Y-117314520D01*
X121130903Y-117166855D01*
X121082299Y-117006630D01*
X121065888Y-116840000D01*
X121082299Y-116673370D01*
X121130903Y-116513145D01*
X121209831Y-116365480D01*
X121316051Y-116236051D01*
X121445480Y-116129831D01*
X121593145Y-116050903D01*
X121753370Y-116002299D01*
X121878248Y-115990000D01*
X121961752Y-115990000D01*
X122086630Y-116002299D01*
X122086630Y-116002299D01*
G37*
G36*
X104306630Y-116002299D02*
G01*
X104466855Y-116050903D01*
X104614520Y-116129831D01*
X104743949Y-116236051D01*
X104850169Y-116365480D01*
X104929097Y-116513145D01*
X104977701Y-116673370D01*
X104994112Y-116840000D01*
X104977701Y-117006630D01*
X104929097Y-117166855D01*
X104850169Y-117314520D01*
X104743949Y-117443949D01*
X104614520Y-117550169D01*
X104466855Y-117629097D01*
X104306630Y-117677701D01*
X104181752Y-117690000D01*
X104098248Y-117690000D01*
X103973370Y-117677701D01*
X103813145Y-117629097D01*
X103665480Y-117550169D01*
X103536051Y-117443949D01*
X103429831Y-117314520D01*
X103350903Y-117166855D01*
X103302299Y-117006630D01*
X103285888Y-116840000D01*
X103302299Y-116673370D01*
X103350903Y-116513145D01*
X103429831Y-116365480D01*
X103536051Y-116236051D01*
X103665480Y-116129831D01*
X103813145Y-116050903D01*
X103973370Y-116002299D01*
X104098248Y-115990000D01*
X104181752Y-115990000D01*
X104306630Y-116002299D01*
X104306630Y-116002299D01*
G37*
G36*
X124626630Y-116002299D02*
G01*
X124786855Y-116050903D01*
X124934520Y-116129831D01*
X125063949Y-116236051D01*
X125170169Y-116365480D01*
X125249097Y-116513145D01*
X125297701Y-116673370D01*
X125314112Y-116840000D01*
X125297701Y-117006630D01*
X125249097Y-117166855D01*
X125170169Y-117314520D01*
X125063949Y-117443949D01*
X124934520Y-117550169D01*
X124786855Y-117629097D01*
X124626630Y-117677701D01*
X124501752Y-117690000D01*
X124418248Y-117690000D01*
X124293370Y-117677701D01*
X124133145Y-117629097D01*
X123985480Y-117550169D01*
X123856051Y-117443949D01*
X123749831Y-117314520D01*
X123670903Y-117166855D01*
X123622299Y-117006630D01*
X123605888Y-116840000D01*
X123622299Y-116673370D01*
X123670903Y-116513145D01*
X123749831Y-116365480D01*
X123856051Y-116236051D01*
X123985480Y-116129831D01*
X124133145Y-116050903D01*
X124293370Y-116002299D01*
X124418248Y-115990000D01*
X124501752Y-115990000D01*
X124626630Y-116002299D01*
X124626630Y-116002299D01*
G37*
G36*
X127166630Y-116002299D02*
G01*
X127326855Y-116050903D01*
X127474520Y-116129831D01*
X127603949Y-116236051D01*
X127710169Y-116365480D01*
X127789097Y-116513145D01*
X127837701Y-116673370D01*
X127854112Y-116840000D01*
X127837701Y-117006630D01*
X127789097Y-117166855D01*
X127710169Y-117314520D01*
X127603949Y-117443949D01*
X127474520Y-117550169D01*
X127326855Y-117629097D01*
X127166630Y-117677701D01*
X127041752Y-117690000D01*
X126958248Y-117690000D01*
X126833370Y-117677701D01*
X126673145Y-117629097D01*
X126525480Y-117550169D01*
X126396051Y-117443949D01*
X126289831Y-117314520D01*
X126210903Y-117166855D01*
X126162299Y-117006630D01*
X126145888Y-116840000D01*
X126162299Y-116673370D01*
X126210903Y-116513145D01*
X126289831Y-116365480D01*
X126396051Y-116236051D01*
X126525480Y-116129831D01*
X126673145Y-116050903D01*
X126833370Y-116002299D01*
X126958248Y-115990000D01*
X127041752Y-115990000D01*
X127166630Y-116002299D01*
X127166630Y-116002299D01*
G37*
G36*
X129706630Y-116002299D02*
G01*
X129866855Y-116050903D01*
X130014520Y-116129831D01*
X130143949Y-116236051D01*
X130250169Y-116365480D01*
X130329097Y-116513145D01*
X130377701Y-116673370D01*
X130394112Y-116840000D01*
X130377701Y-117006630D01*
X130329097Y-117166855D01*
X130250169Y-117314520D01*
X130143949Y-117443949D01*
X130014520Y-117550169D01*
X129866855Y-117629097D01*
X129706630Y-117677701D01*
X129581752Y-117690000D01*
X129498248Y-117690000D01*
X129373370Y-117677701D01*
X129213145Y-117629097D01*
X129065480Y-117550169D01*
X128936051Y-117443949D01*
X128829831Y-117314520D01*
X128750903Y-117166855D01*
X128702299Y-117006630D01*
X128685888Y-116840000D01*
X128702299Y-116673370D01*
X128750903Y-116513145D01*
X128829831Y-116365480D01*
X128936051Y-116236051D01*
X129065480Y-116129831D01*
X129213145Y-116050903D01*
X129373370Y-116002299D01*
X129498248Y-115990000D01*
X129581752Y-115990000D01*
X129706630Y-116002299D01*
X129706630Y-116002299D01*
G37*
G36*
X132246630Y-116002299D02*
G01*
X132406855Y-116050903D01*
X132554520Y-116129831D01*
X132683949Y-116236051D01*
X132790169Y-116365480D01*
X132869097Y-116513145D01*
X132917701Y-116673370D01*
X132934112Y-116840000D01*
X132917701Y-117006630D01*
X132869097Y-117166855D01*
X132790169Y-117314520D01*
X132683949Y-117443949D01*
X132554520Y-117550169D01*
X132406855Y-117629097D01*
X132246630Y-117677701D01*
X132121752Y-117690000D01*
X132038248Y-117690000D01*
X131913370Y-117677701D01*
X131753145Y-117629097D01*
X131605480Y-117550169D01*
X131476051Y-117443949D01*
X131369831Y-117314520D01*
X131290903Y-117166855D01*
X131242299Y-117006630D01*
X131225888Y-116840000D01*
X131242299Y-116673370D01*
X131290903Y-116513145D01*
X131369831Y-116365480D01*
X131476051Y-116236051D01*
X131605480Y-116129831D01*
X131753145Y-116050903D01*
X131913370Y-116002299D01*
X132038248Y-115990000D01*
X132121752Y-115990000D01*
X132246630Y-116002299D01*
X132246630Y-116002299D01*
G37*
G36*
X134786630Y-116002299D02*
G01*
X134946855Y-116050903D01*
X135094520Y-116129831D01*
X135223949Y-116236051D01*
X135330169Y-116365480D01*
X135409097Y-116513145D01*
X135457701Y-116673370D01*
X135474112Y-116840000D01*
X135457701Y-117006630D01*
X135409097Y-117166855D01*
X135330169Y-117314520D01*
X135223949Y-117443949D01*
X135094520Y-117550169D01*
X134946855Y-117629097D01*
X134786630Y-117677701D01*
X134661752Y-117690000D01*
X134578248Y-117690000D01*
X134453370Y-117677701D01*
X134293145Y-117629097D01*
X134145480Y-117550169D01*
X134016051Y-117443949D01*
X133909831Y-117314520D01*
X133830903Y-117166855D01*
X133782299Y-117006630D01*
X133765888Y-116840000D01*
X133782299Y-116673370D01*
X133830903Y-116513145D01*
X133909831Y-116365480D01*
X134016051Y-116236051D01*
X134145480Y-116129831D01*
X134293145Y-116050903D01*
X134453370Y-116002299D01*
X134578248Y-115990000D01*
X134661752Y-115990000D01*
X134786630Y-116002299D01*
X134786630Y-116002299D01*
G37*
G36*
X137326630Y-116002299D02*
G01*
X137486855Y-116050903D01*
X137634520Y-116129831D01*
X137763949Y-116236051D01*
X137870169Y-116365480D01*
X137949097Y-116513145D01*
X137997701Y-116673370D01*
X138014112Y-116840000D01*
X137997701Y-117006630D01*
X137949097Y-117166855D01*
X137870169Y-117314520D01*
X137763949Y-117443949D01*
X137634520Y-117550169D01*
X137486855Y-117629097D01*
X137326630Y-117677701D01*
X137201752Y-117690000D01*
X137118248Y-117690000D01*
X136993370Y-117677701D01*
X136833145Y-117629097D01*
X136685480Y-117550169D01*
X136556051Y-117443949D01*
X136449831Y-117314520D01*
X136370903Y-117166855D01*
X136322299Y-117006630D01*
X136305888Y-116840000D01*
X136322299Y-116673370D01*
X136370903Y-116513145D01*
X136449831Y-116365480D01*
X136556051Y-116236051D01*
X136685480Y-116129831D01*
X136833145Y-116050903D01*
X136993370Y-116002299D01*
X137118248Y-115990000D01*
X137201752Y-115990000D01*
X137326630Y-116002299D01*
X137326630Y-116002299D01*
G37*
G36*
X139866630Y-116002299D02*
G01*
X140026855Y-116050903D01*
X140174520Y-116129831D01*
X140303949Y-116236051D01*
X140410169Y-116365480D01*
X140489097Y-116513145D01*
X140537701Y-116673370D01*
X140554112Y-116840000D01*
X140537701Y-117006630D01*
X140489097Y-117166855D01*
X140410169Y-117314520D01*
X140303949Y-117443949D01*
X140174520Y-117550169D01*
X140026855Y-117629097D01*
X139866630Y-117677701D01*
X139741752Y-117690000D01*
X139658248Y-117690000D01*
X139533370Y-117677701D01*
X139373145Y-117629097D01*
X139225480Y-117550169D01*
X139096051Y-117443949D01*
X138989831Y-117314520D01*
X138910903Y-117166855D01*
X138862299Y-117006630D01*
X138845888Y-116840000D01*
X138862299Y-116673370D01*
X138910903Y-116513145D01*
X138989831Y-116365480D01*
X139096051Y-116236051D01*
X139225480Y-116129831D01*
X139373145Y-116050903D01*
X139533370Y-116002299D01*
X139658248Y-115990000D01*
X139741752Y-115990000D01*
X139866630Y-116002299D01*
X139866630Y-116002299D01*
G37*
G36*
X142406630Y-116002299D02*
G01*
X142566855Y-116050903D01*
X142714520Y-116129831D01*
X142843949Y-116236051D01*
X142950169Y-116365480D01*
X143029097Y-116513145D01*
X143077701Y-116673370D01*
X143094112Y-116840000D01*
X143077701Y-117006630D01*
X143029097Y-117166855D01*
X142950169Y-117314520D01*
X142843949Y-117443949D01*
X142714520Y-117550169D01*
X142566855Y-117629097D01*
X142406630Y-117677701D01*
X142281752Y-117690000D01*
X142198248Y-117690000D01*
X142073370Y-117677701D01*
X141913145Y-117629097D01*
X141765480Y-117550169D01*
X141636051Y-117443949D01*
X141529831Y-117314520D01*
X141450903Y-117166855D01*
X141402299Y-117006630D01*
X141385888Y-116840000D01*
X141402299Y-116673370D01*
X141450903Y-116513145D01*
X141529831Y-116365480D01*
X141636051Y-116236051D01*
X141765480Y-116129831D01*
X141913145Y-116050903D01*
X142073370Y-116002299D01*
X142198248Y-115990000D01*
X142281752Y-115990000D01*
X142406630Y-116002299D01*
X142406630Y-116002299D01*
G37*
G36*
X147486630Y-116002299D02*
G01*
X147646855Y-116050903D01*
X147794520Y-116129831D01*
X147923949Y-116236051D01*
X148030169Y-116365480D01*
X148109097Y-116513145D01*
X148157701Y-116673370D01*
X148174112Y-116840000D01*
X148157701Y-117006630D01*
X148109097Y-117166855D01*
X148030169Y-117314520D01*
X147923949Y-117443949D01*
X147794520Y-117550169D01*
X147646855Y-117629097D01*
X147486630Y-117677701D01*
X147361752Y-117690000D01*
X147278248Y-117690000D01*
X147153370Y-117677701D01*
X146993145Y-117629097D01*
X146845480Y-117550169D01*
X146716051Y-117443949D01*
X146609831Y-117314520D01*
X146530903Y-117166855D01*
X146482299Y-117006630D01*
X146465888Y-116840000D01*
X146482299Y-116673370D01*
X146530903Y-116513145D01*
X146609831Y-116365480D01*
X146716051Y-116236051D01*
X146845480Y-116129831D01*
X146993145Y-116050903D01*
X147153370Y-116002299D01*
X147278248Y-115990000D01*
X147361752Y-115990000D01*
X147486630Y-116002299D01*
X147486630Y-116002299D01*
G37*
G36*
X119546630Y-116002299D02*
G01*
X119706855Y-116050903D01*
X119854520Y-116129831D01*
X119983949Y-116236051D01*
X120090169Y-116365480D01*
X120169097Y-116513145D01*
X120217701Y-116673370D01*
X120234112Y-116840000D01*
X120217701Y-117006630D01*
X120169097Y-117166855D01*
X120090169Y-117314520D01*
X119983949Y-117443949D01*
X119854520Y-117550169D01*
X119706855Y-117629097D01*
X119546630Y-117677701D01*
X119421752Y-117690000D01*
X119338248Y-117690000D01*
X119213370Y-117677701D01*
X119053145Y-117629097D01*
X118905480Y-117550169D01*
X118776051Y-117443949D01*
X118669831Y-117314520D01*
X118590903Y-117166855D01*
X118542299Y-117006630D01*
X118525888Y-116840000D01*
X118542299Y-116673370D01*
X118590903Y-116513145D01*
X118669831Y-116365480D01*
X118776051Y-116236051D01*
X118905480Y-116129831D01*
X119053145Y-116050903D01*
X119213370Y-116002299D01*
X119338248Y-115990000D01*
X119421752Y-115990000D01*
X119546630Y-116002299D01*
X119546630Y-116002299D01*
G37*
G36*
X117006630Y-116002299D02*
G01*
X117166855Y-116050903D01*
X117314520Y-116129831D01*
X117443949Y-116236051D01*
X117550169Y-116365480D01*
X117629097Y-116513145D01*
X117677701Y-116673370D01*
X117694112Y-116840000D01*
X117677701Y-117006630D01*
X117629097Y-117166855D01*
X117550169Y-117314520D01*
X117443949Y-117443949D01*
X117314520Y-117550169D01*
X117166855Y-117629097D01*
X117006630Y-117677701D01*
X116881752Y-117690000D01*
X116798248Y-117690000D01*
X116673370Y-117677701D01*
X116513145Y-117629097D01*
X116365480Y-117550169D01*
X116236051Y-117443949D01*
X116129831Y-117314520D01*
X116050903Y-117166855D01*
X116002299Y-117006630D01*
X115985888Y-116840000D01*
X116002299Y-116673370D01*
X116050903Y-116513145D01*
X116129831Y-116365480D01*
X116236051Y-116236051D01*
X116365480Y-116129831D01*
X116513145Y-116050903D01*
X116673370Y-116002299D01*
X116798248Y-115990000D01*
X116881752Y-115990000D01*
X117006630Y-116002299D01*
X117006630Y-116002299D01*
G37*
G36*
X114466630Y-116002299D02*
G01*
X114626855Y-116050903D01*
X114774520Y-116129831D01*
X114903949Y-116236051D01*
X115010169Y-116365480D01*
X115089097Y-116513145D01*
X115137701Y-116673370D01*
X115154112Y-116840000D01*
X115137701Y-117006630D01*
X115089097Y-117166855D01*
X115010169Y-117314520D01*
X114903949Y-117443949D01*
X114774520Y-117550169D01*
X114626855Y-117629097D01*
X114466630Y-117677701D01*
X114341752Y-117690000D01*
X114258248Y-117690000D01*
X114133370Y-117677701D01*
X113973145Y-117629097D01*
X113825480Y-117550169D01*
X113696051Y-117443949D01*
X113589831Y-117314520D01*
X113510903Y-117166855D01*
X113462299Y-117006630D01*
X113445888Y-116840000D01*
X113462299Y-116673370D01*
X113510903Y-116513145D01*
X113589831Y-116365480D01*
X113696051Y-116236051D01*
X113825480Y-116129831D01*
X113973145Y-116050903D01*
X114133370Y-116002299D01*
X114258248Y-115990000D01*
X114341752Y-115990000D01*
X114466630Y-116002299D01*
X114466630Y-116002299D01*
G37*
G36*
X144946630Y-116002299D02*
G01*
X145106855Y-116050903D01*
X145254520Y-116129831D01*
X145383949Y-116236051D01*
X145490169Y-116365480D01*
X145569097Y-116513145D01*
X145617701Y-116673370D01*
X145634112Y-116840000D01*
X145617701Y-117006630D01*
X145569097Y-117166855D01*
X145490169Y-117314520D01*
X145383949Y-117443949D01*
X145254520Y-117550169D01*
X145106855Y-117629097D01*
X144946630Y-117677701D01*
X144821752Y-117690000D01*
X144738248Y-117690000D01*
X144613370Y-117677701D01*
X144453145Y-117629097D01*
X144305480Y-117550169D01*
X144176051Y-117443949D01*
X144069831Y-117314520D01*
X143990903Y-117166855D01*
X143942299Y-117006630D01*
X143925888Y-116840000D01*
X143942299Y-116673370D01*
X143990903Y-116513145D01*
X144069831Y-116365480D01*
X144176051Y-116236051D01*
X144305480Y-116129831D01*
X144453145Y-116050903D01*
X144613370Y-116002299D01*
X144738248Y-115990000D01*
X144821752Y-115990000D01*
X144946630Y-116002299D01*
X144946630Y-116002299D01*
G37*
G36*
X97370000Y-117690000D02*
G01*
X95670000Y-117690000D01*
X95670000Y-115990000D01*
X97370000Y-115990000D01*
X97370000Y-117690000D01*
X97370000Y-117690000D01*
G37*
G36*
X111926630Y-116002299D02*
G01*
X112086855Y-116050903D01*
X112234520Y-116129831D01*
X112363949Y-116236051D01*
X112470169Y-116365480D01*
X112549097Y-116513145D01*
X112597701Y-116673370D01*
X112614112Y-116840000D01*
X112597701Y-117006630D01*
X112549097Y-117166855D01*
X112470169Y-117314520D01*
X112363949Y-117443949D01*
X112234520Y-117550169D01*
X112086855Y-117629097D01*
X111926630Y-117677701D01*
X111801752Y-117690000D01*
X111718248Y-117690000D01*
X111593370Y-117677701D01*
X111433145Y-117629097D01*
X111285480Y-117550169D01*
X111156051Y-117443949D01*
X111049831Y-117314520D01*
X110970903Y-117166855D01*
X110922299Y-117006630D01*
X110905888Y-116840000D01*
X110922299Y-116673370D01*
X110970903Y-116513145D01*
X111049831Y-116365480D01*
X111156051Y-116236051D01*
X111285480Y-116129831D01*
X111433145Y-116050903D01*
X111593370Y-116002299D01*
X111718248Y-115990000D01*
X111801752Y-115990000D01*
X111926630Y-116002299D01*
X111926630Y-116002299D01*
G37*
G36*
X150026630Y-116002299D02*
G01*
X150186855Y-116050903D01*
X150334520Y-116129831D01*
X150463949Y-116236051D01*
X150570169Y-116365480D01*
X150649097Y-116513145D01*
X150697701Y-116673370D01*
X150714112Y-116840000D01*
X150697701Y-117006630D01*
X150649097Y-117166855D01*
X150570169Y-117314520D01*
X150463949Y-117443949D01*
X150334520Y-117550169D01*
X150186855Y-117629097D01*
X150026630Y-117677701D01*
X149901752Y-117690000D01*
X149818248Y-117690000D01*
X149693370Y-117677701D01*
X149533145Y-117629097D01*
X149385480Y-117550169D01*
X149256051Y-117443949D01*
X149149831Y-117314520D01*
X149070903Y-117166855D01*
X149022299Y-117006630D01*
X149005888Y-116840000D01*
X149022299Y-116673370D01*
X149070903Y-116513145D01*
X149149831Y-116365480D01*
X149256051Y-116236051D01*
X149385480Y-116129831D01*
X149533145Y-116050903D01*
X149693370Y-116002299D01*
X149818248Y-115990000D01*
X149901752Y-115990000D01*
X150026630Y-116002299D01*
X150026630Y-116002299D01*
G37*
G36*
X99226630Y-116002299D02*
G01*
X99386855Y-116050903D01*
X99534520Y-116129831D01*
X99663949Y-116236051D01*
X99770169Y-116365480D01*
X99849097Y-116513145D01*
X99897701Y-116673370D01*
X99914112Y-116840000D01*
X99897701Y-117006630D01*
X99849097Y-117166855D01*
X99770169Y-117314520D01*
X99663949Y-117443949D01*
X99534520Y-117550169D01*
X99386855Y-117629097D01*
X99226630Y-117677701D01*
X99101752Y-117690000D01*
X99018248Y-117690000D01*
X98893370Y-117677701D01*
X98733145Y-117629097D01*
X98585480Y-117550169D01*
X98456051Y-117443949D01*
X98349831Y-117314520D01*
X98270903Y-117166855D01*
X98222299Y-117006630D01*
X98205888Y-116840000D01*
X98222299Y-116673370D01*
X98270903Y-116513145D01*
X98349831Y-116365480D01*
X98456051Y-116236051D01*
X98585480Y-116129831D01*
X98733145Y-116050903D01*
X98893370Y-116002299D01*
X99018248Y-115990000D01*
X99101752Y-115990000D01*
X99226630Y-116002299D01*
X99226630Y-116002299D01*
G37*
G36*
X109386630Y-116002299D02*
G01*
X109546855Y-116050903D01*
X109694520Y-116129831D01*
X109823949Y-116236051D01*
X109930169Y-116365480D01*
X110009097Y-116513145D01*
X110057701Y-116673370D01*
X110074112Y-116840000D01*
X110057701Y-117006630D01*
X110009097Y-117166855D01*
X109930169Y-117314520D01*
X109823949Y-117443949D01*
X109694520Y-117550169D01*
X109546855Y-117629097D01*
X109386630Y-117677701D01*
X109261752Y-117690000D01*
X109178248Y-117690000D01*
X109053370Y-117677701D01*
X108893145Y-117629097D01*
X108745480Y-117550169D01*
X108616051Y-117443949D01*
X108509831Y-117314520D01*
X108430903Y-117166855D01*
X108382299Y-117006630D01*
X108365888Y-116840000D01*
X108382299Y-116673370D01*
X108430903Y-116513145D01*
X108509831Y-116365480D01*
X108616051Y-116236051D01*
X108745480Y-116129831D01*
X108893145Y-116050903D01*
X109053370Y-116002299D01*
X109178248Y-115990000D01*
X109261752Y-115990000D01*
X109386630Y-116002299D01*
X109386630Y-116002299D01*
G37*
G36*
X101766630Y-116002299D02*
G01*
X101926855Y-116050903D01*
X102074520Y-116129831D01*
X102203949Y-116236051D01*
X102310169Y-116365480D01*
X102389097Y-116513145D01*
X102437701Y-116673370D01*
X102454112Y-116840000D01*
X102437701Y-117006630D01*
X102389097Y-117166855D01*
X102310169Y-117314520D01*
X102203949Y-117443949D01*
X102074520Y-117550169D01*
X101926855Y-117629097D01*
X101766630Y-117677701D01*
X101641752Y-117690000D01*
X101558248Y-117690000D01*
X101433370Y-117677701D01*
X101273145Y-117629097D01*
X101125480Y-117550169D01*
X100996051Y-117443949D01*
X100889831Y-117314520D01*
X100810903Y-117166855D01*
X100762299Y-117006630D01*
X100745888Y-116840000D01*
X100762299Y-116673370D01*
X100810903Y-116513145D01*
X100889831Y-116365480D01*
X100996051Y-116236051D01*
X101125480Y-116129831D01*
X101273145Y-116050903D01*
X101433370Y-116002299D01*
X101558248Y-115990000D01*
X101641752Y-115990000D01*
X101766630Y-116002299D01*
X101766630Y-116002299D01*
G37*
G36*
X106846630Y-116002299D02*
G01*
X107006855Y-116050903D01*
X107154520Y-116129831D01*
X107283949Y-116236051D01*
X107390169Y-116365480D01*
X107469097Y-116513145D01*
X107517701Y-116673370D01*
X107534112Y-116840000D01*
X107517701Y-117006630D01*
X107469097Y-117166855D01*
X107390169Y-117314520D01*
X107283949Y-117443949D01*
X107154520Y-117550169D01*
X107006855Y-117629097D01*
X106846630Y-117677701D01*
X106721752Y-117690000D01*
X106638248Y-117690000D01*
X106513370Y-117677701D01*
X106353145Y-117629097D01*
X106205480Y-117550169D01*
X106076051Y-117443949D01*
X105969831Y-117314520D01*
X105890903Y-117166855D01*
X105842299Y-117006630D01*
X105825888Y-116840000D01*
X105842299Y-116673370D01*
X105890903Y-116513145D01*
X105969831Y-116365480D01*
X106076051Y-116236051D01*
X106205480Y-116129831D01*
X106353145Y-116050903D01*
X106513370Y-116002299D01*
X106638248Y-115990000D01*
X106721752Y-115990000D01*
X106846630Y-116002299D01*
X106846630Y-116002299D01*
G37*
G36*
X152566630Y-103302299D02*
G01*
X152726855Y-103350903D01*
X152874520Y-103429831D01*
X153003949Y-103536051D01*
X153110169Y-103665480D01*
X153189097Y-103813145D01*
X153237701Y-103973370D01*
X153254112Y-104140000D01*
X153237701Y-104306630D01*
X153189097Y-104466855D01*
X153110169Y-104614520D01*
X153003949Y-104743949D01*
X152874520Y-104850169D01*
X152726855Y-104929097D01*
X152566630Y-104977701D01*
X152441752Y-104990000D01*
X152358248Y-104990000D01*
X152233370Y-104977701D01*
X152073145Y-104929097D01*
X151925480Y-104850169D01*
X151796051Y-104743949D01*
X151689831Y-104614520D01*
X151610903Y-104466855D01*
X151562299Y-104306630D01*
X151545888Y-104140000D01*
X151562299Y-103973370D01*
X151610903Y-103813145D01*
X151689831Y-103665480D01*
X151796051Y-103536051D01*
X151925480Y-103429831D01*
X152073145Y-103350903D01*
X152233370Y-103302299D01*
X152358248Y-103290000D01*
X152441752Y-103290000D01*
X152566630Y-103302299D01*
X152566630Y-103302299D01*
G37*
G36*
X152566630Y-100762299D02*
G01*
X152726855Y-100810903D01*
X152874520Y-100889831D01*
X153003949Y-100996051D01*
X153110169Y-101125480D01*
X153189097Y-101273145D01*
X153237701Y-101433370D01*
X153254112Y-101600000D01*
X153237701Y-101766630D01*
X153189097Y-101926855D01*
X153110169Y-102074520D01*
X153003949Y-102203949D01*
X152874520Y-102310169D01*
X152726855Y-102389097D01*
X152566630Y-102437701D01*
X152441752Y-102450000D01*
X152358248Y-102450000D01*
X152233370Y-102437701D01*
X152073145Y-102389097D01*
X151925480Y-102310169D01*
X151796051Y-102203949D01*
X151689831Y-102074520D01*
X151610903Y-101926855D01*
X151562299Y-101766630D01*
X151545888Y-101600000D01*
X151562299Y-101433370D01*
X151610903Y-101273145D01*
X151689831Y-101125480D01*
X151796051Y-100996051D01*
X151925480Y-100889831D01*
X152073145Y-100810903D01*
X152233370Y-100762299D01*
X152358248Y-100750000D01*
X152441752Y-100750000D01*
X152566630Y-100762299D01*
X152566630Y-100762299D01*
G37*
G36*
X152566630Y-98222299D02*
G01*
X152726855Y-98270903D01*
X152874520Y-98349831D01*
X153003949Y-98456051D01*
X153110169Y-98585480D01*
X153189097Y-98733145D01*
X153237701Y-98893370D01*
X153254112Y-99060000D01*
X153237701Y-99226630D01*
X153189097Y-99386855D01*
X153110169Y-99534520D01*
X153003949Y-99663949D01*
X152874520Y-99770169D01*
X152726855Y-99849097D01*
X152566630Y-99897701D01*
X152441752Y-99910000D01*
X152358248Y-99910000D01*
X152233370Y-99897701D01*
X152073145Y-99849097D01*
X151925480Y-99770169D01*
X151796051Y-99663949D01*
X151689831Y-99534520D01*
X151610903Y-99386855D01*
X151562299Y-99226630D01*
X151545888Y-99060000D01*
X151562299Y-98893370D01*
X151610903Y-98733145D01*
X151689831Y-98585480D01*
X151796051Y-98456051D01*
X151925480Y-98349831D01*
X152073145Y-98270903D01*
X152233370Y-98222299D01*
X152358248Y-98210000D01*
X152441752Y-98210000D01*
X152566630Y-98222299D01*
X152566630Y-98222299D01*
G37*
G36*
X152566630Y-95682299D02*
G01*
X152726855Y-95730903D01*
X152874520Y-95809831D01*
X153003949Y-95916051D01*
X153110169Y-96045480D01*
X153189097Y-96193145D01*
X153237701Y-96353370D01*
X153254112Y-96520000D01*
X153237701Y-96686630D01*
X153189097Y-96846855D01*
X153110169Y-96994520D01*
X153003949Y-97123949D01*
X152874520Y-97230169D01*
X152726855Y-97309097D01*
X152566630Y-97357701D01*
X152441752Y-97370000D01*
X152358248Y-97370000D01*
X152233370Y-97357701D01*
X152073145Y-97309097D01*
X151925480Y-97230169D01*
X151796051Y-97123949D01*
X151689831Y-96994520D01*
X151610903Y-96846855D01*
X151562299Y-96686630D01*
X151545888Y-96520000D01*
X151562299Y-96353370D01*
X151610903Y-96193145D01*
X151689831Y-96045480D01*
X151796051Y-95916051D01*
X151925480Y-95809831D01*
X152073145Y-95730903D01*
X152233370Y-95682299D01*
X152358248Y-95670000D01*
X152441752Y-95670000D01*
X152566630Y-95682299D01*
X152566630Y-95682299D01*
G37*
G36*
X152566630Y-93142299D02*
G01*
X152726855Y-93190903D01*
X152874520Y-93269831D01*
X153003949Y-93376051D01*
X153110169Y-93505480D01*
X153189097Y-93653145D01*
X153237701Y-93813370D01*
X153254112Y-93980000D01*
X153237701Y-94146630D01*
X153189097Y-94306855D01*
X153110169Y-94454520D01*
X153003949Y-94583949D01*
X152874520Y-94690169D01*
X152726855Y-94769097D01*
X152566630Y-94817701D01*
X152441752Y-94830000D01*
X152358248Y-94830000D01*
X152233370Y-94817701D01*
X152073145Y-94769097D01*
X151925480Y-94690169D01*
X151796051Y-94583949D01*
X151689831Y-94454520D01*
X151610903Y-94306855D01*
X151562299Y-94146630D01*
X151545888Y-93980000D01*
X151562299Y-93813370D01*
X151610903Y-93653145D01*
X151689831Y-93505480D01*
X151796051Y-93376051D01*
X151925480Y-93269831D01*
X152073145Y-93190903D01*
X152233370Y-93142299D01*
X152358248Y-93130000D01*
X152441752Y-93130000D01*
X152566630Y-93142299D01*
X152566630Y-93142299D01*
G37*
G36*
X153250000Y-92290000D02*
G01*
X151550000Y-92290000D01*
X151550000Y-90590000D01*
X153250000Y-90590000D01*
X153250000Y-92290000D01*
X153250000Y-92290000D01*
G37*
G36*
X114466630Y-85522299D02*
G01*
X114626855Y-85570903D01*
X114774520Y-85649831D01*
X114903949Y-85756051D01*
X115010169Y-85885480D01*
X115089097Y-86033145D01*
X115137701Y-86193370D01*
X115154112Y-86360000D01*
X115137701Y-86526630D01*
X115089097Y-86686855D01*
X115010169Y-86834520D01*
X114903949Y-86963949D01*
X114774520Y-87070169D01*
X114626855Y-87149097D01*
X114466630Y-87197701D01*
X114341752Y-87210000D01*
X114258248Y-87210000D01*
X114133370Y-87197701D01*
X113973145Y-87149097D01*
X113825480Y-87070169D01*
X113696051Y-86963949D01*
X113589831Y-86834520D01*
X113510903Y-86686855D01*
X113462299Y-86526630D01*
X113445888Y-86360000D01*
X113462299Y-86193370D01*
X113510903Y-86033145D01*
X113589831Y-85885480D01*
X113696051Y-85756051D01*
X113825480Y-85649831D01*
X113973145Y-85570903D01*
X114133370Y-85522299D01*
X114258248Y-85510000D01*
X114341752Y-85510000D01*
X114466630Y-85522299D01*
X114466630Y-85522299D01*
G37*
G36*
X94146630Y-85522299D02*
G01*
X94306855Y-85570903D01*
X94454520Y-85649831D01*
X94583949Y-85756051D01*
X94690169Y-85885480D01*
X94769097Y-86033145D01*
X94817701Y-86193370D01*
X94834112Y-86360000D01*
X94817701Y-86526630D01*
X94769097Y-86686855D01*
X94690169Y-86834520D01*
X94583949Y-86963949D01*
X94454520Y-87070169D01*
X94306855Y-87149097D01*
X94146630Y-87197701D01*
X94021752Y-87210000D01*
X93938248Y-87210000D01*
X93813370Y-87197701D01*
X93653145Y-87149097D01*
X93505480Y-87070169D01*
X93376051Y-86963949D01*
X93269831Y-86834520D01*
X93190903Y-86686855D01*
X93142299Y-86526630D01*
X93125888Y-86360000D01*
X93142299Y-86193370D01*
X93190903Y-86033145D01*
X93269831Y-85885480D01*
X93376051Y-85756051D01*
X93505480Y-85649831D01*
X93653145Y-85570903D01*
X93813370Y-85522299D01*
X93938248Y-85510000D01*
X94021752Y-85510000D01*
X94146630Y-85522299D01*
X94146630Y-85522299D01*
G37*
G36*
X96686630Y-85522299D02*
G01*
X96846855Y-85570903D01*
X96994520Y-85649831D01*
X97123949Y-85756051D01*
X97230169Y-85885480D01*
X97309097Y-86033145D01*
X97357701Y-86193370D01*
X97374112Y-86360000D01*
X97357701Y-86526630D01*
X97309097Y-86686855D01*
X97230169Y-86834520D01*
X97123949Y-86963949D01*
X96994520Y-87070169D01*
X96846855Y-87149097D01*
X96686630Y-87197701D01*
X96561752Y-87210000D01*
X96478248Y-87210000D01*
X96353370Y-87197701D01*
X96193145Y-87149097D01*
X96045480Y-87070169D01*
X95916051Y-86963949D01*
X95809831Y-86834520D01*
X95730903Y-86686855D01*
X95682299Y-86526630D01*
X95665888Y-86360000D01*
X95682299Y-86193370D01*
X95730903Y-86033145D01*
X95809831Y-85885480D01*
X95916051Y-85756051D01*
X96045480Y-85649831D01*
X96193145Y-85570903D01*
X96353370Y-85522299D01*
X96478248Y-85510000D01*
X96561752Y-85510000D01*
X96686630Y-85522299D01*
X96686630Y-85522299D01*
G37*
G36*
X99226630Y-85522299D02*
G01*
X99386855Y-85570903D01*
X99534520Y-85649831D01*
X99663949Y-85756051D01*
X99770169Y-85885480D01*
X99849097Y-86033145D01*
X99897701Y-86193370D01*
X99914112Y-86360000D01*
X99897701Y-86526630D01*
X99849097Y-86686855D01*
X99770169Y-86834520D01*
X99663949Y-86963949D01*
X99534520Y-87070169D01*
X99386855Y-87149097D01*
X99226630Y-87197701D01*
X99101752Y-87210000D01*
X99018248Y-87210000D01*
X98893370Y-87197701D01*
X98733145Y-87149097D01*
X98585480Y-87070169D01*
X98456051Y-86963949D01*
X98349831Y-86834520D01*
X98270903Y-86686855D01*
X98222299Y-86526630D01*
X98205888Y-86360000D01*
X98222299Y-86193370D01*
X98270903Y-86033145D01*
X98349831Y-85885480D01*
X98456051Y-85756051D01*
X98585480Y-85649831D01*
X98733145Y-85570903D01*
X98893370Y-85522299D01*
X99018248Y-85510000D01*
X99101752Y-85510000D01*
X99226630Y-85522299D01*
X99226630Y-85522299D01*
G37*
G36*
X104306630Y-85522299D02*
G01*
X104466855Y-85570903D01*
X104614520Y-85649831D01*
X104743949Y-85756051D01*
X104850169Y-85885480D01*
X104929097Y-86033145D01*
X104977701Y-86193370D01*
X104994112Y-86360000D01*
X104977701Y-86526630D01*
X104929097Y-86686855D01*
X104850169Y-86834520D01*
X104743949Y-86963949D01*
X104614520Y-87070169D01*
X104466855Y-87149097D01*
X104306630Y-87197701D01*
X104181752Y-87210000D01*
X104098248Y-87210000D01*
X103973370Y-87197701D01*
X103813145Y-87149097D01*
X103665480Y-87070169D01*
X103536051Y-86963949D01*
X103429831Y-86834520D01*
X103350903Y-86686855D01*
X103302299Y-86526630D01*
X103285888Y-86360000D01*
X103302299Y-86193370D01*
X103350903Y-86033145D01*
X103429831Y-85885480D01*
X103536051Y-85756051D01*
X103665480Y-85649831D01*
X103813145Y-85570903D01*
X103973370Y-85522299D01*
X104098248Y-85510000D01*
X104181752Y-85510000D01*
X104306630Y-85522299D01*
X104306630Y-85522299D01*
G37*
G36*
X101766630Y-85522299D02*
G01*
X101926855Y-85570903D01*
X102074520Y-85649831D01*
X102203949Y-85756051D01*
X102310169Y-85885480D01*
X102389097Y-86033145D01*
X102437701Y-86193370D01*
X102454112Y-86360000D01*
X102437701Y-86526630D01*
X102389097Y-86686855D01*
X102310169Y-86834520D01*
X102203949Y-86963949D01*
X102074520Y-87070169D01*
X101926855Y-87149097D01*
X101766630Y-87197701D01*
X101641752Y-87210000D01*
X101558248Y-87210000D01*
X101433370Y-87197701D01*
X101273145Y-87149097D01*
X101125480Y-87070169D01*
X100996051Y-86963949D01*
X100889831Y-86834520D01*
X100810903Y-86686855D01*
X100762299Y-86526630D01*
X100745888Y-86360000D01*
X100762299Y-86193370D01*
X100810903Y-86033145D01*
X100889831Y-85885480D01*
X100996051Y-85756051D01*
X101125480Y-85649831D01*
X101273145Y-85570903D01*
X101433370Y-85522299D01*
X101558248Y-85510000D01*
X101641752Y-85510000D01*
X101766630Y-85522299D01*
X101766630Y-85522299D01*
G37*
G36*
X124626630Y-85522299D02*
G01*
X124786855Y-85570903D01*
X124934520Y-85649831D01*
X125063949Y-85756051D01*
X125170169Y-85885480D01*
X125249097Y-86033145D01*
X125297701Y-86193370D01*
X125314112Y-86360000D01*
X125297701Y-86526630D01*
X125249097Y-86686855D01*
X125170169Y-86834520D01*
X125063949Y-86963949D01*
X124934520Y-87070169D01*
X124786855Y-87149097D01*
X124626630Y-87197701D01*
X124501752Y-87210000D01*
X124418248Y-87210000D01*
X124293370Y-87197701D01*
X124133145Y-87149097D01*
X123985480Y-87070169D01*
X123856051Y-86963949D01*
X123749831Y-86834520D01*
X123670903Y-86686855D01*
X123622299Y-86526630D01*
X123605888Y-86360000D01*
X123622299Y-86193370D01*
X123670903Y-86033145D01*
X123749831Y-85885480D01*
X123856051Y-85756051D01*
X123985480Y-85649831D01*
X124133145Y-85570903D01*
X124293370Y-85522299D01*
X124418248Y-85510000D01*
X124501752Y-85510000D01*
X124626630Y-85522299D01*
X124626630Y-85522299D01*
G37*
G36*
X122086630Y-85522299D02*
G01*
X122246855Y-85570903D01*
X122394520Y-85649831D01*
X122523949Y-85756051D01*
X122630169Y-85885480D01*
X122709097Y-86033145D01*
X122757701Y-86193370D01*
X122774112Y-86360000D01*
X122757701Y-86526630D01*
X122709097Y-86686855D01*
X122630169Y-86834520D01*
X122523949Y-86963949D01*
X122394520Y-87070169D01*
X122246855Y-87149097D01*
X122086630Y-87197701D01*
X121961752Y-87210000D01*
X121878248Y-87210000D01*
X121753370Y-87197701D01*
X121593145Y-87149097D01*
X121445480Y-87070169D01*
X121316051Y-86963949D01*
X121209831Y-86834520D01*
X121130903Y-86686855D01*
X121082299Y-86526630D01*
X121065888Y-86360000D01*
X121082299Y-86193370D01*
X121130903Y-86033145D01*
X121209831Y-85885480D01*
X121316051Y-85756051D01*
X121445480Y-85649831D01*
X121593145Y-85570903D01*
X121753370Y-85522299D01*
X121878248Y-85510000D01*
X121961752Y-85510000D01*
X122086630Y-85522299D01*
X122086630Y-85522299D01*
G37*
G36*
X119546630Y-85522299D02*
G01*
X119706855Y-85570903D01*
X119854520Y-85649831D01*
X119983949Y-85756051D01*
X120090169Y-85885480D01*
X120169097Y-86033145D01*
X120217701Y-86193370D01*
X120234112Y-86360000D01*
X120217701Y-86526630D01*
X120169097Y-86686855D01*
X120090169Y-86834520D01*
X119983949Y-86963949D01*
X119854520Y-87070169D01*
X119706855Y-87149097D01*
X119546630Y-87197701D01*
X119421752Y-87210000D01*
X119338248Y-87210000D01*
X119213370Y-87197701D01*
X119053145Y-87149097D01*
X118905480Y-87070169D01*
X118776051Y-86963949D01*
X118669831Y-86834520D01*
X118590903Y-86686855D01*
X118542299Y-86526630D01*
X118525888Y-86360000D01*
X118542299Y-86193370D01*
X118590903Y-86033145D01*
X118669831Y-85885480D01*
X118776051Y-85756051D01*
X118905480Y-85649831D01*
X119053145Y-85570903D01*
X119213370Y-85522299D01*
X119338248Y-85510000D01*
X119421752Y-85510000D01*
X119546630Y-85522299D01*
X119546630Y-85522299D01*
G37*
G36*
X117006630Y-85522299D02*
G01*
X117166855Y-85570903D01*
X117314520Y-85649831D01*
X117443949Y-85756051D01*
X117550169Y-85885480D01*
X117629097Y-86033145D01*
X117677701Y-86193370D01*
X117694112Y-86360000D01*
X117677701Y-86526630D01*
X117629097Y-86686855D01*
X117550169Y-86834520D01*
X117443949Y-86963949D01*
X117314520Y-87070169D01*
X117166855Y-87149097D01*
X117006630Y-87197701D01*
X116881752Y-87210000D01*
X116798248Y-87210000D01*
X116673370Y-87197701D01*
X116513145Y-87149097D01*
X116365480Y-87070169D01*
X116236051Y-86963949D01*
X116129831Y-86834520D01*
X116050903Y-86686855D01*
X116002299Y-86526630D01*
X115985888Y-86360000D01*
X116002299Y-86193370D01*
X116050903Y-86033145D01*
X116129831Y-85885480D01*
X116236051Y-85756051D01*
X116365480Y-85649831D01*
X116513145Y-85570903D01*
X116673370Y-85522299D01*
X116798248Y-85510000D01*
X116881752Y-85510000D01*
X117006630Y-85522299D01*
X117006630Y-85522299D01*
G37*
G36*
X129706630Y-85522299D02*
G01*
X129866855Y-85570903D01*
X130014520Y-85649831D01*
X130143949Y-85756051D01*
X130250169Y-85885480D01*
X130329097Y-86033145D01*
X130377701Y-86193370D01*
X130394112Y-86360000D01*
X130377701Y-86526630D01*
X130329097Y-86686855D01*
X130250169Y-86834520D01*
X130143949Y-86963949D01*
X130014520Y-87070169D01*
X129866855Y-87149097D01*
X129706630Y-87197701D01*
X129581752Y-87210000D01*
X129498248Y-87210000D01*
X129373370Y-87197701D01*
X129213145Y-87149097D01*
X129065480Y-87070169D01*
X128936051Y-86963949D01*
X128829831Y-86834520D01*
X128750903Y-86686855D01*
X128702299Y-86526630D01*
X128685888Y-86360000D01*
X128702299Y-86193370D01*
X128750903Y-86033145D01*
X128829831Y-85885480D01*
X128936051Y-85756051D01*
X129065480Y-85649831D01*
X129213145Y-85570903D01*
X129373370Y-85522299D01*
X129498248Y-85510000D01*
X129581752Y-85510000D01*
X129706630Y-85522299D01*
X129706630Y-85522299D01*
G37*
G36*
X132246630Y-85522299D02*
G01*
X132406855Y-85570903D01*
X132554520Y-85649831D01*
X132683949Y-85756051D01*
X132790169Y-85885480D01*
X132869097Y-86033145D01*
X132917701Y-86193370D01*
X132934112Y-86360000D01*
X132917701Y-86526630D01*
X132869097Y-86686855D01*
X132790169Y-86834520D01*
X132683949Y-86963949D01*
X132554520Y-87070169D01*
X132406855Y-87149097D01*
X132246630Y-87197701D01*
X132121752Y-87210000D01*
X132038248Y-87210000D01*
X131913370Y-87197701D01*
X131753145Y-87149097D01*
X131605480Y-87070169D01*
X131476051Y-86963949D01*
X131369831Y-86834520D01*
X131290903Y-86686855D01*
X131242299Y-86526630D01*
X131225888Y-86360000D01*
X131242299Y-86193370D01*
X131290903Y-86033145D01*
X131369831Y-85885480D01*
X131476051Y-85756051D01*
X131605480Y-85649831D01*
X131753145Y-85570903D01*
X131913370Y-85522299D01*
X132038248Y-85510000D01*
X132121752Y-85510000D01*
X132246630Y-85522299D01*
X132246630Y-85522299D01*
G37*
G36*
X137326630Y-85522299D02*
G01*
X137486855Y-85570903D01*
X137634520Y-85649831D01*
X137763949Y-85756051D01*
X137870169Y-85885480D01*
X137949097Y-86033145D01*
X137997701Y-86193370D01*
X138014112Y-86360000D01*
X137997701Y-86526630D01*
X137949097Y-86686855D01*
X137870169Y-86834520D01*
X137763949Y-86963949D01*
X137634520Y-87070169D01*
X137486855Y-87149097D01*
X137326630Y-87197701D01*
X137201752Y-87210000D01*
X137118248Y-87210000D01*
X136993370Y-87197701D01*
X136833145Y-87149097D01*
X136685480Y-87070169D01*
X136556051Y-86963949D01*
X136449831Y-86834520D01*
X136370903Y-86686855D01*
X136322299Y-86526630D01*
X136305888Y-86360000D01*
X136322299Y-86193370D01*
X136370903Y-86033145D01*
X136449831Y-85885480D01*
X136556051Y-85756051D01*
X136685480Y-85649831D01*
X136833145Y-85570903D01*
X136993370Y-85522299D01*
X137118248Y-85510000D01*
X137201752Y-85510000D01*
X137326630Y-85522299D01*
X137326630Y-85522299D01*
G37*
G36*
X134786630Y-85522299D02*
G01*
X134946855Y-85570903D01*
X135094520Y-85649831D01*
X135223949Y-85756051D01*
X135330169Y-85885480D01*
X135409097Y-86033145D01*
X135457701Y-86193370D01*
X135474112Y-86360000D01*
X135457701Y-86526630D01*
X135409097Y-86686855D01*
X135330169Y-86834520D01*
X135223949Y-86963949D01*
X135094520Y-87070169D01*
X134946855Y-87149097D01*
X134786630Y-87197701D01*
X134661752Y-87210000D01*
X134578248Y-87210000D01*
X134453370Y-87197701D01*
X134293145Y-87149097D01*
X134145480Y-87070169D01*
X134016051Y-86963949D01*
X133909831Y-86834520D01*
X133830903Y-86686855D01*
X133782299Y-86526630D01*
X133765888Y-86360000D01*
X133782299Y-86193370D01*
X133830903Y-86033145D01*
X133909831Y-85885480D01*
X134016051Y-85756051D01*
X134145480Y-85649831D01*
X134293145Y-85570903D01*
X134453370Y-85522299D01*
X134578248Y-85510000D01*
X134661752Y-85510000D01*
X134786630Y-85522299D01*
X134786630Y-85522299D01*
G37*
G36*
X127166630Y-85522299D02*
G01*
X127326855Y-85570903D01*
X127474520Y-85649831D01*
X127603949Y-85756051D01*
X127710169Y-85885480D01*
X127789097Y-86033145D01*
X127837701Y-86193370D01*
X127854112Y-86360000D01*
X127837701Y-86526630D01*
X127789097Y-86686855D01*
X127710169Y-86834520D01*
X127603949Y-86963949D01*
X127474520Y-87070169D01*
X127326855Y-87149097D01*
X127166630Y-87197701D01*
X127041752Y-87210000D01*
X126958248Y-87210000D01*
X126833370Y-87197701D01*
X126673145Y-87149097D01*
X126525480Y-87070169D01*
X126396051Y-86963949D01*
X126289831Y-86834520D01*
X126210903Y-86686855D01*
X126162299Y-86526630D01*
X126145888Y-86360000D01*
X126162299Y-86193370D01*
X126210903Y-86033145D01*
X126289831Y-85885480D01*
X126396051Y-85756051D01*
X126525480Y-85649831D01*
X126673145Y-85570903D01*
X126833370Y-85522299D01*
X126958248Y-85510000D01*
X127041752Y-85510000D01*
X127166630Y-85522299D01*
X127166630Y-85522299D01*
G37*
G36*
X111926630Y-85522299D02*
G01*
X112086855Y-85570903D01*
X112234520Y-85649831D01*
X112363949Y-85756051D01*
X112470169Y-85885480D01*
X112549097Y-86033145D01*
X112597701Y-86193370D01*
X112614112Y-86360000D01*
X112597701Y-86526630D01*
X112549097Y-86686855D01*
X112470169Y-86834520D01*
X112363949Y-86963949D01*
X112234520Y-87070169D01*
X112086855Y-87149097D01*
X111926630Y-87197701D01*
X111801752Y-87210000D01*
X111718248Y-87210000D01*
X111593370Y-87197701D01*
X111433145Y-87149097D01*
X111285480Y-87070169D01*
X111156051Y-86963949D01*
X111049831Y-86834520D01*
X110970903Y-86686855D01*
X110922299Y-86526630D01*
X110905888Y-86360000D01*
X110922299Y-86193370D01*
X110970903Y-86033145D01*
X111049831Y-85885480D01*
X111156051Y-85756051D01*
X111285480Y-85649831D01*
X111433145Y-85570903D01*
X111593370Y-85522299D01*
X111718248Y-85510000D01*
X111801752Y-85510000D01*
X111926630Y-85522299D01*
X111926630Y-85522299D01*
G37*
G36*
X109386630Y-85522299D02*
G01*
X109546855Y-85570903D01*
X109694520Y-85649831D01*
X109823949Y-85756051D01*
X109930169Y-85885480D01*
X110009097Y-86033145D01*
X110057701Y-86193370D01*
X110074112Y-86360000D01*
X110057701Y-86526630D01*
X110009097Y-86686855D01*
X109930169Y-86834520D01*
X109823949Y-86963949D01*
X109694520Y-87070169D01*
X109546855Y-87149097D01*
X109386630Y-87197701D01*
X109261752Y-87210000D01*
X109178248Y-87210000D01*
X109053370Y-87197701D01*
X108893145Y-87149097D01*
X108745480Y-87070169D01*
X108616051Y-86963949D01*
X108509831Y-86834520D01*
X108430903Y-86686855D01*
X108382299Y-86526630D01*
X108365888Y-86360000D01*
X108382299Y-86193370D01*
X108430903Y-86033145D01*
X108509831Y-85885480D01*
X108616051Y-85756051D01*
X108745480Y-85649831D01*
X108893145Y-85570903D01*
X109053370Y-85522299D01*
X109178248Y-85510000D01*
X109261752Y-85510000D01*
X109386630Y-85522299D01*
X109386630Y-85522299D01*
G37*
G36*
X106846630Y-85522299D02*
G01*
X107006855Y-85570903D01*
X107154520Y-85649831D01*
X107283949Y-85756051D01*
X107390169Y-85885480D01*
X107469097Y-86033145D01*
X107517701Y-86193370D01*
X107534112Y-86360000D01*
X107517701Y-86526630D01*
X107469097Y-86686855D01*
X107390169Y-86834520D01*
X107283949Y-86963949D01*
X107154520Y-87070169D01*
X107006855Y-87149097D01*
X106846630Y-87197701D01*
X106721752Y-87210000D01*
X106638248Y-87210000D01*
X106513370Y-87197701D01*
X106353145Y-87149097D01*
X106205480Y-87070169D01*
X106076051Y-86963949D01*
X105969831Y-86834520D01*
X105890903Y-86686855D01*
X105842299Y-86526630D01*
X105825888Y-86360000D01*
X105842299Y-86193370D01*
X105890903Y-86033145D01*
X105969831Y-85885480D01*
X106076051Y-85756051D01*
X106205480Y-85649831D01*
X106353145Y-85570903D01*
X106513370Y-85522299D01*
X106638248Y-85510000D01*
X106721752Y-85510000D01*
X106846630Y-85522299D01*
X106846630Y-85522299D01*
G37*
G36*
X150026630Y-85522299D02*
G01*
X150186855Y-85570903D01*
X150334520Y-85649831D01*
X150463949Y-85756051D01*
X150570169Y-85885480D01*
X150649097Y-86033145D01*
X150697701Y-86193370D01*
X150714112Y-86360000D01*
X150697701Y-86526630D01*
X150649097Y-86686855D01*
X150570169Y-86834520D01*
X150463949Y-86963949D01*
X150334520Y-87070169D01*
X150186855Y-87149097D01*
X150026630Y-87197701D01*
X149901752Y-87210000D01*
X149818248Y-87210000D01*
X149693370Y-87197701D01*
X149533145Y-87149097D01*
X149385480Y-87070169D01*
X149256051Y-86963949D01*
X149149831Y-86834520D01*
X149070903Y-86686855D01*
X149022299Y-86526630D01*
X149005888Y-86360000D01*
X149022299Y-86193370D01*
X149070903Y-86033145D01*
X149149831Y-85885480D01*
X149256051Y-85756051D01*
X149385480Y-85649831D01*
X149533145Y-85570903D01*
X149693370Y-85522299D01*
X149818248Y-85510000D01*
X149901752Y-85510000D01*
X150026630Y-85522299D01*
X150026630Y-85522299D01*
G37*
G36*
X147486630Y-85522299D02*
G01*
X147646855Y-85570903D01*
X147794520Y-85649831D01*
X147923949Y-85756051D01*
X148030169Y-85885480D01*
X148109097Y-86033145D01*
X148157701Y-86193370D01*
X148174112Y-86360000D01*
X148157701Y-86526630D01*
X148109097Y-86686855D01*
X148030169Y-86834520D01*
X147923949Y-86963949D01*
X147794520Y-87070169D01*
X147646855Y-87149097D01*
X147486630Y-87197701D01*
X147361752Y-87210000D01*
X147278248Y-87210000D01*
X147153370Y-87197701D01*
X146993145Y-87149097D01*
X146845480Y-87070169D01*
X146716051Y-86963949D01*
X146609831Y-86834520D01*
X146530903Y-86686855D01*
X146482299Y-86526630D01*
X146465888Y-86360000D01*
X146482299Y-86193370D01*
X146530903Y-86033145D01*
X146609831Y-85885480D01*
X146716051Y-85756051D01*
X146845480Y-85649831D01*
X146993145Y-85570903D01*
X147153370Y-85522299D01*
X147278248Y-85510000D01*
X147361752Y-85510000D01*
X147486630Y-85522299D01*
X147486630Y-85522299D01*
G37*
G36*
X144946630Y-85522299D02*
G01*
X145106855Y-85570903D01*
X145254520Y-85649831D01*
X145383949Y-85756051D01*
X145490169Y-85885480D01*
X145569097Y-86033145D01*
X145617701Y-86193370D01*
X145634112Y-86360000D01*
X145617701Y-86526630D01*
X145569097Y-86686855D01*
X145490169Y-86834520D01*
X145383949Y-86963949D01*
X145254520Y-87070169D01*
X145106855Y-87149097D01*
X144946630Y-87197701D01*
X144821752Y-87210000D01*
X144738248Y-87210000D01*
X144613370Y-87197701D01*
X144453145Y-87149097D01*
X144305480Y-87070169D01*
X144176051Y-86963949D01*
X144069831Y-86834520D01*
X143990903Y-86686855D01*
X143942299Y-86526630D01*
X143925888Y-86360000D01*
X143942299Y-86193370D01*
X143990903Y-86033145D01*
X144069831Y-85885480D01*
X144176051Y-85756051D01*
X144305480Y-85649831D01*
X144453145Y-85570903D01*
X144613370Y-85522299D01*
X144738248Y-85510000D01*
X144821752Y-85510000D01*
X144946630Y-85522299D01*
X144946630Y-85522299D01*
G37*
G36*
X142406630Y-85522299D02*
G01*
X142566855Y-85570903D01*
X142714520Y-85649831D01*
X142843949Y-85756051D01*
X142950169Y-85885480D01*
X143029097Y-86033145D01*
X143077701Y-86193370D01*
X143094112Y-86360000D01*
X143077701Y-86526630D01*
X143029097Y-86686855D01*
X142950169Y-86834520D01*
X142843949Y-86963949D01*
X142714520Y-87070169D01*
X142566855Y-87149097D01*
X142406630Y-87197701D01*
X142281752Y-87210000D01*
X142198248Y-87210000D01*
X142073370Y-87197701D01*
X141913145Y-87149097D01*
X141765480Y-87070169D01*
X141636051Y-86963949D01*
X141529831Y-86834520D01*
X141450903Y-86686855D01*
X141402299Y-86526630D01*
X141385888Y-86360000D01*
X141402299Y-86193370D01*
X141450903Y-86033145D01*
X141529831Y-85885480D01*
X141636051Y-85756051D01*
X141765480Y-85649831D01*
X141913145Y-85570903D01*
X142073370Y-85522299D01*
X142198248Y-85510000D01*
X142281752Y-85510000D01*
X142406630Y-85522299D01*
X142406630Y-85522299D01*
G37*
G36*
X139866630Y-85522299D02*
G01*
X140026855Y-85570903D01*
X140174520Y-85649831D01*
X140303949Y-85756051D01*
X140410169Y-85885480D01*
X140489097Y-86033145D01*
X140537701Y-86193370D01*
X140554112Y-86360000D01*
X140537701Y-86526630D01*
X140489097Y-86686855D01*
X140410169Y-86834520D01*
X140303949Y-86963949D01*
X140174520Y-87070169D01*
X140026855Y-87149097D01*
X139866630Y-87197701D01*
X139741752Y-87210000D01*
X139658248Y-87210000D01*
X139533370Y-87197701D01*
X139373145Y-87149097D01*
X139225480Y-87070169D01*
X139096051Y-86963949D01*
X138989831Y-86834520D01*
X138910903Y-86686855D01*
X138862299Y-86526630D01*
X138845888Y-86360000D01*
X138862299Y-86193370D01*
X138910903Y-86033145D01*
X138989831Y-85885480D01*
X139096051Y-85756051D01*
X139225480Y-85649831D01*
X139373145Y-85570903D01*
X139533370Y-85522299D01*
X139658248Y-85510000D01*
X139741752Y-85510000D01*
X139866630Y-85522299D01*
X139866630Y-85522299D01*
G37*
G36*
X94830000Y-84670000D02*
G01*
X93130000Y-84670000D01*
X93130000Y-82970000D01*
X94830000Y-82970000D01*
X94830000Y-84670000D01*
X94830000Y-84670000D01*
G37*
G36*
X96686630Y-82982299D02*
G01*
X96846855Y-83030903D01*
X96994520Y-83109831D01*
X97123949Y-83216051D01*
X97230169Y-83345480D01*
X97309097Y-83493145D01*
X97357701Y-83653370D01*
X97374112Y-83820000D01*
X97357701Y-83986630D01*
X97309097Y-84146855D01*
X97230169Y-84294520D01*
X97123949Y-84423949D01*
X96994520Y-84530169D01*
X96846855Y-84609097D01*
X96686630Y-84657701D01*
X96561752Y-84670000D01*
X96478248Y-84670000D01*
X96353370Y-84657701D01*
X96193145Y-84609097D01*
X96045480Y-84530169D01*
X95916051Y-84423949D01*
X95809831Y-84294520D01*
X95730903Y-84146855D01*
X95682299Y-83986630D01*
X95665888Y-83820000D01*
X95682299Y-83653370D01*
X95730903Y-83493145D01*
X95809831Y-83345480D01*
X95916051Y-83216051D01*
X96045480Y-83109831D01*
X96193145Y-83030903D01*
X96353370Y-82982299D01*
X96478248Y-82970000D01*
X96561752Y-82970000D01*
X96686630Y-82982299D01*
X96686630Y-82982299D01*
G37*
G36*
X150026630Y-82982299D02*
G01*
X150186855Y-83030903D01*
X150334520Y-83109831D01*
X150463949Y-83216051D01*
X150570169Y-83345480D01*
X150649097Y-83493145D01*
X150697701Y-83653370D01*
X150714112Y-83820000D01*
X150697701Y-83986630D01*
X150649097Y-84146855D01*
X150570169Y-84294520D01*
X150463949Y-84423949D01*
X150334520Y-84530169D01*
X150186855Y-84609097D01*
X150026630Y-84657701D01*
X149901752Y-84670000D01*
X149818248Y-84670000D01*
X149693370Y-84657701D01*
X149533145Y-84609097D01*
X149385480Y-84530169D01*
X149256051Y-84423949D01*
X149149831Y-84294520D01*
X149070903Y-84146855D01*
X149022299Y-83986630D01*
X149005888Y-83820000D01*
X149022299Y-83653370D01*
X149070903Y-83493145D01*
X149149831Y-83345480D01*
X149256051Y-83216051D01*
X149385480Y-83109831D01*
X149533145Y-83030903D01*
X149693370Y-82982299D01*
X149818248Y-82970000D01*
X149901752Y-82970000D01*
X150026630Y-82982299D01*
X150026630Y-82982299D01*
G37*
G36*
X147486630Y-82982299D02*
G01*
X147646855Y-83030903D01*
X147794520Y-83109831D01*
X147923949Y-83216051D01*
X148030169Y-83345480D01*
X148109097Y-83493145D01*
X148157701Y-83653370D01*
X148174112Y-83820000D01*
X148157701Y-83986630D01*
X148109097Y-84146855D01*
X148030169Y-84294520D01*
X147923949Y-84423949D01*
X147794520Y-84530169D01*
X147646855Y-84609097D01*
X147486630Y-84657701D01*
X147361752Y-84670000D01*
X147278248Y-84670000D01*
X147153370Y-84657701D01*
X146993145Y-84609097D01*
X146845480Y-84530169D01*
X146716051Y-84423949D01*
X146609831Y-84294520D01*
X146530903Y-84146855D01*
X146482299Y-83986630D01*
X146465888Y-83820000D01*
X146482299Y-83653370D01*
X146530903Y-83493145D01*
X146609831Y-83345480D01*
X146716051Y-83216051D01*
X146845480Y-83109831D01*
X146993145Y-83030903D01*
X147153370Y-82982299D01*
X147278248Y-82970000D01*
X147361752Y-82970000D01*
X147486630Y-82982299D01*
X147486630Y-82982299D01*
G37*
G36*
X144946630Y-82982299D02*
G01*
X145106855Y-83030903D01*
X145254520Y-83109831D01*
X145383949Y-83216051D01*
X145490169Y-83345480D01*
X145569097Y-83493145D01*
X145617701Y-83653370D01*
X145634112Y-83820000D01*
X145617701Y-83986630D01*
X145569097Y-84146855D01*
X145490169Y-84294520D01*
X145383949Y-84423949D01*
X145254520Y-84530169D01*
X145106855Y-84609097D01*
X144946630Y-84657701D01*
X144821752Y-84670000D01*
X144738248Y-84670000D01*
X144613370Y-84657701D01*
X144453145Y-84609097D01*
X144305480Y-84530169D01*
X144176051Y-84423949D01*
X144069831Y-84294520D01*
X143990903Y-84146855D01*
X143942299Y-83986630D01*
X143925888Y-83820000D01*
X143942299Y-83653370D01*
X143990903Y-83493145D01*
X144069831Y-83345480D01*
X144176051Y-83216051D01*
X144305480Y-83109831D01*
X144453145Y-83030903D01*
X144613370Y-82982299D01*
X144738248Y-82970000D01*
X144821752Y-82970000D01*
X144946630Y-82982299D01*
X144946630Y-82982299D01*
G37*
G36*
X142406630Y-82982299D02*
G01*
X142566855Y-83030903D01*
X142714520Y-83109831D01*
X142843949Y-83216051D01*
X142950169Y-83345480D01*
X143029097Y-83493145D01*
X143077701Y-83653370D01*
X143094112Y-83820000D01*
X143077701Y-83986630D01*
X143029097Y-84146855D01*
X142950169Y-84294520D01*
X142843949Y-84423949D01*
X142714520Y-84530169D01*
X142566855Y-84609097D01*
X142406630Y-84657701D01*
X142281752Y-84670000D01*
X142198248Y-84670000D01*
X142073370Y-84657701D01*
X141913145Y-84609097D01*
X141765480Y-84530169D01*
X141636051Y-84423949D01*
X141529831Y-84294520D01*
X141450903Y-84146855D01*
X141402299Y-83986630D01*
X141385888Y-83820000D01*
X141402299Y-83653370D01*
X141450903Y-83493145D01*
X141529831Y-83345480D01*
X141636051Y-83216051D01*
X141765480Y-83109831D01*
X141913145Y-83030903D01*
X142073370Y-82982299D01*
X142198248Y-82970000D01*
X142281752Y-82970000D01*
X142406630Y-82982299D01*
X142406630Y-82982299D01*
G37*
G36*
X139866630Y-82982299D02*
G01*
X140026855Y-83030903D01*
X140174520Y-83109831D01*
X140303949Y-83216051D01*
X140410169Y-83345480D01*
X140489097Y-83493145D01*
X140537701Y-83653370D01*
X140554112Y-83820000D01*
X140537701Y-83986630D01*
X140489097Y-84146855D01*
X140410169Y-84294520D01*
X140303949Y-84423949D01*
X140174520Y-84530169D01*
X140026855Y-84609097D01*
X139866630Y-84657701D01*
X139741752Y-84670000D01*
X139658248Y-84670000D01*
X139533370Y-84657701D01*
X139373145Y-84609097D01*
X139225480Y-84530169D01*
X139096051Y-84423949D01*
X138989831Y-84294520D01*
X138910903Y-84146855D01*
X138862299Y-83986630D01*
X138845888Y-83820000D01*
X138862299Y-83653370D01*
X138910903Y-83493145D01*
X138989831Y-83345480D01*
X139096051Y-83216051D01*
X139225480Y-83109831D01*
X139373145Y-83030903D01*
X139533370Y-82982299D01*
X139658248Y-82970000D01*
X139741752Y-82970000D01*
X139866630Y-82982299D01*
X139866630Y-82982299D01*
G37*
G36*
X137326630Y-82982299D02*
G01*
X137486855Y-83030903D01*
X137634520Y-83109831D01*
X137763949Y-83216051D01*
X137870169Y-83345480D01*
X137949097Y-83493145D01*
X137997701Y-83653370D01*
X138014112Y-83820000D01*
X137997701Y-83986630D01*
X137949097Y-84146855D01*
X137870169Y-84294520D01*
X137763949Y-84423949D01*
X137634520Y-84530169D01*
X137486855Y-84609097D01*
X137326630Y-84657701D01*
X137201752Y-84670000D01*
X137118248Y-84670000D01*
X136993370Y-84657701D01*
X136833145Y-84609097D01*
X136685480Y-84530169D01*
X136556051Y-84423949D01*
X136449831Y-84294520D01*
X136370903Y-84146855D01*
X136322299Y-83986630D01*
X136305888Y-83820000D01*
X136322299Y-83653370D01*
X136370903Y-83493145D01*
X136449831Y-83345480D01*
X136556051Y-83216051D01*
X136685480Y-83109831D01*
X136833145Y-83030903D01*
X136993370Y-82982299D01*
X137118248Y-82970000D01*
X137201752Y-82970000D01*
X137326630Y-82982299D01*
X137326630Y-82982299D01*
G37*
G36*
X134786630Y-82982299D02*
G01*
X134946855Y-83030903D01*
X135094520Y-83109831D01*
X135223949Y-83216051D01*
X135330169Y-83345480D01*
X135409097Y-83493145D01*
X135457701Y-83653370D01*
X135474112Y-83820000D01*
X135457701Y-83986630D01*
X135409097Y-84146855D01*
X135330169Y-84294520D01*
X135223949Y-84423949D01*
X135094520Y-84530169D01*
X134946855Y-84609097D01*
X134786630Y-84657701D01*
X134661752Y-84670000D01*
X134578248Y-84670000D01*
X134453370Y-84657701D01*
X134293145Y-84609097D01*
X134145480Y-84530169D01*
X134016051Y-84423949D01*
X133909831Y-84294520D01*
X133830903Y-84146855D01*
X133782299Y-83986630D01*
X133765888Y-83820000D01*
X133782299Y-83653370D01*
X133830903Y-83493145D01*
X133909831Y-83345480D01*
X134016051Y-83216051D01*
X134145480Y-83109831D01*
X134293145Y-83030903D01*
X134453370Y-82982299D01*
X134578248Y-82970000D01*
X134661752Y-82970000D01*
X134786630Y-82982299D01*
X134786630Y-82982299D01*
G37*
G36*
X132246630Y-82982299D02*
G01*
X132406855Y-83030903D01*
X132554520Y-83109831D01*
X132683949Y-83216051D01*
X132790169Y-83345480D01*
X132869097Y-83493145D01*
X132917701Y-83653370D01*
X132934112Y-83820000D01*
X132917701Y-83986630D01*
X132869097Y-84146855D01*
X132790169Y-84294520D01*
X132683949Y-84423949D01*
X132554520Y-84530169D01*
X132406855Y-84609097D01*
X132246630Y-84657701D01*
X132121752Y-84670000D01*
X132038248Y-84670000D01*
X131913370Y-84657701D01*
X131753145Y-84609097D01*
X131605480Y-84530169D01*
X131476051Y-84423949D01*
X131369831Y-84294520D01*
X131290903Y-84146855D01*
X131242299Y-83986630D01*
X131225888Y-83820000D01*
X131242299Y-83653370D01*
X131290903Y-83493145D01*
X131369831Y-83345480D01*
X131476051Y-83216051D01*
X131605480Y-83109831D01*
X131753145Y-83030903D01*
X131913370Y-82982299D01*
X132038248Y-82970000D01*
X132121752Y-82970000D01*
X132246630Y-82982299D01*
X132246630Y-82982299D01*
G37*
G36*
X129706630Y-82982299D02*
G01*
X129866855Y-83030903D01*
X130014520Y-83109831D01*
X130143949Y-83216051D01*
X130250169Y-83345480D01*
X130329097Y-83493145D01*
X130377701Y-83653370D01*
X130394112Y-83820000D01*
X130377701Y-83986630D01*
X130329097Y-84146855D01*
X130250169Y-84294520D01*
X130143949Y-84423949D01*
X130014520Y-84530169D01*
X129866855Y-84609097D01*
X129706630Y-84657701D01*
X129581752Y-84670000D01*
X129498248Y-84670000D01*
X129373370Y-84657701D01*
X129213145Y-84609097D01*
X129065480Y-84530169D01*
X128936051Y-84423949D01*
X128829831Y-84294520D01*
X128750903Y-84146855D01*
X128702299Y-83986630D01*
X128685888Y-83820000D01*
X128702299Y-83653370D01*
X128750903Y-83493145D01*
X128829831Y-83345480D01*
X128936051Y-83216051D01*
X129065480Y-83109831D01*
X129213145Y-83030903D01*
X129373370Y-82982299D01*
X129498248Y-82970000D01*
X129581752Y-82970000D01*
X129706630Y-82982299D01*
X129706630Y-82982299D01*
G37*
G36*
X127166630Y-82982299D02*
G01*
X127326855Y-83030903D01*
X127474520Y-83109831D01*
X127603949Y-83216051D01*
X127710169Y-83345480D01*
X127789097Y-83493145D01*
X127837701Y-83653370D01*
X127854112Y-83820000D01*
X127837701Y-83986630D01*
X127789097Y-84146855D01*
X127710169Y-84294520D01*
X127603949Y-84423949D01*
X127474520Y-84530169D01*
X127326855Y-84609097D01*
X127166630Y-84657701D01*
X127041752Y-84670000D01*
X126958248Y-84670000D01*
X126833370Y-84657701D01*
X126673145Y-84609097D01*
X126525480Y-84530169D01*
X126396051Y-84423949D01*
X126289831Y-84294520D01*
X126210903Y-84146855D01*
X126162299Y-83986630D01*
X126145888Y-83820000D01*
X126162299Y-83653370D01*
X126210903Y-83493145D01*
X126289831Y-83345480D01*
X126396051Y-83216051D01*
X126525480Y-83109831D01*
X126673145Y-83030903D01*
X126833370Y-82982299D01*
X126958248Y-82970000D01*
X127041752Y-82970000D01*
X127166630Y-82982299D01*
X127166630Y-82982299D01*
G37*
G36*
X124626630Y-82982299D02*
G01*
X124786855Y-83030903D01*
X124934520Y-83109831D01*
X125063949Y-83216051D01*
X125170169Y-83345480D01*
X125249097Y-83493145D01*
X125297701Y-83653370D01*
X125314112Y-83820000D01*
X125297701Y-83986630D01*
X125249097Y-84146855D01*
X125170169Y-84294520D01*
X125063949Y-84423949D01*
X124934520Y-84530169D01*
X124786855Y-84609097D01*
X124626630Y-84657701D01*
X124501752Y-84670000D01*
X124418248Y-84670000D01*
X124293370Y-84657701D01*
X124133145Y-84609097D01*
X123985480Y-84530169D01*
X123856051Y-84423949D01*
X123749831Y-84294520D01*
X123670903Y-84146855D01*
X123622299Y-83986630D01*
X123605888Y-83820000D01*
X123622299Y-83653370D01*
X123670903Y-83493145D01*
X123749831Y-83345480D01*
X123856051Y-83216051D01*
X123985480Y-83109831D01*
X124133145Y-83030903D01*
X124293370Y-82982299D01*
X124418248Y-82970000D01*
X124501752Y-82970000D01*
X124626630Y-82982299D01*
X124626630Y-82982299D01*
G37*
G36*
X122086630Y-82982299D02*
G01*
X122246855Y-83030903D01*
X122394520Y-83109831D01*
X122523949Y-83216051D01*
X122630169Y-83345480D01*
X122709097Y-83493145D01*
X122757701Y-83653370D01*
X122774112Y-83820000D01*
X122757701Y-83986630D01*
X122709097Y-84146855D01*
X122630169Y-84294520D01*
X122523949Y-84423949D01*
X122394520Y-84530169D01*
X122246855Y-84609097D01*
X122086630Y-84657701D01*
X121961752Y-84670000D01*
X121878248Y-84670000D01*
X121753370Y-84657701D01*
X121593145Y-84609097D01*
X121445480Y-84530169D01*
X121316051Y-84423949D01*
X121209831Y-84294520D01*
X121130903Y-84146855D01*
X121082299Y-83986630D01*
X121065888Y-83820000D01*
X121082299Y-83653370D01*
X121130903Y-83493145D01*
X121209831Y-83345480D01*
X121316051Y-83216051D01*
X121445480Y-83109831D01*
X121593145Y-83030903D01*
X121753370Y-82982299D01*
X121878248Y-82970000D01*
X121961752Y-82970000D01*
X122086630Y-82982299D01*
X122086630Y-82982299D01*
G37*
G36*
X119546630Y-82982299D02*
G01*
X119706855Y-83030903D01*
X119854520Y-83109831D01*
X119983949Y-83216051D01*
X120090169Y-83345480D01*
X120169097Y-83493145D01*
X120217701Y-83653370D01*
X120234112Y-83820000D01*
X120217701Y-83986630D01*
X120169097Y-84146855D01*
X120090169Y-84294520D01*
X119983949Y-84423949D01*
X119854520Y-84530169D01*
X119706855Y-84609097D01*
X119546630Y-84657701D01*
X119421752Y-84670000D01*
X119338248Y-84670000D01*
X119213370Y-84657701D01*
X119053145Y-84609097D01*
X118905480Y-84530169D01*
X118776051Y-84423949D01*
X118669831Y-84294520D01*
X118590903Y-84146855D01*
X118542299Y-83986630D01*
X118525888Y-83820000D01*
X118542299Y-83653370D01*
X118590903Y-83493145D01*
X118669831Y-83345480D01*
X118776051Y-83216051D01*
X118905480Y-83109831D01*
X119053145Y-83030903D01*
X119213370Y-82982299D01*
X119338248Y-82970000D01*
X119421752Y-82970000D01*
X119546630Y-82982299D01*
X119546630Y-82982299D01*
G37*
G36*
X101766630Y-82982299D02*
G01*
X101926855Y-83030903D01*
X102074520Y-83109831D01*
X102203949Y-83216051D01*
X102310169Y-83345480D01*
X102389097Y-83493145D01*
X102437701Y-83653370D01*
X102454112Y-83820000D01*
X102437701Y-83986630D01*
X102389097Y-84146855D01*
X102310169Y-84294520D01*
X102203949Y-84423949D01*
X102074520Y-84530169D01*
X101926855Y-84609097D01*
X101766630Y-84657701D01*
X101641752Y-84670000D01*
X101558248Y-84670000D01*
X101433370Y-84657701D01*
X101273145Y-84609097D01*
X101125480Y-84530169D01*
X100996051Y-84423949D01*
X100889831Y-84294520D01*
X100810903Y-84146855D01*
X100762299Y-83986630D01*
X100745888Y-83820000D01*
X100762299Y-83653370D01*
X100810903Y-83493145D01*
X100889831Y-83345480D01*
X100996051Y-83216051D01*
X101125480Y-83109831D01*
X101273145Y-83030903D01*
X101433370Y-82982299D01*
X101558248Y-82970000D01*
X101641752Y-82970000D01*
X101766630Y-82982299D01*
X101766630Y-82982299D01*
G37*
G36*
X117006630Y-82982299D02*
G01*
X117166855Y-83030903D01*
X117314520Y-83109831D01*
X117443949Y-83216051D01*
X117550169Y-83345480D01*
X117629097Y-83493145D01*
X117677701Y-83653370D01*
X117694112Y-83820000D01*
X117677701Y-83986630D01*
X117629097Y-84146855D01*
X117550169Y-84294520D01*
X117443949Y-84423949D01*
X117314520Y-84530169D01*
X117166855Y-84609097D01*
X117006630Y-84657701D01*
X116881752Y-84670000D01*
X116798248Y-84670000D01*
X116673370Y-84657701D01*
X116513145Y-84609097D01*
X116365480Y-84530169D01*
X116236051Y-84423949D01*
X116129831Y-84294520D01*
X116050903Y-84146855D01*
X116002299Y-83986630D01*
X115985888Y-83820000D01*
X116002299Y-83653370D01*
X116050903Y-83493145D01*
X116129831Y-83345480D01*
X116236051Y-83216051D01*
X116365480Y-83109831D01*
X116513145Y-83030903D01*
X116673370Y-82982299D01*
X116798248Y-82970000D01*
X116881752Y-82970000D01*
X117006630Y-82982299D01*
X117006630Y-82982299D01*
G37*
G36*
X114466630Y-82982299D02*
G01*
X114626855Y-83030903D01*
X114774520Y-83109831D01*
X114903949Y-83216051D01*
X115010169Y-83345480D01*
X115089097Y-83493145D01*
X115137701Y-83653370D01*
X115154112Y-83820000D01*
X115137701Y-83986630D01*
X115089097Y-84146855D01*
X115010169Y-84294520D01*
X114903949Y-84423949D01*
X114774520Y-84530169D01*
X114626855Y-84609097D01*
X114466630Y-84657701D01*
X114341752Y-84670000D01*
X114258248Y-84670000D01*
X114133370Y-84657701D01*
X113973145Y-84609097D01*
X113825480Y-84530169D01*
X113696051Y-84423949D01*
X113589831Y-84294520D01*
X113510903Y-84146855D01*
X113462299Y-83986630D01*
X113445888Y-83820000D01*
X113462299Y-83653370D01*
X113510903Y-83493145D01*
X113589831Y-83345480D01*
X113696051Y-83216051D01*
X113825480Y-83109831D01*
X113973145Y-83030903D01*
X114133370Y-82982299D01*
X114258248Y-82970000D01*
X114341752Y-82970000D01*
X114466630Y-82982299D01*
X114466630Y-82982299D01*
G37*
G36*
X99226630Y-82982299D02*
G01*
X99386855Y-83030903D01*
X99534520Y-83109831D01*
X99663949Y-83216051D01*
X99770169Y-83345480D01*
X99849097Y-83493145D01*
X99897701Y-83653370D01*
X99914112Y-83820000D01*
X99897701Y-83986630D01*
X99849097Y-84146855D01*
X99770169Y-84294520D01*
X99663949Y-84423949D01*
X99534520Y-84530169D01*
X99386855Y-84609097D01*
X99226630Y-84657701D01*
X99101752Y-84670000D01*
X99018248Y-84670000D01*
X98893370Y-84657701D01*
X98733145Y-84609097D01*
X98585480Y-84530169D01*
X98456051Y-84423949D01*
X98349831Y-84294520D01*
X98270903Y-84146855D01*
X98222299Y-83986630D01*
X98205888Y-83820000D01*
X98222299Y-83653370D01*
X98270903Y-83493145D01*
X98349831Y-83345480D01*
X98456051Y-83216051D01*
X98585480Y-83109831D01*
X98733145Y-83030903D01*
X98893370Y-82982299D01*
X99018248Y-82970000D01*
X99101752Y-82970000D01*
X99226630Y-82982299D01*
X99226630Y-82982299D01*
G37*
G36*
X111926630Y-82982299D02*
G01*
X112086855Y-83030903D01*
X112234520Y-83109831D01*
X112363949Y-83216051D01*
X112470169Y-83345480D01*
X112549097Y-83493145D01*
X112597701Y-83653370D01*
X112614112Y-83820000D01*
X112597701Y-83986630D01*
X112549097Y-84146855D01*
X112470169Y-84294520D01*
X112363949Y-84423949D01*
X112234520Y-84530169D01*
X112086855Y-84609097D01*
X111926630Y-84657701D01*
X111801752Y-84670000D01*
X111718248Y-84670000D01*
X111593370Y-84657701D01*
X111433145Y-84609097D01*
X111285480Y-84530169D01*
X111156051Y-84423949D01*
X111049831Y-84294520D01*
X110970903Y-84146855D01*
X110922299Y-83986630D01*
X110905888Y-83820000D01*
X110922299Y-83653370D01*
X110970903Y-83493145D01*
X111049831Y-83345480D01*
X111156051Y-83216051D01*
X111285480Y-83109831D01*
X111433145Y-83030903D01*
X111593370Y-82982299D01*
X111718248Y-82970000D01*
X111801752Y-82970000D01*
X111926630Y-82982299D01*
X111926630Y-82982299D01*
G37*
G36*
X104306630Y-82982299D02*
G01*
X104466855Y-83030903D01*
X104614520Y-83109831D01*
X104743949Y-83216051D01*
X104850169Y-83345480D01*
X104929097Y-83493145D01*
X104977701Y-83653370D01*
X104994112Y-83820000D01*
X104977701Y-83986630D01*
X104929097Y-84146855D01*
X104850169Y-84294520D01*
X104743949Y-84423949D01*
X104614520Y-84530169D01*
X104466855Y-84609097D01*
X104306630Y-84657701D01*
X104181752Y-84670000D01*
X104098248Y-84670000D01*
X103973370Y-84657701D01*
X103813145Y-84609097D01*
X103665480Y-84530169D01*
X103536051Y-84423949D01*
X103429831Y-84294520D01*
X103350903Y-84146855D01*
X103302299Y-83986630D01*
X103285888Y-83820000D01*
X103302299Y-83653370D01*
X103350903Y-83493145D01*
X103429831Y-83345480D01*
X103536051Y-83216051D01*
X103665480Y-83109831D01*
X103813145Y-83030903D01*
X103973370Y-82982299D01*
X104098248Y-82970000D01*
X104181752Y-82970000D01*
X104306630Y-82982299D01*
X104306630Y-82982299D01*
G37*
G36*
X106846630Y-82982299D02*
G01*
X107006855Y-83030903D01*
X107154520Y-83109831D01*
X107283949Y-83216051D01*
X107390169Y-83345480D01*
X107469097Y-83493145D01*
X107517701Y-83653370D01*
X107534112Y-83820000D01*
X107517701Y-83986630D01*
X107469097Y-84146855D01*
X107390169Y-84294520D01*
X107283949Y-84423949D01*
X107154520Y-84530169D01*
X107006855Y-84609097D01*
X106846630Y-84657701D01*
X106721752Y-84670000D01*
X106638248Y-84670000D01*
X106513370Y-84657701D01*
X106353145Y-84609097D01*
X106205480Y-84530169D01*
X106076051Y-84423949D01*
X105969831Y-84294520D01*
X105890903Y-84146855D01*
X105842299Y-83986630D01*
X105825888Y-83820000D01*
X105842299Y-83653370D01*
X105890903Y-83493145D01*
X105969831Y-83345480D01*
X106076051Y-83216051D01*
X106205480Y-83109831D01*
X106353145Y-83030903D01*
X106513370Y-82982299D01*
X106638248Y-82970000D01*
X106721752Y-82970000D01*
X106846630Y-82982299D01*
X106846630Y-82982299D01*
G37*
G36*
X109386630Y-82982299D02*
G01*
X109546855Y-83030903D01*
X109694520Y-83109831D01*
X109823949Y-83216051D01*
X109930169Y-83345480D01*
X110009097Y-83493145D01*
X110057701Y-83653370D01*
X110074112Y-83820000D01*
X110057701Y-83986630D01*
X110009097Y-84146855D01*
X109930169Y-84294520D01*
X109823949Y-84423949D01*
X109694520Y-84530169D01*
X109546855Y-84609097D01*
X109386630Y-84657701D01*
X109261752Y-84670000D01*
X109178248Y-84670000D01*
X109053370Y-84657701D01*
X108893145Y-84609097D01*
X108745480Y-84530169D01*
X108616051Y-84423949D01*
X108509831Y-84294520D01*
X108430903Y-84146855D01*
X108382299Y-83986630D01*
X108365888Y-83820000D01*
X108382299Y-83653370D01*
X108430903Y-83493145D01*
X108509831Y-83345480D01*
X108616051Y-83216051D01*
X108745480Y-83109831D01*
X108893145Y-83030903D01*
X109053370Y-82982299D01*
X109178248Y-82970000D01*
X109261752Y-82970000D01*
X109386630Y-82982299D01*
X109386630Y-82982299D01*
G37*
M02*
