M48
; DRILL file {KiCad (6.0.0-rc1-dev-1521-g81a0ab4d7)} date 2019/02/16 5:45:17
; FORMAT={-:-/ absolute / inch / decimal}
; #@! TF.CreationDate,2019-02-16T05:45:17+09:00
; #@! TF.GenerationSoftware,Kicad,Pcbnew,(6.0.0-rc1-dev-1521-g81a0ab4d7)
FMAT,2
INCH
T1C0.0157
T2C0.0394
%
G90
G05
T1
X3.6Y-3.74
X3.6898Y-3.9508
X3.7406Y-4.2496
X3.8028Y-3.728
X3.8028Y-4.1547
X3.8028Y-4.4169
X4.0402Y-3.7421
X4.1648Y-3.2335
X4.216Y-3.8972
X4.2673Y-3.9031
X4.2812Y-3.9583
X4.2883Y-3.8491
X4.351Y-3.9299
X4.3681Y-4.1713
X4.3839Y-3.6547
X4.389Y-3.9063
X4.3917Y-3.9831
X4.5295Y-4.1988
X4.5295Y-4.5173
X4.5563Y-3.7724
X4.6Y-3.7717
X4.6472Y-3.9898
X4.6585Y-3.8953
X4.6687Y-4.0436
X4.6811Y-4.111
X4.7051Y-4.3693
X4.7346Y-3.9079
X4.737Y-4.1165
X4.7839Y-4.4335
X4.8122Y-3.8303
X4.828Y-4.1622
X4.8579Y-4.513
X4.8587Y-4.2461
X4.8642Y-4.0374
X4.8665Y-3.952
X4.872Y-3.6575
X4.9079Y-3.8555
X4.9437Y-4.2752
X4.9669Y-3.7323
X4.9787Y-4.0783
X4.9835Y-4.1925
X5.024Y-4.2063
X5.045Y-3.53
X5.0474Y-4.42
X5.0475Y-3.5724
X5.0591Y-3.8961
X5.0854Y-3.5831
X5.1102Y-4.3808
X5.1354Y-4.3487
X5.1571Y-4.4199
X5.1891Y-4.3821
X5.1917Y-3.4618
X5.2146Y-4.4121
X5.277Y-3.8133
X5.5118Y-3.8362
X5.5224Y-4.0327
X5.7579Y-4.2606
X5.8833Y-3.8392
X5.8976Y-4.1701
T2
X3.7Y-3.3
X3.7Y-3.4
X3.8Y-3.3
X3.8Y-3.4
X3.9Y-3.3
X3.9Y-3.4
X4.0Y-3.3
X4.0Y-3.4
X4.1Y-3.3
X4.1Y-3.4
X4.2Y-3.3
X4.2Y-3.4
X4.3Y-3.3
X4.3Y-3.4
X4.4Y-3.3
X4.4Y-3.4
X4.5Y-3.3
X4.5Y-3.4
X4.6Y-3.3
X4.6Y-3.4
X4.7Y-3.3
X4.7Y-3.4
X4.8Y-3.3
X4.8Y-3.4
X4.9Y-3.3
X4.9Y-3.4
X5.0Y-3.3
X5.0Y-3.4
X5.1Y-3.3
X5.1Y-3.4
X5.2Y-3.3
X5.2Y-3.4
X5.3Y-3.3
X5.3Y-3.4
X5.4Y-3.3
X5.4Y-3.4
X5.5Y-3.3
X5.5Y-3.4
X5.6Y-3.3
X5.6Y-3.4
X5.7Y-3.3
X5.7Y-3.4
X5.8Y-3.3
X5.8Y-3.4
X5.9Y-3.3
X5.9Y-3.4
X6.0Y-3.6
X6.0Y-3.7
X6.0Y-3.8
X6.0Y-3.9
X6.0Y-4.0
X6.0Y-4.1
X3.8Y-4.6
X3.8Y-4.7
X3.9Y-4.6
X3.9Y-4.7
X4.0Y-4.6
X4.0Y-4.7
X4.1Y-4.6
X4.1Y-4.7
X4.2Y-4.6
X4.2Y-4.7
X4.3Y-4.6
X4.3Y-4.7
X4.4Y-4.6
X4.4Y-4.7
X4.5Y-4.6
X4.5Y-4.7
X4.6Y-4.6
X4.6Y-4.7
X4.7Y-4.6
X4.7Y-4.7
X4.8Y-4.6
X4.8Y-4.7
X4.9Y-4.6
X4.9Y-4.7
X5.0Y-4.6
X5.0Y-4.7
X5.1Y-4.6
X5.1Y-4.7
X5.2Y-4.6
X5.2Y-4.7
X5.3Y-4.6
X5.3Y-4.7
X5.4Y-4.6
X5.4Y-4.7
X5.5Y-4.6
X5.5Y-4.7
X5.6Y-4.6
X5.6Y-4.7
X5.7Y-4.6
X5.7Y-4.7
X5.8Y-4.6
X5.8Y-4.7
X5.9Y-4.6
X5.9Y-4.7
T0
M30
