G04 #@! TF.GenerationSoftware,KiCad,Pcbnew,(6.0.0-rc1-dev-1521-g81a0ab4d7)*
G04 #@! TF.CreationDate,2019-02-16T05:45:15+09:00
G04 #@! TF.ProjectId,STM32F303VET6,53544d33-3246-4333-9033-564554362e6b,rev?*
G04 #@! TF.SameCoordinates,Original*
G04 #@! TF.FileFunction,Paste,Top*
G04 #@! TF.FilePolarity,Positive*
%FSLAX46Y46*%
G04 Gerber Fmt 4.6, Leading zero omitted, Abs format (unit mm)*
G04 Created by KiCad (PCBNEW (6.0.0-rc1-dev-1521-g81a0ab4d7)) date 2019/02/16 5:45:15*
%MOMM*%
%LPD*%
G04 APERTURE LIST*
%ADD10C,0.100000*%
%ADD11C,0.975000*%
%ADD12R,2.400000X2.000000*%
%ADD13C,0.280000*%
%ADD14R,1.200000X1.200000*%
%ADD15R,1.500000X1.300000*%
%ADD16R,1.300000X1.500000*%
%ADD17R,2.750000X1.000000*%
%ADD18R,2.000000X1.500000*%
%ADD19R,2.000000X3.800000*%
%ADD20R,1.700000X0.700000*%
%ADD21R,2.200000X2.000000*%
G04 APERTURE END LIST*
D10*
G36*
X119900142Y-111948674D02*
G01*
X119923803Y-111952184D01*
X119947007Y-111957996D01*
X119969529Y-111966054D01*
X119991153Y-111976282D01*
X120011670Y-111988579D01*
X120030883Y-112002829D01*
X120048607Y-112018893D01*
X120064671Y-112036617D01*
X120078921Y-112055830D01*
X120091218Y-112076347D01*
X120101446Y-112097971D01*
X120109504Y-112120493D01*
X120115316Y-112143697D01*
X120118826Y-112167358D01*
X120120000Y-112191250D01*
X120120000Y-112678750D01*
X120118826Y-112702642D01*
X120115316Y-112726303D01*
X120109504Y-112749507D01*
X120101446Y-112772029D01*
X120091218Y-112793653D01*
X120078921Y-112814170D01*
X120064671Y-112833383D01*
X120048607Y-112851107D01*
X120030883Y-112867171D01*
X120011670Y-112881421D01*
X119991153Y-112893718D01*
X119969529Y-112903946D01*
X119947007Y-112912004D01*
X119923803Y-112917816D01*
X119900142Y-112921326D01*
X119876250Y-112922500D01*
X118963750Y-112922500D01*
X118939858Y-112921326D01*
X118916197Y-112917816D01*
X118892993Y-112912004D01*
X118870471Y-112903946D01*
X118848847Y-112893718D01*
X118828330Y-112881421D01*
X118809117Y-112867171D01*
X118791393Y-112851107D01*
X118775329Y-112833383D01*
X118761079Y-112814170D01*
X118748782Y-112793653D01*
X118738554Y-112772029D01*
X118730496Y-112749507D01*
X118724684Y-112726303D01*
X118721174Y-112702642D01*
X118720000Y-112678750D01*
X118720000Y-112191250D01*
X118721174Y-112167358D01*
X118724684Y-112143697D01*
X118730496Y-112120493D01*
X118738554Y-112097971D01*
X118748782Y-112076347D01*
X118761079Y-112055830D01*
X118775329Y-112036617D01*
X118791393Y-112018893D01*
X118809117Y-112002829D01*
X118828330Y-111988579D01*
X118848847Y-111976282D01*
X118870471Y-111966054D01*
X118892993Y-111957996D01*
X118916197Y-111952184D01*
X118939858Y-111948674D01*
X118963750Y-111947500D01*
X119876250Y-111947500D01*
X119900142Y-111948674D01*
X119900142Y-111948674D01*
G37*
D11*
X119420000Y-112435000D03*
D10*
G36*
X119900142Y-113823674D02*
G01*
X119923803Y-113827184D01*
X119947007Y-113832996D01*
X119969529Y-113841054D01*
X119991153Y-113851282D01*
X120011670Y-113863579D01*
X120030883Y-113877829D01*
X120048607Y-113893893D01*
X120064671Y-113911617D01*
X120078921Y-113930830D01*
X120091218Y-113951347D01*
X120101446Y-113972971D01*
X120109504Y-113995493D01*
X120115316Y-114018697D01*
X120118826Y-114042358D01*
X120120000Y-114066250D01*
X120120000Y-114553750D01*
X120118826Y-114577642D01*
X120115316Y-114601303D01*
X120109504Y-114624507D01*
X120101446Y-114647029D01*
X120091218Y-114668653D01*
X120078921Y-114689170D01*
X120064671Y-114708383D01*
X120048607Y-114726107D01*
X120030883Y-114742171D01*
X120011670Y-114756421D01*
X119991153Y-114768718D01*
X119969529Y-114778946D01*
X119947007Y-114787004D01*
X119923803Y-114792816D01*
X119900142Y-114796326D01*
X119876250Y-114797500D01*
X118963750Y-114797500D01*
X118939858Y-114796326D01*
X118916197Y-114792816D01*
X118892993Y-114787004D01*
X118870471Y-114778946D01*
X118848847Y-114768718D01*
X118828330Y-114756421D01*
X118809117Y-114742171D01*
X118791393Y-114726107D01*
X118775329Y-114708383D01*
X118761079Y-114689170D01*
X118748782Y-114668653D01*
X118738554Y-114647029D01*
X118730496Y-114624507D01*
X118724684Y-114601303D01*
X118721174Y-114577642D01*
X118720000Y-114553750D01*
X118720000Y-114066250D01*
X118721174Y-114042358D01*
X118724684Y-114018697D01*
X118730496Y-113995493D01*
X118738554Y-113972971D01*
X118748782Y-113951347D01*
X118761079Y-113930830D01*
X118775329Y-113911617D01*
X118791393Y-113893893D01*
X118809117Y-113877829D01*
X118828330Y-113863579D01*
X118848847Y-113851282D01*
X118870471Y-113841054D01*
X118892993Y-113832996D01*
X118916197Y-113827184D01*
X118939858Y-113823674D01*
X118963750Y-113822500D01*
X119876250Y-113822500D01*
X119900142Y-113823674D01*
X119900142Y-113823674D01*
G37*
D11*
X119420000Y-114310000D03*
D10*
G36*
X127257642Y-113531174D02*
G01*
X127281303Y-113534684D01*
X127304507Y-113540496D01*
X127327029Y-113548554D01*
X127348653Y-113558782D01*
X127369170Y-113571079D01*
X127388383Y-113585329D01*
X127406107Y-113601393D01*
X127422171Y-113619117D01*
X127436421Y-113638330D01*
X127448718Y-113658847D01*
X127458946Y-113680471D01*
X127467004Y-113702993D01*
X127472816Y-113726197D01*
X127476326Y-113749858D01*
X127477500Y-113773750D01*
X127477500Y-114686250D01*
X127476326Y-114710142D01*
X127472816Y-114733803D01*
X127467004Y-114757007D01*
X127458946Y-114779529D01*
X127448718Y-114801153D01*
X127436421Y-114821670D01*
X127422171Y-114840883D01*
X127406107Y-114858607D01*
X127388383Y-114874671D01*
X127369170Y-114888921D01*
X127348653Y-114901218D01*
X127327029Y-114911446D01*
X127304507Y-114919504D01*
X127281303Y-114925316D01*
X127257642Y-114928826D01*
X127233750Y-114930000D01*
X126746250Y-114930000D01*
X126722358Y-114928826D01*
X126698697Y-114925316D01*
X126675493Y-114919504D01*
X126652971Y-114911446D01*
X126631347Y-114901218D01*
X126610830Y-114888921D01*
X126591617Y-114874671D01*
X126573893Y-114858607D01*
X126557829Y-114840883D01*
X126543579Y-114821670D01*
X126531282Y-114801153D01*
X126521054Y-114779529D01*
X126512996Y-114757007D01*
X126507184Y-114733803D01*
X126503674Y-114710142D01*
X126502500Y-114686250D01*
X126502500Y-113773750D01*
X126503674Y-113749858D01*
X126507184Y-113726197D01*
X126512996Y-113702993D01*
X126521054Y-113680471D01*
X126531282Y-113658847D01*
X126543579Y-113638330D01*
X126557829Y-113619117D01*
X126573893Y-113601393D01*
X126591617Y-113585329D01*
X126610830Y-113571079D01*
X126631347Y-113558782D01*
X126652971Y-113548554D01*
X126675493Y-113540496D01*
X126698697Y-113534684D01*
X126722358Y-113531174D01*
X126746250Y-113530000D01*
X127233750Y-113530000D01*
X127257642Y-113531174D01*
X127257642Y-113531174D01*
G37*
D11*
X126990000Y-114230000D03*
D10*
G36*
X129132642Y-113531174D02*
G01*
X129156303Y-113534684D01*
X129179507Y-113540496D01*
X129202029Y-113548554D01*
X129223653Y-113558782D01*
X129244170Y-113571079D01*
X129263383Y-113585329D01*
X129281107Y-113601393D01*
X129297171Y-113619117D01*
X129311421Y-113638330D01*
X129323718Y-113658847D01*
X129333946Y-113680471D01*
X129342004Y-113702993D01*
X129347816Y-113726197D01*
X129351326Y-113749858D01*
X129352500Y-113773750D01*
X129352500Y-114686250D01*
X129351326Y-114710142D01*
X129347816Y-114733803D01*
X129342004Y-114757007D01*
X129333946Y-114779529D01*
X129323718Y-114801153D01*
X129311421Y-114821670D01*
X129297171Y-114840883D01*
X129281107Y-114858607D01*
X129263383Y-114874671D01*
X129244170Y-114888921D01*
X129223653Y-114901218D01*
X129202029Y-114911446D01*
X129179507Y-114919504D01*
X129156303Y-114925316D01*
X129132642Y-114928826D01*
X129108750Y-114930000D01*
X128621250Y-114930000D01*
X128597358Y-114928826D01*
X128573697Y-114925316D01*
X128550493Y-114919504D01*
X128527971Y-114911446D01*
X128506347Y-114901218D01*
X128485830Y-114888921D01*
X128466617Y-114874671D01*
X128448893Y-114858607D01*
X128432829Y-114840883D01*
X128418579Y-114821670D01*
X128406282Y-114801153D01*
X128396054Y-114779529D01*
X128387996Y-114757007D01*
X128382184Y-114733803D01*
X128378674Y-114710142D01*
X128377500Y-114686250D01*
X128377500Y-113773750D01*
X128378674Y-113749858D01*
X128382184Y-113726197D01*
X128387996Y-113702993D01*
X128396054Y-113680471D01*
X128406282Y-113658847D01*
X128418579Y-113638330D01*
X128432829Y-113619117D01*
X128448893Y-113601393D01*
X128466617Y-113585329D01*
X128485830Y-113571079D01*
X128506347Y-113558782D01*
X128527971Y-113548554D01*
X128550493Y-113540496D01*
X128573697Y-113534684D01*
X128597358Y-113531174D01*
X128621250Y-113530000D01*
X129108750Y-113530000D01*
X129132642Y-113531174D01*
X129132642Y-113531174D01*
G37*
D11*
X128865000Y-114230000D03*
D12*
X112260000Y-107880000D03*
X112260000Y-111580000D03*
D13*
X114761216Y-99976497D03*
D10*
G36*
X115390541Y-100407832D02*
G01*
X115192551Y-100605822D01*
X114131891Y-99545162D01*
X114329881Y-99347172D01*
X115390541Y-100407832D01*
X115390541Y-100407832D01*
G37*
D13*
X115114769Y-99622944D03*
D10*
G36*
X115744094Y-100054279D02*
G01*
X115546104Y-100252269D01*
X114485444Y-99191609D01*
X114683434Y-98993619D01*
X115744094Y-100054279D01*
X115744094Y-100054279D01*
G37*
D13*
X115468323Y-99269390D03*
D10*
G36*
X116097648Y-99700725D02*
G01*
X115899658Y-99898715D01*
X114838998Y-98838055D01*
X115036988Y-98640065D01*
X116097648Y-99700725D01*
X116097648Y-99700725D01*
G37*
D13*
X115821876Y-98915837D03*
D10*
G36*
X116451201Y-99347172D02*
G01*
X116253211Y-99545162D01*
X115192551Y-98484502D01*
X115390541Y-98286512D01*
X116451201Y-99347172D01*
X116451201Y-99347172D01*
G37*
D13*
X116175429Y-98562284D03*
D10*
G36*
X116804754Y-98993619D02*
G01*
X116606764Y-99191609D01*
X115546104Y-98130949D01*
X115744094Y-97932959D01*
X116804754Y-98993619D01*
X116804754Y-98993619D01*
G37*
D13*
X116528983Y-98208730D03*
D10*
G36*
X117158308Y-98640065D02*
G01*
X116960318Y-98838055D01*
X115899658Y-97777395D01*
X116097648Y-97579405D01*
X117158308Y-98640065D01*
X117158308Y-98640065D01*
G37*
D13*
X116882536Y-97855177D03*
D10*
G36*
X117511861Y-98286512D02*
G01*
X117313871Y-98484502D01*
X116253211Y-97423842D01*
X116451201Y-97225852D01*
X117511861Y-98286512D01*
X117511861Y-98286512D01*
G37*
D13*
X117236089Y-97501623D03*
D10*
G36*
X117865414Y-97932958D02*
G01*
X117667424Y-98130948D01*
X116606764Y-97070288D01*
X116804754Y-96872298D01*
X117865414Y-97932958D01*
X117865414Y-97932958D01*
G37*
D13*
X117589643Y-97148070D03*
D10*
G36*
X118218968Y-97579405D02*
G01*
X118020978Y-97777395D01*
X116960318Y-96716735D01*
X117158308Y-96518745D01*
X118218968Y-97579405D01*
X118218968Y-97579405D01*
G37*
D13*
X117943196Y-96794517D03*
D10*
G36*
X118572521Y-97225852D02*
G01*
X118374531Y-97423842D01*
X117313871Y-96363182D01*
X117511861Y-96165192D01*
X118572521Y-97225852D01*
X118572521Y-97225852D01*
G37*
D13*
X118296750Y-96440963D03*
D10*
G36*
X118926075Y-96872298D02*
G01*
X118728085Y-97070288D01*
X117667425Y-96009628D01*
X117865415Y-95811638D01*
X118926075Y-96872298D01*
X118926075Y-96872298D01*
G37*
D13*
X118650303Y-96087410D03*
D10*
G36*
X119279628Y-96518745D02*
G01*
X119081638Y-96716735D01*
X118020978Y-95656075D01*
X118218968Y-95458085D01*
X119279628Y-96518745D01*
X119279628Y-96518745D01*
G37*
D13*
X119003856Y-95733856D03*
D10*
G36*
X119633181Y-96165191D02*
G01*
X119435191Y-96363181D01*
X118374531Y-95302521D01*
X118572521Y-95104531D01*
X119633181Y-96165191D01*
X119633181Y-96165191D01*
G37*
D13*
X119357410Y-95380303D03*
D10*
G36*
X119986735Y-95811638D02*
G01*
X119788745Y-96009628D01*
X118728085Y-94948968D01*
X118926075Y-94750978D01*
X119986735Y-95811638D01*
X119986735Y-95811638D01*
G37*
D13*
X119710963Y-95026750D03*
D10*
G36*
X120340288Y-95458085D02*
G01*
X120142298Y-95656075D01*
X119081638Y-94595415D01*
X119279628Y-94397425D01*
X120340288Y-95458085D01*
X120340288Y-95458085D01*
G37*
D13*
X120064517Y-94673196D03*
D10*
G36*
X120693842Y-95104531D02*
G01*
X120495852Y-95302521D01*
X119435192Y-94241861D01*
X119633182Y-94043871D01*
X120693842Y-95104531D01*
X120693842Y-95104531D01*
G37*
D13*
X120418070Y-94319643D03*
D10*
G36*
X121047395Y-94750978D02*
G01*
X120849405Y-94948968D01*
X119788745Y-93888308D01*
X119986735Y-93690318D01*
X121047395Y-94750978D01*
X121047395Y-94750978D01*
G37*
D13*
X120771623Y-93966089D03*
D10*
G36*
X121400948Y-94397424D02*
G01*
X121202958Y-94595414D01*
X120142298Y-93534754D01*
X120340288Y-93336764D01*
X121400948Y-94397424D01*
X121400948Y-94397424D01*
G37*
D13*
X121125177Y-93612536D03*
D10*
G36*
X121754502Y-94043871D02*
G01*
X121556512Y-94241861D01*
X120495852Y-93181201D01*
X120693842Y-92983211D01*
X121754502Y-94043871D01*
X121754502Y-94043871D01*
G37*
D13*
X121478730Y-93258983D03*
D10*
G36*
X122108055Y-93690318D02*
G01*
X121910065Y-93888308D01*
X120849405Y-92827648D01*
X121047395Y-92629658D01*
X122108055Y-93690318D01*
X122108055Y-93690318D01*
G37*
D13*
X121832284Y-92905429D03*
D10*
G36*
X122461609Y-93336764D02*
G01*
X122263619Y-93534754D01*
X121202959Y-92474094D01*
X121400949Y-92276104D01*
X122461609Y-93336764D01*
X122461609Y-93336764D01*
G37*
D13*
X122185837Y-92551876D03*
D10*
G36*
X122815162Y-92983211D02*
G01*
X122617172Y-93181201D01*
X121556512Y-92120541D01*
X121754502Y-91922551D01*
X122815162Y-92983211D01*
X122815162Y-92983211D01*
G37*
D13*
X122539390Y-92198323D03*
D10*
G36*
X123168715Y-92629658D02*
G01*
X122970725Y-92827648D01*
X121910065Y-91766988D01*
X122108055Y-91568998D01*
X123168715Y-92629658D01*
X123168715Y-92629658D01*
G37*
D13*
X122892944Y-91844769D03*
D10*
G36*
X123522269Y-92276104D02*
G01*
X123324279Y-92474094D01*
X122263619Y-91413434D01*
X122461609Y-91215444D01*
X123522269Y-92276104D01*
X123522269Y-92276104D01*
G37*
D13*
X123246497Y-91491216D03*
D10*
G36*
X123875822Y-91922551D02*
G01*
X123677832Y-92120541D01*
X122617172Y-91059881D01*
X122815162Y-90861891D01*
X123875822Y-91922551D01*
X123875822Y-91922551D01*
G37*
D13*
X125933503Y-91491216D03*
D10*
G36*
X125502168Y-92120541D02*
G01*
X125304178Y-91922551D01*
X126364838Y-90861891D01*
X126562828Y-91059881D01*
X125502168Y-92120541D01*
X125502168Y-92120541D01*
G37*
D13*
X126287056Y-91844769D03*
D10*
G36*
X125855721Y-92474094D02*
G01*
X125657731Y-92276104D01*
X126718391Y-91215444D01*
X126916381Y-91413434D01*
X125855721Y-92474094D01*
X125855721Y-92474094D01*
G37*
D13*
X126640610Y-92198323D03*
D10*
G36*
X126209275Y-92827648D02*
G01*
X126011285Y-92629658D01*
X127071945Y-91568998D01*
X127269935Y-91766988D01*
X126209275Y-92827648D01*
X126209275Y-92827648D01*
G37*
D13*
X126994163Y-92551876D03*
D10*
G36*
X126562828Y-93181201D02*
G01*
X126364838Y-92983211D01*
X127425498Y-91922551D01*
X127623488Y-92120541D01*
X126562828Y-93181201D01*
X126562828Y-93181201D01*
G37*
D13*
X127347716Y-92905429D03*
D10*
G36*
X126916381Y-93534754D02*
G01*
X126718391Y-93336764D01*
X127779051Y-92276104D01*
X127977041Y-92474094D01*
X126916381Y-93534754D01*
X126916381Y-93534754D01*
G37*
D13*
X127701270Y-93258983D03*
D10*
G36*
X127269935Y-93888308D02*
G01*
X127071945Y-93690318D01*
X128132605Y-92629658D01*
X128330595Y-92827648D01*
X127269935Y-93888308D01*
X127269935Y-93888308D01*
G37*
D13*
X128054823Y-93612536D03*
D10*
G36*
X127623488Y-94241861D02*
G01*
X127425498Y-94043871D01*
X128486158Y-92983211D01*
X128684148Y-93181201D01*
X127623488Y-94241861D01*
X127623488Y-94241861D01*
G37*
D13*
X128408377Y-93966089D03*
D10*
G36*
X127977042Y-94595414D02*
G01*
X127779052Y-94397424D01*
X128839712Y-93336764D01*
X129037702Y-93534754D01*
X127977042Y-94595414D01*
X127977042Y-94595414D01*
G37*
D13*
X128761930Y-94319643D03*
D10*
G36*
X128330595Y-94948968D02*
G01*
X128132605Y-94750978D01*
X129193265Y-93690318D01*
X129391255Y-93888308D01*
X128330595Y-94948968D01*
X128330595Y-94948968D01*
G37*
D13*
X129115483Y-94673196D03*
D10*
G36*
X128684148Y-95302521D02*
G01*
X128486158Y-95104531D01*
X129546818Y-94043871D01*
X129744808Y-94241861D01*
X128684148Y-95302521D01*
X128684148Y-95302521D01*
G37*
D13*
X129469037Y-95026750D03*
D10*
G36*
X129037702Y-95656075D02*
G01*
X128839712Y-95458085D01*
X129900372Y-94397425D01*
X130098362Y-94595415D01*
X129037702Y-95656075D01*
X129037702Y-95656075D01*
G37*
D13*
X129822590Y-95380303D03*
D10*
G36*
X129391255Y-96009628D02*
G01*
X129193265Y-95811638D01*
X130253925Y-94750978D01*
X130451915Y-94948968D01*
X129391255Y-96009628D01*
X129391255Y-96009628D01*
G37*
D13*
X130176144Y-95733856D03*
D10*
G36*
X129744809Y-96363181D02*
G01*
X129546819Y-96165191D01*
X130607479Y-95104531D01*
X130805469Y-95302521D01*
X129744809Y-96363181D01*
X129744809Y-96363181D01*
G37*
D13*
X130529697Y-96087410D03*
D10*
G36*
X130098362Y-96716735D02*
G01*
X129900372Y-96518745D01*
X130961032Y-95458085D01*
X131159022Y-95656075D01*
X130098362Y-96716735D01*
X130098362Y-96716735D01*
G37*
D13*
X130883250Y-96440963D03*
D10*
G36*
X130451915Y-97070288D02*
G01*
X130253925Y-96872298D01*
X131314585Y-95811638D01*
X131512575Y-96009628D01*
X130451915Y-97070288D01*
X130451915Y-97070288D01*
G37*
D13*
X131236804Y-96794517D03*
D10*
G36*
X130805469Y-97423842D02*
G01*
X130607479Y-97225852D01*
X131668139Y-96165192D01*
X131866129Y-96363182D01*
X130805469Y-97423842D01*
X130805469Y-97423842D01*
G37*
D13*
X131590357Y-97148070D03*
D10*
G36*
X131159022Y-97777395D02*
G01*
X130961032Y-97579405D01*
X132021692Y-96518745D01*
X132219682Y-96716735D01*
X131159022Y-97777395D01*
X131159022Y-97777395D01*
G37*
D13*
X131943911Y-97501623D03*
D10*
G36*
X131512576Y-98130948D02*
G01*
X131314586Y-97932958D01*
X132375246Y-96872298D01*
X132573236Y-97070288D01*
X131512576Y-98130948D01*
X131512576Y-98130948D01*
G37*
D13*
X132297464Y-97855177D03*
D10*
G36*
X131866129Y-98484502D02*
G01*
X131668139Y-98286512D01*
X132728799Y-97225852D01*
X132926789Y-97423842D01*
X131866129Y-98484502D01*
X131866129Y-98484502D01*
G37*
D13*
X132651017Y-98208730D03*
D10*
G36*
X132219682Y-98838055D02*
G01*
X132021692Y-98640065D01*
X133082352Y-97579405D01*
X133280342Y-97777395D01*
X132219682Y-98838055D01*
X132219682Y-98838055D01*
G37*
D13*
X133004571Y-98562284D03*
D10*
G36*
X132573236Y-99191609D02*
G01*
X132375246Y-98993619D01*
X133435906Y-97932959D01*
X133633896Y-98130949D01*
X132573236Y-99191609D01*
X132573236Y-99191609D01*
G37*
D13*
X133358124Y-98915837D03*
D10*
G36*
X132926789Y-99545162D02*
G01*
X132728799Y-99347172D01*
X133789459Y-98286512D01*
X133987449Y-98484502D01*
X132926789Y-99545162D01*
X132926789Y-99545162D01*
G37*
D13*
X133711677Y-99269390D03*
D10*
G36*
X133280342Y-99898715D02*
G01*
X133082352Y-99700725D01*
X134143012Y-98640065D01*
X134341002Y-98838055D01*
X133280342Y-99898715D01*
X133280342Y-99898715D01*
G37*
D13*
X134065231Y-99622944D03*
D10*
G36*
X133633896Y-100252269D02*
G01*
X133435906Y-100054279D01*
X134496566Y-98993619D01*
X134694556Y-99191609D01*
X133633896Y-100252269D01*
X133633896Y-100252269D01*
G37*
D13*
X134418784Y-99976497D03*
D10*
G36*
X133987449Y-100605822D02*
G01*
X133789459Y-100407832D01*
X134850119Y-99347172D01*
X135048109Y-99545162D01*
X133987449Y-100605822D01*
X133987449Y-100605822D01*
G37*
D13*
X134418784Y-102663503D03*
D10*
G36*
X135048109Y-103094838D02*
G01*
X134850119Y-103292828D01*
X133789459Y-102232168D01*
X133987449Y-102034178D01*
X135048109Y-103094838D01*
X135048109Y-103094838D01*
G37*
D13*
X134065231Y-103017056D03*
D10*
G36*
X134694556Y-103448391D02*
G01*
X134496566Y-103646381D01*
X133435906Y-102585721D01*
X133633896Y-102387731D01*
X134694556Y-103448391D01*
X134694556Y-103448391D01*
G37*
D13*
X133711677Y-103370610D03*
D10*
G36*
X134341002Y-103801945D02*
G01*
X134143012Y-103999935D01*
X133082352Y-102939275D01*
X133280342Y-102741285D01*
X134341002Y-103801945D01*
X134341002Y-103801945D01*
G37*
D13*
X133358124Y-103724163D03*
D10*
G36*
X133987449Y-104155498D02*
G01*
X133789459Y-104353488D01*
X132728799Y-103292828D01*
X132926789Y-103094838D01*
X133987449Y-104155498D01*
X133987449Y-104155498D01*
G37*
D13*
X133004571Y-104077716D03*
D10*
G36*
X133633896Y-104509051D02*
G01*
X133435906Y-104707041D01*
X132375246Y-103646381D01*
X132573236Y-103448391D01*
X133633896Y-104509051D01*
X133633896Y-104509051D01*
G37*
D13*
X132651017Y-104431270D03*
D10*
G36*
X133280342Y-104862605D02*
G01*
X133082352Y-105060595D01*
X132021692Y-103999935D01*
X132219682Y-103801945D01*
X133280342Y-104862605D01*
X133280342Y-104862605D01*
G37*
D13*
X132297464Y-104784823D03*
D10*
G36*
X132926789Y-105216158D02*
G01*
X132728799Y-105414148D01*
X131668139Y-104353488D01*
X131866129Y-104155498D01*
X132926789Y-105216158D01*
X132926789Y-105216158D01*
G37*
D13*
X131943911Y-105138377D03*
D10*
G36*
X132573236Y-105569712D02*
G01*
X132375246Y-105767702D01*
X131314586Y-104707042D01*
X131512576Y-104509052D01*
X132573236Y-105569712D01*
X132573236Y-105569712D01*
G37*
D13*
X131590357Y-105491930D03*
D10*
G36*
X132219682Y-105923265D02*
G01*
X132021692Y-106121255D01*
X130961032Y-105060595D01*
X131159022Y-104862605D01*
X132219682Y-105923265D01*
X132219682Y-105923265D01*
G37*
D13*
X131236804Y-105845483D03*
D10*
G36*
X131866129Y-106276818D02*
G01*
X131668139Y-106474808D01*
X130607479Y-105414148D01*
X130805469Y-105216158D01*
X131866129Y-106276818D01*
X131866129Y-106276818D01*
G37*
D13*
X130883250Y-106199037D03*
D10*
G36*
X131512575Y-106630372D02*
G01*
X131314585Y-106828362D01*
X130253925Y-105767702D01*
X130451915Y-105569712D01*
X131512575Y-106630372D01*
X131512575Y-106630372D01*
G37*
D13*
X130529697Y-106552590D03*
D10*
G36*
X131159022Y-106983925D02*
G01*
X130961032Y-107181915D01*
X129900372Y-106121255D01*
X130098362Y-105923265D01*
X131159022Y-106983925D01*
X131159022Y-106983925D01*
G37*
D13*
X130176144Y-106906144D03*
D10*
G36*
X130805469Y-107337479D02*
G01*
X130607479Y-107535469D01*
X129546819Y-106474809D01*
X129744809Y-106276819D01*
X130805469Y-107337479D01*
X130805469Y-107337479D01*
G37*
D13*
X129822590Y-107259697D03*
D10*
G36*
X130451915Y-107691032D02*
G01*
X130253925Y-107889022D01*
X129193265Y-106828362D01*
X129391255Y-106630372D01*
X130451915Y-107691032D01*
X130451915Y-107691032D01*
G37*
D13*
X129469037Y-107613250D03*
D10*
G36*
X130098362Y-108044585D02*
G01*
X129900372Y-108242575D01*
X128839712Y-107181915D01*
X129037702Y-106983925D01*
X130098362Y-108044585D01*
X130098362Y-108044585D01*
G37*
D13*
X129115483Y-107966804D03*
D10*
G36*
X129744808Y-108398139D02*
G01*
X129546818Y-108596129D01*
X128486158Y-107535469D01*
X128684148Y-107337479D01*
X129744808Y-108398139D01*
X129744808Y-108398139D01*
G37*
D13*
X128761930Y-108320357D03*
D10*
G36*
X129391255Y-108751692D02*
G01*
X129193265Y-108949682D01*
X128132605Y-107889022D01*
X128330595Y-107691032D01*
X129391255Y-108751692D01*
X129391255Y-108751692D01*
G37*
D13*
X128408377Y-108673911D03*
D10*
G36*
X129037702Y-109105246D02*
G01*
X128839712Y-109303236D01*
X127779052Y-108242576D01*
X127977042Y-108044586D01*
X129037702Y-109105246D01*
X129037702Y-109105246D01*
G37*
D13*
X128054823Y-109027464D03*
D10*
G36*
X128684148Y-109458799D02*
G01*
X128486158Y-109656789D01*
X127425498Y-108596129D01*
X127623488Y-108398139D01*
X128684148Y-109458799D01*
X128684148Y-109458799D01*
G37*
D13*
X127701270Y-109381017D03*
D10*
G36*
X128330595Y-109812352D02*
G01*
X128132605Y-110010342D01*
X127071945Y-108949682D01*
X127269935Y-108751692D01*
X128330595Y-109812352D01*
X128330595Y-109812352D01*
G37*
D13*
X127347716Y-109734571D03*
D10*
G36*
X127977041Y-110165906D02*
G01*
X127779051Y-110363896D01*
X126718391Y-109303236D01*
X126916381Y-109105246D01*
X127977041Y-110165906D01*
X127977041Y-110165906D01*
G37*
D13*
X126994163Y-110088124D03*
D10*
G36*
X127623488Y-110519459D02*
G01*
X127425498Y-110717449D01*
X126364838Y-109656789D01*
X126562828Y-109458799D01*
X127623488Y-110519459D01*
X127623488Y-110519459D01*
G37*
D13*
X126640610Y-110441677D03*
D10*
G36*
X127269935Y-110873012D02*
G01*
X127071945Y-111071002D01*
X126011285Y-110010342D01*
X126209275Y-109812352D01*
X127269935Y-110873012D01*
X127269935Y-110873012D01*
G37*
D13*
X126287056Y-110795231D03*
D10*
G36*
X126916381Y-111226566D02*
G01*
X126718391Y-111424556D01*
X125657731Y-110363896D01*
X125855721Y-110165906D01*
X126916381Y-111226566D01*
X126916381Y-111226566D01*
G37*
D13*
X125933503Y-111148784D03*
D10*
G36*
X126562828Y-111580119D02*
G01*
X126364838Y-111778109D01*
X125304178Y-110717449D01*
X125502168Y-110519459D01*
X126562828Y-111580119D01*
X126562828Y-111580119D01*
G37*
D13*
X123246497Y-111148784D03*
D10*
G36*
X122815162Y-111778109D02*
G01*
X122617172Y-111580119D01*
X123677832Y-110519459D01*
X123875822Y-110717449D01*
X122815162Y-111778109D01*
X122815162Y-111778109D01*
G37*
D13*
X122892944Y-110795231D03*
D10*
G36*
X122461609Y-111424556D02*
G01*
X122263619Y-111226566D01*
X123324279Y-110165906D01*
X123522269Y-110363896D01*
X122461609Y-111424556D01*
X122461609Y-111424556D01*
G37*
D13*
X122539390Y-110441677D03*
D10*
G36*
X122108055Y-111071002D02*
G01*
X121910065Y-110873012D01*
X122970725Y-109812352D01*
X123168715Y-110010342D01*
X122108055Y-111071002D01*
X122108055Y-111071002D01*
G37*
D13*
X122185837Y-110088124D03*
D10*
G36*
X121754502Y-110717449D02*
G01*
X121556512Y-110519459D01*
X122617172Y-109458799D01*
X122815162Y-109656789D01*
X121754502Y-110717449D01*
X121754502Y-110717449D01*
G37*
D13*
X121832284Y-109734571D03*
D10*
G36*
X121400949Y-110363896D02*
G01*
X121202959Y-110165906D01*
X122263619Y-109105246D01*
X122461609Y-109303236D01*
X121400949Y-110363896D01*
X121400949Y-110363896D01*
G37*
D13*
X121478730Y-109381017D03*
D10*
G36*
X121047395Y-110010342D02*
G01*
X120849405Y-109812352D01*
X121910065Y-108751692D01*
X122108055Y-108949682D01*
X121047395Y-110010342D01*
X121047395Y-110010342D01*
G37*
D13*
X121125177Y-109027464D03*
D10*
G36*
X120693842Y-109656789D02*
G01*
X120495852Y-109458799D01*
X121556512Y-108398139D01*
X121754502Y-108596129D01*
X120693842Y-109656789D01*
X120693842Y-109656789D01*
G37*
D13*
X120771623Y-108673911D03*
D10*
G36*
X120340288Y-109303236D02*
G01*
X120142298Y-109105246D01*
X121202958Y-108044586D01*
X121400948Y-108242576D01*
X120340288Y-109303236D01*
X120340288Y-109303236D01*
G37*
D13*
X120418070Y-108320357D03*
D10*
G36*
X119986735Y-108949682D02*
G01*
X119788745Y-108751692D01*
X120849405Y-107691032D01*
X121047395Y-107889022D01*
X119986735Y-108949682D01*
X119986735Y-108949682D01*
G37*
D13*
X120064517Y-107966804D03*
D10*
G36*
X119633182Y-108596129D02*
G01*
X119435192Y-108398139D01*
X120495852Y-107337479D01*
X120693842Y-107535469D01*
X119633182Y-108596129D01*
X119633182Y-108596129D01*
G37*
D13*
X119710963Y-107613250D03*
D10*
G36*
X119279628Y-108242575D02*
G01*
X119081638Y-108044585D01*
X120142298Y-106983925D01*
X120340288Y-107181915D01*
X119279628Y-108242575D01*
X119279628Y-108242575D01*
G37*
D13*
X119357410Y-107259697D03*
D10*
G36*
X118926075Y-107889022D02*
G01*
X118728085Y-107691032D01*
X119788745Y-106630372D01*
X119986735Y-106828362D01*
X118926075Y-107889022D01*
X118926075Y-107889022D01*
G37*
D13*
X119003856Y-106906144D03*
D10*
G36*
X118572521Y-107535469D02*
G01*
X118374531Y-107337479D01*
X119435191Y-106276819D01*
X119633181Y-106474809D01*
X118572521Y-107535469D01*
X118572521Y-107535469D01*
G37*
D13*
X118650303Y-106552590D03*
D10*
G36*
X118218968Y-107181915D02*
G01*
X118020978Y-106983925D01*
X119081638Y-105923265D01*
X119279628Y-106121255D01*
X118218968Y-107181915D01*
X118218968Y-107181915D01*
G37*
D13*
X118296750Y-106199037D03*
D10*
G36*
X117865415Y-106828362D02*
G01*
X117667425Y-106630372D01*
X118728085Y-105569712D01*
X118926075Y-105767702D01*
X117865415Y-106828362D01*
X117865415Y-106828362D01*
G37*
D13*
X117943196Y-105845483D03*
D10*
G36*
X117511861Y-106474808D02*
G01*
X117313871Y-106276818D01*
X118374531Y-105216158D01*
X118572521Y-105414148D01*
X117511861Y-106474808D01*
X117511861Y-106474808D01*
G37*
D13*
X117589643Y-105491930D03*
D10*
G36*
X117158308Y-106121255D02*
G01*
X116960318Y-105923265D01*
X118020978Y-104862605D01*
X118218968Y-105060595D01*
X117158308Y-106121255D01*
X117158308Y-106121255D01*
G37*
D13*
X117236089Y-105138377D03*
D10*
G36*
X116804754Y-105767702D02*
G01*
X116606764Y-105569712D01*
X117667424Y-104509052D01*
X117865414Y-104707042D01*
X116804754Y-105767702D01*
X116804754Y-105767702D01*
G37*
D13*
X116882536Y-104784823D03*
D10*
G36*
X116451201Y-105414148D02*
G01*
X116253211Y-105216158D01*
X117313871Y-104155498D01*
X117511861Y-104353488D01*
X116451201Y-105414148D01*
X116451201Y-105414148D01*
G37*
D13*
X116528983Y-104431270D03*
D10*
G36*
X116097648Y-105060595D02*
G01*
X115899658Y-104862605D01*
X116960318Y-103801945D01*
X117158308Y-103999935D01*
X116097648Y-105060595D01*
X116097648Y-105060595D01*
G37*
D13*
X116175429Y-104077716D03*
D10*
G36*
X115744094Y-104707041D02*
G01*
X115546104Y-104509051D01*
X116606764Y-103448391D01*
X116804754Y-103646381D01*
X115744094Y-104707041D01*
X115744094Y-104707041D01*
G37*
D13*
X115821876Y-103724163D03*
D10*
G36*
X115390541Y-104353488D02*
G01*
X115192551Y-104155498D01*
X116253211Y-103094838D01*
X116451201Y-103292828D01*
X115390541Y-104353488D01*
X115390541Y-104353488D01*
G37*
D13*
X115468323Y-103370610D03*
D10*
G36*
X115036988Y-103999935D02*
G01*
X114838998Y-103801945D01*
X115899658Y-102741285D01*
X116097648Y-102939275D01*
X115036988Y-103999935D01*
X115036988Y-103999935D01*
G37*
D13*
X115114769Y-103017056D03*
D10*
G36*
X114683434Y-103646381D02*
G01*
X114485444Y-103448391D01*
X115546104Y-102387731D01*
X115744094Y-102585721D01*
X114683434Y-103646381D01*
X114683434Y-103646381D01*
G37*
D13*
X114761216Y-102663503D03*
D10*
G36*
X114329881Y-103292828D02*
G01*
X114131891Y-103094838D01*
X115192551Y-102034178D01*
X115390541Y-102232168D01*
X114329881Y-103292828D01*
X114329881Y-103292828D01*
G37*
D14*
X96540000Y-90530000D03*
X94340000Y-90530000D03*
X94300000Y-93270000D03*
X96500000Y-93270000D03*
D15*
X115630000Y-94650000D03*
X112930000Y-94650000D03*
X101590000Y-90410000D03*
X98890000Y-90410000D03*
X98740000Y-93270000D03*
X101440000Y-93270000D03*
D16*
X115310000Y-108500000D03*
X115310000Y-111200000D03*
D17*
X94310000Y-98150000D03*
X99310000Y-98150000D03*
X99310000Y-95650000D03*
X94310000Y-95650000D03*
D18*
X99450000Y-112270000D03*
X99450000Y-107670000D03*
X99450000Y-109970000D03*
D19*
X93150000Y-109970000D03*
D10*
G36*
X105180142Y-97411174D02*
G01*
X105203803Y-97414684D01*
X105227007Y-97420496D01*
X105249529Y-97428554D01*
X105271153Y-97438782D01*
X105291670Y-97451079D01*
X105310883Y-97465329D01*
X105328607Y-97481393D01*
X105344671Y-97499117D01*
X105358921Y-97518330D01*
X105371218Y-97538847D01*
X105381446Y-97560471D01*
X105389504Y-97582993D01*
X105395316Y-97606197D01*
X105398826Y-97629858D01*
X105400000Y-97653750D01*
X105400000Y-98141250D01*
X105398826Y-98165142D01*
X105395316Y-98188803D01*
X105389504Y-98212007D01*
X105381446Y-98234529D01*
X105371218Y-98256153D01*
X105358921Y-98276670D01*
X105344671Y-98295883D01*
X105328607Y-98313607D01*
X105310883Y-98329671D01*
X105291670Y-98343921D01*
X105271153Y-98356218D01*
X105249529Y-98366446D01*
X105227007Y-98374504D01*
X105203803Y-98380316D01*
X105180142Y-98383826D01*
X105156250Y-98385000D01*
X104243750Y-98385000D01*
X104219858Y-98383826D01*
X104196197Y-98380316D01*
X104172993Y-98374504D01*
X104150471Y-98366446D01*
X104128847Y-98356218D01*
X104108330Y-98343921D01*
X104089117Y-98329671D01*
X104071393Y-98313607D01*
X104055329Y-98295883D01*
X104041079Y-98276670D01*
X104028782Y-98256153D01*
X104018554Y-98234529D01*
X104010496Y-98212007D01*
X104004684Y-98188803D01*
X104001174Y-98165142D01*
X104000000Y-98141250D01*
X104000000Y-97653750D01*
X104001174Y-97629858D01*
X104004684Y-97606197D01*
X104010496Y-97582993D01*
X104018554Y-97560471D01*
X104028782Y-97538847D01*
X104041079Y-97518330D01*
X104055329Y-97499117D01*
X104071393Y-97481393D01*
X104089117Y-97465329D01*
X104108330Y-97451079D01*
X104128847Y-97438782D01*
X104150471Y-97428554D01*
X104172993Y-97420496D01*
X104196197Y-97414684D01*
X104219858Y-97411174D01*
X104243750Y-97410000D01*
X105156250Y-97410000D01*
X105180142Y-97411174D01*
X105180142Y-97411174D01*
G37*
D11*
X104700000Y-97897500D03*
D10*
G36*
X105180142Y-95536174D02*
G01*
X105203803Y-95539684D01*
X105227007Y-95545496D01*
X105249529Y-95553554D01*
X105271153Y-95563782D01*
X105291670Y-95576079D01*
X105310883Y-95590329D01*
X105328607Y-95606393D01*
X105344671Y-95624117D01*
X105358921Y-95643330D01*
X105371218Y-95663847D01*
X105381446Y-95685471D01*
X105389504Y-95707993D01*
X105395316Y-95731197D01*
X105398826Y-95754858D01*
X105400000Y-95778750D01*
X105400000Y-96266250D01*
X105398826Y-96290142D01*
X105395316Y-96313803D01*
X105389504Y-96337007D01*
X105381446Y-96359529D01*
X105371218Y-96381153D01*
X105358921Y-96401670D01*
X105344671Y-96420883D01*
X105328607Y-96438607D01*
X105310883Y-96454671D01*
X105291670Y-96468921D01*
X105271153Y-96481218D01*
X105249529Y-96491446D01*
X105227007Y-96499504D01*
X105203803Y-96505316D01*
X105180142Y-96508826D01*
X105156250Y-96510000D01*
X104243750Y-96510000D01*
X104219858Y-96508826D01*
X104196197Y-96505316D01*
X104172993Y-96499504D01*
X104150471Y-96491446D01*
X104128847Y-96481218D01*
X104108330Y-96468921D01*
X104089117Y-96454671D01*
X104071393Y-96438607D01*
X104055329Y-96420883D01*
X104041079Y-96401670D01*
X104028782Y-96381153D01*
X104018554Y-96359529D01*
X104010496Y-96337007D01*
X104004684Y-96313803D01*
X104001174Y-96290142D01*
X104000000Y-96266250D01*
X104000000Y-95778750D01*
X104001174Y-95754858D01*
X104004684Y-95731197D01*
X104010496Y-95707993D01*
X104018554Y-95685471D01*
X104028782Y-95663847D01*
X104041079Y-95643330D01*
X104055329Y-95624117D01*
X104071393Y-95606393D01*
X104089117Y-95590329D01*
X104108330Y-95576079D01*
X104128847Y-95563782D01*
X104150471Y-95553554D01*
X104172993Y-95545496D01*
X104196197Y-95539684D01*
X104219858Y-95536174D01*
X104243750Y-95535000D01*
X105156250Y-95535000D01*
X105180142Y-95536174D01*
X105180142Y-95536174D01*
G37*
D11*
X104700000Y-96022500D03*
D10*
G36*
X109580142Y-108161174D02*
G01*
X109603803Y-108164684D01*
X109627007Y-108170496D01*
X109649529Y-108178554D01*
X109671153Y-108188782D01*
X109691670Y-108201079D01*
X109710883Y-108215329D01*
X109728607Y-108231393D01*
X109744671Y-108249117D01*
X109758921Y-108268330D01*
X109771218Y-108288847D01*
X109781446Y-108310471D01*
X109789504Y-108332993D01*
X109795316Y-108356197D01*
X109798826Y-108379858D01*
X109800000Y-108403750D01*
X109800000Y-108891250D01*
X109798826Y-108915142D01*
X109795316Y-108938803D01*
X109789504Y-108962007D01*
X109781446Y-108984529D01*
X109771218Y-109006153D01*
X109758921Y-109026670D01*
X109744671Y-109045883D01*
X109728607Y-109063607D01*
X109710883Y-109079671D01*
X109691670Y-109093921D01*
X109671153Y-109106218D01*
X109649529Y-109116446D01*
X109627007Y-109124504D01*
X109603803Y-109130316D01*
X109580142Y-109133826D01*
X109556250Y-109135000D01*
X108643750Y-109135000D01*
X108619858Y-109133826D01*
X108596197Y-109130316D01*
X108572993Y-109124504D01*
X108550471Y-109116446D01*
X108528847Y-109106218D01*
X108508330Y-109093921D01*
X108489117Y-109079671D01*
X108471393Y-109063607D01*
X108455329Y-109045883D01*
X108441079Y-109026670D01*
X108428782Y-109006153D01*
X108418554Y-108984529D01*
X108410496Y-108962007D01*
X108404684Y-108938803D01*
X108401174Y-108915142D01*
X108400000Y-108891250D01*
X108400000Y-108403750D01*
X108401174Y-108379858D01*
X108404684Y-108356197D01*
X108410496Y-108332993D01*
X108418554Y-108310471D01*
X108428782Y-108288847D01*
X108441079Y-108268330D01*
X108455329Y-108249117D01*
X108471393Y-108231393D01*
X108489117Y-108215329D01*
X108508330Y-108201079D01*
X108528847Y-108188782D01*
X108550471Y-108178554D01*
X108572993Y-108170496D01*
X108596197Y-108164684D01*
X108619858Y-108161174D01*
X108643750Y-108160000D01*
X109556250Y-108160000D01*
X109580142Y-108161174D01*
X109580142Y-108161174D01*
G37*
D11*
X109100000Y-108647500D03*
D10*
G36*
X109580142Y-106286174D02*
G01*
X109603803Y-106289684D01*
X109627007Y-106295496D01*
X109649529Y-106303554D01*
X109671153Y-106313782D01*
X109691670Y-106326079D01*
X109710883Y-106340329D01*
X109728607Y-106356393D01*
X109744671Y-106374117D01*
X109758921Y-106393330D01*
X109771218Y-106413847D01*
X109781446Y-106435471D01*
X109789504Y-106457993D01*
X109795316Y-106481197D01*
X109798826Y-106504858D01*
X109800000Y-106528750D01*
X109800000Y-107016250D01*
X109798826Y-107040142D01*
X109795316Y-107063803D01*
X109789504Y-107087007D01*
X109781446Y-107109529D01*
X109771218Y-107131153D01*
X109758921Y-107151670D01*
X109744671Y-107170883D01*
X109728607Y-107188607D01*
X109710883Y-107204671D01*
X109691670Y-107218921D01*
X109671153Y-107231218D01*
X109649529Y-107241446D01*
X109627007Y-107249504D01*
X109603803Y-107255316D01*
X109580142Y-107258826D01*
X109556250Y-107260000D01*
X108643750Y-107260000D01*
X108619858Y-107258826D01*
X108596197Y-107255316D01*
X108572993Y-107249504D01*
X108550471Y-107241446D01*
X108528847Y-107231218D01*
X108508330Y-107218921D01*
X108489117Y-107204671D01*
X108471393Y-107188607D01*
X108455329Y-107170883D01*
X108441079Y-107151670D01*
X108428782Y-107131153D01*
X108418554Y-107109529D01*
X108410496Y-107087007D01*
X108404684Y-107063803D01*
X108401174Y-107040142D01*
X108400000Y-107016250D01*
X108400000Y-106528750D01*
X108401174Y-106504858D01*
X108404684Y-106481197D01*
X108410496Y-106457993D01*
X108418554Y-106435471D01*
X108428782Y-106413847D01*
X108441079Y-106393330D01*
X108455329Y-106374117D01*
X108471393Y-106356393D01*
X108489117Y-106340329D01*
X108508330Y-106326079D01*
X108528847Y-106313782D01*
X108550471Y-106303554D01*
X108572993Y-106295496D01*
X108596197Y-106289684D01*
X108619858Y-106286174D01*
X108643750Y-106285000D01*
X109556250Y-106285000D01*
X109580142Y-106286174D01*
X109580142Y-106286174D01*
G37*
D11*
X109100000Y-106772500D03*
D10*
G36*
X109600142Y-109906674D02*
G01*
X109623803Y-109910184D01*
X109647007Y-109915996D01*
X109669529Y-109924054D01*
X109691153Y-109934282D01*
X109711670Y-109946579D01*
X109730883Y-109960829D01*
X109748607Y-109976893D01*
X109764671Y-109994617D01*
X109778921Y-110013830D01*
X109791218Y-110034347D01*
X109801446Y-110055971D01*
X109809504Y-110078493D01*
X109815316Y-110101697D01*
X109818826Y-110125358D01*
X109820000Y-110149250D01*
X109820000Y-110636750D01*
X109818826Y-110660642D01*
X109815316Y-110684303D01*
X109809504Y-110707507D01*
X109801446Y-110730029D01*
X109791218Y-110751653D01*
X109778921Y-110772170D01*
X109764671Y-110791383D01*
X109748607Y-110809107D01*
X109730883Y-110825171D01*
X109711670Y-110839421D01*
X109691153Y-110851718D01*
X109669529Y-110861946D01*
X109647007Y-110870004D01*
X109623803Y-110875816D01*
X109600142Y-110879326D01*
X109576250Y-110880500D01*
X108663750Y-110880500D01*
X108639858Y-110879326D01*
X108616197Y-110875816D01*
X108592993Y-110870004D01*
X108570471Y-110861946D01*
X108548847Y-110851718D01*
X108528330Y-110839421D01*
X108509117Y-110825171D01*
X108491393Y-110809107D01*
X108475329Y-110791383D01*
X108461079Y-110772170D01*
X108448782Y-110751653D01*
X108438554Y-110730029D01*
X108430496Y-110707507D01*
X108424684Y-110684303D01*
X108421174Y-110660642D01*
X108420000Y-110636750D01*
X108420000Y-110149250D01*
X108421174Y-110125358D01*
X108424684Y-110101697D01*
X108430496Y-110078493D01*
X108438554Y-110055971D01*
X108448782Y-110034347D01*
X108461079Y-110013830D01*
X108475329Y-109994617D01*
X108491393Y-109976893D01*
X108509117Y-109960829D01*
X108528330Y-109946579D01*
X108548847Y-109934282D01*
X108570471Y-109924054D01*
X108592993Y-109915996D01*
X108616197Y-109910184D01*
X108639858Y-109906674D01*
X108663750Y-109905500D01*
X109576250Y-109905500D01*
X109600142Y-109906674D01*
X109600142Y-109906674D01*
G37*
D11*
X109120000Y-110393000D03*
D10*
G36*
X109600142Y-111781674D02*
G01*
X109623803Y-111785184D01*
X109647007Y-111790996D01*
X109669529Y-111799054D01*
X109691153Y-111809282D01*
X109711670Y-111821579D01*
X109730883Y-111835829D01*
X109748607Y-111851893D01*
X109764671Y-111869617D01*
X109778921Y-111888830D01*
X109791218Y-111909347D01*
X109801446Y-111930971D01*
X109809504Y-111953493D01*
X109815316Y-111976697D01*
X109818826Y-112000358D01*
X109820000Y-112024250D01*
X109820000Y-112511750D01*
X109818826Y-112535642D01*
X109815316Y-112559303D01*
X109809504Y-112582507D01*
X109801446Y-112605029D01*
X109791218Y-112626653D01*
X109778921Y-112647170D01*
X109764671Y-112666383D01*
X109748607Y-112684107D01*
X109730883Y-112700171D01*
X109711670Y-112714421D01*
X109691153Y-112726718D01*
X109669529Y-112736946D01*
X109647007Y-112745004D01*
X109623803Y-112750816D01*
X109600142Y-112754326D01*
X109576250Y-112755500D01*
X108663750Y-112755500D01*
X108639858Y-112754326D01*
X108616197Y-112750816D01*
X108592993Y-112745004D01*
X108570471Y-112736946D01*
X108548847Y-112726718D01*
X108528330Y-112714421D01*
X108509117Y-112700171D01*
X108491393Y-112684107D01*
X108475329Y-112666383D01*
X108461079Y-112647170D01*
X108448782Y-112626653D01*
X108438554Y-112605029D01*
X108430496Y-112582507D01*
X108424684Y-112559303D01*
X108421174Y-112535642D01*
X108420000Y-112511750D01*
X108420000Y-112024250D01*
X108421174Y-112000358D01*
X108424684Y-111976697D01*
X108430496Y-111953493D01*
X108438554Y-111930971D01*
X108448782Y-111909347D01*
X108461079Y-111888830D01*
X108475329Y-111869617D01*
X108491393Y-111851893D01*
X108509117Y-111835829D01*
X108528330Y-111821579D01*
X108548847Y-111809282D01*
X108570471Y-111799054D01*
X108592993Y-111790996D01*
X108616197Y-111785184D01*
X108639858Y-111781674D01*
X108663750Y-111780500D01*
X109576250Y-111780500D01*
X109600142Y-111781674D01*
X109600142Y-111781674D01*
G37*
D11*
X109120000Y-112268000D03*
D10*
G36*
X102220142Y-106861174D02*
G01*
X102243803Y-106864684D01*
X102267007Y-106870496D01*
X102289529Y-106878554D01*
X102311153Y-106888782D01*
X102331670Y-106901079D01*
X102350883Y-106915329D01*
X102368607Y-106931393D01*
X102384671Y-106949117D01*
X102398921Y-106968330D01*
X102411218Y-106988847D01*
X102421446Y-107010471D01*
X102429504Y-107032993D01*
X102435316Y-107056197D01*
X102438826Y-107079858D01*
X102440000Y-107103750D01*
X102440000Y-107591250D01*
X102438826Y-107615142D01*
X102435316Y-107638803D01*
X102429504Y-107662007D01*
X102421446Y-107684529D01*
X102411218Y-107706153D01*
X102398921Y-107726670D01*
X102384671Y-107745883D01*
X102368607Y-107763607D01*
X102350883Y-107779671D01*
X102331670Y-107793921D01*
X102311153Y-107806218D01*
X102289529Y-107816446D01*
X102267007Y-107824504D01*
X102243803Y-107830316D01*
X102220142Y-107833826D01*
X102196250Y-107835000D01*
X101283750Y-107835000D01*
X101259858Y-107833826D01*
X101236197Y-107830316D01*
X101212993Y-107824504D01*
X101190471Y-107816446D01*
X101168847Y-107806218D01*
X101148330Y-107793921D01*
X101129117Y-107779671D01*
X101111393Y-107763607D01*
X101095329Y-107745883D01*
X101081079Y-107726670D01*
X101068782Y-107706153D01*
X101058554Y-107684529D01*
X101050496Y-107662007D01*
X101044684Y-107638803D01*
X101041174Y-107615142D01*
X101040000Y-107591250D01*
X101040000Y-107103750D01*
X101041174Y-107079858D01*
X101044684Y-107056197D01*
X101050496Y-107032993D01*
X101058554Y-107010471D01*
X101068782Y-106988847D01*
X101081079Y-106968330D01*
X101095329Y-106949117D01*
X101111393Y-106931393D01*
X101129117Y-106915329D01*
X101148330Y-106901079D01*
X101168847Y-106888782D01*
X101190471Y-106878554D01*
X101212993Y-106870496D01*
X101236197Y-106864684D01*
X101259858Y-106861174D01*
X101283750Y-106860000D01*
X102196250Y-106860000D01*
X102220142Y-106861174D01*
X102220142Y-106861174D01*
G37*
D11*
X101740000Y-107347500D03*
D10*
G36*
X102220142Y-104986174D02*
G01*
X102243803Y-104989684D01*
X102267007Y-104995496D01*
X102289529Y-105003554D01*
X102311153Y-105013782D01*
X102331670Y-105026079D01*
X102350883Y-105040329D01*
X102368607Y-105056393D01*
X102384671Y-105074117D01*
X102398921Y-105093330D01*
X102411218Y-105113847D01*
X102421446Y-105135471D01*
X102429504Y-105157993D01*
X102435316Y-105181197D01*
X102438826Y-105204858D01*
X102440000Y-105228750D01*
X102440000Y-105716250D01*
X102438826Y-105740142D01*
X102435316Y-105763803D01*
X102429504Y-105787007D01*
X102421446Y-105809529D01*
X102411218Y-105831153D01*
X102398921Y-105851670D01*
X102384671Y-105870883D01*
X102368607Y-105888607D01*
X102350883Y-105904671D01*
X102331670Y-105918921D01*
X102311153Y-105931218D01*
X102289529Y-105941446D01*
X102267007Y-105949504D01*
X102243803Y-105955316D01*
X102220142Y-105958826D01*
X102196250Y-105960000D01*
X101283750Y-105960000D01*
X101259858Y-105958826D01*
X101236197Y-105955316D01*
X101212993Y-105949504D01*
X101190471Y-105941446D01*
X101168847Y-105931218D01*
X101148330Y-105918921D01*
X101129117Y-105904671D01*
X101111393Y-105888607D01*
X101095329Y-105870883D01*
X101081079Y-105851670D01*
X101068782Y-105831153D01*
X101058554Y-105809529D01*
X101050496Y-105787007D01*
X101044684Y-105763803D01*
X101041174Y-105740142D01*
X101040000Y-105716250D01*
X101040000Y-105228750D01*
X101041174Y-105204858D01*
X101044684Y-105181197D01*
X101050496Y-105157993D01*
X101058554Y-105135471D01*
X101068782Y-105113847D01*
X101081079Y-105093330D01*
X101095329Y-105074117D01*
X101111393Y-105056393D01*
X101129117Y-105040329D01*
X101148330Y-105026079D01*
X101168847Y-105013782D01*
X101190471Y-105003554D01*
X101212993Y-104995496D01*
X101236197Y-104989684D01*
X101259858Y-104986174D01*
X101283750Y-104985000D01*
X102196250Y-104985000D01*
X102220142Y-104986174D01*
X102220142Y-104986174D01*
G37*
D11*
X101740000Y-105472500D03*
D10*
G36*
X140935142Y-106271174D02*
G01*
X140958803Y-106274684D01*
X140982007Y-106280496D01*
X141004529Y-106288554D01*
X141026153Y-106298782D01*
X141046670Y-106311079D01*
X141065883Y-106325329D01*
X141083607Y-106341393D01*
X141099671Y-106359117D01*
X141113921Y-106378330D01*
X141126218Y-106398847D01*
X141136446Y-106420471D01*
X141144504Y-106442993D01*
X141150316Y-106466197D01*
X141153826Y-106489858D01*
X141155000Y-106513750D01*
X141155000Y-107426250D01*
X141153826Y-107450142D01*
X141150316Y-107473803D01*
X141144504Y-107497007D01*
X141136446Y-107519529D01*
X141126218Y-107541153D01*
X141113921Y-107561670D01*
X141099671Y-107580883D01*
X141083607Y-107598607D01*
X141065883Y-107614671D01*
X141046670Y-107628921D01*
X141026153Y-107641218D01*
X141004529Y-107651446D01*
X140982007Y-107659504D01*
X140958803Y-107665316D01*
X140935142Y-107668826D01*
X140911250Y-107670000D01*
X140423750Y-107670000D01*
X140399858Y-107668826D01*
X140376197Y-107665316D01*
X140352993Y-107659504D01*
X140330471Y-107651446D01*
X140308847Y-107641218D01*
X140288330Y-107628921D01*
X140269117Y-107614671D01*
X140251393Y-107598607D01*
X140235329Y-107580883D01*
X140221079Y-107561670D01*
X140208782Y-107541153D01*
X140198554Y-107519529D01*
X140190496Y-107497007D01*
X140184684Y-107473803D01*
X140181174Y-107450142D01*
X140180000Y-107426250D01*
X140180000Y-106513750D01*
X140181174Y-106489858D01*
X140184684Y-106466197D01*
X140190496Y-106442993D01*
X140198554Y-106420471D01*
X140208782Y-106398847D01*
X140221079Y-106378330D01*
X140235329Y-106359117D01*
X140251393Y-106341393D01*
X140269117Y-106325329D01*
X140288330Y-106311079D01*
X140308847Y-106298782D01*
X140330471Y-106288554D01*
X140352993Y-106280496D01*
X140376197Y-106274684D01*
X140399858Y-106271174D01*
X140423750Y-106270000D01*
X140911250Y-106270000D01*
X140935142Y-106271174D01*
X140935142Y-106271174D01*
G37*
D11*
X140667500Y-106970000D03*
D10*
G36*
X139060142Y-106271174D02*
G01*
X139083803Y-106274684D01*
X139107007Y-106280496D01*
X139129529Y-106288554D01*
X139151153Y-106298782D01*
X139171670Y-106311079D01*
X139190883Y-106325329D01*
X139208607Y-106341393D01*
X139224671Y-106359117D01*
X139238921Y-106378330D01*
X139251218Y-106398847D01*
X139261446Y-106420471D01*
X139269504Y-106442993D01*
X139275316Y-106466197D01*
X139278826Y-106489858D01*
X139280000Y-106513750D01*
X139280000Y-107426250D01*
X139278826Y-107450142D01*
X139275316Y-107473803D01*
X139269504Y-107497007D01*
X139261446Y-107519529D01*
X139251218Y-107541153D01*
X139238921Y-107561670D01*
X139224671Y-107580883D01*
X139208607Y-107598607D01*
X139190883Y-107614671D01*
X139171670Y-107628921D01*
X139151153Y-107641218D01*
X139129529Y-107651446D01*
X139107007Y-107659504D01*
X139083803Y-107665316D01*
X139060142Y-107668826D01*
X139036250Y-107670000D01*
X138548750Y-107670000D01*
X138524858Y-107668826D01*
X138501197Y-107665316D01*
X138477993Y-107659504D01*
X138455471Y-107651446D01*
X138433847Y-107641218D01*
X138413330Y-107628921D01*
X138394117Y-107614671D01*
X138376393Y-107598607D01*
X138360329Y-107580883D01*
X138346079Y-107561670D01*
X138333782Y-107541153D01*
X138323554Y-107519529D01*
X138315496Y-107497007D01*
X138309684Y-107473803D01*
X138306174Y-107450142D01*
X138305000Y-107426250D01*
X138305000Y-106513750D01*
X138306174Y-106489858D01*
X138309684Y-106466197D01*
X138315496Y-106442993D01*
X138323554Y-106420471D01*
X138333782Y-106398847D01*
X138346079Y-106378330D01*
X138360329Y-106359117D01*
X138376393Y-106341393D01*
X138394117Y-106325329D01*
X138413330Y-106311079D01*
X138433847Y-106298782D01*
X138455471Y-106288554D01*
X138477993Y-106280496D01*
X138501197Y-106274684D01*
X138524858Y-106271174D01*
X138548750Y-106270000D01*
X139036250Y-106270000D01*
X139060142Y-106271174D01*
X139060142Y-106271174D01*
G37*
D11*
X138792500Y-106970000D03*
D10*
G36*
X131635142Y-88891174D02*
G01*
X131658803Y-88894684D01*
X131682007Y-88900496D01*
X131704529Y-88908554D01*
X131726153Y-88918782D01*
X131746670Y-88931079D01*
X131765883Y-88945329D01*
X131783607Y-88961393D01*
X131799671Y-88979117D01*
X131813921Y-88998330D01*
X131826218Y-89018847D01*
X131836446Y-89040471D01*
X131844504Y-89062993D01*
X131850316Y-89086197D01*
X131853826Y-89109858D01*
X131855000Y-89133750D01*
X131855000Y-90046250D01*
X131853826Y-90070142D01*
X131850316Y-90093803D01*
X131844504Y-90117007D01*
X131836446Y-90139529D01*
X131826218Y-90161153D01*
X131813921Y-90181670D01*
X131799671Y-90200883D01*
X131783607Y-90218607D01*
X131765883Y-90234671D01*
X131746670Y-90248921D01*
X131726153Y-90261218D01*
X131704529Y-90271446D01*
X131682007Y-90279504D01*
X131658803Y-90285316D01*
X131635142Y-90288826D01*
X131611250Y-90290000D01*
X131123750Y-90290000D01*
X131099858Y-90288826D01*
X131076197Y-90285316D01*
X131052993Y-90279504D01*
X131030471Y-90271446D01*
X131008847Y-90261218D01*
X130988330Y-90248921D01*
X130969117Y-90234671D01*
X130951393Y-90218607D01*
X130935329Y-90200883D01*
X130921079Y-90181670D01*
X130908782Y-90161153D01*
X130898554Y-90139529D01*
X130890496Y-90117007D01*
X130884684Y-90093803D01*
X130881174Y-90070142D01*
X130880000Y-90046250D01*
X130880000Y-89133750D01*
X130881174Y-89109858D01*
X130884684Y-89086197D01*
X130890496Y-89062993D01*
X130898554Y-89040471D01*
X130908782Y-89018847D01*
X130921079Y-88998330D01*
X130935329Y-88979117D01*
X130951393Y-88961393D01*
X130969117Y-88945329D01*
X130988330Y-88931079D01*
X131008847Y-88918782D01*
X131030471Y-88908554D01*
X131052993Y-88900496D01*
X131076197Y-88894684D01*
X131099858Y-88891174D01*
X131123750Y-88890000D01*
X131611250Y-88890000D01*
X131635142Y-88891174D01*
X131635142Y-88891174D01*
G37*
D11*
X131367500Y-89590000D03*
D10*
G36*
X129760142Y-88891174D02*
G01*
X129783803Y-88894684D01*
X129807007Y-88900496D01*
X129829529Y-88908554D01*
X129851153Y-88918782D01*
X129871670Y-88931079D01*
X129890883Y-88945329D01*
X129908607Y-88961393D01*
X129924671Y-88979117D01*
X129938921Y-88998330D01*
X129951218Y-89018847D01*
X129961446Y-89040471D01*
X129969504Y-89062993D01*
X129975316Y-89086197D01*
X129978826Y-89109858D01*
X129980000Y-89133750D01*
X129980000Y-90046250D01*
X129978826Y-90070142D01*
X129975316Y-90093803D01*
X129969504Y-90117007D01*
X129961446Y-90139529D01*
X129951218Y-90161153D01*
X129938921Y-90181670D01*
X129924671Y-90200883D01*
X129908607Y-90218607D01*
X129890883Y-90234671D01*
X129871670Y-90248921D01*
X129851153Y-90261218D01*
X129829529Y-90271446D01*
X129807007Y-90279504D01*
X129783803Y-90285316D01*
X129760142Y-90288826D01*
X129736250Y-90290000D01*
X129248750Y-90290000D01*
X129224858Y-90288826D01*
X129201197Y-90285316D01*
X129177993Y-90279504D01*
X129155471Y-90271446D01*
X129133847Y-90261218D01*
X129113330Y-90248921D01*
X129094117Y-90234671D01*
X129076393Y-90218607D01*
X129060329Y-90200883D01*
X129046079Y-90181670D01*
X129033782Y-90161153D01*
X129023554Y-90139529D01*
X129015496Y-90117007D01*
X129009684Y-90093803D01*
X129006174Y-90070142D01*
X129005000Y-90046250D01*
X129005000Y-89133750D01*
X129006174Y-89109858D01*
X129009684Y-89086197D01*
X129015496Y-89062993D01*
X129023554Y-89040471D01*
X129033782Y-89018847D01*
X129046079Y-88998330D01*
X129060329Y-88979117D01*
X129076393Y-88961393D01*
X129094117Y-88945329D01*
X129113330Y-88931079D01*
X129133847Y-88918782D01*
X129155471Y-88908554D01*
X129177993Y-88900496D01*
X129201197Y-88894684D01*
X129224858Y-88891174D01*
X129248750Y-88890000D01*
X129736250Y-88890000D01*
X129760142Y-88891174D01*
X129760142Y-88891174D01*
G37*
D11*
X129492500Y-89590000D03*
D10*
G36*
X102160142Y-109806174D02*
G01*
X102183803Y-109809684D01*
X102207007Y-109815496D01*
X102229529Y-109823554D01*
X102251153Y-109833782D01*
X102271670Y-109846079D01*
X102290883Y-109860329D01*
X102308607Y-109876393D01*
X102324671Y-109894117D01*
X102338921Y-109913330D01*
X102351218Y-109933847D01*
X102361446Y-109955471D01*
X102369504Y-109977993D01*
X102375316Y-110001197D01*
X102378826Y-110024858D01*
X102380000Y-110048750D01*
X102380000Y-110536250D01*
X102378826Y-110560142D01*
X102375316Y-110583803D01*
X102369504Y-110607007D01*
X102361446Y-110629529D01*
X102351218Y-110651153D01*
X102338921Y-110671670D01*
X102324671Y-110690883D01*
X102308607Y-110708607D01*
X102290883Y-110724671D01*
X102271670Y-110738921D01*
X102251153Y-110751218D01*
X102229529Y-110761446D01*
X102207007Y-110769504D01*
X102183803Y-110775316D01*
X102160142Y-110778826D01*
X102136250Y-110780000D01*
X101223750Y-110780000D01*
X101199858Y-110778826D01*
X101176197Y-110775316D01*
X101152993Y-110769504D01*
X101130471Y-110761446D01*
X101108847Y-110751218D01*
X101088330Y-110738921D01*
X101069117Y-110724671D01*
X101051393Y-110708607D01*
X101035329Y-110690883D01*
X101021079Y-110671670D01*
X101008782Y-110651153D01*
X100998554Y-110629529D01*
X100990496Y-110607007D01*
X100984684Y-110583803D01*
X100981174Y-110560142D01*
X100980000Y-110536250D01*
X100980000Y-110048750D01*
X100981174Y-110024858D01*
X100984684Y-110001197D01*
X100990496Y-109977993D01*
X100998554Y-109955471D01*
X101008782Y-109933847D01*
X101021079Y-109913330D01*
X101035329Y-109894117D01*
X101051393Y-109876393D01*
X101069117Y-109860329D01*
X101088330Y-109846079D01*
X101108847Y-109833782D01*
X101130471Y-109823554D01*
X101152993Y-109815496D01*
X101176197Y-109809684D01*
X101199858Y-109806174D01*
X101223750Y-109805000D01*
X102136250Y-109805000D01*
X102160142Y-109806174D01*
X102160142Y-109806174D01*
G37*
D11*
X101680000Y-110292500D03*
D10*
G36*
X102160142Y-111681174D02*
G01*
X102183803Y-111684684D01*
X102207007Y-111690496D01*
X102229529Y-111698554D01*
X102251153Y-111708782D01*
X102271670Y-111721079D01*
X102290883Y-111735329D01*
X102308607Y-111751393D01*
X102324671Y-111769117D01*
X102338921Y-111788330D01*
X102351218Y-111808847D01*
X102361446Y-111830471D01*
X102369504Y-111852993D01*
X102375316Y-111876197D01*
X102378826Y-111899858D01*
X102380000Y-111923750D01*
X102380000Y-112411250D01*
X102378826Y-112435142D01*
X102375316Y-112458803D01*
X102369504Y-112482007D01*
X102361446Y-112504529D01*
X102351218Y-112526153D01*
X102338921Y-112546670D01*
X102324671Y-112565883D01*
X102308607Y-112583607D01*
X102290883Y-112599671D01*
X102271670Y-112613921D01*
X102251153Y-112626218D01*
X102229529Y-112636446D01*
X102207007Y-112644504D01*
X102183803Y-112650316D01*
X102160142Y-112653826D01*
X102136250Y-112655000D01*
X101223750Y-112655000D01*
X101199858Y-112653826D01*
X101176197Y-112650316D01*
X101152993Y-112644504D01*
X101130471Y-112636446D01*
X101108847Y-112626218D01*
X101088330Y-112613921D01*
X101069117Y-112599671D01*
X101051393Y-112583607D01*
X101035329Y-112565883D01*
X101021079Y-112546670D01*
X101008782Y-112526153D01*
X100998554Y-112504529D01*
X100990496Y-112482007D01*
X100984684Y-112458803D01*
X100981174Y-112435142D01*
X100980000Y-112411250D01*
X100980000Y-111923750D01*
X100981174Y-111899858D01*
X100984684Y-111876197D01*
X100990496Y-111852993D01*
X100998554Y-111830471D01*
X101008782Y-111808847D01*
X101021079Y-111788330D01*
X101035329Y-111769117D01*
X101051393Y-111751393D01*
X101069117Y-111735329D01*
X101088330Y-111721079D01*
X101108847Y-111708782D01*
X101130471Y-111698554D01*
X101152993Y-111690496D01*
X101176197Y-111684684D01*
X101199858Y-111681174D01*
X101223750Y-111680000D01*
X102136250Y-111680000D01*
X102160142Y-111681174D01*
X102160142Y-111681174D01*
G37*
D11*
X101680000Y-112167500D03*
D10*
G36*
X111837642Y-97221174D02*
G01*
X111861303Y-97224684D01*
X111884507Y-97230496D01*
X111907029Y-97238554D01*
X111928653Y-97248782D01*
X111949170Y-97261079D01*
X111968383Y-97275329D01*
X111986107Y-97291393D01*
X112002171Y-97309117D01*
X112016421Y-97328330D01*
X112028718Y-97348847D01*
X112038946Y-97370471D01*
X112047004Y-97392993D01*
X112052816Y-97416197D01*
X112056326Y-97439858D01*
X112057500Y-97463750D01*
X112057500Y-98376250D01*
X112056326Y-98400142D01*
X112052816Y-98423803D01*
X112047004Y-98447007D01*
X112038946Y-98469529D01*
X112028718Y-98491153D01*
X112016421Y-98511670D01*
X112002171Y-98530883D01*
X111986107Y-98548607D01*
X111968383Y-98564671D01*
X111949170Y-98578921D01*
X111928653Y-98591218D01*
X111907029Y-98601446D01*
X111884507Y-98609504D01*
X111861303Y-98615316D01*
X111837642Y-98618826D01*
X111813750Y-98620000D01*
X111326250Y-98620000D01*
X111302358Y-98618826D01*
X111278697Y-98615316D01*
X111255493Y-98609504D01*
X111232971Y-98601446D01*
X111211347Y-98591218D01*
X111190830Y-98578921D01*
X111171617Y-98564671D01*
X111153893Y-98548607D01*
X111137829Y-98530883D01*
X111123579Y-98511670D01*
X111111282Y-98491153D01*
X111101054Y-98469529D01*
X111092996Y-98447007D01*
X111087184Y-98423803D01*
X111083674Y-98400142D01*
X111082500Y-98376250D01*
X111082500Y-97463750D01*
X111083674Y-97439858D01*
X111087184Y-97416197D01*
X111092996Y-97392993D01*
X111101054Y-97370471D01*
X111111282Y-97348847D01*
X111123579Y-97328330D01*
X111137829Y-97309117D01*
X111153893Y-97291393D01*
X111171617Y-97275329D01*
X111190830Y-97261079D01*
X111211347Y-97248782D01*
X111232971Y-97238554D01*
X111255493Y-97230496D01*
X111278697Y-97224684D01*
X111302358Y-97221174D01*
X111326250Y-97220000D01*
X111813750Y-97220000D01*
X111837642Y-97221174D01*
X111837642Y-97221174D01*
G37*
D11*
X111570000Y-97920000D03*
D10*
G36*
X109962642Y-97221174D02*
G01*
X109986303Y-97224684D01*
X110009507Y-97230496D01*
X110032029Y-97238554D01*
X110053653Y-97248782D01*
X110074170Y-97261079D01*
X110093383Y-97275329D01*
X110111107Y-97291393D01*
X110127171Y-97309117D01*
X110141421Y-97328330D01*
X110153718Y-97348847D01*
X110163946Y-97370471D01*
X110172004Y-97392993D01*
X110177816Y-97416197D01*
X110181326Y-97439858D01*
X110182500Y-97463750D01*
X110182500Y-98376250D01*
X110181326Y-98400142D01*
X110177816Y-98423803D01*
X110172004Y-98447007D01*
X110163946Y-98469529D01*
X110153718Y-98491153D01*
X110141421Y-98511670D01*
X110127171Y-98530883D01*
X110111107Y-98548607D01*
X110093383Y-98564671D01*
X110074170Y-98578921D01*
X110053653Y-98591218D01*
X110032029Y-98601446D01*
X110009507Y-98609504D01*
X109986303Y-98615316D01*
X109962642Y-98618826D01*
X109938750Y-98620000D01*
X109451250Y-98620000D01*
X109427358Y-98618826D01*
X109403697Y-98615316D01*
X109380493Y-98609504D01*
X109357971Y-98601446D01*
X109336347Y-98591218D01*
X109315830Y-98578921D01*
X109296617Y-98564671D01*
X109278893Y-98548607D01*
X109262829Y-98530883D01*
X109248579Y-98511670D01*
X109236282Y-98491153D01*
X109226054Y-98469529D01*
X109217996Y-98447007D01*
X109212184Y-98423803D01*
X109208674Y-98400142D01*
X109207500Y-98376250D01*
X109207500Y-97463750D01*
X109208674Y-97439858D01*
X109212184Y-97416197D01*
X109217996Y-97392993D01*
X109226054Y-97370471D01*
X109236282Y-97348847D01*
X109248579Y-97328330D01*
X109262829Y-97309117D01*
X109278893Y-97291393D01*
X109296617Y-97275329D01*
X109315830Y-97261079D01*
X109336347Y-97248782D01*
X109357971Y-97238554D01*
X109380493Y-97230496D01*
X109403697Y-97224684D01*
X109427358Y-97221174D01*
X109451250Y-97220000D01*
X109938750Y-97220000D01*
X109962642Y-97221174D01*
X109962642Y-97221174D01*
G37*
D11*
X109695000Y-97920000D03*
D20*
X147780000Y-96560000D03*
X147780000Y-97810000D03*
X147790000Y-99060000D03*
X147780000Y-100310000D03*
X147780000Y-101560000D03*
X141780000Y-96560000D03*
X141780000Y-97810000D03*
X141780000Y-99060000D03*
X141780000Y-100310000D03*
D21*
X144780000Y-93710000D03*
X144780000Y-104410000D03*
D20*
X141780000Y-101560000D03*
M02*
