G04 #@! TF.GenerationSoftware,KiCad,Pcbnew,(6.0.0-rc1-dev-1521-g81a0ab4d7)*
G04 #@! TF.CreationDate,2019-02-16T00:36:45+09:00
G04 #@! TF.ProjectId,lineses,6c696e65-7365-4732-9e6b-696361645f70,rev?*
G04 #@! TF.SameCoordinates,Original*
G04 #@! TF.FileFunction,Soldermask,Bot*
G04 #@! TF.FilePolarity,Negative*
%FSLAX46Y46*%
G04 Gerber Fmt 4.6, Leading zero omitted, Abs format (unit mm)*
G04 Created by KiCad (PCBNEW (6.0.0-rc1-dev-1521-g81a0ab4d7)) date 2019/02/16 0:36:45*
%MOMM*%
%LPD*%
G04 APERTURE LIST*
%ADD10C,0.100000*%
G04 APERTURE END LIST*
D10*
G36*
X79335198Y-111700078D02*
G01*
X79441521Y-111721227D01*
X79741984Y-111845683D01*
X80008794Y-112023960D01*
X80012396Y-112026367D01*
X80242355Y-112256326D01*
X80423040Y-112526740D01*
X80547495Y-112827202D01*
X80610942Y-113146169D01*
X80610942Y-113471391D01*
X80547495Y-113790358D01*
X80423040Y-114090820D01*
X80242355Y-114361234D01*
X80012396Y-114591193D01*
X80012393Y-114591195D01*
X79741984Y-114771877D01*
X79441521Y-114896333D01*
X79335198Y-114917482D01*
X79122553Y-114959780D01*
X78797331Y-114959780D01*
X78584686Y-114917482D01*
X78478363Y-114896333D01*
X78177900Y-114771877D01*
X77907491Y-114591195D01*
X77907488Y-114591193D01*
X77677529Y-114361234D01*
X77496844Y-114090820D01*
X77372389Y-113790358D01*
X77308942Y-113471391D01*
X77308942Y-113146169D01*
X77372389Y-112827202D01*
X77496844Y-112526740D01*
X77677529Y-112256326D01*
X77907488Y-112026367D01*
X77911090Y-112023960D01*
X78177900Y-111845683D01*
X78478363Y-111721227D01*
X78584686Y-111700078D01*
X78797331Y-111657780D01*
X79122553Y-111657780D01*
X79335198Y-111700078D01*
X79335198Y-111700078D01*
G37*
G36*
X88571033Y-108087874D02*
G01*
X88718993Y-108149162D01*
X88786021Y-108193949D01*
X88850650Y-108237132D01*
X88852149Y-108238134D01*
X88965389Y-108351374D01*
X89054361Y-108484530D01*
X89115649Y-108632490D01*
X89146891Y-108789557D01*
X89146891Y-108949707D01*
X89115649Y-109106774D01*
X89068245Y-109221215D01*
X89054777Y-109253731D01*
X89054361Y-109254734D01*
X89050656Y-109260279D01*
X88991208Y-109349250D01*
X88965389Y-109387890D01*
X88852149Y-109501130D01*
X88718993Y-109590102D01*
X88571033Y-109651390D01*
X88413966Y-109682632D01*
X88253816Y-109682632D01*
X88096749Y-109651390D01*
X87948789Y-109590102D01*
X87815633Y-109501130D01*
X87702393Y-109387890D01*
X87676575Y-109349250D01*
X87617126Y-109260279D01*
X87613421Y-109254734D01*
X87613006Y-109253731D01*
X87599537Y-109221215D01*
X87552133Y-109106774D01*
X87520891Y-108949707D01*
X87520891Y-108789557D01*
X87552133Y-108632490D01*
X87613421Y-108484530D01*
X87702393Y-108351374D01*
X87815633Y-108238134D01*
X87817133Y-108237132D01*
X87881761Y-108193949D01*
X87948789Y-108149162D01*
X88096749Y-108087874D01*
X88253816Y-108056632D01*
X88413966Y-108056632D01*
X88571033Y-108087874D01*
X88571033Y-108087874D01*
G37*
G36*
X76547084Y-107847022D02*
G01*
X76695044Y-107908310D01*
X76762072Y-107953097D01*
X76828199Y-107997281D01*
X76941441Y-108110523D01*
X76985625Y-108176650D01*
X77030412Y-108243678D01*
X77091700Y-108391638D01*
X77122942Y-108548705D01*
X77122942Y-108708855D01*
X77091700Y-108865922D01*
X77044296Y-108980363D01*
X77030413Y-109013880D01*
X76945816Y-109140490D01*
X76941440Y-109147038D01*
X76828200Y-109260278D01*
X76695044Y-109349250D01*
X76547084Y-109410538D01*
X76390017Y-109441780D01*
X76229867Y-109441780D01*
X76072800Y-109410538D01*
X75924840Y-109349250D01*
X75791684Y-109260278D01*
X75678444Y-109147038D01*
X75674069Y-109140490D01*
X75589471Y-109013880D01*
X75575588Y-108980363D01*
X75528184Y-108865922D01*
X75496942Y-108708855D01*
X75496942Y-108548705D01*
X75528184Y-108391638D01*
X75589472Y-108243678D01*
X75634259Y-108176650D01*
X75678443Y-108110523D01*
X75791685Y-107997281D01*
X75857812Y-107953097D01*
X75924840Y-107908310D01*
X76072800Y-107847022D01*
X76229867Y-107815780D01*
X76390017Y-107815780D01*
X76547084Y-107847022D01*
X76547084Y-107847022D01*
G37*
G36*
X81627084Y-107847022D02*
G01*
X81775044Y-107908310D01*
X81842072Y-107953097D01*
X81908199Y-107997281D01*
X82021441Y-108110523D01*
X82065625Y-108176650D01*
X82110412Y-108243678D01*
X82171700Y-108391638D01*
X82202942Y-108548705D01*
X82202942Y-108708855D01*
X82171700Y-108865922D01*
X82124296Y-108980363D01*
X82110413Y-109013880D01*
X82025816Y-109140490D01*
X82021440Y-109147038D01*
X81908200Y-109260278D01*
X81775044Y-109349250D01*
X81627084Y-109410538D01*
X81470017Y-109441780D01*
X81309867Y-109441780D01*
X81152800Y-109410538D01*
X81004840Y-109349250D01*
X80871684Y-109260278D01*
X80758444Y-109147038D01*
X80754069Y-109140490D01*
X80669471Y-109013880D01*
X80655588Y-108980363D01*
X80608184Y-108865922D01*
X80576942Y-108708855D01*
X80576942Y-108548705D01*
X80608184Y-108391638D01*
X80669472Y-108243678D01*
X80714259Y-108176650D01*
X80758443Y-108110523D01*
X80871685Y-107997281D01*
X80937812Y-107953097D01*
X81004840Y-107908310D01*
X81152800Y-107847022D01*
X81309867Y-107815780D01*
X81470017Y-107815780D01*
X81627084Y-107847022D01*
X81627084Y-107847022D01*
G37*
G36*
X69749684Y-107840474D02*
G01*
X69897644Y-107901762D01*
X69964672Y-107946549D01*
X70030799Y-107990733D01*
X70144041Y-108103975D01*
X70148416Y-108110523D01*
X70209522Y-108201974D01*
X70233013Y-108237132D01*
X70233428Y-108238134D01*
X70294300Y-108385090D01*
X70325542Y-108542157D01*
X70325542Y-108702307D01*
X70294300Y-108859374D01*
X70233012Y-109007334D01*
X70221053Y-109025232D01*
X70144041Y-109140489D01*
X70030799Y-109253731D01*
X70020999Y-109260279D01*
X69897644Y-109342702D01*
X69749684Y-109403990D01*
X69592617Y-109435232D01*
X69432467Y-109435232D01*
X69275400Y-109403990D01*
X69127440Y-109342702D01*
X69004085Y-109260279D01*
X68994285Y-109253731D01*
X68881043Y-109140489D01*
X68804031Y-109025232D01*
X68792072Y-109007334D01*
X68730784Y-108859374D01*
X68699542Y-108702307D01*
X68699542Y-108542157D01*
X68730784Y-108385090D01*
X68791656Y-108238134D01*
X68792071Y-108237132D01*
X68815563Y-108201974D01*
X68876668Y-108110523D01*
X68881043Y-108103975D01*
X68994285Y-107990733D01*
X69060412Y-107946549D01*
X69127440Y-107901762D01*
X69275400Y-107840474D01*
X69432467Y-107809232D01*
X69592617Y-107809232D01*
X69749684Y-107840474D01*
X69749684Y-107840474D01*
G37*
G36*
X91024484Y-107430474D02*
G01*
X91172444Y-107491762D01*
X91305600Y-107580734D01*
X91418840Y-107693974D01*
X91507812Y-107827130D01*
X91569100Y-107975090D01*
X91600342Y-108132157D01*
X91600342Y-108292307D01*
X91569100Y-108449374D01*
X91507812Y-108597334D01*
X91463025Y-108664362D01*
X91418841Y-108730489D01*
X91305599Y-108843731D01*
X91272386Y-108865923D01*
X91172444Y-108932702D01*
X91024484Y-108993990D01*
X90867417Y-109025232D01*
X90707267Y-109025232D01*
X90550200Y-108993990D01*
X90402240Y-108932702D01*
X90302298Y-108865923D01*
X90269085Y-108843731D01*
X90155843Y-108730489D01*
X90111659Y-108664362D01*
X90066872Y-108597334D01*
X90005584Y-108449374D01*
X89974342Y-108292307D01*
X89974342Y-108132157D01*
X90005584Y-107975090D01*
X90066872Y-107827130D01*
X90155844Y-107693974D01*
X90269084Y-107580734D01*
X90402240Y-107491762D01*
X90550200Y-107430474D01*
X90707267Y-107399232D01*
X90867417Y-107399232D01*
X91024484Y-107430474D01*
X91024484Y-107430474D01*
G37*
G36*
X67296232Y-107183073D02*
G01*
X67444192Y-107244361D01*
X67577348Y-107333333D01*
X67690588Y-107446573D01*
X67779560Y-107579729D01*
X67840848Y-107727689D01*
X67872090Y-107884756D01*
X67872090Y-108044906D01*
X67840848Y-108201973D01*
X67779560Y-108349933D01*
X67690588Y-108483089D01*
X67577348Y-108596329D01*
X67444192Y-108685301D01*
X67296232Y-108746589D01*
X67139165Y-108777831D01*
X66979015Y-108777831D01*
X66821948Y-108746589D01*
X66673988Y-108685301D01*
X66540832Y-108596329D01*
X66427592Y-108483089D01*
X66338620Y-108349933D01*
X66277332Y-108201973D01*
X66246090Y-108044906D01*
X66246090Y-107884756D01*
X66277332Y-107727689D01*
X66338620Y-107579729D01*
X66427592Y-107446573D01*
X66540832Y-107333333D01*
X66673988Y-107244361D01*
X66821948Y-107183073D01*
X66979015Y-107151831D01*
X67139165Y-107151831D01*
X67296232Y-107183073D01*
X67296232Y-107183073D01*
G37*
G36*
X81627084Y-105307022D02*
G01*
X81775044Y-105368310D01*
X81817595Y-105396742D01*
X81908199Y-105457281D01*
X82021441Y-105570523D01*
X82040439Y-105598956D01*
X82110412Y-105703678D01*
X82171700Y-105851638D01*
X82202942Y-106008705D01*
X82202942Y-106168855D01*
X82171700Y-106325922D01*
X82110412Y-106473882D01*
X82021440Y-106607038D01*
X81908200Y-106720278D01*
X81775044Y-106809250D01*
X81627084Y-106870538D01*
X81470017Y-106901780D01*
X81309867Y-106901780D01*
X81152800Y-106870538D01*
X81004840Y-106809250D01*
X80871684Y-106720278D01*
X80758444Y-106607038D01*
X80669472Y-106473882D01*
X80608184Y-106325922D01*
X80576942Y-106168855D01*
X80576942Y-106008705D01*
X80608184Y-105851638D01*
X80669472Y-105703678D01*
X80739445Y-105598956D01*
X80758443Y-105570523D01*
X80871685Y-105457281D01*
X80962289Y-105396742D01*
X81004840Y-105368310D01*
X81152800Y-105307022D01*
X81309867Y-105275780D01*
X81470017Y-105275780D01*
X81627084Y-105307022D01*
X81627084Y-105307022D01*
G37*
G36*
X76547084Y-105307022D02*
G01*
X76695044Y-105368310D01*
X76737595Y-105396742D01*
X76828199Y-105457281D01*
X76941441Y-105570523D01*
X76960439Y-105598956D01*
X77030412Y-105703678D01*
X77091700Y-105851638D01*
X77122942Y-106008705D01*
X77122942Y-106168855D01*
X77091700Y-106325922D01*
X77030412Y-106473882D01*
X76941440Y-106607038D01*
X76828200Y-106720278D01*
X76695044Y-106809250D01*
X76547084Y-106870538D01*
X76390017Y-106901780D01*
X76229867Y-106901780D01*
X76072800Y-106870538D01*
X75924840Y-106809250D01*
X75791684Y-106720278D01*
X75678444Y-106607038D01*
X75589472Y-106473882D01*
X75528184Y-106325922D01*
X75496942Y-106168855D01*
X75496942Y-106008705D01*
X75528184Y-105851638D01*
X75589472Y-105703678D01*
X75659445Y-105598956D01*
X75678443Y-105570523D01*
X75791685Y-105457281D01*
X75882289Y-105396742D01*
X75924840Y-105368310D01*
X76072800Y-105307022D01*
X76229867Y-105275780D01*
X76390017Y-105275780D01*
X76547084Y-105307022D01*
X76547084Y-105307022D01*
G37*
G36*
X59497084Y-104336727D02*
G01*
X59645044Y-104398015D01*
X59680169Y-104421485D01*
X59778199Y-104486986D01*
X59891441Y-104600228D01*
X59980413Y-104733385D01*
X59994296Y-104766902D01*
X60041700Y-104881343D01*
X60072942Y-105038410D01*
X60072942Y-105198560D01*
X60041700Y-105355627D01*
X59980412Y-105503587D01*
X59935687Y-105570522D01*
X59916689Y-105598956D01*
X59891440Y-105636743D01*
X59778200Y-105749983D01*
X59645044Y-105838955D01*
X59497084Y-105900243D01*
X59340017Y-105931485D01*
X59179867Y-105931485D01*
X59022800Y-105900243D01*
X58874840Y-105838955D01*
X58741684Y-105749983D01*
X58628444Y-105636743D01*
X58603196Y-105598956D01*
X58584197Y-105570522D01*
X58539472Y-105503587D01*
X58478184Y-105355627D01*
X58446942Y-105198560D01*
X58446942Y-105038410D01*
X58478184Y-104881343D01*
X58525588Y-104766902D01*
X58539471Y-104733385D01*
X58628443Y-104600228D01*
X58741685Y-104486986D01*
X58839715Y-104421485D01*
X58874840Y-104398015D01*
X59022800Y-104336727D01*
X59179867Y-104305485D01*
X59340017Y-104305485D01*
X59497084Y-104336727D01*
X59497084Y-104336727D01*
G37*
G36*
X98977379Y-104096727D02*
G01*
X99125339Y-104158015D01*
X99187981Y-104199871D01*
X99258494Y-104246986D01*
X99371736Y-104360228D01*
X99396984Y-104398015D01*
X99456433Y-104486986D01*
X99460708Y-104493385D01*
X99462241Y-104497086D01*
X99521995Y-104641343D01*
X99553237Y-104798410D01*
X99553237Y-104958560D01*
X99521995Y-105115627D01*
X99487643Y-105198559D01*
X99460708Y-105263585D01*
X99390734Y-105368310D01*
X99371735Y-105396743D01*
X99258495Y-105509983D01*
X99125339Y-105598955D01*
X98977379Y-105660243D01*
X98820312Y-105691485D01*
X98660162Y-105691485D01*
X98503095Y-105660243D01*
X98355135Y-105598955D01*
X98221979Y-105509983D01*
X98108739Y-105396743D01*
X98089741Y-105368310D01*
X98019766Y-105263585D01*
X97992831Y-105198559D01*
X97958479Y-105115627D01*
X97927237Y-104958560D01*
X97927237Y-104798410D01*
X97958479Y-104641343D01*
X98018233Y-104497086D01*
X98019766Y-104493385D01*
X98024042Y-104486986D01*
X98083490Y-104398015D01*
X98108738Y-104360228D01*
X98221980Y-104246986D01*
X98292493Y-104199871D01*
X98355135Y-104158015D01*
X98503095Y-104096727D01*
X98660162Y-104065485D01*
X98820312Y-104065485D01*
X98977379Y-104096727D01*
X98977379Y-104096727D01*
G37*
G36*
X87256232Y-103180971D02*
G01*
X87404192Y-103242259D01*
X87471220Y-103287046D01*
X87535846Y-103330227D01*
X87537348Y-103331231D01*
X87650588Y-103444471D01*
X87739560Y-103577627D01*
X87800848Y-103725587D01*
X87832090Y-103882654D01*
X87832090Y-104042804D01*
X87800848Y-104199871D01*
X87757101Y-104305485D01*
X87744160Y-104336727D01*
X87739560Y-104347831D01*
X87726924Y-104366742D01*
X87650589Y-104480986D01*
X87537347Y-104594228D01*
X87528367Y-104600228D01*
X87404192Y-104683199D01*
X87256232Y-104744487D01*
X87099165Y-104775729D01*
X86939015Y-104775729D01*
X86781948Y-104744487D01*
X86633988Y-104683199D01*
X86509813Y-104600228D01*
X86500833Y-104594228D01*
X86387591Y-104480986D01*
X86311256Y-104366742D01*
X86298620Y-104347831D01*
X86294021Y-104336727D01*
X86281079Y-104305485D01*
X86237332Y-104199871D01*
X86206090Y-104042804D01*
X86206090Y-103882654D01*
X86237332Y-103725587D01*
X86298620Y-103577627D01*
X86387592Y-103444471D01*
X86500832Y-103331231D01*
X86502335Y-103330227D01*
X86566960Y-103287046D01*
X86633988Y-103242259D01*
X86781948Y-103180971D01*
X86939015Y-103149729D01*
X87099165Y-103149729D01*
X87256232Y-103180971D01*
X87256232Y-103180971D01*
G37*
G36*
X57297379Y-103066727D02*
G01*
X57445339Y-103128015D01*
X57460287Y-103138003D01*
X57578494Y-103216986D01*
X57691736Y-103330228D01*
X57692406Y-103331231D01*
X57780707Y-103463383D01*
X57841995Y-103611343D01*
X57873237Y-103768410D01*
X57873237Y-103928560D01*
X57841995Y-104085627D01*
X57780707Y-104233587D01*
X57771754Y-104246986D01*
X57691736Y-104366742D01*
X57578494Y-104479984D01*
X57552900Y-104497085D01*
X57445339Y-104568955D01*
X57297379Y-104630243D01*
X57140312Y-104661485D01*
X56980162Y-104661485D01*
X56823095Y-104630243D01*
X56675135Y-104568955D01*
X56567574Y-104497085D01*
X56541980Y-104479984D01*
X56428738Y-104366742D01*
X56348720Y-104246986D01*
X56339767Y-104233587D01*
X56278479Y-104085627D01*
X56247237Y-103928560D01*
X56247237Y-103768410D01*
X56278479Y-103611343D01*
X56339767Y-103463383D01*
X56428068Y-103331231D01*
X56428738Y-103330228D01*
X56541980Y-103216986D01*
X56660187Y-103138003D01*
X56675135Y-103128015D01*
X56823095Y-103066727D01*
X56980162Y-103035485D01*
X57140312Y-103035485D01*
X57297379Y-103066727D01*
X57297379Y-103066727D01*
G37*
G36*
X71064484Y-102933570D02*
G01*
X71212444Y-102994858D01*
X71273247Y-103035485D01*
X71345599Y-103083829D01*
X71458841Y-103197071D01*
X71472148Y-103216987D01*
X71547812Y-103330226D01*
X71609100Y-103478186D01*
X71640342Y-103635253D01*
X71640342Y-103795403D01*
X71609100Y-103952470D01*
X71571682Y-104042803D01*
X71547813Y-104100428D01*
X71458841Y-104233585D01*
X71345599Y-104346827D01*
X71315794Y-104366742D01*
X71212444Y-104435798D01*
X71064484Y-104497086D01*
X70907417Y-104528328D01*
X70747267Y-104528328D01*
X70590200Y-104497086D01*
X70442240Y-104435798D01*
X70338890Y-104366742D01*
X70309085Y-104346827D01*
X70195843Y-104233585D01*
X70106871Y-104100428D01*
X70083002Y-104042803D01*
X70045584Y-103952470D01*
X70014342Y-103795403D01*
X70014342Y-103635253D01*
X70045584Y-103478186D01*
X70106872Y-103330226D01*
X70182536Y-103216987D01*
X70195843Y-103197071D01*
X70309085Y-103083829D01*
X70381437Y-103035485D01*
X70442240Y-102994858D01*
X70590200Y-102933570D01*
X70747267Y-102902328D01*
X70907417Y-102902328D01*
X71064484Y-102933570D01*
X71064484Y-102933570D01*
G37*
G36*
X101177084Y-102826727D02*
G01*
X101325044Y-102888015D01*
X101346465Y-102902328D01*
X101458199Y-102976986D01*
X101571441Y-103090228D01*
X101596689Y-103128015D01*
X101660412Y-103223383D01*
X101721700Y-103371343D01*
X101752942Y-103528410D01*
X101752942Y-103688560D01*
X101721700Y-103845627D01*
X101660412Y-103993587D01*
X101627527Y-104042803D01*
X101571441Y-104126742D01*
X101458199Y-104239984D01*
X101447718Y-104246987D01*
X101325044Y-104328955D01*
X101177084Y-104390243D01*
X101020017Y-104421485D01*
X100859867Y-104421485D01*
X100702800Y-104390243D01*
X100554840Y-104328955D01*
X100432166Y-104246987D01*
X100421685Y-104239984D01*
X100308443Y-104126742D01*
X100252357Y-104042803D01*
X100219472Y-103993587D01*
X100158184Y-103845627D01*
X100126942Y-103688560D01*
X100126942Y-103528410D01*
X100158184Y-103371343D01*
X100219472Y-103223383D01*
X100283195Y-103128015D01*
X100308443Y-103090228D01*
X100421685Y-102976986D01*
X100533419Y-102902328D01*
X100554840Y-102888015D01*
X100702800Y-102826727D01*
X100859867Y-102795485D01*
X101020017Y-102795485D01*
X101177084Y-102826727D01*
X101177084Y-102826727D01*
G37*
G36*
X89709684Y-102523570D02*
G01*
X89857644Y-102584858D01*
X89924672Y-102629645D01*
X89989301Y-102672828D01*
X89990800Y-102673830D01*
X90104040Y-102787070D01*
X90193012Y-102920226D01*
X90254300Y-103068186D01*
X90285542Y-103225253D01*
X90285542Y-103385403D01*
X90254300Y-103542470D01*
X90240334Y-103576186D01*
X90193428Y-103689427D01*
X90193012Y-103690430D01*
X90104040Y-103823586D01*
X89990800Y-103936826D01*
X89857644Y-104025798D01*
X89709684Y-104087086D01*
X89552617Y-104118328D01*
X89392467Y-104118328D01*
X89235400Y-104087086D01*
X89087440Y-104025798D01*
X88954284Y-103936826D01*
X88841044Y-103823586D01*
X88752072Y-103690430D01*
X88751657Y-103689427D01*
X88704750Y-103576186D01*
X88690784Y-103542470D01*
X88659542Y-103385403D01*
X88659542Y-103225253D01*
X88690784Y-103068186D01*
X88752072Y-102920226D01*
X88841044Y-102787070D01*
X88954284Y-102673830D01*
X88955784Y-102672828D01*
X89020412Y-102629645D01*
X89087440Y-102584858D01*
X89235400Y-102523570D01*
X89392467Y-102492328D01*
X89552617Y-102492328D01*
X89709684Y-102523570D01*
X89709684Y-102523570D01*
G37*
G36*
X68611033Y-102276170D02*
G01*
X68758993Y-102337458D01*
X68826021Y-102382245D01*
X68892148Y-102426429D01*
X69005390Y-102539671D01*
X69094362Y-102672828D01*
X69094777Y-102673830D01*
X69155649Y-102820786D01*
X69186891Y-102977853D01*
X69186891Y-103138003D01*
X69155649Y-103295070D01*
X69094361Y-103443030D01*
X69049574Y-103510058D01*
X69005390Y-103576185D01*
X68892148Y-103689427D01*
X68838032Y-103725586D01*
X68758993Y-103778398D01*
X68611033Y-103839686D01*
X68453966Y-103870928D01*
X68293816Y-103870928D01*
X68136749Y-103839686D01*
X67988789Y-103778398D01*
X67909750Y-103725586D01*
X67855634Y-103689427D01*
X67742392Y-103576185D01*
X67698208Y-103510058D01*
X67653421Y-103443030D01*
X67592133Y-103295070D01*
X67560891Y-103138003D01*
X67560891Y-102977853D01*
X67592133Y-102820786D01*
X67653005Y-102673830D01*
X67653420Y-102672828D01*
X67742392Y-102539671D01*
X67855634Y-102426429D01*
X67921761Y-102382245D01*
X67988789Y-102337458D01*
X68136749Y-102276170D01*
X68293816Y-102244928D01*
X68453966Y-102244928D01*
X68611033Y-102276170D01*
X68611033Y-102276170D01*
G37*
G36*
X62037084Y-99937317D02*
G01*
X62185044Y-99998605D01*
X62220169Y-100022075D01*
X62318199Y-100087576D01*
X62431441Y-100200818D01*
X62451496Y-100230833D01*
X62520412Y-100333973D01*
X62581700Y-100481933D01*
X62612942Y-100639000D01*
X62612942Y-100799150D01*
X62581700Y-100956217D01*
X62520412Y-101104177D01*
X62475625Y-101171205D01*
X62456689Y-101199546D01*
X62431440Y-101237333D01*
X62318200Y-101350573D01*
X62185044Y-101439545D01*
X62037084Y-101500833D01*
X61880017Y-101532075D01*
X61719867Y-101532075D01*
X61562800Y-101500833D01*
X61414840Y-101439545D01*
X61281684Y-101350573D01*
X61168444Y-101237333D01*
X61143196Y-101199546D01*
X61124259Y-101171205D01*
X61079472Y-101104177D01*
X61018184Y-100956217D01*
X60986942Y-100799150D01*
X60986942Y-100639000D01*
X61018184Y-100481933D01*
X61079472Y-100333973D01*
X61148388Y-100230833D01*
X61168443Y-100200818D01*
X61281685Y-100087576D01*
X61379715Y-100022075D01*
X61414840Y-99998605D01*
X61562800Y-99937317D01*
X61719867Y-99906075D01*
X61880017Y-99906075D01*
X62037084Y-99937317D01*
X62037084Y-99937317D01*
G37*
G36*
X96437379Y-99697317D02*
G01*
X96585339Y-99758605D01*
X96652367Y-99803392D01*
X96718494Y-99847576D01*
X96831736Y-99960818D01*
X96856984Y-99998605D01*
X96920707Y-100093973D01*
X96981995Y-100241933D01*
X97013237Y-100399000D01*
X97013237Y-100559150D01*
X96981995Y-100716217D01*
X96920707Y-100864177D01*
X96831735Y-100997333D01*
X96718495Y-101110573D01*
X96585339Y-101199545D01*
X96437379Y-101260833D01*
X96280312Y-101292075D01*
X96120162Y-101292075D01*
X95963095Y-101260833D01*
X95815135Y-101199545D01*
X95681979Y-101110573D01*
X95568739Y-100997333D01*
X95479767Y-100864177D01*
X95418479Y-100716217D01*
X95387237Y-100559150D01*
X95387237Y-100399000D01*
X95418479Y-100241933D01*
X95479767Y-100093973D01*
X95543490Y-99998605D01*
X95568738Y-99960818D01*
X95681980Y-99847576D01*
X95748107Y-99803392D01*
X95815135Y-99758605D01*
X95963095Y-99697317D01*
X96120162Y-99666075D01*
X96280312Y-99666075D01*
X96437379Y-99697317D01*
X96437379Y-99697317D01*
G37*
G36*
X59837379Y-98667317D02*
G01*
X59985339Y-98728605D01*
X60118495Y-98817577D01*
X60231735Y-98930817D01*
X60320707Y-99063973D01*
X60381995Y-99211933D01*
X60413237Y-99369000D01*
X60413237Y-99529150D01*
X60381995Y-99686217D01*
X60320707Y-99834177D01*
X60311754Y-99847576D01*
X60231736Y-99967332D01*
X60118494Y-100080574D01*
X60052367Y-100124758D01*
X59985339Y-100169545D01*
X59837379Y-100230833D01*
X59680312Y-100262075D01*
X59520162Y-100262075D01*
X59363095Y-100230833D01*
X59215135Y-100169545D01*
X59148107Y-100124758D01*
X59081980Y-100080574D01*
X58968738Y-99967332D01*
X58888720Y-99847576D01*
X58879767Y-99834177D01*
X58818479Y-99686217D01*
X58787237Y-99529150D01*
X58787237Y-99369000D01*
X58818479Y-99211933D01*
X58879767Y-99063973D01*
X58968739Y-98930817D01*
X59081979Y-98817577D01*
X59215135Y-98728605D01*
X59363095Y-98667317D01*
X59520162Y-98636075D01*
X59680312Y-98636075D01*
X59837379Y-98667317D01*
X59837379Y-98667317D01*
G37*
G36*
X98637084Y-98427317D02*
G01*
X98785044Y-98488605D01*
X98818273Y-98510808D01*
X98918199Y-98577576D01*
X99031441Y-98690818D01*
X99056689Y-98728605D01*
X99116138Y-98817576D01*
X99120413Y-98823975D01*
X99134296Y-98857492D01*
X99181700Y-98971933D01*
X99212942Y-99129000D01*
X99212942Y-99289150D01*
X99181700Y-99446217D01*
X99160320Y-99497831D01*
X99120413Y-99594175D01*
X99031441Y-99727332D01*
X98918199Y-99840574D01*
X98907718Y-99847577D01*
X98785044Y-99929545D01*
X98637084Y-99990833D01*
X98480017Y-100022075D01*
X98319867Y-100022075D01*
X98162800Y-99990833D01*
X98014840Y-99929545D01*
X97892166Y-99847577D01*
X97881685Y-99840574D01*
X97768443Y-99727332D01*
X97679471Y-99594175D01*
X97639564Y-99497831D01*
X97618184Y-99446217D01*
X97586942Y-99289150D01*
X97586942Y-99129000D01*
X97618184Y-98971933D01*
X97665588Y-98857492D01*
X97679471Y-98823975D01*
X97683747Y-98817576D01*
X97743195Y-98728605D01*
X97768443Y-98690818D01*
X97881685Y-98577576D01*
X97981611Y-98510808D01*
X98014840Y-98488605D01*
X98162800Y-98427317D01*
X98319867Y-98396075D01*
X98480017Y-98396075D01*
X98637084Y-98427317D01*
X98637084Y-98427317D01*
G37*
G36*
X50641033Y-97903073D02*
G01*
X50788993Y-97964361D01*
X50922149Y-98053333D01*
X51035389Y-98166573D01*
X51124361Y-98299729D01*
X51185649Y-98447689D01*
X51216891Y-98604756D01*
X51216891Y-98764906D01*
X51185649Y-98921973D01*
X51124361Y-99069933D01*
X51035389Y-99203089D01*
X50922149Y-99316329D01*
X50788993Y-99405301D01*
X50641033Y-99466589D01*
X50483966Y-99497831D01*
X50323816Y-99497831D01*
X50166749Y-99466589D01*
X50018789Y-99405301D01*
X49885633Y-99316329D01*
X49772393Y-99203089D01*
X49683421Y-99069933D01*
X49622133Y-98921973D01*
X49590891Y-98764906D01*
X49590891Y-98604756D01*
X49622133Y-98447689D01*
X49683421Y-98299729D01*
X49772393Y-98166573D01*
X49885633Y-98053333D01*
X50018789Y-97964361D01*
X50166749Y-97903073D01*
X50323816Y-97871831D01*
X50483966Y-97871831D01*
X50641033Y-97903073D01*
X50641033Y-97903073D01*
G37*
G36*
X107697084Y-97809124D02*
G01*
X107845044Y-97870412D01*
X107978200Y-97959384D01*
X108091440Y-98072624D01*
X108180412Y-98205780D01*
X108241700Y-98353740D01*
X108272942Y-98510807D01*
X108272942Y-98670957D01*
X108241700Y-98828024D01*
X108202784Y-98921973D01*
X108182091Y-98971932D01*
X108180412Y-98975984D01*
X108091440Y-99109140D01*
X107978200Y-99222380D01*
X107845044Y-99311352D01*
X107697084Y-99372640D01*
X107540017Y-99403882D01*
X107379867Y-99403882D01*
X107222800Y-99372640D01*
X107074840Y-99311352D01*
X106941684Y-99222380D01*
X106828444Y-99109140D01*
X106739472Y-98975984D01*
X106737794Y-98971932D01*
X106717100Y-98921973D01*
X106678184Y-98828024D01*
X106646942Y-98670957D01*
X106646942Y-98510807D01*
X106678184Y-98353740D01*
X106739472Y-98205780D01*
X106828444Y-98072624D01*
X106941684Y-97959384D01*
X107074840Y-97870412D01*
X107222800Y-97809124D01*
X107379867Y-97777882D01*
X107540017Y-97777882D01*
X107697084Y-97809124D01*
X107697084Y-97809124D01*
G37*
G36*
X48844982Y-96107022D02*
G01*
X48992942Y-96168310D01*
X49126098Y-96257282D01*
X49239338Y-96370522D01*
X49328310Y-96503678D01*
X49389598Y-96651638D01*
X49420840Y-96808705D01*
X49420840Y-96968855D01*
X49389598Y-97125922D01*
X49328310Y-97273882D01*
X49239338Y-97407038D01*
X49126098Y-97520278D01*
X48992942Y-97609250D01*
X48844982Y-97670538D01*
X48687915Y-97701780D01*
X48527765Y-97701780D01*
X48370698Y-97670538D01*
X48222738Y-97609250D01*
X48089582Y-97520278D01*
X47976342Y-97407038D01*
X47887370Y-97273882D01*
X47826082Y-97125922D01*
X47794840Y-96968855D01*
X47794840Y-96808705D01*
X47826082Y-96651638D01*
X47887370Y-96503678D01*
X47976342Y-96370522D01*
X48089582Y-96257282D01*
X48222738Y-96168310D01*
X48370698Y-96107022D01*
X48527765Y-96075780D01*
X48687915Y-96075780D01*
X48844982Y-96107022D01*
X48844982Y-96107022D01*
G37*
G36*
X109493135Y-96013073D02*
G01*
X109641095Y-96074361D01*
X109774251Y-96163333D01*
X109887491Y-96276573D01*
X109976463Y-96409729D01*
X110037751Y-96557689D01*
X110068993Y-96714756D01*
X110068993Y-96874906D01*
X110037751Y-97031973D01*
X109976463Y-97179933D01*
X109887491Y-97313089D01*
X109774251Y-97426329D01*
X109641095Y-97515301D01*
X109493135Y-97576589D01*
X109336068Y-97607831D01*
X109175918Y-97607831D01*
X109018851Y-97576589D01*
X108870891Y-97515301D01*
X108737735Y-97426329D01*
X108624495Y-97313089D01*
X108535523Y-97179933D01*
X108474235Y-97031973D01*
X108442993Y-96874906D01*
X108442993Y-96714756D01*
X108474235Y-96557689D01*
X108535523Y-96409729D01*
X108624495Y-96276573D01*
X108737735Y-96163333D01*
X108870891Y-96074361D01*
X109018851Y-96013073D01*
X109175918Y-95981831D01*
X109336068Y-95981831D01*
X109493135Y-96013073D01*
X109493135Y-96013073D01*
G37*
G36*
X54233135Y-94310971D02*
G01*
X54381095Y-94372259D01*
X54514251Y-94461231D01*
X54627491Y-94574471D01*
X54716463Y-94707627D01*
X54777751Y-94855587D01*
X54808993Y-95012654D01*
X54808993Y-95172804D01*
X54777751Y-95329871D01*
X54716463Y-95477831D01*
X54627491Y-95610987D01*
X54514251Y-95724227D01*
X54381095Y-95813199D01*
X54233135Y-95874487D01*
X54076068Y-95905729D01*
X53915918Y-95905729D01*
X53758851Y-95874487D01*
X53610891Y-95813199D01*
X53477735Y-95724227D01*
X53364495Y-95610987D01*
X53275523Y-95477831D01*
X53214235Y-95329871D01*
X53182993Y-95172804D01*
X53182993Y-95012654D01*
X53214235Y-94855587D01*
X53275523Y-94707627D01*
X53364495Y-94574471D01*
X53477735Y-94461231D01*
X53610891Y-94372259D01*
X53758851Y-94310971D01*
X53915918Y-94279729D01*
X54076068Y-94279729D01*
X54233135Y-94310971D01*
X54233135Y-94310971D01*
G37*
G36*
X104104982Y-94217022D02*
G01*
X104252942Y-94278310D01*
X104386098Y-94367282D01*
X104499338Y-94480522D01*
X104588310Y-94613678D01*
X104649598Y-94761638D01*
X104680840Y-94918705D01*
X104680840Y-95078855D01*
X104649598Y-95235922D01*
X104588310Y-95383882D01*
X104499338Y-95517038D01*
X104386098Y-95630278D01*
X104252942Y-95719250D01*
X104104982Y-95780538D01*
X103947915Y-95811780D01*
X103787765Y-95811780D01*
X103630698Y-95780538D01*
X103482738Y-95719250D01*
X103349582Y-95630278D01*
X103236342Y-95517038D01*
X103147370Y-95383882D01*
X103086082Y-95235922D01*
X103054840Y-95078855D01*
X103054840Y-94918705D01*
X103086082Y-94761638D01*
X103147370Y-94613678D01*
X103236342Y-94480522D01*
X103349582Y-94367282D01*
X103482738Y-94278310D01*
X103630698Y-94217022D01*
X103787765Y-94185780D01*
X103947915Y-94185780D01*
X104104982Y-94217022D01*
X104104982Y-94217022D01*
G37*
G36*
X52437084Y-92514920D02*
G01*
X52585044Y-92576208D01*
X52718200Y-92665180D01*
X52831440Y-92778420D01*
X52920412Y-92911576D01*
X52981700Y-93059536D01*
X53012942Y-93216603D01*
X53012942Y-93376753D01*
X52981700Y-93533820D01*
X52920412Y-93681780D01*
X52831440Y-93814936D01*
X52718200Y-93928176D01*
X52585044Y-94017148D01*
X52437084Y-94078436D01*
X52280017Y-94109678D01*
X52119867Y-94109678D01*
X51962800Y-94078436D01*
X51814840Y-94017148D01*
X51681684Y-93928176D01*
X51568444Y-93814936D01*
X51479472Y-93681780D01*
X51418184Y-93533820D01*
X51386942Y-93376753D01*
X51386942Y-93216603D01*
X51418184Y-93059536D01*
X51479472Y-92911576D01*
X51568444Y-92778420D01*
X51681684Y-92665180D01*
X51814840Y-92576208D01*
X51962800Y-92514920D01*
X52119867Y-92483678D01*
X52280017Y-92483678D01*
X52437084Y-92514920D01*
X52437084Y-92514920D01*
G37*
G36*
X105901033Y-92420971D02*
G01*
X106048993Y-92482259D01*
X106182149Y-92571231D01*
X106295389Y-92684471D01*
X106384361Y-92817627D01*
X106445649Y-92965587D01*
X106476891Y-93122654D01*
X106476891Y-93282804D01*
X106445649Y-93439871D01*
X106384361Y-93587831D01*
X106295389Y-93720987D01*
X106182149Y-93834227D01*
X106048993Y-93923199D01*
X105901033Y-93984487D01*
X105743966Y-94015729D01*
X105583816Y-94015729D01*
X105426749Y-93984487D01*
X105278789Y-93923199D01*
X105145633Y-93834227D01*
X105032393Y-93720987D01*
X104943421Y-93587831D01*
X104882133Y-93439871D01*
X104850891Y-93282804D01*
X104850891Y-93122654D01*
X104882133Y-92965587D01*
X104943421Y-92817627D01*
X105032393Y-92684471D01*
X105145633Y-92571231D01*
X105278789Y-92482259D01*
X105426749Y-92420971D01*
X105583816Y-92389729D01*
X105743966Y-92389729D01*
X105901033Y-92420971D01*
X105901033Y-92420971D01*
G37*
G36*
X43897379Y-89547022D02*
G01*
X44045339Y-89608310D01*
X44178495Y-89697282D01*
X44291735Y-89810522D01*
X44380707Y-89943678D01*
X44441995Y-90091638D01*
X44473237Y-90248705D01*
X44473237Y-90408855D01*
X44441995Y-90565922D01*
X44380707Y-90713882D01*
X44291735Y-90847038D01*
X44178495Y-90960278D01*
X44045339Y-91049250D01*
X43897379Y-91110538D01*
X43740312Y-91141780D01*
X43580162Y-91141780D01*
X43423095Y-91110538D01*
X43275135Y-91049250D01*
X43141979Y-90960278D01*
X43028739Y-90847038D01*
X42939767Y-90713882D01*
X42878479Y-90565922D01*
X42847237Y-90408855D01*
X42847237Y-90248705D01*
X42878479Y-90091638D01*
X42939767Y-89943678D01*
X43028739Y-89810522D01*
X43141979Y-89697282D01*
X43275135Y-89608310D01*
X43423095Y-89547022D01*
X43580162Y-89515780D01*
X43740312Y-89515780D01*
X43897379Y-89547022D01*
X43897379Y-89547022D01*
G37*
G36*
X114586789Y-89306727D02*
G01*
X114734749Y-89368015D01*
X114867905Y-89456987D01*
X114981145Y-89570227D01*
X115070117Y-89703383D01*
X115131405Y-89851343D01*
X115162647Y-90008410D01*
X115162647Y-90168560D01*
X115131405Y-90325627D01*
X115070117Y-90473587D01*
X114981145Y-90606743D01*
X114867905Y-90719983D01*
X114734749Y-90808955D01*
X114586789Y-90870243D01*
X114429722Y-90901485D01*
X114269572Y-90901485D01*
X114112505Y-90870243D01*
X113964545Y-90808955D01*
X113831389Y-90719983D01*
X113718149Y-90606743D01*
X113629177Y-90473587D01*
X113567889Y-90325627D01*
X113536647Y-90168560D01*
X113536647Y-90008410D01*
X113567889Y-89851343D01*
X113629177Y-89703383D01*
X113718149Y-89570227D01*
X113831389Y-89456987D01*
X113964545Y-89368015D01*
X114112505Y-89306727D01*
X114269572Y-89275485D01*
X114429722Y-89275485D01*
X114586789Y-89306727D01*
X114586789Y-89306727D01*
G37*
G36*
X42627379Y-87347317D02*
G01*
X42683402Y-87370523D01*
X42763445Y-87403678D01*
X42775339Y-87408605D01*
X42842367Y-87453392D01*
X42908494Y-87497576D01*
X43021736Y-87610818D01*
X43049010Y-87651637D01*
X43110707Y-87743973D01*
X43171995Y-87891933D01*
X43203237Y-88049000D01*
X43203237Y-88209150D01*
X43171995Y-88366217D01*
X43155086Y-88407038D01*
X43112748Y-88509251D01*
X43110707Y-88514177D01*
X43021735Y-88647333D01*
X42908495Y-88760573D01*
X42775339Y-88849545D01*
X42627379Y-88910833D01*
X42470312Y-88942075D01*
X42310162Y-88942075D01*
X42153095Y-88910833D01*
X42005135Y-88849545D01*
X41871979Y-88760573D01*
X41758739Y-88647333D01*
X41669767Y-88514177D01*
X41667727Y-88509251D01*
X41625388Y-88407038D01*
X41608479Y-88366217D01*
X41577237Y-88209150D01*
X41577237Y-88049000D01*
X41608479Y-87891933D01*
X41669767Y-87743973D01*
X41731464Y-87651637D01*
X41758738Y-87610818D01*
X41871980Y-87497576D01*
X41938107Y-87453392D01*
X42005135Y-87408605D01*
X42017030Y-87403678D01*
X42097072Y-87370523D01*
X42153095Y-87347317D01*
X42310162Y-87316075D01*
X42470312Y-87316075D01*
X42627379Y-87347317D01*
X42627379Y-87347317D01*
G37*
G36*
X115856789Y-87107022D02*
G01*
X115971230Y-87154426D01*
X115992855Y-87163383D01*
X116004749Y-87168310D01*
X116071777Y-87213097D01*
X116137904Y-87257281D01*
X116251146Y-87370523D01*
X116276591Y-87408604D01*
X116340117Y-87503678D01*
X116401405Y-87651638D01*
X116432647Y-87808705D01*
X116432647Y-87968855D01*
X116401405Y-88125922D01*
X116381539Y-88173882D01*
X116342158Y-88268956D01*
X116340117Y-88273882D01*
X116251145Y-88407038D01*
X116137905Y-88520278D01*
X116004749Y-88609250D01*
X115856789Y-88670538D01*
X115699722Y-88701780D01*
X115539572Y-88701780D01*
X115382505Y-88670538D01*
X115234545Y-88609250D01*
X115101389Y-88520278D01*
X114988149Y-88407038D01*
X114899177Y-88273882D01*
X114897137Y-88268956D01*
X114857755Y-88173882D01*
X114837889Y-88125922D01*
X114806647Y-87968855D01*
X114806647Y-87808705D01*
X114837889Y-87651638D01*
X114899177Y-87503678D01*
X114962703Y-87408604D01*
X114988148Y-87370523D01*
X115101390Y-87257281D01*
X115167517Y-87213097D01*
X115234545Y-87168310D01*
X115246440Y-87163383D01*
X115268064Y-87154426D01*
X115382505Y-87107022D01*
X115539572Y-87075780D01*
X115699722Y-87075780D01*
X115856789Y-87107022D01*
X115856789Y-87107022D01*
G37*
G36*
X48296789Y-87007022D02*
G01*
X48444749Y-87068310D01*
X48577905Y-87157282D01*
X48691145Y-87270522D01*
X48757964Y-87370523D01*
X48780118Y-87403680D01*
X48782158Y-87408605D01*
X48841405Y-87551638D01*
X48872647Y-87708705D01*
X48872647Y-87868855D01*
X48841405Y-88025922D01*
X48780117Y-88173882D01*
X48756552Y-88209149D01*
X48713301Y-88273880D01*
X48691145Y-88307038D01*
X48577905Y-88420278D01*
X48444749Y-88509250D01*
X48444748Y-88509251D01*
X48444747Y-88509251D01*
X48418123Y-88520279D01*
X48296789Y-88570538D01*
X48139722Y-88601780D01*
X47979572Y-88601780D01*
X47822505Y-88570538D01*
X47701171Y-88520279D01*
X47674547Y-88509251D01*
X47674546Y-88509251D01*
X47674545Y-88509250D01*
X47541389Y-88420278D01*
X47428149Y-88307038D01*
X47405994Y-88273880D01*
X47362742Y-88209149D01*
X47339177Y-88173882D01*
X47277889Y-88025922D01*
X47246647Y-87868855D01*
X47246647Y-87708705D01*
X47277889Y-87551638D01*
X47337136Y-87408605D01*
X47339176Y-87403680D01*
X47361331Y-87370523D01*
X47428149Y-87270522D01*
X47541389Y-87157282D01*
X47674545Y-87068310D01*
X47822505Y-87007022D01*
X47979572Y-86975780D01*
X48139722Y-86975780D01*
X48296789Y-87007022D01*
X48296789Y-87007022D01*
G37*
G36*
X110187379Y-86766727D02*
G01*
X110335339Y-86828015D01*
X110468495Y-86916987D01*
X110581735Y-87030227D01*
X110666630Y-87157281D01*
X110670708Y-87163385D01*
X110672748Y-87168310D01*
X110731995Y-87311343D01*
X110763237Y-87468410D01*
X110763237Y-87628560D01*
X110731995Y-87785627D01*
X110722435Y-87808706D01*
X110670708Y-87933585D01*
X110593591Y-88049000D01*
X110581735Y-88066743D01*
X110468495Y-88179983D01*
X110335339Y-88268955D01*
X110335338Y-88268956D01*
X110335337Y-88268956D01*
X110301820Y-88282839D01*
X110187379Y-88330243D01*
X110030312Y-88361485D01*
X109870162Y-88361485D01*
X109713095Y-88330243D01*
X109598654Y-88282839D01*
X109565137Y-88268956D01*
X109565136Y-88268956D01*
X109565135Y-88268955D01*
X109431979Y-88179983D01*
X109318739Y-88066743D01*
X109306884Y-88049000D01*
X109229766Y-87933585D01*
X109178039Y-87808706D01*
X109168479Y-87785627D01*
X109137237Y-87628560D01*
X109137237Y-87468410D01*
X109168479Y-87311343D01*
X109227726Y-87168310D01*
X109229766Y-87163385D01*
X109233845Y-87157281D01*
X109318739Y-87030227D01*
X109431979Y-86916987D01*
X109565135Y-86828015D01*
X109713095Y-86766727D01*
X109870162Y-86735485D01*
X110030312Y-86735485D01*
X110187379Y-86766727D01*
X110187379Y-86766727D01*
G37*
G36*
X47026789Y-84807317D02*
G01*
X47174749Y-84868605D01*
X47307905Y-84957577D01*
X47421145Y-85070817D01*
X47510117Y-85203973D01*
X47571405Y-85351933D01*
X47602647Y-85509000D01*
X47602647Y-85669150D01*
X47571405Y-85826217D01*
X47510117Y-85974177D01*
X47421145Y-86107333D01*
X47307905Y-86220573D01*
X47174749Y-86309545D01*
X47026789Y-86370833D01*
X46869722Y-86402075D01*
X46709572Y-86402075D01*
X46552505Y-86370833D01*
X46404545Y-86309545D01*
X46271389Y-86220573D01*
X46158149Y-86107333D01*
X46069177Y-85974177D01*
X46007889Y-85826217D01*
X45976647Y-85669150D01*
X45976647Y-85509000D01*
X46007889Y-85351933D01*
X46069177Y-85203973D01*
X46158149Y-85070817D01*
X46271389Y-84957577D01*
X46404545Y-84868605D01*
X46552505Y-84807317D01*
X46709572Y-84776075D01*
X46869722Y-84776075D01*
X47026789Y-84807317D01*
X47026789Y-84807317D01*
G37*
G36*
X111457379Y-84567022D02*
G01*
X111605339Y-84628310D01*
X111738495Y-84717282D01*
X111851735Y-84830522D01*
X111940707Y-84963678D01*
X112001995Y-85111638D01*
X112033237Y-85268705D01*
X112033237Y-85428855D01*
X112001995Y-85585922D01*
X111940707Y-85733882D01*
X111851735Y-85867038D01*
X111738495Y-85980278D01*
X111605339Y-86069250D01*
X111457379Y-86130538D01*
X111300312Y-86161780D01*
X111140162Y-86161780D01*
X110983095Y-86130538D01*
X110835135Y-86069250D01*
X110701979Y-85980278D01*
X110588739Y-85867038D01*
X110499767Y-85733882D01*
X110438479Y-85585922D01*
X110407237Y-85428855D01*
X110407237Y-85268705D01*
X110438479Y-85111638D01*
X110499767Y-84963678D01*
X110588739Y-84830522D01*
X110701979Y-84717282D01*
X110835135Y-84628310D01*
X110983095Y-84567022D01*
X111140162Y-84535780D01*
X111300312Y-84535780D01*
X111457379Y-84567022D01*
X111457379Y-84567022D01*
G37*
G36*
X39353632Y-79474422D02*
G01*
X39501592Y-79535710D01*
X39634748Y-79624682D01*
X39747988Y-79737922D01*
X39836960Y-79871078D01*
X39898248Y-80019038D01*
X39929490Y-80176105D01*
X39929490Y-80336255D01*
X39898248Y-80493322D01*
X39836960Y-80641282D01*
X39747988Y-80774438D01*
X39634748Y-80887678D01*
X39501592Y-80976650D01*
X39353632Y-81037938D01*
X39196565Y-81069180D01*
X39036415Y-81069180D01*
X38879348Y-81037938D01*
X38731388Y-80976650D01*
X38598232Y-80887678D01*
X38484992Y-80774438D01*
X38396020Y-80641282D01*
X38334732Y-80493322D01*
X38303490Y-80336255D01*
X38303490Y-80176105D01*
X38334732Y-80019038D01*
X38396020Y-79871078D01*
X38484992Y-79737922D01*
X38598232Y-79624682D01*
X38731388Y-79535710D01*
X38879348Y-79474422D01*
X39036415Y-79443180D01*
X39196565Y-79443180D01*
X39353632Y-79474422D01*
X39353632Y-79474422D01*
G37*
G36*
X118963135Y-79457874D02*
G01*
X119111095Y-79519162D01*
X119244251Y-79608134D01*
X119357491Y-79721374D01*
X119446463Y-79854530D01*
X119507751Y-80002490D01*
X119538993Y-80159557D01*
X119538993Y-80319707D01*
X119507751Y-80476774D01*
X119446463Y-80624734D01*
X119357491Y-80757890D01*
X119244251Y-80871130D01*
X119111095Y-80960102D01*
X118963135Y-81021390D01*
X118806068Y-81052632D01*
X118645918Y-81052632D01*
X118488851Y-81021390D01*
X118340891Y-80960102D01*
X118207735Y-80871130D01*
X118094495Y-80757890D01*
X118005523Y-80624734D01*
X117944235Y-80476774D01*
X117912993Y-80319707D01*
X117912993Y-80159557D01*
X117944235Y-80002490D01*
X118005523Y-79854530D01*
X118094495Y-79721374D01*
X118207735Y-79608134D01*
X118340891Y-79519162D01*
X118488851Y-79457874D01*
X118645918Y-79426632D01*
X118806068Y-79426632D01*
X118963135Y-79457874D01*
X118963135Y-79457874D01*
G37*
G36*
X44260536Y-78159622D02*
G01*
X44408496Y-78220910D01*
X44475524Y-78265697D01*
X44533505Y-78304438D01*
X44541652Y-78309882D01*
X44654892Y-78423122D01*
X44732808Y-78539731D01*
X44743865Y-78556280D01*
X44748694Y-78567938D01*
X44805152Y-78704238D01*
X44836394Y-78861305D01*
X44836394Y-79021455D01*
X44805152Y-79178522D01*
X44757748Y-79292963D01*
X44743865Y-79326480D01*
X44665951Y-79443088D01*
X44654892Y-79459638D01*
X44541652Y-79572878D01*
X44408496Y-79661850D01*
X44260536Y-79723138D01*
X44103469Y-79754380D01*
X43943319Y-79754380D01*
X43786252Y-79723138D01*
X43638292Y-79661850D01*
X43505136Y-79572878D01*
X43391896Y-79459638D01*
X43380838Y-79443088D01*
X43302923Y-79326480D01*
X43289040Y-79292963D01*
X43241636Y-79178522D01*
X43210394Y-79021455D01*
X43210394Y-78861305D01*
X43241636Y-78704238D01*
X43298094Y-78567938D01*
X43302923Y-78556280D01*
X43313981Y-78539731D01*
X43391896Y-78423122D01*
X43505136Y-78309882D01*
X43513284Y-78304438D01*
X43571264Y-78265697D01*
X43638292Y-78220910D01*
X43786252Y-78159622D01*
X43943319Y-78128380D01*
X44103469Y-78128380D01*
X44260536Y-78159622D01*
X44260536Y-78159622D01*
G37*
G36*
X114056232Y-78143073D02*
G01*
X114204192Y-78204361D01*
X114228958Y-78220909D01*
X114337347Y-78293332D01*
X114450589Y-78406574D01*
X114494773Y-78472701D01*
X114539560Y-78539729D01*
X114600848Y-78687689D01*
X114632090Y-78844756D01*
X114632090Y-79004906D01*
X114600848Y-79161973D01*
X114539560Y-79309933D01*
X114450588Y-79443089D01*
X114337348Y-79556329D01*
X114204192Y-79645301D01*
X114056232Y-79706589D01*
X113899165Y-79737831D01*
X113739015Y-79737831D01*
X113581948Y-79706589D01*
X113433988Y-79645301D01*
X113300832Y-79556329D01*
X113187592Y-79443089D01*
X113098620Y-79309933D01*
X113037332Y-79161973D01*
X113006090Y-79004906D01*
X113006090Y-78844756D01*
X113037332Y-78687689D01*
X113098620Y-78539729D01*
X113143407Y-78472701D01*
X113187591Y-78406574D01*
X113300833Y-78293332D01*
X113409222Y-78220909D01*
X113433988Y-78204361D01*
X113581948Y-78143073D01*
X113739015Y-78111831D01*
X113899165Y-78111831D01*
X114056232Y-78143073D01*
X114056232Y-78143073D01*
G37*
G36*
X38696232Y-77020971D02*
G01*
X38844192Y-77082259D01*
X38977348Y-77171231D01*
X39090588Y-77284471D01*
X39179560Y-77417627D01*
X39240848Y-77565587D01*
X39272090Y-77722654D01*
X39272090Y-77882804D01*
X39240848Y-78039871D01*
X39179560Y-78187831D01*
X39168515Y-78204361D01*
X39101647Y-78304437D01*
X39090588Y-78320987D01*
X38977348Y-78434227D01*
X38844192Y-78523199D01*
X38696232Y-78584487D01*
X38539165Y-78615729D01*
X38379015Y-78615729D01*
X38221948Y-78584487D01*
X38073988Y-78523199D01*
X37940832Y-78434227D01*
X37827592Y-78320987D01*
X37816534Y-78304437D01*
X37749665Y-78204361D01*
X37738620Y-78187831D01*
X37677332Y-78039871D01*
X37646090Y-77882804D01*
X37646090Y-77722654D01*
X37677332Y-77565587D01*
X37738620Y-77417627D01*
X37827592Y-77284471D01*
X37940832Y-77171231D01*
X38073988Y-77082259D01*
X38221948Y-77020971D01*
X38379015Y-76989729D01*
X38539165Y-76989729D01*
X38696232Y-77020971D01*
X38696232Y-77020971D01*
G37*
G36*
X119620536Y-77004422D02*
G01*
X119768496Y-77065710D01*
X119793262Y-77082258D01*
X119901651Y-77154681D01*
X120014893Y-77267923D01*
X120036946Y-77300928D01*
X120103864Y-77401078D01*
X120165152Y-77549038D01*
X120196394Y-77706105D01*
X120196394Y-77866255D01*
X120165152Y-78023322D01*
X120128490Y-78111831D01*
X120108694Y-78159623D01*
X120103864Y-78171282D01*
X120092806Y-78187831D01*
X120014893Y-78304437D01*
X119901651Y-78417679D01*
X119893503Y-78423123D01*
X119768496Y-78506650D01*
X119620536Y-78567938D01*
X119463469Y-78599180D01*
X119303319Y-78599180D01*
X119146252Y-78567938D01*
X118998292Y-78506650D01*
X118873285Y-78423123D01*
X118865137Y-78417679D01*
X118751895Y-78304437D01*
X118673982Y-78187831D01*
X118662924Y-78171282D01*
X118658095Y-78159623D01*
X118638298Y-78111831D01*
X118601636Y-78023322D01*
X118570394Y-77866255D01*
X118570394Y-77706105D01*
X118601636Y-77549038D01*
X118662924Y-77401078D01*
X118729842Y-77300928D01*
X118751895Y-77267923D01*
X118865137Y-77154681D01*
X118973526Y-77082258D01*
X118998292Y-77065710D01*
X119146252Y-77004422D01*
X119303319Y-76973180D01*
X119463469Y-76973180D01*
X119620536Y-77004422D01*
X119620536Y-77004422D01*
G37*
G36*
X43603135Y-75706170D02*
G01*
X43751095Y-75767458D01*
X43884251Y-75856430D01*
X43997491Y-75969670D01*
X44086463Y-76102826D01*
X44147751Y-76250786D01*
X44178993Y-76407853D01*
X44178993Y-76568003D01*
X44147751Y-76725070D01*
X44086463Y-76873030D01*
X43997491Y-77006186D01*
X43884251Y-77119426D01*
X43751095Y-77208398D01*
X43603135Y-77269686D01*
X43446068Y-77300928D01*
X43285918Y-77300928D01*
X43128851Y-77269686D01*
X42980891Y-77208398D01*
X42847735Y-77119426D01*
X42734495Y-77006186D01*
X42645523Y-76873030D01*
X42584235Y-76725070D01*
X42552993Y-76568003D01*
X42552993Y-76407853D01*
X42584235Y-76250786D01*
X42645523Y-76102826D01*
X42734495Y-75969670D01*
X42847735Y-75856430D01*
X42980891Y-75767458D01*
X43128851Y-75706170D01*
X43285918Y-75674928D01*
X43446068Y-75674928D01*
X43603135Y-75706170D01*
X43603135Y-75706170D01*
G37*
G36*
X114713632Y-75689622D02*
G01*
X114861592Y-75750910D01*
X114994748Y-75839882D01*
X115107988Y-75953122D01*
X115196960Y-76086278D01*
X115258248Y-76234238D01*
X115289490Y-76391305D01*
X115289490Y-76551455D01*
X115258248Y-76708522D01*
X115196960Y-76856482D01*
X115107988Y-76989638D01*
X114994748Y-77102878D01*
X114861592Y-77191850D01*
X114713632Y-77253138D01*
X114556565Y-77284380D01*
X114396415Y-77284380D01*
X114239348Y-77253138D01*
X114091388Y-77191850D01*
X113958232Y-77102878D01*
X113844992Y-76989638D01*
X113756020Y-76856482D01*
X113694732Y-76708522D01*
X113663490Y-76551455D01*
X113663490Y-76391305D01*
X113694732Y-76234238D01*
X113756020Y-76086278D01*
X113844992Y-75953122D01*
X113958232Y-75839882D01*
X114091388Y-75750910D01*
X114239348Y-75689622D01*
X114396415Y-75658380D01*
X114556565Y-75658380D01*
X114713632Y-75689622D01*
X114713632Y-75689622D01*
G37*
G36*
X42697084Y-68787022D02*
G01*
X42845044Y-68848310D01*
X42978200Y-68937282D01*
X43091440Y-69050522D01*
X43180412Y-69183678D01*
X43241700Y-69331638D01*
X43272942Y-69488705D01*
X43272942Y-69648855D01*
X43241700Y-69805922D01*
X43180412Y-69953882D01*
X43091440Y-70087038D01*
X42978200Y-70200278D01*
X42845044Y-70289250D01*
X42697084Y-70350538D01*
X42540017Y-70381780D01*
X42379867Y-70381780D01*
X42222800Y-70350538D01*
X42074840Y-70289250D01*
X41941684Y-70200278D01*
X41828444Y-70087038D01*
X41739472Y-69953882D01*
X41678184Y-69805922D01*
X41646942Y-69648855D01*
X41646942Y-69488705D01*
X41678184Y-69331638D01*
X41739472Y-69183678D01*
X41828444Y-69050522D01*
X41941684Y-68937282D01*
X42074840Y-68848310D01*
X42222800Y-68787022D01*
X42379867Y-68755780D01*
X42540017Y-68755780D01*
X42697084Y-68787022D01*
X42697084Y-68787022D01*
G37*
G36*
X120767084Y-68787022D02*
G01*
X120915044Y-68848310D01*
X121048200Y-68937282D01*
X121161440Y-69050522D01*
X121250412Y-69183678D01*
X121311700Y-69331638D01*
X121342942Y-69488705D01*
X121342942Y-69648855D01*
X121311700Y-69805922D01*
X121250412Y-69953882D01*
X121161440Y-70087038D01*
X121048200Y-70200278D01*
X120915044Y-70289250D01*
X120767084Y-70350538D01*
X120610017Y-70381780D01*
X120449867Y-70381780D01*
X120292800Y-70350538D01*
X120144840Y-70289250D01*
X120011684Y-70200278D01*
X119898444Y-70087038D01*
X119809472Y-69953882D01*
X119748184Y-69805922D01*
X119716942Y-69648855D01*
X119716942Y-69488705D01*
X119748184Y-69331638D01*
X119809472Y-69183678D01*
X119898444Y-69050522D01*
X120011684Y-68937282D01*
X120144840Y-68848310D01*
X120292800Y-68787022D01*
X120449867Y-68755780D01*
X120610017Y-68755780D01*
X120767084Y-68787022D01*
X120767084Y-68787022D01*
G37*
G36*
X115687084Y-68787022D02*
G01*
X115835044Y-68848310D01*
X115968200Y-68937282D01*
X116081440Y-69050522D01*
X116170412Y-69183678D01*
X116231700Y-69331638D01*
X116262942Y-69488705D01*
X116262942Y-69648855D01*
X116231700Y-69805922D01*
X116170412Y-69953882D01*
X116081440Y-70087038D01*
X115968200Y-70200278D01*
X115835044Y-70289250D01*
X115687084Y-70350538D01*
X115530017Y-70381780D01*
X115369867Y-70381780D01*
X115212800Y-70350538D01*
X115064840Y-70289250D01*
X114931684Y-70200278D01*
X114818444Y-70087038D01*
X114729472Y-69953882D01*
X114668184Y-69805922D01*
X114636942Y-69648855D01*
X114636942Y-69488705D01*
X114668184Y-69331638D01*
X114729472Y-69183678D01*
X114818444Y-69050522D01*
X114931684Y-68937282D01*
X115064840Y-68848310D01*
X115212800Y-68787022D01*
X115369867Y-68755780D01*
X115530017Y-68755780D01*
X115687084Y-68787022D01*
X115687084Y-68787022D01*
G37*
G36*
X37617084Y-68787022D02*
G01*
X37765044Y-68848310D01*
X37898200Y-68937282D01*
X38011440Y-69050522D01*
X38100412Y-69183678D01*
X38161700Y-69331638D01*
X38192942Y-69488705D01*
X38192942Y-69648855D01*
X38161700Y-69805922D01*
X38100412Y-69953882D01*
X38011440Y-70087038D01*
X37898200Y-70200278D01*
X37765044Y-70289250D01*
X37617084Y-70350538D01*
X37460017Y-70381780D01*
X37299867Y-70381780D01*
X37142800Y-70350538D01*
X36994840Y-70289250D01*
X36861684Y-70200278D01*
X36748444Y-70087038D01*
X36659472Y-69953882D01*
X36598184Y-69805922D01*
X36566942Y-69648855D01*
X36566942Y-69488705D01*
X36598184Y-69331638D01*
X36659472Y-69183678D01*
X36748444Y-69050522D01*
X36861684Y-68937282D01*
X36994840Y-68848310D01*
X37142800Y-68787022D01*
X37299867Y-68755780D01*
X37460017Y-68755780D01*
X37617084Y-68787022D01*
X37617084Y-68787022D01*
G37*
G36*
X120767084Y-66247022D02*
G01*
X120915044Y-66308310D01*
X121048200Y-66397282D01*
X121161440Y-66510522D01*
X121250412Y-66643678D01*
X121311700Y-66791638D01*
X121342942Y-66948705D01*
X121342942Y-67108855D01*
X121311700Y-67265922D01*
X121250412Y-67413882D01*
X121161440Y-67547038D01*
X121048200Y-67660278D01*
X120915044Y-67749250D01*
X120767084Y-67810538D01*
X120610017Y-67841780D01*
X120449867Y-67841780D01*
X120292800Y-67810538D01*
X120144840Y-67749250D01*
X120011684Y-67660278D01*
X119898444Y-67547038D01*
X119809472Y-67413882D01*
X119748184Y-67265922D01*
X119716942Y-67108855D01*
X119716942Y-66948705D01*
X119748184Y-66791638D01*
X119809472Y-66643678D01*
X119898444Y-66510522D01*
X120011684Y-66397282D01*
X120144840Y-66308310D01*
X120292800Y-66247022D01*
X120449867Y-66215780D01*
X120610017Y-66215780D01*
X120767084Y-66247022D01*
X120767084Y-66247022D01*
G37*
G36*
X115687084Y-66247022D02*
G01*
X115835044Y-66308310D01*
X115968200Y-66397282D01*
X116081440Y-66510522D01*
X116170412Y-66643678D01*
X116231700Y-66791638D01*
X116262942Y-66948705D01*
X116262942Y-67108855D01*
X116231700Y-67265922D01*
X116170412Y-67413882D01*
X116081440Y-67547038D01*
X115968200Y-67660278D01*
X115835044Y-67749250D01*
X115687084Y-67810538D01*
X115530017Y-67841780D01*
X115369867Y-67841780D01*
X115212800Y-67810538D01*
X115064840Y-67749250D01*
X114931684Y-67660278D01*
X114818444Y-67547038D01*
X114729472Y-67413882D01*
X114668184Y-67265922D01*
X114636942Y-67108855D01*
X114636942Y-66948705D01*
X114668184Y-66791638D01*
X114729472Y-66643678D01*
X114818444Y-66510522D01*
X114931684Y-66397282D01*
X115064840Y-66308310D01*
X115212800Y-66247022D01*
X115369867Y-66215780D01*
X115530017Y-66215780D01*
X115687084Y-66247022D01*
X115687084Y-66247022D01*
G37*
G36*
X42697084Y-66247022D02*
G01*
X42845044Y-66308310D01*
X42978200Y-66397282D01*
X43091440Y-66510522D01*
X43180412Y-66643678D01*
X43241700Y-66791638D01*
X43272942Y-66948705D01*
X43272942Y-67108855D01*
X43241700Y-67265922D01*
X43180412Y-67413882D01*
X43091440Y-67547038D01*
X42978200Y-67660278D01*
X42845044Y-67749250D01*
X42697084Y-67810538D01*
X42540017Y-67841780D01*
X42379867Y-67841780D01*
X42222800Y-67810538D01*
X42074840Y-67749250D01*
X41941684Y-67660278D01*
X41828444Y-67547038D01*
X41739472Y-67413882D01*
X41678184Y-67265922D01*
X41646942Y-67108855D01*
X41646942Y-66948705D01*
X41678184Y-66791638D01*
X41739472Y-66643678D01*
X41828444Y-66510522D01*
X41941684Y-66397282D01*
X42074840Y-66308310D01*
X42222800Y-66247022D01*
X42379867Y-66215780D01*
X42540017Y-66215780D01*
X42697084Y-66247022D01*
X42697084Y-66247022D01*
G37*
G36*
X37617084Y-66247022D02*
G01*
X37765044Y-66308310D01*
X37898200Y-66397282D01*
X38011440Y-66510522D01*
X38100412Y-66643678D01*
X38161700Y-66791638D01*
X38192942Y-66948705D01*
X38192942Y-67108855D01*
X38161700Y-67265922D01*
X38100412Y-67413882D01*
X38011440Y-67547038D01*
X37898200Y-67660278D01*
X37765044Y-67749250D01*
X37617084Y-67810538D01*
X37460017Y-67841780D01*
X37299867Y-67841780D01*
X37142800Y-67810538D01*
X36994840Y-67749250D01*
X36861684Y-67660278D01*
X36748444Y-67547038D01*
X36659472Y-67413882D01*
X36598184Y-67265922D01*
X36566942Y-67108855D01*
X36566942Y-66948705D01*
X36598184Y-66791638D01*
X36659472Y-66643678D01*
X36748444Y-66510522D01*
X36861684Y-66397282D01*
X36994840Y-66308310D01*
X37142800Y-66247022D01*
X37299867Y-66215780D01*
X37460017Y-66215780D01*
X37617084Y-66247022D01*
X37617084Y-66247022D01*
G37*
G36*
X114751033Y-59377874D02*
G01*
X114865474Y-59425278D01*
X114883823Y-59432878D01*
X114898993Y-59439162D01*
X114954617Y-59476329D01*
X115022745Y-59521850D01*
X115032149Y-59528134D01*
X115145389Y-59641374D01*
X115234361Y-59774530D01*
X115295649Y-59922490D01*
X115326891Y-60079557D01*
X115326891Y-60239707D01*
X115295649Y-60396774D01*
X115234361Y-60544734D01*
X115145389Y-60677890D01*
X115032149Y-60791130D01*
X114898993Y-60880102D01*
X114751033Y-60941390D01*
X114593966Y-60972632D01*
X114433816Y-60972632D01*
X114276749Y-60941390D01*
X114128789Y-60880102D01*
X113995633Y-60791130D01*
X113882393Y-60677890D01*
X113793421Y-60544734D01*
X113732133Y-60396774D01*
X113700891Y-60239707D01*
X113700891Y-60079557D01*
X113732133Y-59922490D01*
X113793421Y-59774530D01*
X113882393Y-59641374D01*
X113995633Y-59528134D01*
X114005038Y-59521850D01*
X114073165Y-59476329D01*
X114128789Y-59439162D01*
X114143960Y-59432878D01*
X114162308Y-59425278D01*
X114276749Y-59377874D01*
X114433816Y-59346632D01*
X114593966Y-59346632D01*
X114751033Y-59377874D01*
X114751033Y-59377874D01*
G37*
G36*
X43540536Y-59334422D02*
G01*
X43688496Y-59395710D01*
X43755524Y-59440497D01*
X43809153Y-59476330D01*
X43821652Y-59484682D01*
X43934892Y-59597922D01*
X44023864Y-59731078D01*
X44085152Y-59879038D01*
X44116394Y-60036105D01*
X44116394Y-60196255D01*
X44085152Y-60353322D01*
X44023864Y-60501282D01*
X43934892Y-60634438D01*
X43821652Y-60747678D01*
X43688496Y-60836650D01*
X43540536Y-60897938D01*
X43383469Y-60929180D01*
X43223319Y-60929180D01*
X43066252Y-60897938D01*
X42918292Y-60836650D01*
X42785136Y-60747678D01*
X42671896Y-60634438D01*
X42582924Y-60501282D01*
X42521636Y-60353322D01*
X42490394Y-60196255D01*
X42490394Y-60036105D01*
X42521636Y-59879038D01*
X42582924Y-59731078D01*
X42671896Y-59597922D01*
X42785136Y-59484682D01*
X42797636Y-59476330D01*
X42851264Y-59440497D01*
X42918292Y-59395710D01*
X43066252Y-59334422D01*
X43223319Y-59303180D01*
X43383469Y-59303180D01*
X43540536Y-59334422D01*
X43540536Y-59334422D01*
G37*
G36*
X119657936Y-58063073D02*
G01*
X119805896Y-58124361D01*
X119939052Y-58213333D01*
X120052292Y-58326573D01*
X120141264Y-58459729D01*
X120202552Y-58607689D01*
X120233794Y-58764756D01*
X120233794Y-58924906D01*
X120202552Y-59081973D01*
X120159263Y-59186480D01*
X120141265Y-59229931D01*
X120052293Y-59363088D01*
X119939051Y-59476330D01*
X119926551Y-59484682D01*
X119805896Y-59565301D01*
X119657936Y-59626589D01*
X119500869Y-59657831D01*
X119340719Y-59657831D01*
X119183652Y-59626589D01*
X119035692Y-59565301D01*
X118915037Y-59484682D01*
X118902537Y-59476330D01*
X118789295Y-59363088D01*
X118700323Y-59229931D01*
X118682325Y-59186480D01*
X118639036Y-59081973D01*
X118607794Y-58924906D01*
X118607794Y-58764756D01*
X118639036Y-58607689D01*
X118700324Y-58459729D01*
X118789296Y-58326573D01*
X118902536Y-58213333D01*
X119035692Y-58124361D01*
X119183652Y-58063073D01*
X119340719Y-58031831D01*
X119500869Y-58031831D01*
X119657936Y-58063073D01*
X119657936Y-58063073D01*
G37*
G36*
X38633632Y-58019622D02*
G01*
X38781592Y-58080910D01*
X38914748Y-58169882D01*
X39027988Y-58283122D01*
X39116960Y-58416278D01*
X39178248Y-58564238D01*
X39209490Y-58721305D01*
X39209490Y-58881455D01*
X39178248Y-59038522D01*
X39160249Y-59081974D01*
X39116961Y-59186480D01*
X39027989Y-59319637D01*
X38914747Y-59432879D01*
X38849719Y-59476329D01*
X38781592Y-59521850D01*
X38781591Y-59521851D01*
X38781590Y-59521851D01*
X38748073Y-59535734D01*
X38633632Y-59583138D01*
X38476565Y-59614380D01*
X38316415Y-59614380D01*
X38159348Y-59583138D01*
X38044907Y-59535734D01*
X38011390Y-59521851D01*
X38011389Y-59521851D01*
X38011388Y-59521850D01*
X37943261Y-59476329D01*
X37878233Y-59432879D01*
X37764991Y-59319637D01*
X37676019Y-59186480D01*
X37632731Y-59081974D01*
X37614732Y-59038522D01*
X37583490Y-58881455D01*
X37583490Y-58721305D01*
X37614732Y-58564238D01*
X37676020Y-58416278D01*
X37764992Y-58283122D01*
X37878232Y-58169882D01*
X38011388Y-58080910D01*
X38159348Y-58019622D01*
X38316415Y-57988380D01*
X38476565Y-57988380D01*
X38633632Y-58019622D01*
X38633632Y-58019622D01*
G37*
G36*
X114093632Y-56924422D02*
G01*
X114208073Y-56971826D01*
X114226422Y-56979426D01*
X114241592Y-56985710D01*
X114297218Y-57022878D01*
X114365344Y-57068398D01*
X114374748Y-57074682D01*
X114487988Y-57187922D01*
X114576960Y-57321078D01*
X114638248Y-57469038D01*
X114669490Y-57626105D01*
X114669490Y-57786255D01*
X114638248Y-57943322D01*
X114576960Y-58091282D01*
X114487988Y-58224438D01*
X114374748Y-58337678D01*
X114241592Y-58426650D01*
X114093632Y-58487938D01*
X113936565Y-58519180D01*
X113776415Y-58519180D01*
X113619348Y-58487938D01*
X113471388Y-58426650D01*
X113338232Y-58337678D01*
X113224992Y-58224438D01*
X113136020Y-58091282D01*
X113074732Y-57943322D01*
X113043490Y-57786255D01*
X113043490Y-57626105D01*
X113074732Y-57469038D01*
X113136020Y-57321078D01*
X113224992Y-57187922D01*
X113338232Y-57074682D01*
X113347637Y-57068398D01*
X113415762Y-57022878D01*
X113471388Y-56985710D01*
X113486559Y-56979426D01*
X113504907Y-56971826D01*
X113619348Y-56924422D01*
X113776415Y-56893180D01*
X113936565Y-56893180D01*
X114093632Y-56924422D01*
X114093632Y-56924422D01*
G37*
G36*
X44197936Y-56880971D02*
G01*
X44345896Y-56942259D01*
X44401520Y-56979426D01*
X44466553Y-57022879D01*
X44479052Y-57031231D01*
X44592292Y-57144471D01*
X44681264Y-57277627D01*
X44742552Y-57425587D01*
X44773794Y-57582654D01*
X44773794Y-57742804D01*
X44742552Y-57899871D01*
X44681264Y-58047831D01*
X44592292Y-58180987D01*
X44479052Y-58294227D01*
X44345896Y-58383199D01*
X44197936Y-58444487D01*
X44040869Y-58475729D01*
X43880719Y-58475729D01*
X43723652Y-58444487D01*
X43575692Y-58383199D01*
X43442536Y-58294227D01*
X43329296Y-58180987D01*
X43240324Y-58047831D01*
X43179036Y-57899871D01*
X43147794Y-57742804D01*
X43147794Y-57582654D01*
X43179036Y-57425587D01*
X43240324Y-57277627D01*
X43329296Y-57144471D01*
X43442536Y-57031231D01*
X43455036Y-57022879D01*
X43520068Y-56979426D01*
X43575692Y-56942259D01*
X43723652Y-56880971D01*
X43880719Y-56849729D01*
X44040869Y-56849729D01*
X44197936Y-56880971D01*
X44197936Y-56880971D01*
G37*
G36*
X119000536Y-55609622D02*
G01*
X119148496Y-55670910D01*
X119281652Y-55759882D01*
X119394892Y-55873122D01*
X119483864Y-56006278D01*
X119545152Y-56154238D01*
X119576394Y-56311305D01*
X119576394Y-56471455D01*
X119545152Y-56628522D01*
X119501863Y-56733030D01*
X119483865Y-56776480D01*
X119394893Y-56909637D01*
X119281651Y-57022879D01*
X119269151Y-57031231D01*
X119148496Y-57111850D01*
X119000536Y-57173138D01*
X118843469Y-57204380D01*
X118683319Y-57204380D01*
X118526252Y-57173138D01*
X118378292Y-57111850D01*
X118257637Y-57031231D01*
X118245137Y-57022879D01*
X118131895Y-56909637D01*
X118042923Y-56776480D01*
X118024925Y-56733030D01*
X117981636Y-56628522D01*
X117950394Y-56471455D01*
X117950394Y-56311305D01*
X117981636Y-56154238D01*
X118042924Y-56006278D01*
X118131896Y-55873122D01*
X118245136Y-55759882D01*
X118378292Y-55670910D01*
X118526252Y-55609622D01*
X118683319Y-55578380D01*
X118843469Y-55578380D01*
X119000536Y-55609622D01*
X119000536Y-55609622D01*
G37*
G36*
X39291033Y-55566170D02*
G01*
X39438993Y-55627458D01*
X39572149Y-55716430D01*
X39685389Y-55829670D01*
X39774361Y-55962826D01*
X39835649Y-56110786D01*
X39866891Y-56267853D01*
X39866891Y-56428003D01*
X39835649Y-56585070D01*
X39817650Y-56628522D01*
X39774362Y-56733028D01*
X39685390Y-56866185D01*
X39572148Y-56979427D01*
X39507118Y-57022878D01*
X39438993Y-57068398D01*
X39438992Y-57068399D01*
X39438991Y-57068399D01*
X39405474Y-57082282D01*
X39291033Y-57129686D01*
X39133966Y-57160928D01*
X38973816Y-57160928D01*
X38816749Y-57129686D01*
X38702308Y-57082282D01*
X38668791Y-57068399D01*
X38668790Y-57068399D01*
X38668789Y-57068398D01*
X38600664Y-57022878D01*
X38535634Y-56979427D01*
X38422392Y-56866185D01*
X38333420Y-56733028D01*
X38290132Y-56628522D01*
X38272133Y-56585070D01*
X38240891Y-56428003D01*
X38240891Y-56267853D01*
X38272133Y-56110786D01*
X38333421Y-55962826D01*
X38422393Y-55829670D01*
X38535633Y-55716430D01*
X38668789Y-55627458D01*
X38816749Y-55566170D01*
X38973816Y-55534928D01*
X39133966Y-55534928D01*
X39291033Y-55566170D01*
X39291033Y-55566170D01*
G37*
G36*
X113247084Y-50886727D02*
G01*
X113395044Y-50948015D01*
X113457854Y-50989983D01*
X113528199Y-51036986D01*
X113641441Y-51150228D01*
X113661496Y-51180243D01*
X113730412Y-51283383D01*
X113791700Y-51431343D01*
X113822942Y-51588410D01*
X113822942Y-51748560D01*
X113791700Y-51905627D01*
X113730412Y-52053587D01*
X113719321Y-52070186D01*
X113644090Y-52182778D01*
X113641440Y-52186743D01*
X113528200Y-52299983D01*
X113395044Y-52388955D01*
X113247084Y-52450243D01*
X113090017Y-52481485D01*
X112929867Y-52481485D01*
X112772800Y-52450243D01*
X112624840Y-52388955D01*
X112491684Y-52299983D01*
X112378444Y-52186743D01*
X112375795Y-52182778D01*
X112300563Y-52070186D01*
X112289472Y-52053587D01*
X112228184Y-51905627D01*
X112196942Y-51748560D01*
X112196942Y-51588410D01*
X112228184Y-51431343D01*
X112289472Y-51283383D01*
X112358388Y-51180243D01*
X112378443Y-51150228D01*
X112491685Y-51036986D01*
X112562030Y-50989983D01*
X112624840Y-50948015D01*
X112772800Y-50886727D01*
X112929867Y-50855485D01*
X113090017Y-50855485D01*
X113247084Y-50886727D01*
X113247084Y-50886727D01*
G37*
G36*
X45197084Y-50846727D02*
G01*
X45345044Y-50908015D01*
X45404907Y-50948014D01*
X45478199Y-50996986D01*
X45591441Y-51110228D01*
X45611496Y-51140243D01*
X45680412Y-51243383D01*
X45741700Y-51391343D01*
X45772942Y-51548410D01*
X45772942Y-51708560D01*
X45741700Y-51865627D01*
X45680412Y-52013587D01*
X45591440Y-52146743D01*
X45478200Y-52259983D01*
X45345044Y-52348955D01*
X45197084Y-52410243D01*
X45040017Y-52441485D01*
X44879867Y-52441485D01*
X44722800Y-52410243D01*
X44574840Y-52348955D01*
X44441684Y-52259983D01*
X44328444Y-52146743D01*
X44239472Y-52013587D01*
X44178184Y-51865627D01*
X44146942Y-51708560D01*
X44146942Y-51548410D01*
X44178184Y-51391343D01*
X44239472Y-51243383D01*
X44308388Y-51140243D01*
X44328443Y-51110228D01*
X44441685Y-50996986D01*
X44514977Y-50948014D01*
X44574840Y-50908015D01*
X44722800Y-50846727D01*
X44879867Y-50815485D01*
X45040017Y-50815485D01*
X45197084Y-50846727D01*
X45197084Y-50846727D01*
G37*
G36*
X94840443Y-50535519D02*
G01*
X94906627Y-50542037D01*
X95019853Y-50576384D01*
X95076467Y-50593557D01*
X95155173Y-50635627D01*
X95232991Y-50677222D01*
X95268729Y-50706552D01*
X95370186Y-50789814D01*
X95449719Y-50886727D01*
X95482778Y-50927009D01*
X95482779Y-50927011D01*
X95566443Y-51083533D01*
X95566443Y-51083534D01*
X95617963Y-51253373D01*
X95635359Y-51430000D01*
X95617963Y-51606627D01*
X95587042Y-51708559D01*
X95566443Y-51776467D01*
X95497404Y-51905628D01*
X95482778Y-51932991D01*
X95453448Y-51968729D01*
X95370186Y-52070186D01*
X95268729Y-52153448D01*
X95232991Y-52182778D01*
X95232989Y-52182779D01*
X95076467Y-52266443D01*
X95019853Y-52283616D01*
X94906627Y-52317963D01*
X94840442Y-52324482D01*
X94774260Y-52331000D01*
X94685740Y-52331000D01*
X94619557Y-52324481D01*
X94553373Y-52317963D01*
X94440147Y-52283616D01*
X94383533Y-52266443D01*
X94227011Y-52182779D01*
X94227009Y-52182778D01*
X94191271Y-52153448D01*
X94089814Y-52070186D01*
X94006552Y-51968729D01*
X93977222Y-51932991D01*
X93962596Y-51905628D01*
X93893557Y-51776467D01*
X93872958Y-51708559D01*
X93842037Y-51606627D01*
X93824641Y-51430000D01*
X93842037Y-51253373D01*
X93893557Y-51083534D01*
X93893557Y-51083533D01*
X93977221Y-50927011D01*
X93977222Y-50927009D01*
X94010281Y-50886727D01*
X94089814Y-50789814D01*
X94191271Y-50706552D01*
X94227009Y-50677222D01*
X94304827Y-50635627D01*
X94383533Y-50593557D01*
X94440147Y-50576384D01*
X94553373Y-50542037D01*
X94619557Y-50535519D01*
X94685740Y-50529000D01*
X94774260Y-50529000D01*
X94840443Y-50535519D01*
X94840443Y-50535519D01*
G37*
G36*
X61820443Y-50535519D02*
G01*
X61886627Y-50542037D01*
X61999853Y-50576384D01*
X62056467Y-50593557D01*
X62135173Y-50635627D01*
X62212991Y-50677222D01*
X62248729Y-50706552D01*
X62350186Y-50789814D01*
X62429719Y-50886727D01*
X62462778Y-50927009D01*
X62462779Y-50927011D01*
X62546443Y-51083533D01*
X62546443Y-51083534D01*
X62597963Y-51253373D01*
X62615359Y-51430000D01*
X62597963Y-51606627D01*
X62567042Y-51708559D01*
X62546443Y-51776467D01*
X62477404Y-51905628D01*
X62462778Y-51932991D01*
X62433448Y-51968729D01*
X62350186Y-52070186D01*
X62248729Y-52153448D01*
X62212991Y-52182778D01*
X62212989Y-52182779D01*
X62056467Y-52266443D01*
X61999853Y-52283616D01*
X61886627Y-52317963D01*
X61820442Y-52324482D01*
X61754260Y-52331000D01*
X61665740Y-52331000D01*
X61599557Y-52324481D01*
X61533373Y-52317963D01*
X61420147Y-52283616D01*
X61363533Y-52266443D01*
X61207011Y-52182779D01*
X61207009Y-52182778D01*
X61171271Y-52153448D01*
X61069814Y-52070186D01*
X60986552Y-51968729D01*
X60957222Y-51932991D01*
X60942596Y-51905628D01*
X60873557Y-51776467D01*
X60852958Y-51708559D01*
X60822037Y-51606627D01*
X60804641Y-51430000D01*
X60822037Y-51253373D01*
X60873557Y-51083534D01*
X60873557Y-51083533D01*
X60957221Y-50927011D01*
X60957222Y-50927009D01*
X60990281Y-50886727D01*
X61069814Y-50789814D01*
X61171271Y-50706552D01*
X61207009Y-50677222D01*
X61284827Y-50635627D01*
X61363533Y-50593557D01*
X61420147Y-50576384D01*
X61533373Y-50542037D01*
X61599557Y-50535519D01*
X61665740Y-50529000D01*
X61754260Y-50529000D01*
X61820443Y-50535519D01*
X61820443Y-50535519D01*
G37*
G36*
X92300443Y-50535519D02*
G01*
X92366627Y-50542037D01*
X92479853Y-50576384D01*
X92536467Y-50593557D01*
X92615173Y-50635627D01*
X92692991Y-50677222D01*
X92728729Y-50706552D01*
X92830186Y-50789814D01*
X92909719Y-50886727D01*
X92942778Y-50927009D01*
X92942779Y-50927011D01*
X93026443Y-51083533D01*
X93026443Y-51083534D01*
X93077963Y-51253373D01*
X93095359Y-51430000D01*
X93077963Y-51606627D01*
X93047042Y-51708559D01*
X93026443Y-51776467D01*
X92957404Y-51905628D01*
X92942778Y-51932991D01*
X92913448Y-51968729D01*
X92830186Y-52070186D01*
X92728729Y-52153448D01*
X92692991Y-52182778D01*
X92692989Y-52182779D01*
X92536467Y-52266443D01*
X92479853Y-52283616D01*
X92366627Y-52317963D01*
X92300442Y-52324482D01*
X92234260Y-52331000D01*
X92145740Y-52331000D01*
X92079557Y-52324481D01*
X92013373Y-52317963D01*
X91900147Y-52283616D01*
X91843533Y-52266443D01*
X91687011Y-52182779D01*
X91687009Y-52182778D01*
X91651271Y-52153448D01*
X91549814Y-52070186D01*
X91466552Y-51968729D01*
X91437222Y-51932991D01*
X91422596Y-51905628D01*
X91353557Y-51776467D01*
X91332958Y-51708559D01*
X91302037Y-51606627D01*
X91284641Y-51430000D01*
X91302037Y-51253373D01*
X91353557Y-51083534D01*
X91353557Y-51083533D01*
X91437221Y-50927011D01*
X91437222Y-50927009D01*
X91470281Y-50886727D01*
X91549814Y-50789814D01*
X91651271Y-50706552D01*
X91687009Y-50677222D01*
X91764827Y-50635627D01*
X91843533Y-50593557D01*
X91900147Y-50576384D01*
X92013373Y-50542037D01*
X92079557Y-50535519D01*
X92145740Y-50529000D01*
X92234260Y-50529000D01*
X92300443Y-50535519D01*
X92300443Y-50535519D01*
G37*
G36*
X89760443Y-50535519D02*
G01*
X89826627Y-50542037D01*
X89939853Y-50576384D01*
X89996467Y-50593557D01*
X90075173Y-50635627D01*
X90152991Y-50677222D01*
X90188729Y-50706552D01*
X90290186Y-50789814D01*
X90369719Y-50886727D01*
X90402778Y-50927009D01*
X90402779Y-50927011D01*
X90486443Y-51083533D01*
X90486443Y-51083534D01*
X90537963Y-51253373D01*
X90555359Y-51430000D01*
X90537963Y-51606627D01*
X90507042Y-51708559D01*
X90486443Y-51776467D01*
X90417404Y-51905628D01*
X90402778Y-51932991D01*
X90373448Y-51968729D01*
X90290186Y-52070186D01*
X90188729Y-52153448D01*
X90152991Y-52182778D01*
X90152989Y-52182779D01*
X89996467Y-52266443D01*
X89939853Y-52283616D01*
X89826627Y-52317963D01*
X89760442Y-52324482D01*
X89694260Y-52331000D01*
X89605740Y-52331000D01*
X89539557Y-52324481D01*
X89473373Y-52317963D01*
X89360147Y-52283616D01*
X89303533Y-52266443D01*
X89147011Y-52182779D01*
X89147009Y-52182778D01*
X89111271Y-52153448D01*
X89009814Y-52070186D01*
X88926552Y-51968729D01*
X88897222Y-51932991D01*
X88882596Y-51905628D01*
X88813557Y-51776467D01*
X88792958Y-51708559D01*
X88762037Y-51606627D01*
X88744641Y-51430000D01*
X88762037Y-51253373D01*
X88813557Y-51083534D01*
X88813557Y-51083533D01*
X88897221Y-50927011D01*
X88897222Y-50927009D01*
X88930281Y-50886727D01*
X89009814Y-50789814D01*
X89111271Y-50706552D01*
X89147009Y-50677222D01*
X89224827Y-50635627D01*
X89303533Y-50593557D01*
X89360147Y-50576384D01*
X89473373Y-50542037D01*
X89539557Y-50535519D01*
X89605740Y-50529000D01*
X89694260Y-50529000D01*
X89760443Y-50535519D01*
X89760443Y-50535519D01*
G37*
G36*
X59280443Y-50535519D02*
G01*
X59346627Y-50542037D01*
X59459853Y-50576384D01*
X59516467Y-50593557D01*
X59595173Y-50635627D01*
X59672991Y-50677222D01*
X59708729Y-50706552D01*
X59810186Y-50789814D01*
X59889719Y-50886727D01*
X59922778Y-50927009D01*
X59922779Y-50927011D01*
X60006443Y-51083533D01*
X60006443Y-51083534D01*
X60057963Y-51253373D01*
X60075359Y-51430000D01*
X60057963Y-51606627D01*
X60027042Y-51708559D01*
X60006443Y-51776467D01*
X59937404Y-51905628D01*
X59922778Y-51932991D01*
X59893448Y-51968729D01*
X59810186Y-52070186D01*
X59708729Y-52153448D01*
X59672991Y-52182778D01*
X59672989Y-52182779D01*
X59516467Y-52266443D01*
X59459853Y-52283616D01*
X59346627Y-52317963D01*
X59280442Y-52324482D01*
X59214260Y-52331000D01*
X59125740Y-52331000D01*
X59059557Y-52324481D01*
X58993373Y-52317963D01*
X58880147Y-52283616D01*
X58823533Y-52266443D01*
X58667011Y-52182779D01*
X58667009Y-52182778D01*
X58631271Y-52153448D01*
X58529814Y-52070186D01*
X58446552Y-51968729D01*
X58417222Y-51932991D01*
X58402596Y-51905628D01*
X58333557Y-51776467D01*
X58312958Y-51708559D01*
X58282037Y-51606627D01*
X58264641Y-51430000D01*
X58282037Y-51253373D01*
X58333557Y-51083534D01*
X58333557Y-51083533D01*
X58417221Y-50927011D01*
X58417222Y-50927009D01*
X58450281Y-50886727D01*
X58529814Y-50789814D01*
X58631271Y-50706552D01*
X58667009Y-50677222D01*
X58744827Y-50635627D01*
X58823533Y-50593557D01*
X58880147Y-50576384D01*
X58993373Y-50542037D01*
X59059557Y-50535519D01*
X59125740Y-50529000D01*
X59214260Y-50529000D01*
X59280443Y-50535519D01*
X59280443Y-50535519D01*
G37*
G36*
X82140443Y-50535519D02*
G01*
X82206627Y-50542037D01*
X82319853Y-50576384D01*
X82376467Y-50593557D01*
X82455173Y-50635627D01*
X82532991Y-50677222D01*
X82568729Y-50706552D01*
X82670186Y-50789814D01*
X82749719Y-50886727D01*
X82782778Y-50927009D01*
X82782779Y-50927011D01*
X82866443Y-51083533D01*
X82866443Y-51083534D01*
X82917963Y-51253373D01*
X82935359Y-51430000D01*
X82917963Y-51606627D01*
X82887042Y-51708559D01*
X82866443Y-51776467D01*
X82797404Y-51905628D01*
X82782778Y-51932991D01*
X82753448Y-51968729D01*
X82670186Y-52070186D01*
X82568729Y-52153448D01*
X82532991Y-52182778D01*
X82532989Y-52182779D01*
X82376467Y-52266443D01*
X82319853Y-52283616D01*
X82206627Y-52317963D01*
X82140442Y-52324482D01*
X82074260Y-52331000D01*
X81985740Y-52331000D01*
X81919557Y-52324481D01*
X81853373Y-52317963D01*
X81740147Y-52283616D01*
X81683533Y-52266443D01*
X81527011Y-52182779D01*
X81527009Y-52182778D01*
X81491271Y-52153448D01*
X81389814Y-52070186D01*
X81306552Y-51968729D01*
X81277222Y-51932991D01*
X81262596Y-51905628D01*
X81193557Y-51776467D01*
X81172958Y-51708559D01*
X81142037Y-51606627D01*
X81124641Y-51430000D01*
X81142037Y-51253373D01*
X81193557Y-51083534D01*
X81193557Y-51083533D01*
X81277221Y-50927011D01*
X81277222Y-50927009D01*
X81310281Y-50886727D01*
X81389814Y-50789814D01*
X81491271Y-50706552D01*
X81527009Y-50677222D01*
X81604827Y-50635627D01*
X81683533Y-50593557D01*
X81740147Y-50576384D01*
X81853373Y-50542037D01*
X81919557Y-50535519D01*
X81985740Y-50529000D01*
X82074260Y-50529000D01*
X82140443Y-50535519D01*
X82140443Y-50535519D01*
G37*
G36*
X79600443Y-50535519D02*
G01*
X79666627Y-50542037D01*
X79779853Y-50576384D01*
X79836467Y-50593557D01*
X79915173Y-50635627D01*
X79992991Y-50677222D01*
X80028729Y-50706552D01*
X80130186Y-50789814D01*
X80209719Y-50886727D01*
X80242778Y-50927009D01*
X80242779Y-50927011D01*
X80326443Y-51083533D01*
X80326443Y-51083534D01*
X80377963Y-51253373D01*
X80395359Y-51430000D01*
X80377963Y-51606627D01*
X80347042Y-51708559D01*
X80326443Y-51776467D01*
X80257404Y-51905628D01*
X80242778Y-51932991D01*
X80213448Y-51968729D01*
X80130186Y-52070186D01*
X80028729Y-52153448D01*
X79992991Y-52182778D01*
X79992989Y-52182779D01*
X79836467Y-52266443D01*
X79779853Y-52283616D01*
X79666627Y-52317963D01*
X79600442Y-52324482D01*
X79534260Y-52331000D01*
X79445740Y-52331000D01*
X79379557Y-52324481D01*
X79313373Y-52317963D01*
X79200147Y-52283616D01*
X79143533Y-52266443D01*
X78987011Y-52182779D01*
X78987009Y-52182778D01*
X78951271Y-52153448D01*
X78849814Y-52070186D01*
X78766552Y-51968729D01*
X78737222Y-51932991D01*
X78722596Y-51905628D01*
X78653557Y-51776467D01*
X78632958Y-51708559D01*
X78602037Y-51606627D01*
X78584641Y-51430000D01*
X78602037Y-51253373D01*
X78653557Y-51083534D01*
X78653557Y-51083533D01*
X78737221Y-50927011D01*
X78737222Y-50927009D01*
X78770281Y-50886727D01*
X78849814Y-50789814D01*
X78951271Y-50706552D01*
X78987009Y-50677222D01*
X79064827Y-50635627D01*
X79143533Y-50593557D01*
X79200147Y-50576384D01*
X79313373Y-50542037D01*
X79379557Y-50535519D01*
X79445740Y-50529000D01*
X79534260Y-50529000D01*
X79600443Y-50535519D01*
X79600443Y-50535519D01*
G37*
G36*
X77060443Y-50535519D02*
G01*
X77126627Y-50542037D01*
X77239853Y-50576384D01*
X77296467Y-50593557D01*
X77375173Y-50635627D01*
X77452991Y-50677222D01*
X77488729Y-50706552D01*
X77590186Y-50789814D01*
X77669719Y-50886727D01*
X77702778Y-50927009D01*
X77702779Y-50927011D01*
X77786443Y-51083533D01*
X77786443Y-51083534D01*
X77837963Y-51253373D01*
X77855359Y-51430000D01*
X77837963Y-51606627D01*
X77807042Y-51708559D01*
X77786443Y-51776467D01*
X77717404Y-51905628D01*
X77702778Y-51932991D01*
X77673448Y-51968729D01*
X77590186Y-52070186D01*
X77488729Y-52153448D01*
X77452991Y-52182778D01*
X77452989Y-52182779D01*
X77296467Y-52266443D01*
X77239853Y-52283616D01*
X77126627Y-52317963D01*
X77060442Y-52324482D01*
X76994260Y-52331000D01*
X76905740Y-52331000D01*
X76839557Y-52324481D01*
X76773373Y-52317963D01*
X76660147Y-52283616D01*
X76603533Y-52266443D01*
X76447011Y-52182779D01*
X76447009Y-52182778D01*
X76411271Y-52153448D01*
X76309814Y-52070186D01*
X76226552Y-51968729D01*
X76197222Y-51932991D01*
X76182596Y-51905628D01*
X76113557Y-51776467D01*
X76092958Y-51708559D01*
X76062037Y-51606627D01*
X76044641Y-51430000D01*
X76062037Y-51253373D01*
X76113557Y-51083534D01*
X76113557Y-51083533D01*
X76197221Y-50927011D01*
X76197222Y-50927009D01*
X76230281Y-50886727D01*
X76309814Y-50789814D01*
X76411271Y-50706552D01*
X76447009Y-50677222D01*
X76524827Y-50635627D01*
X76603533Y-50593557D01*
X76660147Y-50576384D01*
X76773373Y-50542037D01*
X76839557Y-50535519D01*
X76905740Y-50529000D01*
X76994260Y-50529000D01*
X77060443Y-50535519D01*
X77060443Y-50535519D01*
G37*
G36*
X71980443Y-50535519D02*
G01*
X72046627Y-50542037D01*
X72159853Y-50576384D01*
X72216467Y-50593557D01*
X72295173Y-50635627D01*
X72372991Y-50677222D01*
X72408729Y-50706552D01*
X72510186Y-50789814D01*
X72589719Y-50886727D01*
X72622778Y-50927009D01*
X72622779Y-50927011D01*
X72706443Y-51083533D01*
X72706443Y-51083534D01*
X72757963Y-51253373D01*
X72775359Y-51430000D01*
X72757963Y-51606627D01*
X72727042Y-51708559D01*
X72706443Y-51776467D01*
X72637404Y-51905628D01*
X72622778Y-51932991D01*
X72593448Y-51968729D01*
X72510186Y-52070186D01*
X72408729Y-52153448D01*
X72372991Y-52182778D01*
X72372989Y-52182779D01*
X72216467Y-52266443D01*
X72159853Y-52283616D01*
X72046627Y-52317963D01*
X71980442Y-52324482D01*
X71914260Y-52331000D01*
X71825740Y-52331000D01*
X71759557Y-52324481D01*
X71693373Y-52317963D01*
X71580147Y-52283616D01*
X71523533Y-52266443D01*
X71367011Y-52182779D01*
X71367009Y-52182778D01*
X71331271Y-52153448D01*
X71229814Y-52070186D01*
X71146552Y-51968729D01*
X71117222Y-51932991D01*
X71102596Y-51905628D01*
X71033557Y-51776467D01*
X71012958Y-51708559D01*
X70982037Y-51606627D01*
X70964641Y-51430000D01*
X70982037Y-51253373D01*
X71033557Y-51083534D01*
X71033557Y-51083533D01*
X71117221Y-50927011D01*
X71117222Y-50927009D01*
X71150281Y-50886727D01*
X71229814Y-50789814D01*
X71331271Y-50706552D01*
X71367009Y-50677222D01*
X71444827Y-50635627D01*
X71523533Y-50593557D01*
X71580147Y-50576384D01*
X71693373Y-50542037D01*
X71759557Y-50535519D01*
X71825740Y-50529000D01*
X71914260Y-50529000D01*
X71980443Y-50535519D01*
X71980443Y-50535519D01*
G37*
G36*
X74520443Y-50535519D02*
G01*
X74586627Y-50542037D01*
X74699853Y-50576384D01*
X74756467Y-50593557D01*
X74835173Y-50635627D01*
X74912991Y-50677222D01*
X74948729Y-50706552D01*
X75050186Y-50789814D01*
X75129719Y-50886727D01*
X75162778Y-50927009D01*
X75162779Y-50927011D01*
X75246443Y-51083533D01*
X75246443Y-51083534D01*
X75297963Y-51253373D01*
X75315359Y-51430000D01*
X75297963Y-51606627D01*
X75267042Y-51708559D01*
X75246443Y-51776467D01*
X75177404Y-51905628D01*
X75162778Y-51932991D01*
X75133448Y-51968729D01*
X75050186Y-52070186D01*
X74948729Y-52153448D01*
X74912991Y-52182778D01*
X74912989Y-52182779D01*
X74756467Y-52266443D01*
X74699853Y-52283616D01*
X74586627Y-52317963D01*
X74520442Y-52324482D01*
X74454260Y-52331000D01*
X74365740Y-52331000D01*
X74299557Y-52324481D01*
X74233373Y-52317963D01*
X74120147Y-52283616D01*
X74063533Y-52266443D01*
X73907011Y-52182779D01*
X73907009Y-52182778D01*
X73871271Y-52153448D01*
X73769814Y-52070186D01*
X73686552Y-51968729D01*
X73657222Y-51932991D01*
X73642596Y-51905628D01*
X73573557Y-51776467D01*
X73552958Y-51708559D01*
X73522037Y-51606627D01*
X73504641Y-51430000D01*
X73522037Y-51253373D01*
X73573557Y-51083534D01*
X73573557Y-51083533D01*
X73657221Y-50927011D01*
X73657222Y-50927009D01*
X73690281Y-50886727D01*
X73769814Y-50789814D01*
X73871271Y-50706552D01*
X73907009Y-50677222D01*
X73984827Y-50635627D01*
X74063533Y-50593557D01*
X74120147Y-50576384D01*
X74233373Y-50542037D01*
X74299557Y-50535519D01*
X74365740Y-50529000D01*
X74454260Y-50529000D01*
X74520443Y-50535519D01*
X74520443Y-50535519D01*
G37*
G36*
X87220443Y-50535519D02*
G01*
X87286627Y-50542037D01*
X87399853Y-50576384D01*
X87456467Y-50593557D01*
X87535173Y-50635627D01*
X87612991Y-50677222D01*
X87648729Y-50706552D01*
X87750186Y-50789814D01*
X87829719Y-50886727D01*
X87862778Y-50927009D01*
X87862779Y-50927011D01*
X87946443Y-51083533D01*
X87946443Y-51083534D01*
X87997963Y-51253373D01*
X88015359Y-51430000D01*
X87997963Y-51606627D01*
X87967042Y-51708559D01*
X87946443Y-51776467D01*
X87877404Y-51905628D01*
X87862778Y-51932991D01*
X87833448Y-51968729D01*
X87750186Y-52070186D01*
X87648729Y-52153448D01*
X87612991Y-52182778D01*
X87612989Y-52182779D01*
X87456467Y-52266443D01*
X87399853Y-52283616D01*
X87286627Y-52317963D01*
X87220442Y-52324482D01*
X87154260Y-52331000D01*
X87065740Y-52331000D01*
X86999557Y-52324481D01*
X86933373Y-52317963D01*
X86820147Y-52283616D01*
X86763533Y-52266443D01*
X86607011Y-52182779D01*
X86607009Y-52182778D01*
X86571271Y-52153448D01*
X86469814Y-52070186D01*
X86386552Y-51968729D01*
X86357222Y-51932991D01*
X86342596Y-51905628D01*
X86273557Y-51776467D01*
X86252958Y-51708559D01*
X86222037Y-51606627D01*
X86204641Y-51430000D01*
X86222037Y-51253373D01*
X86273557Y-51083534D01*
X86273557Y-51083533D01*
X86357221Y-50927011D01*
X86357222Y-50927009D01*
X86390281Y-50886727D01*
X86469814Y-50789814D01*
X86571271Y-50706552D01*
X86607009Y-50677222D01*
X86684827Y-50635627D01*
X86763533Y-50593557D01*
X86820147Y-50576384D01*
X86933373Y-50542037D01*
X86999557Y-50535519D01*
X87065740Y-50529000D01*
X87154260Y-50529000D01*
X87220443Y-50535519D01*
X87220443Y-50535519D01*
G37*
G36*
X64360443Y-50535519D02*
G01*
X64426627Y-50542037D01*
X64539853Y-50576384D01*
X64596467Y-50593557D01*
X64675173Y-50635627D01*
X64752991Y-50677222D01*
X64788729Y-50706552D01*
X64890186Y-50789814D01*
X64969719Y-50886727D01*
X65002778Y-50927009D01*
X65002779Y-50927011D01*
X65086443Y-51083533D01*
X65086443Y-51083534D01*
X65137963Y-51253373D01*
X65155359Y-51430000D01*
X65137963Y-51606627D01*
X65107042Y-51708559D01*
X65086443Y-51776467D01*
X65017404Y-51905628D01*
X65002778Y-51932991D01*
X64973448Y-51968729D01*
X64890186Y-52070186D01*
X64788729Y-52153448D01*
X64752991Y-52182778D01*
X64752989Y-52182779D01*
X64596467Y-52266443D01*
X64539853Y-52283616D01*
X64426627Y-52317963D01*
X64360442Y-52324482D01*
X64294260Y-52331000D01*
X64205740Y-52331000D01*
X64139557Y-52324481D01*
X64073373Y-52317963D01*
X63960147Y-52283616D01*
X63903533Y-52266443D01*
X63747011Y-52182779D01*
X63747009Y-52182778D01*
X63711271Y-52153448D01*
X63609814Y-52070186D01*
X63526552Y-51968729D01*
X63497222Y-51932991D01*
X63482596Y-51905628D01*
X63413557Y-51776467D01*
X63392958Y-51708559D01*
X63362037Y-51606627D01*
X63344641Y-51430000D01*
X63362037Y-51253373D01*
X63413557Y-51083534D01*
X63413557Y-51083533D01*
X63497221Y-50927011D01*
X63497222Y-50927009D01*
X63530281Y-50886727D01*
X63609814Y-50789814D01*
X63711271Y-50706552D01*
X63747009Y-50677222D01*
X63824827Y-50635627D01*
X63903533Y-50593557D01*
X63960147Y-50576384D01*
X64073373Y-50542037D01*
X64139557Y-50535519D01*
X64205740Y-50529000D01*
X64294260Y-50529000D01*
X64360443Y-50535519D01*
X64360443Y-50535519D01*
G37*
G36*
X66900443Y-50535519D02*
G01*
X66966627Y-50542037D01*
X67079853Y-50576384D01*
X67136467Y-50593557D01*
X67215173Y-50635627D01*
X67292991Y-50677222D01*
X67328729Y-50706552D01*
X67430186Y-50789814D01*
X67509719Y-50886727D01*
X67542778Y-50927009D01*
X67542779Y-50927011D01*
X67626443Y-51083533D01*
X67626443Y-51083534D01*
X67677963Y-51253373D01*
X67695359Y-51430000D01*
X67677963Y-51606627D01*
X67647042Y-51708559D01*
X67626443Y-51776467D01*
X67557404Y-51905628D01*
X67542778Y-51932991D01*
X67513448Y-51968729D01*
X67430186Y-52070186D01*
X67328729Y-52153448D01*
X67292991Y-52182778D01*
X67292989Y-52182779D01*
X67136467Y-52266443D01*
X67079853Y-52283616D01*
X66966627Y-52317963D01*
X66900442Y-52324482D01*
X66834260Y-52331000D01*
X66745740Y-52331000D01*
X66679557Y-52324481D01*
X66613373Y-52317963D01*
X66500147Y-52283616D01*
X66443533Y-52266443D01*
X66287011Y-52182779D01*
X66287009Y-52182778D01*
X66251271Y-52153448D01*
X66149814Y-52070186D01*
X66066552Y-51968729D01*
X66037222Y-51932991D01*
X66022596Y-51905628D01*
X65953557Y-51776467D01*
X65932958Y-51708559D01*
X65902037Y-51606627D01*
X65884641Y-51430000D01*
X65902037Y-51253373D01*
X65953557Y-51083534D01*
X65953557Y-51083533D01*
X66037221Y-50927011D01*
X66037222Y-50927009D01*
X66070281Y-50886727D01*
X66149814Y-50789814D01*
X66251271Y-50706552D01*
X66287009Y-50677222D01*
X66364827Y-50635627D01*
X66443533Y-50593557D01*
X66500147Y-50576384D01*
X66613373Y-50542037D01*
X66679557Y-50535519D01*
X66745740Y-50529000D01*
X66834260Y-50529000D01*
X66900443Y-50535519D01*
X66900443Y-50535519D01*
G37*
G36*
X69440443Y-50535519D02*
G01*
X69506627Y-50542037D01*
X69619853Y-50576384D01*
X69676467Y-50593557D01*
X69755173Y-50635627D01*
X69832991Y-50677222D01*
X69868729Y-50706552D01*
X69970186Y-50789814D01*
X70049719Y-50886727D01*
X70082778Y-50927009D01*
X70082779Y-50927011D01*
X70166443Y-51083533D01*
X70166443Y-51083534D01*
X70217963Y-51253373D01*
X70235359Y-51430000D01*
X70217963Y-51606627D01*
X70187042Y-51708559D01*
X70166443Y-51776467D01*
X70097404Y-51905628D01*
X70082778Y-51932991D01*
X70053448Y-51968729D01*
X69970186Y-52070186D01*
X69868729Y-52153448D01*
X69832991Y-52182778D01*
X69832989Y-52182779D01*
X69676467Y-52266443D01*
X69619853Y-52283616D01*
X69506627Y-52317963D01*
X69440442Y-52324482D01*
X69374260Y-52331000D01*
X69285740Y-52331000D01*
X69219557Y-52324481D01*
X69153373Y-52317963D01*
X69040147Y-52283616D01*
X68983533Y-52266443D01*
X68827011Y-52182779D01*
X68827009Y-52182778D01*
X68791271Y-52153448D01*
X68689814Y-52070186D01*
X68606552Y-51968729D01*
X68577222Y-51932991D01*
X68562596Y-51905628D01*
X68493557Y-51776467D01*
X68472958Y-51708559D01*
X68442037Y-51606627D01*
X68424641Y-51430000D01*
X68442037Y-51253373D01*
X68493557Y-51083534D01*
X68493557Y-51083533D01*
X68577221Y-50927011D01*
X68577222Y-50927009D01*
X68610281Y-50886727D01*
X68689814Y-50789814D01*
X68791271Y-50706552D01*
X68827009Y-50677222D01*
X68904827Y-50635627D01*
X68983533Y-50593557D01*
X69040147Y-50576384D01*
X69153373Y-50542037D01*
X69219557Y-50535519D01*
X69285740Y-50529000D01*
X69374260Y-50529000D01*
X69440443Y-50535519D01*
X69440443Y-50535519D01*
G37*
G36*
X84680443Y-50535519D02*
G01*
X84746627Y-50542037D01*
X84859853Y-50576384D01*
X84916467Y-50593557D01*
X84995173Y-50635627D01*
X85072991Y-50677222D01*
X85108729Y-50706552D01*
X85210186Y-50789814D01*
X85289719Y-50886727D01*
X85322778Y-50927009D01*
X85322779Y-50927011D01*
X85406443Y-51083533D01*
X85406443Y-51083534D01*
X85457963Y-51253373D01*
X85475359Y-51430000D01*
X85457963Y-51606627D01*
X85427042Y-51708559D01*
X85406443Y-51776467D01*
X85337404Y-51905628D01*
X85322778Y-51932991D01*
X85293448Y-51968729D01*
X85210186Y-52070186D01*
X85108729Y-52153448D01*
X85072991Y-52182778D01*
X85072989Y-52182779D01*
X84916467Y-52266443D01*
X84859853Y-52283616D01*
X84746627Y-52317963D01*
X84680442Y-52324482D01*
X84614260Y-52331000D01*
X84525740Y-52331000D01*
X84459557Y-52324481D01*
X84393373Y-52317963D01*
X84280147Y-52283616D01*
X84223533Y-52266443D01*
X84067011Y-52182779D01*
X84067009Y-52182778D01*
X84031271Y-52153448D01*
X83929814Y-52070186D01*
X83846552Y-51968729D01*
X83817222Y-51932991D01*
X83802596Y-51905628D01*
X83733557Y-51776467D01*
X83712958Y-51708559D01*
X83682037Y-51606627D01*
X83664641Y-51430000D01*
X83682037Y-51253373D01*
X83733557Y-51083534D01*
X83733557Y-51083533D01*
X83817221Y-50927011D01*
X83817222Y-50927009D01*
X83850281Y-50886727D01*
X83929814Y-50789814D01*
X84031271Y-50706552D01*
X84067009Y-50677222D01*
X84144827Y-50635627D01*
X84223533Y-50593557D01*
X84280147Y-50576384D01*
X84393373Y-50542037D01*
X84459557Y-50535519D01*
X84525740Y-50529000D01*
X84614260Y-50529000D01*
X84680443Y-50535519D01*
X84680443Y-50535519D01*
G37*
G36*
X115446789Y-49616727D02*
G01*
X115594749Y-49678015D01*
X115727905Y-49766987D01*
X115841145Y-49880227D01*
X115930117Y-50013383D01*
X115991405Y-50161343D01*
X116022647Y-50318410D01*
X116022647Y-50478560D01*
X115991405Y-50635627D01*
X115930117Y-50783587D01*
X115908803Y-50815485D01*
X115841146Y-50916742D01*
X115727904Y-51029984D01*
X115717423Y-51036987D01*
X115594749Y-51118955D01*
X115446789Y-51180243D01*
X115289722Y-51211485D01*
X115129572Y-51211485D01*
X114972505Y-51180243D01*
X114824545Y-51118955D01*
X114701871Y-51036987D01*
X114691390Y-51029984D01*
X114578148Y-50916742D01*
X114510491Y-50815485D01*
X114489177Y-50783587D01*
X114427889Y-50635627D01*
X114396647Y-50478560D01*
X114396647Y-50318410D01*
X114427889Y-50161343D01*
X114489177Y-50013383D01*
X114578149Y-49880227D01*
X114691389Y-49766987D01*
X114824545Y-49678015D01*
X114972505Y-49616727D01*
X115129572Y-49585485D01*
X115289722Y-49585485D01*
X115446789Y-49616727D01*
X115446789Y-49616727D01*
G37*
G36*
X42997379Y-49576727D02*
G01*
X43145339Y-49638015D01*
X43278495Y-49726987D01*
X43391735Y-49840227D01*
X43480707Y-49973383D01*
X43541995Y-50121343D01*
X43573237Y-50278410D01*
X43573237Y-50438560D01*
X43541995Y-50595627D01*
X43508197Y-50677221D01*
X43480708Y-50743585D01*
X43391736Y-50876742D01*
X43278494Y-50989984D01*
X43268013Y-50996987D01*
X43145339Y-51078955D01*
X43145338Y-51078956D01*
X43145337Y-51078956D01*
X43111820Y-51092839D01*
X42997379Y-51140243D01*
X42840312Y-51171485D01*
X42680162Y-51171485D01*
X42523095Y-51140243D01*
X42408654Y-51092839D01*
X42375137Y-51078956D01*
X42375136Y-51078956D01*
X42375135Y-51078955D01*
X42252461Y-50996987D01*
X42241980Y-50989984D01*
X42128738Y-50876742D01*
X42039766Y-50743585D01*
X42012277Y-50677221D01*
X41978479Y-50595627D01*
X41947237Y-50438560D01*
X41947237Y-50278410D01*
X41978479Y-50121343D01*
X42039767Y-49973383D01*
X42128739Y-49840227D01*
X42241979Y-49726987D01*
X42375135Y-49638015D01*
X42523095Y-49576727D01*
X42680162Y-49545485D01*
X42840312Y-49545485D01*
X42997379Y-49576727D01*
X42997379Y-49576727D01*
G37*
G36*
X89760442Y-47995518D02*
G01*
X89826627Y-48002037D01*
X89939853Y-48036384D01*
X89996467Y-48053557D01*
X90135087Y-48127652D01*
X90152991Y-48137222D01*
X90188729Y-48166552D01*
X90290186Y-48249814D01*
X90373448Y-48351271D01*
X90402778Y-48387009D01*
X90402779Y-48387011D01*
X90486443Y-48543533D01*
X90486443Y-48543534D01*
X90537963Y-48713373D01*
X90555359Y-48890000D01*
X90537963Y-49066627D01*
X90503616Y-49179853D01*
X90486443Y-49236467D01*
X90412348Y-49375087D01*
X90402778Y-49392991D01*
X90373448Y-49428729D01*
X90290186Y-49530186D01*
X90188729Y-49613448D01*
X90152991Y-49642778D01*
X90152989Y-49642779D01*
X89996467Y-49726443D01*
X89939853Y-49743616D01*
X89826627Y-49777963D01*
X89760442Y-49784482D01*
X89694260Y-49791000D01*
X89605740Y-49791000D01*
X89539558Y-49784482D01*
X89473373Y-49777963D01*
X89360147Y-49743616D01*
X89303533Y-49726443D01*
X89147011Y-49642779D01*
X89147009Y-49642778D01*
X89111271Y-49613448D01*
X89009814Y-49530186D01*
X88926552Y-49428729D01*
X88897222Y-49392991D01*
X88887652Y-49375087D01*
X88813557Y-49236467D01*
X88796384Y-49179853D01*
X88762037Y-49066627D01*
X88744641Y-48890000D01*
X88762037Y-48713373D01*
X88813557Y-48543534D01*
X88813557Y-48543533D01*
X88897221Y-48387011D01*
X88897222Y-48387009D01*
X88926552Y-48351271D01*
X89009814Y-48249814D01*
X89111271Y-48166552D01*
X89147009Y-48137222D01*
X89164913Y-48127652D01*
X89303533Y-48053557D01*
X89360147Y-48036384D01*
X89473373Y-48002037D01*
X89539558Y-47995518D01*
X89605740Y-47989000D01*
X89694260Y-47989000D01*
X89760442Y-47995518D01*
X89760442Y-47995518D01*
G37*
G36*
X59280442Y-47995518D02*
G01*
X59346627Y-48002037D01*
X59459853Y-48036384D01*
X59516467Y-48053557D01*
X59655087Y-48127652D01*
X59672991Y-48137222D01*
X59708729Y-48166552D01*
X59810186Y-48249814D01*
X59893448Y-48351271D01*
X59922778Y-48387009D01*
X59922779Y-48387011D01*
X60006443Y-48543533D01*
X60006443Y-48543534D01*
X60057963Y-48713373D01*
X60075359Y-48890000D01*
X60057963Y-49066627D01*
X60023616Y-49179853D01*
X60006443Y-49236467D01*
X59932348Y-49375087D01*
X59922778Y-49392991D01*
X59893448Y-49428729D01*
X59810186Y-49530186D01*
X59708729Y-49613448D01*
X59672991Y-49642778D01*
X59672989Y-49642779D01*
X59516467Y-49726443D01*
X59459853Y-49743616D01*
X59346627Y-49777963D01*
X59280442Y-49784482D01*
X59214260Y-49791000D01*
X59125740Y-49791000D01*
X59059558Y-49784482D01*
X58993373Y-49777963D01*
X58880147Y-49743616D01*
X58823533Y-49726443D01*
X58667011Y-49642779D01*
X58667009Y-49642778D01*
X58631271Y-49613448D01*
X58529814Y-49530186D01*
X58446552Y-49428729D01*
X58417222Y-49392991D01*
X58407652Y-49375087D01*
X58333557Y-49236467D01*
X58316384Y-49179853D01*
X58282037Y-49066627D01*
X58264641Y-48890000D01*
X58282037Y-48713373D01*
X58333557Y-48543534D01*
X58333557Y-48543533D01*
X58417221Y-48387011D01*
X58417222Y-48387009D01*
X58446552Y-48351271D01*
X58529814Y-48249814D01*
X58631271Y-48166552D01*
X58667009Y-48137222D01*
X58684913Y-48127652D01*
X58823533Y-48053557D01*
X58880147Y-48036384D01*
X58993373Y-48002037D01*
X59059558Y-47995518D01*
X59125740Y-47989000D01*
X59214260Y-47989000D01*
X59280442Y-47995518D01*
X59280442Y-47995518D01*
G37*
G36*
X61820442Y-47995518D02*
G01*
X61886627Y-48002037D01*
X61999853Y-48036384D01*
X62056467Y-48053557D01*
X62195087Y-48127652D01*
X62212991Y-48137222D01*
X62248729Y-48166552D01*
X62350186Y-48249814D01*
X62433448Y-48351271D01*
X62462778Y-48387009D01*
X62462779Y-48387011D01*
X62546443Y-48543533D01*
X62546443Y-48543534D01*
X62597963Y-48713373D01*
X62615359Y-48890000D01*
X62597963Y-49066627D01*
X62563616Y-49179853D01*
X62546443Y-49236467D01*
X62472348Y-49375087D01*
X62462778Y-49392991D01*
X62433448Y-49428729D01*
X62350186Y-49530186D01*
X62248729Y-49613448D01*
X62212991Y-49642778D01*
X62212989Y-49642779D01*
X62056467Y-49726443D01*
X61999853Y-49743616D01*
X61886627Y-49777963D01*
X61820442Y-49784482D01*
X61754260Y-49791000D01*
X61665740Y-49791000D01*
X61599558Y-49784482D01*
X61533373Y-49777963D01*
X61420147Y-49743616D01*
X61363533Y-49726443D01*
X61207011Y-49642779D01*
X61207009Y-49642778D01*
X61171271Y-49613448D01*
X61069814Y-49530186D01*
X60986552Y-49428729D01*
X60957222Y-49392991D01*
X60947652Y-49375087D01*
X60873557Y-49236467D01*
X60856384Y-49179853D01*
X60822037Y-49066627D01*
X60804641Y-48890000D01*
X60822037Y-48713373D01*
X60873557Y-48543534D01*
X60873557Y-48543533D01*
X60957221Y-48387011D01*
X60957222Y-48387009D01*
X60986552Y-48351271D01*
X61069814Y-48249814D01*
X61171271Y-48166552D01*
X61207009Y-48137222D01*
X61224913Y-48127652D01*
X61363533Y-48053557D01*
X61420147Y-48036384D01*
X61533373Y-48002037D01*
X61599558Y-47995518D01*
X61665740Y-47989000D01*
X61754260Y-47989000D01*
X61820442Y-47995518D01*
X61820442Y-47995518D01*
G37*
G36*
X64360442Y-47995518D02*
G01*
X64426627Y-48002037D01*
X64539853Y-48036384D01*
X64596467Y-48053557D01*
X64735087Y-48127652D01*
X64752991Y-48137222D01*
X64788729Y-48166552D01*
X64890186Y-48249814D01*
X64973448Y-48351271D01*
X65002778Y-48387009D01*
X65002779Y-48387011D01*
X65086443Y-48543533D01*
X65086443Y-48543534D01*
X65137963Y-48713373D01*
X65155359Y-48890000D01*
X65137963Y-49066627D01*
X65103616Y-49179853D01*
X65086443Y-49236467D01*
X65012348Y-49375087D01*
X65002778Y-49392991D01*
X64973448Y-49428729D01*
X64890186Y-49530186D01*
X64788729Y-49613448D01*
X64752991Y-49642778D01*
X64752989Y-49642779D01*
X64596467Y-49726443D01*
X64539853Y-49743616D01*
X64426627Y-49777963D01*
X64360442Y-49784482D01*
X64294260Y-49791000D01*
X64205740Y-49791000D01*
X64139558Y-49784482D01*
X64073373Y-49777963D01*
X63960147Y-49743616D01*
X63903533Y-49726443D01*
X63747011Y-49642779D01*
X63747009Y-49642778D01*
X63711271Y-49613448D01*
X63609814Y-49530186D01*
X63526552Y-49428729D01*
X63497222Y-49392991D01*
X63487652Y-49375087D01*
X63413557Y-49236467D01*
X63396384Y-49179853D01*
X63362037Y-49066627D01*
X63344641Y-48890000D01*
X63362037Y-48713373D01*
X63413557Y-48543534D01*
X63413557Y-48543533D01*
X63497221Y-48387011D01*
X63497222Y-48387009D01*
X63526552Y-48351271D01*
X63609814Y-48249814D01*
X63711271Y-48166552D01*
X63747009Y-48137222D01*
X63764913Y-48127652D01*
X63903533Y-48053557D01*
X63960147Y-48036384D01*
X64073373Y-48002037D01*
X64139558Y-47995518D01*
X64205740Y-47989000D01*
X64294260Y-47989000D01*
X64360442Y-47995518D01*
X64360442Y-47995518D01*
G37*
G36*
X66900442Y-47995518D02*
G01*
X66966627Y-48002037D01*
X67079853Y-48036384D01*
X67136467Y-48053557D01*
X67275087Y-48127652D01*
X67292991Y-48137222D01*
X67328729Y-48166552D01*
X67430186Y-48249814D01*
X67513448Y-48351271D01*
X67542778Y-48387009D01*
X67542779Y-48387011D01*
X67626443Y-48543533D01*
X67626443Y-48543534D01*
X67677963Y-48713373D01*
X67695359Y-48890000D01*
X67677963Y-49066627D01*
X67643616Y-49179853D01*
X67626443Y-49236467D01*
X67552348Y-49375087D01*
X67542778Y-49392991D01*
X67513448Y-49428729D01*
X67430186Y-49530186D01*
X67328729Y-49613448D01*
X67292991Y-49642778D01*
X67292989Y-49642779D01*
X67136467Y-49726443D01*
X67079853Y-49743616D01*
X66966627Y-49777963D01*
X66900442Y-49784482D01*
X66834260Y-49791000D01*
X66745740Y-49791000D01*
X66679558Y-49784482D01*
X66613373Y-49777963D01*
X66500147Y-49743616D01*
X66443533Y-49726443D01*
X66287011Y-49642779D01*
X66287009Y-49642778D01*
X66251271Y-49613448D01*
X66149814Y-49530186D01*
X66066552Y-49428729D01*
X66037222Y-49392991D01*
X66027652Y-49375087D01*
X65953557Y-49236467D01*
X65936384Y-49179853D01*
X65902037Y-49066627D01*
X65884641Y-48890000D01*
X65902037Y-48713373D01*
X65953557Y-48543534D01*
X65953557Y-48543533D01*
X66037221Y-48387011D01*
X66037222Y-48387009D01*
X66066552Y-48351271D01*
X66149814Y-48249814D01*
X66251271Y-48166552D01*
X66287009Y-48137222D01*
X66304913Y-48127652D01*
X66443533Y-48053557D01*
X66500147Y-48036384D01*
X66613373Y-48002037D01*
X66679558Y-47995518D01*
X66745740Y-47989000D01*
X66834260Y-47989000D01*
X66900442Y-47995518D01*
X66900442Y-47995518D01*
G37*
G36*
X69440442Y-47995518D02*
G01*
X69506627Y-48002037D01*
X69619853Y-48036384D01*
X69676467Y-48053557D01*
X69815087Y-48127652D01*
X69832991Y-48137222D01*
X69868729Y-48166552D01*
X69970186Y-48249814D01*
X70053448Y-48351271D01*
X70082778Y-48387009D01*
X70082779Y-48387011D01*
X70166443Y-48543533D01*
X70166443Y-48543534D01*
X70217963Y-48713373D01*
X70235359Y-48890000D01*
X70217963Y-49066627D01*
X70183616Y-49179853D01*
X70166443Y-49236467D01*
X70092348Y-49375087D01*
X70082778Y-49392991D01*
X70053448Y-49428729D01*
X69970186Y-49530186D01*
X69868729Y-49613448D01*
X69832991Y-49642778D01*
X69832989Y-49642779D01*
X69676467Y-49726443D01*
X69619853Y-49743616D01*
X69506627Y-49777963D01*
X69440442Y-49784482D01*
X69374260Y-49791000D01*
X69285740Y-49791000D01*
X69219558Y-49784482D01*
X69153373Y-49777963D01*
X69040147Y-49743616D01*
X68983533Y-49726443D01*
X68827011Y-49642779D01*
X68827009Y-49642778D01*
X68791271Y-49613448D01*
X68689814Y-49530186D01*
X68606552Y-49428729D01*
X68577222Y-49392991D01*
X68567652Y-49375087D01*
X68493557Y-49236467D01*
X68476384Y-49179853D01*
X68442037Y-49066627D01*
X68424641Y-48890000D01*
X68442037Y-48713373D01*
X68493557Y-48543534D01*
X68493557Y-48543533D01*
X68577221Y-48387011D01*
X68577222Y-48387009D01*
X68606552Y-48351271D01*
X68689814Y-48249814D01*
X68791271Y-48166552D01*
X68827009Y-48137222D01*
X68844913Y-48127652D01*
X68983533Y-48053557D01*
X69040147Y-48036384D01*
X69153373Y-48002037D01*
X69219558Y-47995518D01*
X69285740Y-47989000D01*
X69374260Y-47989000D01*
X69440442Y-47995518D01*
X69440442Y-47995518D01*
G37*
G36*
X92300442Y-47995518D02*
G01*
X92366627Y-48002037D01*
X92479853Y-48036384D01*
X92536467Y-48053557D01*
X92675087Y-48127652D01*
X92692991Y-48137222D01*
X92728729Y-48166552D01*
X92830186Y-48249814D01*
X92913448Y-48351271D01*
X92942778Y-48387009D01*
X92942779Y-48387011D01*
X93026443Y-48543533D01*
X93026443Y-48543534D01*
X93077963Y-48713373D01*
X93095359Y-48890000D01*
X93077963Y-49066627D01*
X93043616Y-49179853D01*
X93026443Y-49236467D01*
X92952348Y-49375087D01*
X92942778Y-49392991D01*
X92913448Y-49428729D01*
X92830186Y-49530186D01*
X92728729Y-49613448D01*
X92692991Y-49642778D01*
X92692989Y-49642779D01*
X92536467Y-49726443D01*
X92479853Y-49743616D01*
X92366627Y-49777963D01*
X92300442Y-49784482D01*
X92234260Y-49791000D01*
X92145740Y-49791000D01*
X92079558Y-49784482D01*
X92013373Y-49777963D01*
X91900147Y-49743616D01*
X91843533Y-49726443D01*
X91687011Y-49642779D01*
X91687009Y-49642778D01*
X91651271Y-49613448D01*
X91549814Y-49530186D01*
X91466552Y-49428729D01*
X91437222Y-49392991D01*
X91427652Y-49375087D01*
X91353557Y-49236467D01*
X91336384Y-49179853D01*
X91302037Y-49066627D01*
X91284641Y-48890000D01*
X91302037Y-48713373D01*
X91353557Y-48543534D01*
X91353557Y-48543533D01*
X91437221Y-48387011D01*
X91437222Y-48387009D01*
X91466552Y-48351271D01*
X91549814Y-48249814D01*
X91651271Y-48166552D01*
X91687009Y-48137222D01*
X91704913Y-48127652D01*
X91843533Y-48053557D01*
X91900147Y-48036384D01*
X92013373Y-48002037D01*
X92079558Y-47995518D01*
X92145740Y-47989000D01*
X92234260Y-47989000D01*
X92300442Y-47995518D01*
X92300442Y-47995518D01*
G37*
G36*
X74520442Y-47995518D02*
G01*
X74586627Y-48002037D01*
X74699853Y-48036384D01*
X74756467Y-48053557D01*
X74895087Y-48127652D01*
X74912991Y-48137222D01*
X74948729Y-48166552D01*
X75050186Y-48249814D01*
X75133448Y-48351271D01*
X75162778Y-48387009D01*
X75162779Y-48387011D01*
X75246443Y-48543533D01*
X75246443Y-48543534D01*
X75297963Y-48713373D01*
X75315359Y-48890000D01*
X75297963Y-49066627D01*
X75263616Y-49179853D01*
X75246443Y-49236467D01*
X75172348Y-49375087D01*
X75162778Y-49392991D01*
X75133448Y-49428729D01*
X75050186Y-49530186D01*
X74948729Y-49613448D01*
X74912991Y-49642778D01*
X74912989Y-49642779D01*
X74756467Y-49726443D01*
X74699853Y-49743616D01*
X74586627Y-49777963D01*
X74520442Y-49784482D01*
X74454260Y-49791000D01*
X74365740Y-49791000D01*
X74299558Y-49784482D01*
X74233373Y-49777963D01*
X74120147Y-49743616D01*
X74063533Y-49726443D01*
X73907011Y-49642779D01*
X73907009Y-49642778D01*
X73871271Y-49613448D01*
X73769814Y-49530186D01*
X73686552Y-49428729D01*
X73657222Y-49392991D01*
X73647652Y-49375087D01*
X73573557Y-49236467D01*
X73556384Y-49179853D01*
X73522037Y-49066627D01*
X73504641Y-48890000D01*
X73522037Y-48713373D01*
X73573557Y-48543534D01*
X73573557Y-48543533D01*
X73657221Y-48387011D01*
X73657222Y-48387009D01*
X73686552Y-48351271D01*
X73769814Y-48249814D01*
X73871271Y-48166552D01*
X73907009Y-48137222D01*
X73924913Y-48127652D01*
X74063533Y-48053557D01*
X74120147Y-48036384D01*
X74233373Y-48002037D01*
X74299558Y-47995518D01*
X74365740Y-47989000D01*
X74454260Y-47989000D01*
X74520442Y-47995518D01*
X74520442Y-47995518D01*
G37*
G36*
X77060442Y-47995518D02*
G01*
X77126627Y-48002037D01*
X77239853Y-48036384D01*
X77296467Y-48053557D01*
X77435087Y-48127652D01*
X77452991Y-48137222D01*
X77488729Y-48166552D01*
X77590186Y-48249814D01*
X77673448Y-48351271D01*
X77702778Y-48387009D01*
X77702779Y-48387011D01*
X77786443Y-48543533D01*
X77786443Y-48543534D01*
X77837963Y-48713373D01*
X77855359Y-48890000D01*
X77837963Y-49066627D01*
X77803616Y-49179853D01*
X77786443Y-49236467D01*
X77712348Y-49375087D01*
X77702778Y-49392991D01*
X77673448Y-49428729D01*
X77590186Y-49530186D01*
X77488729Y-49613448D01*
X77452991Y-49642778D01*
X77452989Y-49642779D01*
X77296467Y-49726443D01*
X77239853Y-49743616D01*
X77126627Y-49777963D01*
X77060442Y-49784482D01*
X76994260Y-49791000D01*
X76905740Y-49791000D01*
X76839558Y-49784482D01*
X76773373Y-49777963D01*
X76660147Y-49743616D01*
X76603533Y-49726443D01*
X76447011Y-49642779D01*
X76447009Y-49642778D01*
X76411271Y-49613448D01*
X76309814Y-49530186D01*
X76226552Y-49428729D01*
X76197222Y-49392991D01*
X76187652Y-49375087D01*
X76113557Y-49236467D01*
X76096384Y-49179853D01*
X76062037Y-49066627D01*
X76044641Y-48890000D01*
X76062037Y-48713373D01*
X76113557Y-48543534D01*
X76113557Y-48543533D01*
X76197221Y-48387011D01*
X76197222Y-48387009D01*
X76226552Y-48351271D01*
X76309814Y-48249814D01*
X76411271Y-48166552D01*
X76447009Y-48137222D01*
X76464913Y-48127652D01*
X76603533Y-48053557D01*
X76660147Y-48036384D01*
X76773373Y-48002037D01*
X76839558Y-47995518D01*
X76905740Y-47989000D01*
X76994260Y-47989000D01*
X77060442Y-47995518D01*
X77060442Y-47995518D01*
G37*
G36*
X87220442Y-47995518D02*
G01*
X87286627Y-48002037D01*
X87399853Y-48036384D01*
X87456467Y-48053557D01*
X87595087Y-48127652D01*
X87612991Y-48137222D01*
X87648729Y-48166552D01*
X87750186Y-48249814D01*
X87833448Y-48351271D01*
X87862778Y-48387009D01*
X87862779Y-48387011D01*
X87946443Y-48543533D01*
X87946443Y-48543534D01*
X87997963Y-48713373D01*
X88015359Y-48890000D01*
X87997963Y-49066627D01*
X87963616Y-49179853D01*
X87946443Y-49236467D01*
X87872348Y-49375087D01*
X87862778Y-49392991D01*
X87833448Y-49428729D01*
X87750186Y-49530186D01*
X87648729Y-49613448D01*
X87612991Y-49642778D01*
X87612989Y-49642779D01*
X87456467Y-49726443D01*
X87399853Y-49743616D01*
X87286627Y-49777963D01*
X87220442Y-49784482D01*
X87154260Y-49791000D01*
X87065740Y-49791000D01*
X86999558Y-49784482D01*
X86933373Y-49777963D01*
X86820147Y-49743616D01*
X86763533Y-49726443D01*
X86607011Y-49642779D01*
X86607009Y-49642778D01*
X86571271Y-49613448D01*
X86469814Y-49530186D01*
X86386552Y-49428729D01*
X86357222Y-49392991D01*
X86347652Y-49375087D01*
X86273557Y-49236467D01*
X86256384Y-49179853D01*
X86222037Y-49066627D01*
X86204641Y-48890000D01*
X86222037Y-48713373D01*
X86273557Y-48543534D01*
X86273557Y-48543533D01*
X86357221Y-48387011D01*
X86357222Y-48387009D01*
X86386552Y-48351271D01*
X86469814Y-48249814D01*
X86571271Y-48166552D01*
X86607009Y-48137222D01*
X86624913Y-48127652D01*
X86763533Y-48053557D01*
X86820147Y-48036384D01*
X86933373Y-48002037D01*
X86999558Y-47995518D01*
X87065740Y-47989000D01*
X87154260Y-47989000D01*
X87220442Y-47995518D01*
X87220442Y-47995518D01*
G37*
G36*
X84680442Y-47995518D02*
G01*
X84746627Y-48002037D01*
X84859853Y-48036384D01*
X84916467Y-48053557D01*
X85055087Y-48127652D01*
X85072991Y-48137222D01*
X85108729Y-48166552D01*
X85210186Y-48249814D01*
X85293448Y-48351271D01*
X85322778Y-48387009D01*
X85322779Y-48387011D01*
X85406443Y-48543533D01*
X85406443Y-48543534D01*
X85457963Y-48713373D01*
X85475359Y-48890000D01*
X85457963Y-49066627D01*
X85423616Y-49179853D01*
X85406443Y-49236467D01*
X85332348Y-49375087D01*
X85322778Y-49392991D01*
X85293448Y-49428729D01*
X85210186Y-49530186D01*
X85108729Y-49613448D01*
X85072991Y-49642778D01*
X85072989Y-49642779D01*
X84916467Y-49726443D01*
X84859853Y-49743616D01*
X84746627Y-49777963D01*
X84680442Y-49784482D01*
X84614260Y-49791000D01*
X84525740Y-49791000D01*
X84459558Y-49784482D01*
X84393373Y-49777963D01*
X84280147Y-49743616D01*
X84223533Y-49726443D01*
X84067011Y-49642779D01*
X84067009Y-49642778D01*
X84031271Y-49613448D01*
X83929814Y-49530186D01*
X83846552Y-49428729D01*
X83817222Y-49392991D01*
X83807652Y-49375087D01*
X83733557Y-49236467D01*
X83716384Y-49179853D01*
X83682037Y-49066627D01*
X83664641Y-48890000D01*
X83682037Y-48713373D01*
X83733557Y-48543534D01*
X83733557Y-48543533D01*
X83817221Y-48387011D01*
X83817222Y-48387009D01*
X83846552Y-48351271D01*
X83929814Y-48249814D01*
X84031271Y-48166552D01*
X84067009Y-48137222D01*
X84084913Y-48127652D01*
X84223533Y-48053557D01*
X84280147Y-48036384D01*
X84393373Y-48002037D01*
X84459558Y-47995518D01*
X84525740Y-47989000D01*
X84614260Y-47989000D01*
X84680442Y-47995518D01*
X84680442Y-47995518D01*
G37*
G36*
X79600442Y-47995518D02*
G01*
X79666627Y-48002037D01*
X79779853Y-48036384D01*
X79836467Y-48053557D01*
X79975087Y-48127652D01*
X79992991Y-48137222D01*
X80028729Y-48166552D01*
X80130186Y-48249814D01*
X80213448Y-48351271D01*
X80242778Y-48387009D01*
X80242779Y-48387011D01*
X80326443Y-48543533D01*
X80326443Y-48543534D01*
X80377963Y-48713373D01*
X80395359Y-48890000D01*
X80377963Y-49066627D01*
X80343616Y-49179853D01*
X80326443Y-49236467D01*
X80252348Y-49375087D01*
X80242778Y-49392991D01*
X80213448Y-49428729D01*
X80130186Y-49530186D01*
X80028729Y-49613448D01*
X79992991Y-49642778D01*
X79992989Y-49642779D01*
X79836467Y-49726443D01*
X79779853Y-49743616D01*
X79666627Y-49777963D01*
X79600442Y-49784482D01*
X79534260Y-49791000D01*
X79445740Y-49791000D01*
X79379558Y-49784482D01*
X79313373Y-49777963D01*
X79200147Y-49743616D01*
X79143533Y-49726443D01*
X78987011Y-49642779D01*
X78987009Y-49642778D01*
X78951271Y-49613448D01*
X78849814Y-49530186D01*
X78766552Y-49428729D01*
X78737222Y-49392991D01*
X78727652Y-49375087D01*
X78653557Y-49236467D01*
X78636384Y-49179853D01*
X78602037Y-49066627D01*
X78584641Y-48890000D01*
X78602037Y-48713373D01*
X78653557Y-48543534D01*
X78653557Y-48543533D01*
X78737221Y-48387011D01*
X78737222Y-48387009D01*
X78766552Y-48351271D01*
X78849814Y-48249814D01*
X78951271Y-48166552D01*
X78987009Y-48137222D01*
X79004913Y-48127652D01*
X79143533Y-48053557D01*
X79200147Y-48036384D01*
X79313373Y-48002037D01*
X79379558Y-47995518D01*
X79445740Y-47989000D01*
X79534260Y-47989000D01*
X79600442Y-47995518D01*
X79600442Y-47995518D01*
G37*
G36*
X82140442Y-47995518D02*
G01*
X82206627Y-48002037D01*
X82319853Y-48036384D01*
X82376467Y-48053557D01*
X82515087Y-48127652D01*
X82532991Y-48137222D01*
X82568729Y-48166552D01*
X82670186Y-48249814D01*
X82753448Y-48351271D01*
X82782778Y-48387009D01*
X82782779Y-48387011D01*
X82866443Y-48543533D01*
X82866443Y-48543534D01*
X82917963Y-48713373D01*
X82935359Y-48890000D01*
X82917963Y-49066627D01*
X82883616Y-49179853D01*
X82866443Y-49236467D01*
X82792348Y-49375087D01*
X82782778Y-49392991D01*
X82753448Y-49428729D01*
X82670186Y-49530186D01*
X82568729Y-49613448D01*
X82532991Y-49642778D01*
X82532989Y-49642779D01*
X82376467Y-49726443D01*
X82319853Y-49743616D01*
X82206627Y-49777963D01*
X82140442Y-49784482D01*
X82074260Y-49791000D01*
X81985740Y-49791000D01*
X81919558Y-49784482D01*
X81853373Y-49777963D01*
X81740147Y-49743616D01*
X81683533Y-49726443D01*
X81527011Y-49642779D01*
X81527009Y-49642778D01*
X81491271Y-49613448D01*
X81389814Y-49530186D01*
X81306552Y-49428729D01*
X81277222Y-49392991D01*
X81267652Y-49375087D01*
X81193557Y-49236467D01*
X81176384Y-49179853D01*
X81142037Y-49066627D01*
X81124641Y-48890000D01*
X81142037Y-48713373D01*
X81193557Y-48543534D01*
X81193557Y-48543533D01*
X81277221Y-48387011D01*
X81277222Y-48387009D01*
X81306552Y-48351271D01*
X81389814Y-48249814D01*
X81491271Y-48166552D01*
X81527009Y-48137222D01*
X81544913Y-48127652D01*
X81683533Y-48053557D01*
X81740147Y-48036384D01*
X81853373Y-48002037D01*
X81919558Y-47995518D01*
X81985740Y-47989000D01*
X82074260Y-47989000D01*
X82140442Y-47995518D01*
X82140442Y-47995518D01*
G37*
G36*
X71980442Y-47995518D02*
G01*
X72046627Y-48002037D01*
X72159853Y-48036384D01*
X72216467Y-48053557D01*
X72355087Y-48127652D01*
X72372991Y-48137222D01*
X72408729Y-48166552D01*
X72510186Y-48249814D01*
X72593448Y-48351271D01*
X72622778Y-48387009D01*
X72622779Y-48387011D01*
X72706443Y-48543533D01*
X72706443Y-48543534D01*
X72757963Y-48713373D01*
X72775359Y-48890000D01*
X72757963Y-49066627D01*
X72723616Y-49179853D01*
X72706443Y-49236467D01*
X72632348Y-49375087D01*
X72622778Y-49392991D01*
X72593448Y-49428729D01*
X72510186Y-49530186D01*
X72408729Y-49613448D01*
X72372991Y-49642778D01*
X72372989Y-49642779D01*
X72216467Y-49726443D01*
X72159853Y-49743616D01*
X72046627Y-49777963D01*
X71980442Y-49784482D01*
X71914260Y-49791000D01*
X71825740Y-49791000D01*
X71759558Y-49784482D01*
X71693373Y-49777963D01*
X71580147Y-49743616D01*
X71523533Y-49726443D01*
X71367011Y-49642779D01*
X71367009Y-49642778D01*
X71331271Y-49613448D01*
X71229814Y-49530186D01*
X71146552Y-49428729D01*
X71117222Y-49392991D01*
X71107652Y-49375087D01*
X71033557Y-49236467D01*
X71016384Y-49179853D01*
X70982037Y-49066627D01*
X70964641Y-48890000D01*
X70982037Y-48713373D01*
X71033557Y-48543534D01*
X71033557Y-48543533D01*
X71117221Y-48387011D01*
X71117222Y-48387009D01*
X71146552Y-48351271D01*
X71229814Y-48249814D01*
X71331271Y-48166552D01*
X71367009Y-48137222D01*
X71384913Y-48127652D01*
X71523533Y-48053557D01*
X71580147Y-48036384D01*
X71693373Y-48002037D01*
X71759558Y-47995518D01*
X71825740Y-47989000D01*
X71914260Y-47989000D01*
X71980442Y-47995518D01*
X71980442Y-47995518D01*
G37*
G36*
X95631000Y-49791000D02*
G01*
X93829000Y-49791000D01*
X93829000Y-47989000D01*
X95631000Y-47989000D01*
X95631000Y-49791000D01*
X95631000Y-49791000D01*
G37*
G36*
X110707084Y-46487317D02*
G01*
X110855044Y-46548605D01*
X110917854Y-46590573D01*
X110988199Y-46637576D01*
X111101441Y-46750818D01*
X111121496Y-46780833D01*
X111190412Y-46883973D01*
X111251700Y-47031933D01*
X111282942Y-47189000D01*
X111282942Y-47349150D01*
X111251700Y-47506217D01*
X111190412Y-47654177D01*
X111101440Y-47787333D01*
X110988200Y-47900573D01*
X110855044Y-47989545D01*
X110707084Y-48050833D01*
X110550017Y-48082075D01*
X110389867Y-48082075D01*
X110232800Y-48050833D01*
X110084840Y-47989545D01*
X109951684Y-47900573D01*
X109838444Y-47787333D01*
X109749472Y-47654177D01*
X109688184Y-47506217D01*
X109656942Y-47349150D01*
X109656942Y-47189000D01*
X109688184Y-47031933D01*
X109749472Y-46883973D01*
X109818388Y-46780833D01*
X109838443Y-46750818D01*
X109951685Y-46637576D01*
X110022030Y-46590573D01*
X110084840Y-46548605D01*
X110232800Y-46487317D01*
X110389867Y-46456075D01*
X110550017Y-46456075D01*
X110707084Y-46487317D01*
X110707084Y-46487317D01*
G37*
G36*
X47737084Y-46447317D02*
G01*
X47885044Y-46508605D01*
X47898106Y-46517333D01*
X48018199Y-46597576D01*
X48131441Y-46710818D01*
X48151496Y-46740833D01*
X48220412Y-46843973D01*
X48281700Y-46991933D01*
X48312942Y-47149000D01*
X48312942Y-47309150D01*
X48281700Y-47466217D01*
X48220412Y-47614177D01*
X48131440Y-47747333D01*
X48018200Y-47860573D01*
X47885044Y-47949545D01*
X47737084Y-48010833D01*
X47580017Y-48042075D01*
X47419867Y-48042075D01*
X47262800Y-48010833D01*
X47114840Y-47949545D01*
X46981684Y-47860573D01*
X46868444Y-47747333D01*
X46779472Y-47614177D01*
X46718184Y-47466217D01*
X46686942Y-47309150D01*
X46686942Y-47149000D01*
X46718184Y-46991933D01*
X46779472Y-46843973D01*
X46848388Y-46740833D01*
X46868443Y-46710818D01*
X46981685Y-46597576D01*
X47101778Y-46517333D01*
X47114840Y-46508605D01*
X47262800Y-46447317D01*
X47419867Y-46416075D01*
X47580017Y-46416075D01*
X47737084Y-46447317D01*
X47737084Y-46447317D01*
G37*
G36*
X118335198Y-44200078D02*
G01*
X118441521Y-44221227D01*
X118741984Y-44345683D01*
X119008794Y-44523960D01*
X119012396Y-44526367D01*
X119242355Y-44756326D01*
X119242357Y-44756329D01*
X119423039Y-45026738D01*
X119547495Y-45327201D01*
X119547570Y-45327577D01*
X119604538Y-45613973D01*
X119610942Y-45646171D01*
X119610942Y-45971389D01*
X119547495Y-46290359D01*
X119423039Y-46590822D01*
X119316133Y-46750817D01*
X119242355Y-46861234D01*
X119012396Y-47091193D01*
X119012393Y-47091195D01*
X118741984Y-47271877D01*
X118441521Y-47396333D01*
X118335198Y-47417482D01*
X118122553Y-47459780D01*
X117797331Y-47459780D01*
X117584686Y-47417482D01*
X117478363Y-47396333D01*
X117177900Y-47271877D01*
X116907491Y-47091195D01*
X116907488Y-47091193D01*
X116677529Y-46861234D01*
X116603751Y-46750817D01*
X116496845Y-46590822D01*
X116372389Y-46290359D01*
X116308942Y-45971389D01*
X116308942Y-45646171D01*
X116315347Y-45613973D01*
X116372314Y-45327577D01*
X116372389Y-45327201D01*
X116496845Y-45026738D01*
X116677527Y-44756329D01*
X116677529Y-44756326D01*
X116907488Y-44526367D01*
X116911090Y-44523960D01*
X117177900Y-44345683D01*
X117478363Y-44221227D01*
X117584686Y-44200078D01*
X117797331Y-44157780D01*
X118122553Y-44157780D01*
X118335198Y-44200078D01*
X118335198Y-44200078D01*
G37*
G36*
X40335198Y-44200078D02*
G01*
X40441521Y-44221227D01*
X40741984Y-44345683D01*
X41008794Y-44523960D01*
X41012396Y-44526367D01*
X41242355Y-44756326D01*
X41242357Y-44756329D01*
X41423039Y-45026738D01*
X41547495Y-45327201D01*
X41547570Y-45327577D01*
X41604538Y-45613973D01*
X41610942Y-45646171D01*
X41610942Y-45971389D01*
X41547495Y-46290359D01*
X41423039Y-46590822D01*
X41316133Y-46750817D01*
X41242355Y-46861234D01*
X41012396Y-47091193D01*
X41012393Y-47091195D01*
X40741984Y-47271877D01*
X40441521Y-47396333D01*
X40335198Y-47417482D01*
X40122553Y-47459780D01*
X39797331Y-47459780D01*
X39584686Y-47417482D01*
X39478363Y-47396333D01*
X39177900Y-47271877D01*
X38907491Y-47091195D01*
X38907488Y-47091193D01*
X38677529Y-46861234D01*
X38603751Y-46750817D01*
X38496845Y-46590822D01*
X38372389Y-46290359D01*
X38308942Y-45971389D01*
X38308942Y-45646171D01*
X38315347Y-45613973D01*
X38372314Y-45327577D01*
X38372389Y-45327201D01*
X38496845Y-45026738D01*
X38677527Y-44756329D01*
X38677529Y-44756326D01*
X38907488Y-44526367D01*
X38911090Y-44523960D01*
X39177900Y-44345683D01*
X39478363Y-44221227D01*
X39584686Y-44200078D01*
X39797331Y-44157780D01*
X40122553Y-44157780D01*
X40335198Y-44200078D01*
X40335198Y-44200078D01*
G37*
G36*
X112906789Y-45217317D02*
G01*
X113054749Y-45278605D01*
X113187905Y-45367577D01*
X113301145Y-45480817D01*
X113390117Y-45613973D01*
X113451405Y-45761933D01*
X113482647Y-45919000D01*
X113482647Y-46079150D01*
X113451405Y-46236217D01*
X113428978Y-46290359D01*
X113390118Y-46384175D01*
X113301146Y-46517332D01*
X113187904Y-46630574D01*
X113177423Y-46637577D01*
X113054749Y-46719545D01*
X112906789Y-46780833D01*
X112749722Y-46812075D01*
X112589572Y-46812075D01*
X112432505Y-46780833D01*
X112284545Y-46719545D01*
X112161871Y-46637577D01*
X112151390Y-46630574D01*
X112038148Y-46517332D01*
X111949176Y-46384175D01*
X111910316Y-46290359D01*
X111887889Y-46236217D01*
X111856647Y-46079150D01*
X111856647Y-45919000D01*
X111887889Y-45761933D01*
X111949177Y-45613973D01*
X112038149Y-45480817D01*
X112151389Y-45367577D01*
X112284545Y-45278605D01*
X112432505Y-45217317D01*
X112589572Y-45186075D01*
X112749722Y-45186075D01*
X112906789Y-45217317D01*
X112906789Y-45217317D01*
G37*
G36*
X45537379Y-45177317D02*
G01*
X45685339Y-45238605D01*
X45745202Y-45278604D01*
X45817933Y-45327201D01*
X45818495Y-45327577D01*
X45931735Y-45440817D01*
X46020707Y-45573973D01*
X46081995Y-45721933D01*
X46113237Y-45879000D01*
X46113237Y-46039150D01*
X46081995Y-46196217D01*
X46043000Y-46290358D01*
X46020708Y-46344175D01*
X45931736Y-46477332D01*
X45818494Y-46590574D01*
X45808013Y-46597577D01*
X45685339Y-46679545D01*
X45537379Y-46740833D01*
X45380312Y-46772075D01*
X45220162Y-46772075D01*
X45063095Y-46740833D01*
X44915135Y-46679545D01*
X44792461Y-46597577D01*
X44781980Y-46590574D01*
X44668738Y-46477332D01*
X44579766Y-46344175D01*
X44557474Y-46290358D01*
X44518479Y-46196217D01*
X44487237Y-46039150D01*
X44487237Y-45879000D01*
X44518479Y-45721933D01*
X44579767Y-45573973D01*
X44668739Y-45440817D01*
X44781979Y-45327577D01*
X44782542Y-45327201D01*
X44855272Y-45278604D01*
X44915135Y-45238605D01*
X45063095Y-45177317D01*
X45220162Y-45146075D01*
X45380312Y-45146075D01*
X45537379Y-45177317D01*
X45537379Y-45177317D01*
G37*
G36*
X105827084Y-42669124D02*
G01*
X105975044Y-42730412D01*
X106042072Y-42775199D01*
X106103994Y-42816573D01*
X106108200Y-42819384D01*
X106221440Y-42932624D01*
X106310412Y-43065780D01*
X106371700Y-43213740D01*
X106402942Y-43370807D01*
X106402942Y-43530957D01*
X106371700Y-43688024D01*
X106324296Y-43802465D01*
X106310413Y-43835982D01*
X106223319Y-43966329D01*
X106221440Y-43969140D01*
X106108200Y-44082380D01*
X105975044Y-44171352D01*
X105827084Y-44232640D01*
X105670017Y-44263882D01*
X105509867Y-44263882D01*
X105352800Y-44232640D01*
X105204840Y-44171352D01*
X105071684Y-44082380D01*
X104958444Y-43969140D01*
X104956566Y-43966329D01*
X104869471Y-43835982D01*
X104855588Y-43802465D01*
X104808184Y-43688024D01*
X104776942Y-43530957D01*
X104776942Y-43370807D01*
X104808184Y-43213740D01*
X104869472Y-43065780D01*
X104958444Y-42932624D01*
X105071684Y-42819384D01*
X105075891Y-42816573D01*
X105137812Y-42775199D01*
X105204840Y-42730412D01*
X105352800Y-42669124D01*
X105509867Y-42637882D01*
X105670017Y-42637882D01*
X105827084Y-42669124D01*
X105827084Y-42669124D01*
G37*
G36*
X52423135Y-42553073D02*
G01*
X52571095Y-42614361D01*
X52638123Y-42659148D01*
X52704250Y-42703332D01*
X52817492Y-42816574D01*
X52861676Y-42882701D01*
X52906463Y-42949729D01*
X52967751Y-43097689D01*
X52998993Y-43254756D01*
X52998993Y-43414906D01*
X52967751Y-43571973D01*
X52920347Y-43686414D01*
X52906464Y-43719931D01*
X52817492Y-43853088D01*
X52704250Y-43966330D01*
X52638123Y-44010514D01*
X52571095Y-44055301D01*
X52423135Y-44116589D01*
X52266068Y-44147831D01*
X52105918Y-44147831D01*
X51948851Y-44116589D01*
X51800891Y-44055301D01*
X51733863Y-44010514D01*
X51667736Y-43966330D01*
X51554494Y-43853088D01*
X51465522Y-43719931D01*
X51451639Y-43686414D01*
X51404235Y-43571973D01*
X51372993Y-43414906D01*
X51372993Y-43254756D01*
X51404235Y-43097689D01*
X51465523Y-42949729D01*
X51510310Y-42882701D01*
X51554494Y-42816574D01*
X51667736Y-42703332D01*
X51733863Y-42659148D01*
X51800891Y-42614361D01*
X51948851Y-42553073D01*
X52105918Y-42521831D01*
X52266068Y-42521831D01*
X52423135Y-42553073D01*
X52423135Y-42553073D01*
G37*
G36*
X104031033Y-40873073D02*
G01*
X104178993Y-40934361D01*
X104246021Y-40979148D01*
X104307943Y-41020522D01*
X104312149Y-41023333D01*
X104425389Y-41136573D01*
X104514361Y-41269729D01*
X104575649Y-41417689D01*
X104606891Y-41574756D01*
X104606891Y-41734906D01*
X104575649Y-41891973D01*
X104528245Y-42006414D01*
X104514362Y-42039931D01*
X104427268Y-42170278D01*
X104425389Y-42173089D01*
X104312149Y-42286329D01*
X104178993Y-42375301D01*
X104031033Y-42436589D01*
X103873966Y-42467831D01*
X103713816Y-42467831D01*
X103556749Y-42436589D01*
X103408789Y-42375301D01*
X103275633Y-42286329D01*
X103162393Y-42173089D01*
X103160515Y-42170278D01*
X103073420Y-42039931D01*
X103059537Y-42006414D01*
X103012133Y-41891973D01*
X102980891Y-41734906D01*
X102980891Y-41574756D01*
X103012133Y-41417689D01*
X103073421Y-41269729D01*
X103162393Y-41136573D01*
X103275633Y-41023333D01*
X103279840Y-41020522D01*
X103341761Y-40979148D01*
X103408789Y-40934361D01*
X103556749Y-40873073D01*
X103713816Y-40841831D01*
X103873966Y-40841831D01*
X104031033Y-40873073D01*
X104031033Y-40873073D01*
G37*
G36*
X54219186Y-40757022D02*
G01*
X54367146Y-40818310D01*
X54434174Y-40863097D01*
X54500301Y-40907281D01*
X54613543Y-41020523D01*
X54657727Y-41086650D01*
X54702514Y-41153678D01*
X54763802Y-41301638D01*
X54795044Y-41458705D01*
X54795044Y-41618855D01*
X54763802Y-41775922D01*
X54716398Y-41890363D01*
X54702515Y-41923880D01*
X54613543Y-42057037D01*
X54500301Y-42170279D01*
X54434174Y-42214463D01*
X54367146Y-42259250D01*
X54219186Y-42320538D01*
X54062119Y-42351780D01*
X53901969Y-42351780D01*
X53744902Y-42320538D01*
X53596942Y-42259250D01*
X53529914Y-42214463D01*
X53463787Y-42170279D01*
X53350545Y-42057037D01*
X53261573Y-41923880D01*
X53247690Y-41890363D01*
X53200286Y-41775922D01*
X53169044Y-41618855D01*
X53169044Y-41458705D01*
X53200286Y-41301638D01*
X53261574Y-41153678D01*
X53306361Y-41086650D01*
X53350545Y-41020523D01*
X53463787Y-40907281D01*
X53529914Y-40863097D01*
X53596942Y-40818310D01*
X53744902Y-40757022D01*
X53901969Y-40725780D01*
X54062119Y-40725780D01*
X54219186Y-40757022D01*
X54219186Y-40757022D01*
G37*
G36*
X109419186Y-39077022D02*
G01*
X109567146Y-39138310D01*
X109634174Y-39183097D01*
X109696096Y-39224471D01*
X109700302Y-39227282D01*
X109813542Y-39340522D01*
X109902514Y-39473678D01*
X109963802Y-39621638D01*
X109995044Y-39778705D01*
X109995044Y-39938855D01*
X109963802Y-40095922D01*
X109916398Y-40210363D01*
X109902515Y-40243880D01*
X109815421Y-40374227D01*
X109813542Y-40377038D01*
X109700302Y-40490278D01*
X109567146Y-40579250D01*
X109419186Y-40640538D01*
X109262119Y-40671780D01*
X109101969Y-40671780D01*
X108944902Y-40640538D01*
X108796942Y-40579250D01*
X108663786Y-40490278D01*
X108550546Y-40377038D01*
X108548668Y-40374227D01*
X108461573Y-40243880D01*
X108447690Y-40210363D01*
X108400286Y-40095922D01*
X108369044Y-39938855D01*
X108369044Y-39778705D01*
X108400286Y-39621638D01*
X108461574Y-39473678D01*
X108550546Y-39340522D01*
X108663786Y-39227282D01*
X108667993Y-39224471D01*
X108729914Y-39183097D01*
X108796942Y-39138310D01*
X108944902Y-39077022D01*
X109101969Y-39045780D01*
X109262119Y-39045780D01*
X109419186Y-39077022D01*
X109419186Y-39077022D01*
G37*
G36*
X48831033Y-38960971D02*
G01*
X48978993Y-39022259D01*
X49046021Y-39067046D01*
X49112148Y-39111230D01*
X49225390Y-39224472D01*
X49269574Y-39290599D01*
X49314361Y-39357627D01*
X49375649Y-39505587D01*
X49406891Y-39662654D01*
X49406891Y-39822804D01*
X49375649Y-39979871D01*
X49328245Y-40094312D01*
X49314362Y-40127829D01*
X49225390Y-40260986D01*
X49112148Y-40374228D01*
X49046021Y-40418412D01*
X48978993Y-40463199D01*
X48831033Y-40524487D01*
X48673966Y-40555729D01*
X48513816Y-40555729D01*
X48356749Y-40524487D01*
X48208789Y-40463199D01*
X48141761Y-40418412D01*
X48075634Y-40374228D01*
X47962392Y-40260986D01*
X47873420Y-40127829D01*
X47859537Y-40094312D01*
X47812133Y-39979871D01*
X47780891Y-39822804D01*
X47780891Y-39662654D01*
X47812133Y-39505587D01*
X47873421Y-39357627D01*
X47918208Y-39290599D01*
X47962392Y-39224472D01*
X48075634Y-39111230D01*
X48141761Y-39067046D01*
X48208789Y-39022259D01*
X48356749Y-38960971D01*
X48513816Y-38929729D01*
X48673966Y-38929729D01*
X48831033Y-38960971D01*
X48831033Y-38960971D01*
G37*
G36*
X107623135Y-37280971D02*
G01*
X107771095Y-37342259D01*
X107838123Y-37387046D01*
X107900045Y-37428420D01*
X107904251Y-37431231D01*
X108017491Y-37544471D01*
X108106463Y-37677627D01*
X108167751Y-37825587D01*
X108198993Y-37982654D01*
X108198993Y-38142804D01*
X108167751Y-38299871D01*
X108120347Y-38414312D01*
X108106464Y-38447829D01*
X108019370Y-38578176D01*
X108017491Y-38580987D01*
X107904251Y-38694227D01*
X107771095Y-38783199D01*
X107623135Y-38844487D01*
X107466068Y-38875729D01*
X107305918Y-38875729D01*
X107148851Y-38844487D01*
X107000891Y-38783199D01*
X106867735Y-38694227D01*
X106754495Y-38580987D01*
X106752617Y-38578176D01*
X106665522Y-38447829D01*
X106651639Y-38414312D01*
X106604235Y-38299871D01*
X106572993Y-38142804D01*
X106572993Y-37982654D01*
X106604235Y-37825587D01*
X106665523Y-37677627D01*
X106754495Y-37544471D01*
X106867735Y-37431231D01*
X106871942Y-37428420D01*
X106933863Y-37387046D01*
X107000891Y-37342259D01*
X107148851Y-37280971D01*
X107305918Y-37249729D01*
X107466068Y-37249729D01*
X107623135Y-37280971D01*
X107623135Y-37280971D01*
G37*
G36*
X50627084Y-37164920D02*
G01*
X50775044Y-37226208D01*
X50842072Y-37270995D01*
X50908199Y-37315179D01*
X51021441Y-37428421D01*
X51048260Y-37468559D01*
X51110412Y-37561576D01*
X51171700Y-37709536D01*
X51202942Y-37866603D01*
X51202942Y-38026753D01*
X51171700Y-38183820D01*
X51124296Y-38298261D01*
X51110413Y-38331778D01*
X51021441Y-38464935D01*
X50908199Y-38578177D01*
X50842072Y-38622361D01*
X50775044Y-38667148D01*
X50627084Y-38728436D01*
X50470017Y-38759678D01*
X50309867Y-38759678D01*
X50152800Y-38728436D01*
X50004840Y-38667148D01*
X49937812Y-38622361D01*
X49871685Y-38578177D01*
X49758443Y-38464935D01*
X49669471Y-38331778D01*
X49655588Y-38298261D01*
X49608184Y-38183820D01*
X49576942Y-38026753D01*
X49576942Y-37866603D01*
X49608184Y-37709536D01*
X49669472Y-37561576D01*
X49731624Y-37468559D01*
X49758443Y-37428421D01*
X49871685Y-37315179D01*
X49937812Y-37270995D01*
X50004840Y-37226208D01*
X50152800Y-37164920D01*
X50309867Y-37133678D01*
X50470017Y-37133678D01*
X50627084Y-37164920D01*
X50627084Y-37164920D01*
G37*
G36*
X98876789Y-36606727D02*
G01*
X99024749Y-36668015D01*
X99028083Y-36670243D01*
X99157904Y-36756986D01*
X99271146Y-36870228D01*
X99291201Y-36900243D01*
X99360117Y-37003383D01*
X99421405Y-37151343D01*
X99452647Y-37308410D01*
X99452647Y-37468560D01*
X99421405Y-37625627D01*
X99360117Y-37773587D01*
X99349161Y-37789984D01*
X99271146Y-37906742D01*
X99157904Y-38019984D01*
X99147773Y-38026753D01*
X99024749Y-38108955D01*
X98876789Y-38170243D01*
X98719722Y-38201485D01*
X98559572Y-38201485D01*
X98402505Y-38170243D01*
X98254545Y-38108955D01*
X98131521Y-38026753D01*
X98121390Y-38019984D01*
X98008148Y-37906742D01*
X97930133Y-37789984D01*
X97919177Y-37773587D01*
X97857889Y-37625627D01*
X97826647Y-37468560D01*
X97826647Y-37308410D01*
X97857889Y-37151343D01*
X97919177Y-37003383D01*
X97988093Y-36900243D01*
X98008148Y-36870228D01*
X98121390Y-36756986D01*
X98251211Y-36670243D01*
X98254545Y-36668015D01*
X98402505Y-36606727D01*
X98559572Y-36575485D01*
X98719722Y-36575485D01*
X98876789Y-36606727D01*
X98876789Y-36606727D01*
G37*
G36*
X59867084Y-36376727D02*
G01*
X60015044Y-36438015D01*
X60082072Y-36482802D01*
X60148199Y-36526986D01*
X60261441Y-36640228D01*
X60281496Y-36670243D01*
X60350412Y-36773383D01*
X60411700Y-36921343D01*
X60442942Y-37078410D01*
X60442942Y-37238560D01*
X60411700Y-37395627D01*
X60350412Y-37543587D01*
X60261440Y-37676743D01*
X60148200Y-37789983D01*
X60015044Y-37878955D01*
X59867084Y-37940243D01*
X59710017Y-37971485D01*
X59549867Y-37971485D01*
X59392800Y-37940243D01*
X59244840Y-37878955D01*
X59111684Y-37789983D01*
X58998444Y-37676743D01*
X58909472Y-37543587D01*
X58848184Y-37395627D01*
X58816942Y-37238560D01*
X58816942Y-37078410D01*
X58848184Y-36921343D01*
X58909472Y-36773383D01*
X58978388Y-36670243D01*
X58998443Y-36640228D01*
X59111685Y-36526986D01*
X59177812Y-36482802D01*
X59244840Y-36438015D01*
X59392800Y-36376727D01*
X59549867Y-36345485D01*
X59710017Y-36345485D01*
X59867084Y-36376727D01*
X59867084Y-36376727D01*
G37*
G36*
X96677084Y-35336727D02*
G01*
X96825044Y-35398015D01*
X96958200Y-35486987D01*
X97071440Y-35600227D01*
X97160412Y-35733383D01*
X97221700Y-35881343D01*
X97252942Y-36038410D01*
X97252942Y-36198560D01*
X97221700Y-36355627D01*
X97160412Y-36503587D01*
X97115625Y-36570615D01*
X97071441Y-36636742D01*
X96958199Y-36749984D01*
X96892072Y-36794168D01*
X96825044Y-36838955D01*
X96677084Y-36900243D01*
X96520017Y-36931485D01*
X96359867Y-36931485D01*
X96202800Y-36900243D01*
X96054840Y-36838955D01*
X95987812Y-36794168D01*
X95921685Y-36749984D01*
X95808443Y-36636742D01*
X95764259Y-36570615D01*
X95719472Y-36503587D01*
X95658184Y-36355627D01*
X95626942Y-36198560D01*
X95626942Y-36038410D01*
X95658184Y-35881343D01*
X95719472Y-35733383D01*
X95808444Y-35600227D01*
X95921684Y-35486987D01*
X96054840Y-35398015D01*
X96202800Y-35336727D01*
X96359867Y-35305485D01*
X96520017Y-35305485D01*
X96677084Y-35336727D01*
X96677084Y-35336727D01*
G37*
G36*
X62066789Y-35106727D02*
G01*
X62214749Y-35168015D01*
X62281777Y-35212802D01*
X62347904Y-35256986D01*
X62461146Y-35370228D01*
X62505330Y-35436355D01*
X62550117Y-35503383D01*
X62611405Y-35651343D01*
X62642647Y-35808410D01*
X62642647Y-35968560D01*
X62611405Y-36125627D01*
X62564001Y-36240068D01*
X62550118Y-36273585D01*
X62461146Y-36406742D01*
X62347904Y-36519984D01*
X62337423Y-36526987D01*
X62214749Y-36608955D01*
X62066789Y-36670243D01*
X61909722Y-36701485D01*
X61749572Y-36701485D01*
X61592505Y-36670243D01*
X61444545Y-36608955D01*
X61321871Y-36526987D01*
X61311390Y-36519984D01*
X61198148Y-36406742D01*
X61109176Y-36273585D01*
X61095293Y-36240068D01*
X61047889Y-36125627D01*
X61016647Y-35968560D01*
X61016647Y-35808410D01*
X61047889Y-35651343D01*
X61109177Y-35503383D01*
X61153964Y-35436355D01*
X61198148Y-35370228D01*
X61311390Y-35256986D01*
X61377517Y-35212802D01*
X61444545Y-35168015D01*
X61592505Y-35106727D01*
X61749572Y-35075485D01*
X61909722Y-35075485D01*
X62066789Y-35106727D01*
X62066789Y-35106727D01*
G37*
G36*
X89843135Y-32547874D02*
G01*
X89991095Y-32609162D01*
X90023085Y-32630537D01*
X90124250Y-32698133D01*
X90237492Y-32811375D01*
X90281676Y-32877502D01*
X90326463Y-32944530D01*
X90387751Y-33092490D01*
X90418993Y-33249557D01*
X90418993Y-33409707D01*
X90387751Y-33566774D01*
X90365466Y-33620573D01*
X90328613Y-33709545D01*
X90326463Y-33714734D01*
X90288979Y-33770833D01*
X90246953Y-33833730D01*
X90237491Y-33847890D01*
X90124251Y-33961130D01*
X89991095Y-34050102D01*
X89843135Y-34111390D01*
X89686068Y-34142632D01*
X89525918Y-34142632D01*
X89368851Y-34111390D01*
X89220891Y-34050102D01*
X89087735Y-33961130D01*
X88974495Y-33847890D01*
X88965034Y-33833730D01*
X88923007Y-33770833D01*
X88885523Y-33714734D01*
X88883374Y-33709545D01*
X88846520Y-33620573D01*
X88824235Y-33566774D01*
X88792993Y-33409707D01*
X88792993Y-33249557D01*
X88824235Y-33092490D01*
X88885523Y-32944530D01*
X88930310Y-32877502D01*
X88974494Y-32811375D01*
X89087736Y-32698133D01*
X89188901Y-32630537D01*
X89220891Y-32609162D01*
X89368851Y-32547874D01*
X89525918Y-32516632D01*
X89686068Y-32516632D01*
X89843135Y-32547874D01*
X89843135Y-32547874D01*
G37*
G36*
X68524484Y-32420474D02*
G01*
X68631391Y-32464757D01*
X68668862Y-32480278D01*
X68672444Y-32481762D01*
X68724631Y-32516632D01*
X68805599Y-32570733D01*
X68918841Y-32683975D01*
X68963025Y-32750102D01*
X69007812Y-32817130D01*
X69069100Y-32965090D01*
X69100342Y-33122157D01*
X69100342Y-33282307D01*
X69069100Y-33439374D01*
X69040950Y-33507332D01*
X69007813Y-33587332D01*
X68922688Y-33714732D01*
X68918840Y-33720490D01*
X68805600Y-33833730D01*
X68672444Y-33922702D01*
X68524484Y-33983990D01*
X68367417Y-34015232D01*
X68207267Y-34015232D01*
X68050200Y-33983990D01*
X67902240Y-33922702D01*
X67769084Y-33833730D01*
X67655844Y-33720490D01*
X67651997Y-33714732D01*
X67566871Y-33587332D01*
X67533734Y-33507332D01*
X67505584Y-33439374D01*
X67474342Y-33282307D01*
X67474342Y-33122157D01*
X67505584Y-32965090D01*
X67566872Y-32817130D01*
X67611659Y-32750102D01*
X67655843Y-32683975D01*
X67769085Y-32570733D01*
X67850053Y-32516632D01*
X67902240Y-32481762D01*
X67905823Y-32480278D01*
X67943293Y-32464757D01*
X68050200Y-32420474D01*
X68207267Y-32389232D01*
X68367417Y-32389232D01*
X68524484Y-32420474D01*
X68524484Y-32420474D01*
G37*
G36*
X101416789Y-32207317D02*
G01*
X101564749Y-32268605D01*
X101614840Y-32302075D01*
X101697904Y-32357576D01*
X101811146Y-32470818D01*
X101831201Y-32500833D01*
X101862634Y-32547875D01*
X101900118Y-32603975D01*
X101908788Y-32624906D01*
X101961405Y-32751933D01*
X101992647Y-32909000D01*
X101992647Y-33069150D01*
X101961405Y-33226217D01*
X101900117Y-33374177D01*
X101856554Y-33439374D01*
X101825913Y-33485232D01*
X101811145Y-33507333D01*
X101697905Y-33620573D01*
X101564749Y-33709545D01*
X101416789Y-33770833D01*
X101259722Y-33802075D01*
X101099572Y-33802075D01*
X100942505Y-33770833D01*
X100794545Y-33709545D01*
X100661389Y-33620573D01*
X100548149Y-33507333D01*
X100533382Y-33485232D01*
X100502740Y-33439374D01*
X100459177Y-33374177D01*
X100397889Y-33226217D01*
X100366647Y-33069150D01*
X100366647Y-32909000D01*
X100397889Y-32751933D01*
X100450506Y-32624906D01*
X100459176Y-32603975D01*
X100496661Y-32547875D01*
X100528093Y-32500833D01*
X100548148Y-32470818D01*
X100661390Y-32357576D01*
X100744454Y-32302075D01*
X100794545Y-32268605D01*
X100942505Y-32207317D01*
X101099572Y-32176075D01*
X101259722Y-32176075D01*
X101416789Y-32207317D01*
X101416789Y-32207317D01*
G37*
G36*
X57327084Y-31977317D02*
G01*
X57475044Y-32038605D01*
X57478230Y-32040734D01*
X57608199Y-32127576D01*
X57721441Y-32240818D01*
X57741496Y-32270833D01*
X57810412Y-32373973D01*
X57871700Y-32521933D01*
X57902942Y-32679000D01*
X57902942Y-32839150D01*
X57871700Y-32996217D01*
X57831822Y-33092489D01*
X57810413Y-33144175D01*
X57721441Y-33277332D01*
X57608199Y-33390574D01*
X57579564Y-33409707D01*
X57475044Y-33479545D01*
X57327084Y-33540833D01*
X57170017Y-33572075D01*
X57009867Y-33572075D01*
X56852800Y-33540833D01*
X56704840Y-33479545D01*
X56600320Y-33409707D01*
X56571685Y-33390574D01*
X56458443Y-33277332D01*
X56369471Y-33144175D01*
X56348062Y-33092489D01*
X56308184Y-32996217D01*
X56276942Y-32839150D01*
X56276942Y-32679000D01*
X56308184Y-32521933D01*
X56369472Y-32373973D01*
X56438388Y-32270833D01*
X56458443Y-32240818D01*
X56571685Y-32127576D01*
X56701654Y-32040734D01*
X56704840Y-32038605D01*
X56852800Y-31977317D01*
X57009867Y-31946075D01*
X57170017Y-31946075D01*
X57327084Y-31977317D01*
X57327084Y-31977317D01*
G37*
G36*
X87389684Y-31890474D02*
G01*
X87537644Y-31951762D01*
X87575890Y-31977317D01*
X87670799Y-32040733D01*
X87784041Y-32153975D01*
X87819683Y-32207317D01*
X87873012Y-32287130D01*
X87934300Y-32435090D01*
X87965542Y-32592157D01*
X87965542Y-32752307D01*
X87934300Y-32909374D01*
X87873012Y-33057334D01*
X87829699Y-33122157D01*
X87793502Y-33176330D01*
X87784040Y-33190490D01*
X87670800Y-33303730D01*
X87537644Y-33392702D01*
X87389684Y-33453990D01*
X87232617Y-33485232D01*
X87072467Y-33485232D01*
X86915400Y-33453990D01*
X86767440Y-33392702D01*
X86634284Y-33303730D01*
X86521044Y-33190490D01*
X86511583Y-33176330D01*
X86475385Y-33122157D01*
X86432072Y-33057334D01*
X86370784Y-32909374D01*
X86339542Y-32752307D01*
X86339542Y-32592157D01*
X86370784Y-32435090D01*
X86432072Y-32287130D01*
X86485401Y-32207317D01*
X86521043Y-32153975D01*
X86634285Y-32040733D01*
X86729194Y-31977317D01*
X86767440Y-31951762D01*
X86915400Y-31890474D01*
X87072467Y-31859232D01*
X87232617Y-31859232D01*
X87389684Y-31890474D01*
X87389684Y-31890474D01*
G37*
G36*
X70977936Y-31763073D02*
G01*
X71125896Y-31824361D01*
X71178084Y-31859232D01*
X71259051Y-31913332D01*
X71372293Y-32026574D01*
X71381754Y-32040734D01*
X71461264Y-32159729D01*
X71522552Y-32307689D01*
X71553794Y-32464756D01*
X71553794Y-32624906D01*
X71522552Y-32781973D01*
X71498868Y-32839150D01*
X71469935Y-32909001D01*
X71461264Y-32929933D01*
X71437773Y-32965090D01*
X71376138Y-33057334D01*
X71372292Y-33063089D01*
X71259052Y-33176329D01*
X71125896Y-33265301D01*
X70977936Y-33326589D01*
X70820869Y-33357831D01*
X70660719Y-33357831D01*
X70503652Y-33326589D01*
X70355692Y-33265301D01*
X70222536Y-33176329D01*
X70109296Y-33063089D01*
X70105451Y-33057334D01*
X70043815Y-32965090D01*
X70020324Y-32929933D01*
X70011654Y-32909001D01*
X69982720Y-32839150D01*
X69959036Y-32781973D01*
X69927794Y-32624906D01*
X69927794Y-32464756D01*
X69959036Y-32307689D01*
X70020324Y-32159729D01*
X70099834Y-32040734D01*
X70109295Y-32026574D01*
X70222537Y-31913332D01*
X70303504Y-31859232D01*
X70355692Y-31824361D01*
X70503652Y-31763073D01*
X70660719Y-31731831D01*
X70820869Y-31731831D01*
X70977936Y-31763073D01*
X70977936Y-31763073D01*
G37*
G36*
X77947084Y-31067022D02*
G01*
X78095044Y-31128310D01*
X78162072Y-31173097D01*
X78228199Y-31217281D01*
X78341441Y-31330523D01*
X78385625Y-31396650D01*
X78430412Y-31463678D01*
X78491700Y-31611638D01*
X78522942Y-31768705D01*
X78522942Y-31928855D01*
X78491700Y-32085922D01*
X78461127Y-32159731D01*
X78440493Y-32209546D01*
X78430412Y-32233882D01*
X78407211Y-32268604D01*
X78341441Y-32367037D01*
X78228199Y-32480279D01*
X78173792Y-32516632D01*
X78095044Y-32569250D01*
X78095043Y-32569251D01*
X78095042Y-32569251D01*
X78061525Y-32583134D01*
X77947084Y-32630538D01*
X77790017Y-32661780D01*
X77629867Y-32661780D01*
X77472800Y-32630538D01*
X77358359Y-32583134D01*
X77324842Y-32569251D01*
X77324841Y-32569251D01*
X77324840Y-32569250D01*
X77246092Y-32516632D01*
X77191685Y-32480279D01*
X77078443Y-32367037D01*
X77012673Y-32268604D01*
X76989472Y-32233882D01*
X76979392Y-32209546D01*
X76958757Y-32159731D01*
X76928184Y-32085922D01*
X76896942Y-31928855D01*
X76896942Y-31768705D01*
X76928184Y-31611638D01*
X76989472Y-31463678D01*
X77034259Y-31396650D01*
X77078443Y-31330523D01*
X77191685Y-31217281D01*
X77257812Y-31173097D01*
X77324840Y-31128310D01*
X77472800Y-31067022D01*
X77629867Y-31035780D01*
X77790017Y-31035780D01*
X77947084Y-31067022D01*
X77947084Y-31067022D01*
G37*
G36*
X80487084Y-31067022D02*
G01*
X80635044Y-31128310D01*
X80702072Y-31173097D01*
X80768199Y-31217281D01*
X80881441Y-31330523D01*
X80925625Y-31396650D01*
X80970412Y-31463678D01*
X81031700Y-31611638D01*
X81062942Y-31768705D01*
X81062942Y-31928855D01*
X81031700Y-32085922D01*
X81001127Y-32159731D01*
X80980493Y-32209546D01*
X80970412Y-32233882D01*
X80947211Y-32268604D01*
X80881441Y-32367037D01*
X80768199Y-32480279D01*
X80713792Y-32516632D01*
X80635044Y-32569250D01*
X80635043Y-32569251D01*
X80635042Y-32569251D01*
X80601525Y-32583134D01*
X80487084Y-32630538D01*
X80330017Y-32661780D01*
X80169867Y-32661780D01*
X80012800Y-32630538D01*
X79898359Y-32583134D01*
X79864842Y-32569251D01*
X79864841Y-32569251D01*
X79864840Y-32569250D01*
X79786092Y-32516632D01*
X79731685Y-32480279D01*
X79618443Y-32367037D01*
X79552673Y-32268604D01*
X79529472Y-32233882D01*
X79519392Y-32209546D01*
X79498757Y-32159731D01*
X79468184Y-32085922D01*
X79436942Y-31928855D01*
X79436942Y-31768705D01*
X79468184Y-31611638D01*
X79529472Y-31463678D01*
X79574259Y-31396650D01*
X79618443Y-31330523D01*
X79731685Y-31217281D01*
X79797812Y-31173097D01*
X79864840Y-31128310D01*
X80012800Y-31067022D01*
X80169867Y-31035780D01*
X80330017Y-31035780D01*
X80487084Y-31067022D01*
X80487084Y-31067022D01*
G37*
G36*
X99217084Y-30937317D02*
G01*
X99365044Y-30998605D01*
X99420680Y-31035780D01*
X99467438Y-31067022D01*
X99498200Y-31087577D01*
X99611440Y-31200817D01*
X99700412Y-31333973D01*
X99761700Y-31481933D01*
X99792942Y-31639000D01*
X99792942Y-31799150D01*
X99761700Y-31956217D01*
X99700412Y-32104177D01*
X99667139Y-32153974D01*
X99611441Y-32237332D01*
X99498199Y-32350574D01*
X99440343Y-32389232D01*
X99365044Y-32439545D01*
X99217084Y-32500833D01*
X99060017Y-32532075D01*
X98899867Y-32532075D01*
X98742800Y-32500833D01*
X98594840Y-32439545D01*
X98519541Y-32389232D01*
X98461685Y-32350574D01*
X98348443Y-32237332D01*
X98292745Y-32153974D01*
X98259472Y-32104177D01*
X98198184Y-31956217D01*
X98166942Y-31799150D01*
X98166942Y-31639000D01*
X98198184Y-31481933D01*
X98259472Y-31333973D01*
X98348444Y-31200817D01*
X98461684Y-31087577D01*
X98492447Y-31067022D01*
X98539204Y-31035780D01*
X98594840Y-30998605D01*
X98742800Y-30937317D01*
X98899867Y-30906075D01*
X99060017Y-30906075D01*
X99217084Y-30937317D01*
X99217084Y-30937317D01*
G37*
G36*
X59526789Y-30707317D02*
G01*
X59674749Y-30768605D01*
X59741777Y-30813392D01*
X59807904Y-30857576D01*
X59921146Y-30970818D01*
X59964552Y-31035780D01*
X59999162Y-31087577D01*
X60010118Y-31103975D01*
X60020198Y-31128310D01*
X60071405Y-31251933D01*
X60102647Y-31409000D01*
X60102647Y-31569150D01*
X60071405Y-31726217D01*
X60010117Y-31874177D01*
X59999227Y-31890475D01*
X59921146Y-32007332D01*
X59807904Y-32120574D01*
X59797423Y-32127577D01*
X59674749Y-32209545D01*
X59526789Y-32270833D01*
X59369722Y-32302075D01*
X59209572Y-32302075D01*
X59052505Y-32270833D01*
X58904545Y-32209545D01*
X58781871Y-32127577D01*
X58771390Y-32120574D01*
X58658148Y-32007332D01*
X58580067Y-31890475D01*
X58569177Y-31874177D01*
X58507889Y-31726217D01*
X58476647Y-31569150D01*
X58476647Y-31409000D01*
X58507889Y-31251933D01*
X58559096Y-31128310D01*
X58569176Y-31103975D01*
X58580133Y-31087577D01*
X58614742Y-31035780D01*
X58658148Y-30970818D01*
X58771390Y-30857576D01*
X58837517Y-30813392D01*
X58904545Y-30768605D01*
X59052505Y-30707317D01*
X59209572Y-30676075D01*
X59369722Y-30676075D01*
X59526789Y-30707317D01*
X59526789Y-30707317D01*
G37*
G36*
X91157936Y-27640971D02*
G01*
X91305896Y-27702259D01*
X91372924Y-27747046D01*
X91439051Y-27791230D01*
X91552293Y-27904472D01*
X91556139Y-27910228D01*
X91641264Y-28037627D01*
X91702552Y-28185587D01*
X91733794Y-28342654D01*
X91733794Y-28502804D01*
X91702552Y-28659871D01*
X91641264Y-28807831D01*
X91596477Y-28874859D01*
X91561754Y-28926827D01*
X91552292Y-28940987D01*
X91439052Y-29054227D01*
X91305896Y-29143199D01*
X91157936Y-29204487D01*
X91000869Y-29235729D01*
X90840719Y-29235729D01*
X90683652Y-29204487D01*
X90535692Y-29143199D01*
X90402536Y-29054227D01*
X90289296Y-28940987D01*
X90279835Y-28926827D01*
X90245111Y-28874859D01*
X90200324Y-28807831D01*
X90139036Y-28659871D01*
X90107794Y-28502804D01*
X90107794Y-28342654D01*
X90139036Y-28185587D01*
X90200324Y-28037627D01*
X90285449Y-27910228D01*
X90289295Y-27904472D01*
X90402537Y-27791230D01*
X90468664Y-27747046D01*
X90535692Y-27702259D01*
X90683652Y-27640971D01*
X90840719Y-27609729D01*
X91000869Y-27609729D01*
X91157936Y-27640971D01*
X91157936Y-27640971D01*
G37*
G36*
X67209684Y-27513570D02*
G01*
X67357644Y-27574858D01*
X67409832Y-27609729D01*
X67490799Y-27663829D01*
X67604041Y-27777071D01*
X67613502Y-27791231D01*
X67693012Y-27910226D01*
X67754300Y-28058186D01*
X67785542Y-28215253D01*
X67785542Y-28375403D01*
X67754300Y-28532470D01*
X67706896Y-28646911D01*
X67693013Y-28680428D01*
X67607886Y-28807831D01*
X67604040Y-28813586D01*
X67490800Y-28926826D01*
X67357644Y-29015798D01*
X67209684Y-29077086D01*
X67052617Y-29108328D01*
X66892467Y-29108328D01*
X66735400Y-29077086D01*
X66587440Y-29015798D01*
X66454284Y-28926826D01*
X66341044Y-28813586D01*
X66337199Y-28807831D01*
X66252071Y-28680428D01*
X66238188Y-28646911D01*
X66190784Y-28532470D01*
X66159542Y-28375403D01*
X66159542Y-28215253D01*
X66190784Y-28058186D01*
X66252072Y-27910226D01*
X66331582Y-27791231D01*
X66341043Y-27777071D01*
X66454285Y-27663829D01*
X66535252Y-27609729D01*
X66587440Y-27574858D01*
X66735400Y-27513570D01*
X66892467Y-27482328D01*
X67052617Y-27482328D01*
X67209684Y-27513570D01*
X67209684Y-27513570D01*
G37*
G36*
X88704484Y-26983570D02*
G01*
X88852444Y-27044858D01*
X88919472Y-27089645D01*
X88985599Y-27133829D01*
X89098841Y-27247071D01*
X89125545Y-27287037D01*
X89187812Y-27380226D01*
X89249100Y-27528186D01*
X89280342Y-27685253D01*
X89280342Y-27845403D01*
X89249100Y-28002470D01*
X89187812Y-28150430D01*
X89164321Y-28185587D01*
X89108302Y-28269426D01*
X89098840Y-28283586D01*
X88985600Y-28396826D01*
X88852444Y-28485798D01*
X88704484Y-28547086D01*
X88547417Y-28578328D01*
X88387267Y-28578328D01*
X88230200Y-28547086D01*
X88082240Y-28485798D01*
X87949084Y-28396826D01*
X87835844Y-28283586D01*
X87826383Y-28269426D01*
X87770363Y-28185587D01*
X87746872Y-28150430D01*
X87685584Y-28002470D01*
X87654342Y-27845403D01*
X87654342Y-27685253D01*
X87685584Y-27528186D01*
X87746872Y-27380226D01*
X87809139Y-27287037D01*
X87835843Y-27247071D01*
X87949085Y-27133829D01*
X88015212Y-27089645D01*
X88082240Y-27044858D01*
X88230200Y-26983570D01*
X88387267Y-26952328D01*
X88547417Y-26952328D01*
X88704484Y-26983570D01*
X88704484Y-26983570D01*
G37*
G36*
X69663135Y-26856170D02*
G01*
X69811095Y-26917458D01*
X69863282Y-26952328D01*
X69944250Y-27006429D01*
X70057492Y-27119671D01*
X70080351Y-27153882D01*
X70146463Y-27252826D01*
X70207751Y-27400786D01*
X70238993Y-27557853D01*
X70238993Y-27718003D01*
X70207751Y-27875070D01*
X70146463Y-28023030D01*
X70101676Y-28090058D01*
X70061339Y-28150428D01*
X70057491Y-28156186D01*
X69944251Y-28269426D01*
X69811095Y-28358398D01*
X69663135Y-28419686D01*
X69506068Y-28450928D01*
X69345918Y-28450928D01*
X69188851Y-28419686D01*
X69040891Y-28358398D01*
X68907735Y-28269426D01*
X68794495Y-28156186D01*
X68790648Y-28150428D01*
X68750310Y-28090058D01*
X68705523Y-28023030D01*
X68644235Y-27875070D01*
X68612993Y-27718003D01*
X68612993Y-27557853D01*
X68644235Y-27400786D01*
X68705523Y-27252826D01*
X68771635Y-27153882D01*
X68794494Y-27119671D01*
X68907736Y-27006429D01*
X68988704Y-26952328D01*
X69040891Y-26917458D01*
X69188851Y-26856170D01*
X69345918Y-26824928D01*
X69506068Y-26824928D01*
X69663135Y-26856170D01*
X69663135Y-26856170D01*
G37*
G36*
X77947084Y-25987022D02*
G01*
X78095044Y-26048310D01*
X78228200Y-26137282D01*
X78341440Y-26250522D01*
X78430412Y-26383678D01*
X78491700Y-26531638D01*
X78522942Y-26688705D01*
X78522942Y-26848855D01*
X78491700Y-27005922D01*
X78475572Y-27044857D01*
X78430413Y-27153880D01*
X78341441Y-27287037D01*
X78228199Y-27400279D01*
X78227440Y-27400786D01*
X78095044Y-27489250D01*
X77947084Y-27550538D01*
X77790017Y-27581780D01*
X77629867Y-27581780D01*
X77472800Y-27550538D01*
X77324840Y-27489250D01*
X77192444Y-27400786D01*
X77191685Y-27400279D01*
X77078443Y-27287037D01*
X76989471Y-27153880D01*
X76944312Y-27044857D01*
X76928184Y-27005922D01*
X76896942Y-26848855D01*
X76896942Y-26688705D01*
X76928184Y-26531638D01*
X76989472Y-26383678D01*
X77078444Y-26250522D01*
X77191684Y-26137282D01*
X77324840Y-26048310D01*
X77472800Y-25987022D01*
X77629867Y-25955780D01*
X77790017Y-25955780D01*
X77947084Y-25987022D01*
X77947084Y-25987022D01*
G37*
G36*
X80487084Y-25987022D02*
G01*
X80635044Y-26048310D01*
X80768200Y-26137282D01*
X80881440Y-26250522D01*
X80970412Y-26383678D01*
X81031700Y-26531638D01*
X81062942Y-26688705D01*
X81062942Y-26848855D01*
X81031700Y-27005922D01*
X81015572Y-27044857D01*
X80970413Y-27153880D01*
X80881441Y-27287037D01*
X80768199Y-27400279D01*
X80767440Y-27400786D01*
X80635044Y-27489250D01*
X80487084Y-27550538D01*
X80330017Y-27581780D01*
X80169867Y-27581780D01*
X80012800Y-27550538D01*
X79864840Y-27489250D01*
X79732444Y-27400786D01*
X79731685Y-27400279D01*
X79618443Y-27287037D01*
X79529471Y-27153880D01*
X79484312Y-27044857D01*
X79468184Y-27005922D01*
X79436942Y-26848855D01*
X79436942Y-26688705D01*
X79468184Y-26531638D01*
X79529472Y-26383678D01*
X79618444Y-26250522D01*
X79731684Y-26137282D01*
X79864840Y-26048310D01*
X80012800Y-25987022D01*
X80169867Y-25955780D01*
X80330017Y-25955780D01*
X80487084Y-25987022D01*
X80487084Y-25987022D01*
G37*
M02*
