M48
; DRILL file {KiCad (6.0.0-rc1-dev-1521-g81a0ab4d7)} date 2019/02/16 0:36:48
; FORMAT={-:-/ absolute / inch / decimal}
; #@! TF.CreationDate,2019-02-16T00:36:48+09:00
; #@! TF.GenerationSoftware,Kicad,Pcbnew,(6.0.0-rc1-dev-1521-g81a0ab4d7)
FMAT,2
INCH
T1C0.0157
T2C0.0300
T3C0.0394
T4C0.1260
%
G90
G05
T1
X1.9795Y-2.1236
X2.087Y-3.0701
X2.1071Y-2.7748
X2.1988Y-3.4071
X2.2091Y-2.8894
X2.3705Y-2.4709
X2.4406Y-2.4551
X2.6098Y-2.348
X2.6969Y-2.5839
X2.7047Y-2.6528
X2.7181Y-3.7465
X2.7303Y-2.5378
X2.7476Y-3.2205
X2.7764Y-2.485
X2.8232Y-2.4327
X2.8276Y-2.1413
X2.8319Y-2.3807
X2.9244Y-1.825
X2.9547Y-2.3079
X2.9961Y-3.3906
X3.0374Y-2.2217
X3.0783Y-3.4476
X3.2043Y-3.9591
X3.2256Y-2.6606
X3.2339Y-2.824
X3.2346Y-2.9512
X3.2409Y-3.0516
X3.3614Y-2.8343
X3.3799Y-2.9693
X3.385Y-2.6587
X3.3996Y-3.176
X3.4413Y-3.9382
X3.4634Y-1.6913
X3.4642Y-1.6114
X3.4685Y-1.8059
X3.4709Y-2.9953
X3.4862Y-3.7157
X3.4927Y-1.5268
X3.4988Y-1.7681
X3.5626Y-3.7087
X3.6039Y-1.5551
X3.6563Y-1.3685
X3.8394Y-3.5154
X4.0063Y-3.4689
X4.0705Y-1.7701
X4.1835Y-1.774
X4.2531Y-2.3862
T2
X4.5453Y-2.6389
X4.5453Y-2.7389
X4.7453Y-2.6389
X4.7453Y-2.7389
X3.0594Y-1.0539
X3.0594Y-1.2539
X3.1594Y-1.0539
X3.1594Y-1.2539
X2.6401Y-4.2506
X2.6919Y-4.0574
X2.7367Y-4.2765
X2.7885Y-4.0833
X4.3492Y-1.861
X4.4358Y-1.811
X4.4492Y-2.0342
X4.5358Y-1.9842
X1.5141Y-3.0631
X1.54Y-3.1597
X1.7073Y-3.0113
X1.7332Y-3.1079
X4.3287Y-3.4468
X4.3787Y-3.3602
X4.502Y-3.5468
X4.552Y-3.4602
X2.2476Y-1.2897
X2.3342Y-1.2397
X2.3476Y-1.4629
X2.4342Y-1.4129
X1.6835Y-1.9826
X1.7701Y-2.0326
X1.7835Y-1.8094
X1.8701Y-1.8594
X4.0893Y-3.7401
X4.16Y-3.6694
X4.2307Y-3.8815
X4.3014Y-3.8108
X4.4811Y-3.1073
X4.5069Y-3.0107
X4.6743Y-3.159
X4.7001Y-3.0624
X1.5117Y-2.315
X1.5376Y-2.2184
X1.7049Y-2.3668
X1.7307Y-2.2702
X3.4259Y-4.093
X3.4777Y-4.2862
X3.5225Y-4.0671
X3.5743Y-4.2603
X2.6367Y-1.114
X2.6885Y-1.3072
X2.7333Y-1.0881
X2.7851Y-1.2813
X3.0043Y-4.1767
X3.0043Y-4.2767
X3.2043Y-4.1767
X3.2043Y-4.2767
X4.0864Y-1.64
X4.1571Y-1.7107
X4.2278Y-1.4985
X4.2985Y-1.5692
X1.9131Y-1.5647
X1.9839Y-1.494
X2.0546Y-1.7061
X2.1253Y-1.6354
X1.6689Y-3.4696
X1.7189Y-3.5563
X1.8421Y-3.3696
X1.8921Y-3.4563
X3.4312Y-1.2863
X3.483Y-1.0931
X3.5278Y-1.3122
X3.5796Y-1.119
X3.7874Y-3.9559
X3.874Y-3.9059
X3.8874Y-4.1291
X3.974Y-4.0791
X1.4717Y-2.6389
X1.4717Y-2.7389
X1.6717Y-2.6389
X1.6717Y-2.7389
X1.9137Y-3.8145
X1.9844Y-3.8852
X2.0551Y-3.6731
X2.1258Y-3.7438
X4.4825Y-2.2719
X4.5084Y-2.3685
X4.6757Y-2.2201
X4.7016Y-2.3167
X3.7968Y-1.422
X3.8835Y-1.472
X3.8968Y-1.2488
X3.9835Y-1.2988
X2.2465Y-4.0885
X2.3331Y-4.1385
X2.3465Y-3.9153
X2.4331Y-3.9653
T3
X2.3295Y-1.9248
X2.3295Y-2.0248
X2.4295Y-1.9248
X2.4295Y-2.0248
X2.5295Y-1.9248
X2.5295Y-2.0248
X2.6295Y-1.9248
X2.6295Y-2.0248
X2.7295Y-1.9248
X2.7295Y-2.0248
X2.8295Y-1.9248
X2.8295Y-2.0248
X2.9295Y-1.9248
X2.9295Y-2.0248
X3.0295Y-1.9248
X3.0295Y-2.0248
X3.1295Y-1.9248
X3.1295Y-2.0248
X3.2295Y-1.9248
X3.2295Y-2.0248
X3.3295Y-1.9248
X3.3295Y-2.0248
X3.4295Y-1.9248
X3.4295Y-2.0248
X3.5295Y-1.9248
X3.5295Y-2.0248
X3.6295Y-1.9248
X3.6295Y-2.0248
X3.7295Y-1.9248
X3.7295Y-2.0248
T4
X3.1087Y-4.461
X4.6441Y-1.8035
X1.5732Y-1.8035
T0
M30
