M48
; DRILL file {KiCad (6.0.0-rc1-dev-1521-g81a0ab4d7)} date 02/16/19 01:33:39
; FORMAT={-:-/ absolute / inch / decimal}
; #@! TF.CreationDate,2019-02-16T01:33:39+09:00
; #@! TF.GenerationSoftware,Kicad,Pcbnew,(6.0.0-rc1-dev-1521-g81a0ab4d7)
FMAT,2
INCH
T1C0.0157
T2C0.0300
T3C0.0394
T4C0.1181
T5C0.1260
%
G90
G05
T1
X2.8028Y-3.3482
X3.2134Y-3.3539
X3.6996Y-3.3102
T2
X2.9506Y-3.0749
X2.9506Y-3.2749
X3.0506Y-3.0749
X3.0506Y-3.2749
X3.3836Y-3.0718
X3.3836Y-3.2718
X3.4836Y-3.0718
X3.4836Y-3.2718
X3.8742Y-3.0749
X3.8742Y-3.2749
X3.9742Y-3.0749
X3.9742Y-3.2749
X2.9525Y-2.3474
X2.9525Y-2.5474
X3.0525Y-2.3474
X3.0525Y-2.5474
X3.8792Y-2.3506
X3.8792Y-2.5506
X3.9792Y-2.3506
X3.9792Y-2.5506
X3.4068Y-2.3506
X3.4068Y-2.5506
X3.5068Y-2.3506
X3.5068Y-2.5506
T3
X3.2785Y-3.4409
X3.3785Y-3.4409
X3.4785Y-3.4409
X3.5785Y-3.4409
X3.6785Y-3.4409
X3.7785Y-3.4409
X3.2785Y-2.7175
X3.3785Y-2.7175
X3.4785Y-2.7175
X3.5785Y-2.7175
X3.6785Y-2.7175
X3.7785Y-2.7175
T5
X2.6772Y-2.5197
X4.252Y-2.5201
X4.2516Y-3.2283
X2.6772Y-3.2283
T4
G00X2.5689Y-2.874
M15
G01X4.3602Y-2.874
M16
G05
T0
M30
