G04 #@! TF.GenerationSoftware,KiCad,Pcbnew,(6.0.0-rc1-dev-1521-g81a0ab4d7)*
G04 #@! TF.CreationDate,2019-02-16T01:33:36+09:00
G04 #@! TF.ProjectId,Linesens_mini,4c696e65-7365-46e7-935f-6d696e692e6b,rev?*
G04 #@! TF.SameCoordinates,Original*
G04 #@! TF.FileFunction,Copper,L1,Top*
G04 #@! TF.FilePolarity,Positive*
%FSLAX46Y46*%
G04 Gerber Fmt 4.6, Leading zero omitted, Abs format (unit mm)*
G04 Created by KiCad (PCBNEW (6.0.0-rc1-dev-1521-g81a0ab4d7)) date 02/16/19 01:33:36*
%MOMM*%
%LPD*%
G04 APERTURE LIST*
%ADD10C,1.524000*%
%ADD11C,0.100000*%
%ADD12C,0.975000*%
%ADD13R,1.700000X1.700000*%
%ADD14O,1.700000X1.700000*%
%ADD15C,0.800000*%
%ADD16C,0.250000*%
%ADD17C,0.254000*%
G04 APERTURE END LIST*
D10*
X77484040Y-83183055D03*
X77484040Y-78103055D03*
X74944040Y-78103055D03*
X74944040Y-83183055D03*
D11*
G36*
X77190142Y-86731174D02*
G01*
X77213803Y-86734684D01*
X77237007Y-86740496D01*
X77259529Y-86748554D01*
X77281153Y-86758782D01*
X77301670Y-86771079D01*
X77320883Y-86785329D01*
X77338607Y-86801393D01*
X77354671Y-86819117D01*
X77368921Y-86838330D01*
X77381218Y-86858847D01*
X77391446Y-86880471D01*
X77399504Y-86902993D01*
X77405316Y-86926197D01*
X77408826Y-86949858D01*
X77410000Y-86973750D01*
X77410000Y-87886250D01*
X77408826Y-87910142D01*
X77405316Y-87933803D01*
X77399504Y-87957007D01*
X77391446Y-87979529D01*
X77381218Y-88001153D01*
X77368921Y-88021670D01*
X77354671Y-88040883D01*
X77338607Y-88058607D01*
X77320883Y-88074671D01*
X77301670Y-88088921D01*
X77281153Y-88101218D01*
X77259529Y-88111446D01*
X77237007Y-88119504D01*
X77213803Y-88125316D01*
X77190142Y-88128826D01*
X77166250Y-88130000D01*
X76678750Y-88130000D01*
X76654858Y-88128826D01*
X76631197Y-88125316D01*
X76607993Y-88119504D01*
X76585471Y-88111446D01*
X76563847Y-88101218D01*
X76543330Y-88088921D01*
X76524117Y-88074671D01*
X76506393Y-88058607D01*
X76490329Y-88040883D01*
X76476079Y-88021670D01*
X76463782Y-88001153D01*
X76453554Y-87979529D01*
X76445496Y-87957007D01*
X76439684Y-87933803D01*
X76436174Y-87910142D01*
X76435000Y-87886250D01*
X76435000Y-86973750D01*
X76436174Y-86949858D01*
X76439684Y-86926197D01*
X76445496Y-86902993D01*
X76453554Y-86880471D01*
X76463782Y-86858847D01*
X76476079Y-86838330D01*
X76490329Y-86819117D01*
X76506393Y-86801393D01*
X76524117Y-86785329D01*
X76543330Y-86771079D01*
X76563847Y-86758782D01*
X76585471Y-86748554D01*
X76607993Y-86740496D01*
X76631197Y-86734684D01*
X76654858Y-86731174D01*
X76678750Y-86730000D01*
X77166250Y-86730000D01*
X77190142Y-86731174D01*
X77190142Y-86731174D01*
G37*
D12*
X76922500Y-87430000D03*
D11*
G36*
X79065142Y-86731174D02*
G01*
X79088803Y-86734684D01*
X79112007Y-86740496D01*
X79134529Y-86748554D01*
X79156153Y-86758782D01*
X79176670Y-86771079D01*
X79195883Y-86785329D01*
X79213607Y-86801393D01*
X79229671Y-86819117D01*
X79243921Y-86838330D01*
X79256218Y-86858847D01*
X79266446Y-86880471D01*
X79274504Y-86902993D01*
X79280316Y-86926197D01*
X79283826Y-86949858D01*
X79285000Y-86973750D01*
X79285000Y-87886250D01*
X79283826Y-87910142D01*
X79280316Y-87933803D01*
X79274504Y-87957007D01*
X79266446Y-87979529D01*
X79256218Y-88001153D01*
X79243921Y-88021670D01*
X79229671Y-88040883D01*
X79213607Y-88058607D01*
X79195883Y-88074671D01*
X79176670Y-88088921D01*
X79156153Y-88101218D01*
X79134529Y-88111446D01*
X79112007Y-88119504D01*
X79088803Y-88125316D01*
X79065142Y-88128826D01*
X79041250Y-88130000D01*
X78553750Y-88130000D01*
X78529858Y-88128826D01*
X78506197Y-88125316D01*
X78482993Y-88119504D01*
X78460471Y-88111446D01*
X78438847Y-88101218D01*
X78418330Y-88088921D01*
X78399117Y-88074671D01*
X78381393Y-88058607D01*
X78365329Y-88040883D01*
X78351079Y-88021670D01*
X78338782Y-88001153D01*
X78328554Y-87979529D01*
X78320496Y-87957007D01*
X78314684Y-87933803D01*
X78311174Y-87910142D01*
X78310000Y-87886250D01*
X78310000Y-86973750D01*
X78311174Y-86949858D01*
X78314684Y-86926197D01*
X78320496Y-86902993D01*
X78328554Y-86880471D01*
X78338782Y-86858847D01*
X78351079Y-86838330D01*
X78365329Y-86819117D01*
X78381393Y-86801393D01*
X78399117Y-86785329D01*
X78418330Y-86771079D01*
X78438847Y-86758782D01*
X78460471Y-86748554D01*
X78482993Y-86740496D01*
X78506197Y-86734684D01*
X78529858Y-86731174D01*
X78553750Y-86730000D01*
X79041250Y-86730000D01*
X79065142Y-86731174D01*
X79065142Y-86731174D01*
G37*
D12*
X78797500Y-87430000D03*
D11*
G36*
X73350142Y-79443674D02*
G01*
X73373803Y-79447184D01*
X73397007Y-79452996D01*
X73419529Y-79461054D01*
X73441153Y-79471282D01*
X73461670Y-79483579D01*
X73480883Y-79497829D01*
X73498607Y-79513893D01*
X73514671Y-79531617D01*
X73528921Y-79550830D01*
X73541218Y-79571347D01*
X73551446Y-79592971D01*
X73559504Y-79615493D01*
X73565316Y-79638697D01*
X73568826Y-79662358D01*
X73570000Y-79686250D01*
X73570000Y-80173750D01*
X73568826Y-80197642D01*
X73565316Y-80221303D01*
X73559504Y-80244507D01*
X73551446Y-80267029D01*
X73541218Y-80288653D01*
X73528921Y-80309170D01*
X73514671Y-80328383D01*
X73498607Y-80346107D01*
X73480883Y-80362171D01*
X73461670Y-80376421D01*
X73441153Y-80388718D01*
X73419529Y-80398946D01*
X73397007Y-80407004D01*
X73373803Y-80412816D01*
X73350142Y-80416326D01*
X73326250Y-80417500D01*
X72413750Y-80417500D01*
X72389858Y-80416326D01*
X72366197Y-80412816D01*
X72342993Y-80407004D01*
X72320471Y-80398946D01*
X72298847Y-80388718D01*
X72278330Y-80376421D01*
X72259117Y-80362171D01*
X72241393Y-80346107D01*
X72225329Y-80328383D01*
X72211079Y-80309170D01*
X72198782Y-80288653D01*
X72188554Y-80267029D01*
X72180496Y-80244507D01*
X72174684Y-80221303D01*
X72171174Y-80197642D01*
X72170000Y-80173750D01*
X72170000Y-79686250D01*
X72171174Y-79662358D01*
X72174684Y-79638697D01*
X72180496Y-79615493D01*
X72188554Y-79592971D01*
X72198782Y-79571347D01*
X72211079Y-79550830D01*
X72225329Y-79531617D01*
X72241393Y-79513893D01*
X72259117Y-79497829D01*
X72278330Y-79483579D01*
X72298847Y-79471282D01*
X72320471Y-79461054D01*
X72342993Y-79452996D01*
X72366197Y-79447184D01*
X72389858Y-79443674D01*
X72413750Y-79442500D01*
X73326250Y-79442500D01*
X73350142Y-79443674D01*
X73350142Y-79443674D01*
G37*
D12*
X72870000Y-79930000D03*
D11*
G36*
X73350142Y-77568674D02*
G01*
X73373803Y-77572184D01*
X73397007Y-77577996D01*
X73419529Y-77586054D01*
X73441153Y-77596282D01*
X73461670Y-77608579D01*
X73480883Y-77622829D01*
X73498607Y-77638893D01*
X73514671Y-77656617D01*
X73528921Y-77675830D01*
X73541218Y-77696347D01*
X73551446Y-77717971D01*
X73559504Y-77740493D01*
X73565316Y-77763697D01*
X73568826Y-77787358D01*
X73570000Y-77811250D01*
X73570000Y-78298750D01*
X73568826Y-78322642D01*
X73565316Y-78346303D01*
X73559504Y-78369507D01*
X73551446Y-78392029D01*
X73541218Y-78413653D01*
X73528921Y-78434170D01*
X73514671Y-78453383D01*
X73498607Y-78471107D01*
X73480883Y-78487171D01*
X73461670Y-78501421D01*
X73441153Y-78513718D01*
X73419529Y-78523946D01*
X73397007Y-78532004D01*
X73373803Y-78537816D01*
X73350142Y-78541326D01*
X73326250Y-78542500D01*
X72413750Y-78542500D01*
X72389858Y-78541326D01*
X72366197Y-78537816D01*
X72342993Y-78532004D01*
X72320471Y-78523946D01*
X72298847Y-78513718D01*
X72278330Y-78501421D01*
X72259117Y-78487171D01*
X72241393Y-78471107D01*
X72225329Y-78453383D01*
X72211079Y-78434170D01*
X72198782Y-78413653D01*
X72188554Y-78392029D01*
X72180496Y-78369507D01*
X72174684Y-78346303D01*
X72171174Y-78322642D01*
X72170000Y-78298750D01*
X72170000Y-77811250D01*
X72171174Y-77787358D01*
X72174684Y-77763697D01*
X72180496Y-77740493D01*
X72188554Y-77717971D01*
X72198782Y-77696347D01*
X72211079Y-77675830D01*
X72225329Y-77656617D01*
X72241393Y-77638893D01*
X72259117Y-77622829D01*
X72278330Y-77608579D01*
X72298847Y-77596282D01*
X72320471Y-77586054D01*
X72342993Y-77577996D01*
X72366197Y-77572184D01*
X72389858Y-77568674D01*
X72413750Y-77567500D01*
X73326250Y-77567500D01*
X73350142Y-77568674D01*
X73350142Y-77568674D01*
G37*
D12*
X72870000Y-78055000D03*
D11*
G36*
X76267642Y-68301174D02*
G01*
X76291303Y-68304684D01*
X76314507Y-68310496D01*
X76337029Y-68318554D01*
X76358653Y-68328782D01*
X76379170Y-68341079D01*
X76398383Y-68355329D01*
X76416107Y-68371393D01*
X76432171Y-68389117D01*
X76446421Y-68408330D01*
X76458718Y-68428847D01*
X76468946Y-68450471D01*
X76477004Y-68472993D01*
X76482816Y-68496197D01*
X76486326Y-68519858D01*
X76487500Y-68543750D01*
X76487500Y-69456250D01*
X76486326Y-69480142D01*
X76482816Y-69503803D01*
X76477004Y-69527007D01*
X76468946Y-69549529D01*
X76458718Y-69571153D01*
X76446421Y-69591670D01*
X76432171Y-69610883D01*
X76416107Y-69628607D01*
X76398383Y-69644671D01*
X76379170Y-69658921D01*
X76358653Y-69671218D01*
X76337029Y-69681446D01*
X76314507Y-69689504D01*
X76291303Y-69695316D01*
X76267642Y-69698826D01*
X76243750Y-69700000D01*
X75756250Y-69700000D01*
X75732358Y-69698826D01*
X75708697Y-69695316D01*
X75685493Y-69689504D01*
X75662971Y-69681446D01*
X75641347Y-69671218D01*
X75620830Y-69658921D01*
X75601617Y-69644671D01*
X75583893Y-69628607D01*
X75567829Y-69610883D01*
X75553579Y-69591670D01*
X75541282Y-69571153D01*
X75531054Y-69549529D01*
X75522996Y-69527007D01*
X75517184Y-69503803D01*
X75513674Y-69480142D01*
X75512500Y-69456250D01*
X75512500Y-68543750D01*
X75513674Y-68519858D01*
X75517184Y-68496197D01*
X75522996Y-68472993D01*
X75531054Y-68450471D01*
X75541282Y-68428847D01*
X75553579Y-68408330D01*
X75567829Y-68389117D01*
X75583893Y-68371393D01*
X75601617Y-68355329D01*
X75620830Y-68341079D01*
X75641347Y-68328782D01*
X75662971Y-68318554D01*
X75685493Y-68310496D01*
X75708697Y-68304684D01*
X75732358Y-68301174D01*
X75756250Y-68300000D01*
X76243750Y-68300000D01*
X76267642Y-68301174D01*
X76267642Y-68301174D01*
G37*
D12*
X76000000Y-69000000D03*
D11*
G36*
X78142642Y-68301174D02*
G01*
X78166303Y-68304684D01*
X78189507Y-68310496D01*
X78212029Y-68318554D01*
X78233653Y-68328782D01*
X78254170Y-68341079D01*
X78273383Y-68355329D01*
X78291107Y-68371393D01*
X78307171Y-68389117D01*
X78321421Y-68408330D01*
X78333718Y-68428847D01*
X78343946Y-68450471D01*
X78352004Y-68472993D01*
X78357816Y-68496197D01*
X78361326Y-68519858D01*
X78362500Y-68543750D01*
X78362500Y-69456250D01*
X78361326Y-69480142D01*
X78357816Y-69503803D01*
X78352004Y-69527007D01*
X78343946Y-69549529D01*
X78333718Y-69571153D01*
X78321421Y-69591670D01*
X78307171Y-69610883D01*
X78291107Y-69628607D01*
X78273383Y-69644671D01*
X78254170Y-69658921D01*
X78233653Y-69671218D01*
X78212029Y-69681446D01*
X78189507Y-69689504D01*
X78166303Y-69695316D01*
X78142642Y-69698826D01*
X78118750Y-69700000D01*
X77631250Y-69700000D01*
X77607358Y-69698826D01*
X77583697Y-69695316D01*
X77560493Y-69689504D01*
X77537971Y-69681446D01*
X77516347Y-69671218D01*
X77495830Y-69658921D01*
X77476617Y-69644671D01*
X77458893Y-69628607D01*
X77442829Y-69610883D01*
X77428579Y-69591670D01*
X77416282Y-69571153D01*
X77406054Y-69549529D01*
X77397996Y-69527007D01*
X77392184Y-69503803D01*
X77388674Y-69480142D01*
X77387500Y-69456250D01*
X77387500Y-68543750D01*
X77388674Y-68519858D01*
X77392184Y-68496197D01*
X77397996Y-68472993D01*
X77406054Y-68450471D01*
X77416282Y-68428847D01*
X77428579Y-68408330D01*
X77442829Y-68389117D01*
X77458893Y-68371393D01*
X77476617Y-68355329D01*
X77495830Y-68341079D01*
X77516347Y-68328782D01*
X77537971Y-68318554D01*
X77560493Y-68310496D01*
X77583697Y-68304684D01*
X77607358Y-68301174D01*
X77631250Y-68300000D01*
X78118750Y-68300000D01*
X78142642Y-68301174D01*
X78142642Y-68301174D01*
G37*
D12*
X77875000Y-69000000D03*
D11*
G36*
X72270142Y-58246174D02*
G01*
X72293803Y-58249684D01*
X72317007Y-58255496D01*
X72339529Y-58263554D01*
X72361153Y-58273782D01*
X72381670Y-58286079D01*
X72400883Y-58300329D01*
X72418607Y-58316393D01*
X72434671Y-58334117D01*
X72448921Y-58353330D01*
X72461218Y-58373847D01*
X72471446Y-58395471D01*
X72479504Y-58417993D01*
X72485316Y-58441197D01*
X72488826Y-58464858D01*
X72490000Y-58488750D01*
X72490000Y-58976250D01*
X72488826Y-59000142D01*
X72485316Y-59023803D01*
X72479504Y-59047007D01*
X72471446Y-59069529D01*
X72461218Y-59091153D01*
X72448921Y-59111670D01*
X72434671Y-59130883D01*
X72418607Y-59148607D01*
X72400883Y-59164671D01*
X72381670Y-59178921D01*
X72361153Y-59191218D01*
X72339529Y-59201446D01*
X72317007Y-59209504D01*
X72293803Y-59215316D01*
X72270142Y-59218826D01*
X72246250Y-59220000D01*
X71333750Y-59220000D01*
X71309858Y-59218826D01*
X71286197Y-59215316D01*
X71262993Y-59209504D01*
X71240471Y-59201446D01*
X71218847Y-59191218D01*
X71198330Y-59178921D01*
X71179117Y-59164671D01*
X71161393Y-59148607D01*
X71145329Y-59130883D01*
X71131079Y-59111670D01*
X71118782Y-59091153D01*
X71108554Y-59069529D01*
X71100496Y-59047007D01*
X71094684Y-59023803D01*
X71091174Y-59000142D01*
X71090000Y-58976250D01*
X71090000Y-58488750D01*
X71091174Y-58464858D01*
X71094684Y-58441197D01*
X71100496Y-58417993D01*
X71108554Y-58395471D01*
X71118782Y-58373847D01*
X71131079Y-58353330D01*
X71145329Y-58334117D01*
X71161393Y-58316393D01*
X71179117Y-58300329D01*
X71198330Y-58286079D01*
X71218847Y-58273782D01*
X71240471Y-58263554D01*
X71262993Y-58255496D01*
X71286197Y-58249684D01*
X71309858Y-58246174D01*
X71333750Y-58245000D01*
X72246250Y-58245000D01*
X72270142Y-58246174D01*
X72270142Y-58246174D01*
G37*
D12*
X71790000Y-58732500D03*
D11*
G36*
X72270142Y-60121174D02*
G01*
X72293803Y-60124684D01*
X72317007Y-60130496D01*
X72339529Y-60138554D01*
X72361153Y-60148782D01*
X72381670Y-60161079D01*
X72400883Y-60175329D01*
X72418607Y-60191393D01*
X72434671Y-60209117D01*
X72448921Y-60228330D01*
X72461218Y-60248847D01*
X72471446Y-60270471D01*
X72479504Y-60292993D01*
X72485316Y-60316197D01*
X72488826Y-60339858D01*
X72490000Y-60363750D01*
X72490000Y-60851250D01*
X72488826Y-60875142D01*
X72485316Y-60898803D01*
X72479504Y-60922007D01*
X72471446Y-60944529D01*
X72461218Y-60966153D01*
X72448921Y-60986670D01*
X72434671Y-61005883D01*
X72418607Y-61023607D01*
X72400883Y-61039671D01*
X72381670Y-61053921D01*
X72361153Y-61066218D01*
X72339529Y-61076446D01*
X72317007Y-61084504D01*
X72293803Y-61090316D01*
X72270142Y-61093826D01*
X72246250Y-61095000D01*
X71333750Y-61095000D01*
X71309858Y-61093826D01*
X71286197Y-61090316D01*
X71262993Y-61084504D01*
X71240471Y-61076446D01*
X71218847Y-61066218D01*
X71198330Y-61053921D01*
X71179117Y-61039671D01*
X71161393Y-61023607D01*
X71145329Y-61005883D01*
X71131079Y-60986670D01*
X71118782Y-60966153D01*
X71108554Y-60944529D01*
X71100496Y-60922007D01*
X71094684Y-60898803D01*
X71091174Y-60875142D01*
X71090000Y-60851250D01*
X71090000Y-60363750D01*
X71091174Y-60339858D01*
X71094684Y-60316197D01*
X71100496Y-60292993D01*
X71108554Y-60270471D01*
X71118782Y-60248847D01*
X71131079Y-60228330D01*
X71145329Y-60209117D01*
X71161393Y-60191393D01*
X71179117Y-60175329D01*
X71198330Y-60161079D01*
X71218847Y-60148782D01*
X71240471Y-60138554D01*
X71262993Y-60130496D01*
X71286197Y-60124684D01*
X71309858Y-60121174D01*
X71333750Y-60120000D01*
X72246250Y-60120000D01*
X72270142Y-60121174D01*
X72270142Y-60121174D01*
G37*
D12*
X71790000Y-60607500D03*
D13*
X83275000Y-69025000D03*
D14*
X85815000Y-69025000D03*
X88355000Y-69025000D03*
X90895000Y-69025000D03*
X93435000Y-69025000D03*
X95975000Y-69025000D03*
X95975000Y-87400000D03*
X93435000Y-87400000D03*
X90895000Y-87400000D03*
X88355000Y-87400000D03*
X85815000Y-87400000D03*
D13*
X83275000Y-87400000D03*
D11*
G36*
X96310142Y-62536174D02*
G01*
X96333803Y-62539684D01*
X96357007Y-62545496D01*
X96379529Y-62553554D01*
X96401153Y-62563782D01*
X96421670Y-62576079D01*
X96440883Y-62590329D01*
X96458607Y-62606393D01*
X96474671Y-62624117D01*
X96488921Y-62643330D01*
X96501218Y-62663847D01*
X96511446Y-62685471D01*
X96519504Y-62707993D01*
X96525316Y-62731197D01*
X96528826Y-62754858D01*
X96530000Y-62778750D01*
X96530000Y-63266250D01*
X96528826Y-63290142D01*
X96525316Y-63313803D01*
X96519504Y-63337007D01*
X96511446Y-63359529D01*
X96501218Y-63381153D01*
X96488921Y-63401670D01*
X96474671Y-63420883D01*
X96458607Y-63438607D01*
X96440883Y-63454671D01*
X96421670Y-63468921D01*
X96401153Y-63481218D01*
X96379529Y-63491446D01*
X96357007Y-63499504D01*
X96333803Y-63505316D01*
X96310142Y-63508826D01*
X96286250Y-63510000D01*
X95373750Y-63510000D01*
X95349858Y-63508826D01*
X95326197Y-63505316D01*
X95302993Y-63499504D01*
X95280471Y-63491446D01*
X95258847Y-63481218D01*
X95238330Y-63468921D01*
X95219117Y-63454671D01*
X95201393Y-63438607D01*
X95185329Y-63420883D01*
X95171079Y-63401670D01*
X95158782Y-63381153D01*
X95148554Y-63359529D01*
X95140496Y-63337007D01*
X95134684Y-63313803D01*
X95131174Y-63290142D01*
X95130000Y-63266250D01*
X95130000Y-62778750D01*
X95131174Y-62754858D01*
X95134684Y-62731197D01*
X95140496Y-62707993D01*
X95148554Y-62685471D01*
X95158782Y-62663847D01*
X95171079Y-62643330D01*
X95185329Y-62624117D01*
X95201393Y-62606393D01*
X95219117Y-62590329D01*
X95238330Y-62576079D01*
X95258847Y-62563782D01*
X95280471Y-62553554D01*
X95302993Y-62545496D01*
X95326197Y-62539684D01*
X95349858Y-62536174D01*
X95373750Y-62535000D01*
X96286250Y-62535000D01*
X96310142Y-62536174D01*
X96310142Y-62536174D01*
G37*
D12*
X95830000Y-63022500D03*
D11*
G36*
X96310142Y-64411174D02*
G01*
X96333803Y-64414684D01*
X96357007Y-64420496D01*
X96379529Y-64428554D01*
X96401153Y-64438782D01*
X96421670Y-64451079D01*
X96440883Y-64465329D01*
X96458607Y-64481393D01*
X96474671Y-64499117D01*
X96488921Y-64518330D01*
X96501218Y-64538847D01*
X96511446Y-64560471D01*
X96519504Y-64582993D01*
X96525316Y-64606197D01*
X96528826Y-64629858D01*
X96530000Y-64653750D01*
X96530000Y-65141250D01*
X96528826Y-65165142D01*
X96525316Y-65188803D01*
X96519504Y-65212007D01*
X96511446Y-65234529D01*
X96501218Y-65256153D01*
X96488921Y-65276670D01*
X96474671Y-65295883D01*
X96458607Y-65313607D01*
X96440883Y-65329671D01*
X96421670Y-65343921D01*
X96401153Y-65356218D01*
X96379529Y-65366446D01*
X96357007Y-65374504D01*
X96333803Y-65380316D01*
X96310142Y-65383826D01*
X96286250Y-65385000D01*
X95373750Y-65385000D01*
X95349858Y-65383826D01*
X95326197Y-65380316D01*
X95302993Y-65374504D01*
X95280471Y-65366446D01*
X95258847Y-65356218D01*
X95238330Y-65343921D01*
X95219117Y-65329671D01*
X95201393Y-65313607D01*
X95185329Y-65295883D01*
X95171079Y-65276670D01*
X95158782Y-65256153D01*
X95148554Y-65234529D01*
X95140496Y-65212007D01*
X95134684Y-65188803D01*
X95131174Y-65165142D01*
X95130000Y-65141250D01*
X95130000Y-64653750D01*
X95131174Y-64629858D01*
X95134684Y-64606197D01*
X95140496Y-64582993D01*
X95148554Y-64560471D01*
X95158782Y-64538847D01*
X95171079Y-64518330D01*
X95185329Y-64499117D01*
X95201393Y-64481393D01*
X95219117Y-64465329D01*
X95238330Y-64451079D01*
X95258847Y-64438782D01*
X95280471Y-64428554D01*
X95302993Y-64420496D01*
X95326197Y-64414684D01*
X95349858Y-64411174D01*
X95373750Y-64410000D01*
X96286250Y-64410000D01*
X96310142Y-64411174D01*
X96310142Y-64411174D01*
G37*
D12*
X95830000Y-64897500D03*
D11*
G36*
X103550142Y-66228674D02*
G01*
X103573803Y-66232184D01*
X103597007Y-66237996D01*
X103619529Y-66246054D01*
X103641153Y-66256282D01*
X103661670Y-66268579D01*
X103680883Y-66282829D01*
X103698607Y-66298893D01*
X103714671Y-66316617D01*
X103728921Y-66335830D01*
X103741218Y-66356347D01*
X103751446Y-66377971D01*
X103759504Y-66400493D01*
X103765316Y-66423697D01*
X103768826Y-66447358D01*
X103770000Y-66471250D01*
X103770000Y-66958750D01*
X103768826Y-66982642D01*
X103765316Y-67006303D01*
X103759504Y-67029507D01*
X103751446Y-67052029D01*
X103741218Y-67073653D01*
X103728921Y-67094170D01*
X103714671Y-67113383D01*
X103698607Y-67131107D01*
X103680883Y-67147171D01*
X103661670Y-67161421D01*
X103641153Y-67173718D01*
X103619529Y-67183946D01*
X103597007Y-67192004D01*
X103573803Y-67197816D01*
X103550142Y-67201326D01*
X103526250Y-67202500D01*
X102613750Y-67202500D01*
X102589858Y-67201326D01*
X102566197Y-67197816D01*
X102542993Y-67192004D01*
X102520471Y-67183946D01*
X102498847Y-67173718D01*
X102478330Y-67161421D01*
X102459117Y-67147171D01*
X102441393Y-67131107D01*
X102425329Y-67113383D01*
X102411079Y-67094170D01*
X102398782Y-67073653D01*
X102388554Y-67052029D01*
X102380496Y-67029507D01*
X102374684Y-67006303D01*
X102371174Y-66982642D01*
X102370000Y-66958750D01*
X102370000Y-66471250D01*
X102371174Y-66447358D01*
X102374684Y-66423697D01*
X102380496Y-66400493D01*
X102388554Y-66377971D01*
X102398782Y-66356347D01*
X102411079Y-66335830D01*
X102425329Y-66316617D01*
X102441393Y-66298893D01*
X102459117Y-66282829D01*
X102478330Y-66268579D01*
X102498847Y-66256282D01*
X102520471Y-66246054D01*
X102542993Y-66237996D01*
X102566197Y-66232184D01*
X102589858Y-66228674D01*
X102613750Y-66227500D01*
X103526250Y-66227500D01*
X103550142Y-66228674D01*
X103550142Y-66228674D01*
G37*
D12*
X103070000Y-66715000D03*
D11*
G36*
X103550142Y-64353674D02*
G01*
X103573803Y-64357184D01*
X103597007Y-64362996D01*
X103619529Y-64371054D01*
X103641153Y-64381282D01*
X103661670Y-64393579D01*
X103680883Y-64407829D01*
X103698607Y-64423893D01*
X103714671Y-64441617D01*
X103728921Y-64460830D01*
X103741218Y-64481347D01*
X103751446Y-64502971D01*
X103759504Y-64525493D01*
X103765316Y-64548697D01*
X103768826Y-64572358D01*
X103770000Y-64596250D01*
X103770000Y-65083750D01*
X103768826Y-65107642D01*
X103765316Y-65131303D01*
X103759504Y-65154507D01*
X103751446Y-65177029D01*
X103741218Y-65198653D01*
X103728921Y-65219170D01*
X103714671Y-65238383D01*
X103698607Y-65256107D01*
X103680883Y-65272171D01*
X103661670Y-65286421D01*
X103641153Y-65298718D01*
X103619529Y-65308946D01*
X103597007Y-65317004D01*
X103573803Y-65322816D01*
X103550142Y-65326326D01*
X103526250Y-65327500D01*
X102613750Y-65327500D01*
X102589858Y-65326326D01*
X102566197Y-65322816D01*
X102542993Y-65317004D01*
X102520471Y-65308946D01*
X102498847Y-65298718D01*
X102478330Y-65286421D01*
X102459117Y-65272171D01*
X102441393Y-65256107D01*
X102425329Y-65238383D01*
X102411079Y-65219170D01*
X102398782Y-65198653D01*
X102388554Y-65177029D01*
X102380496Y-65154507D01*
X102374684Y-65131303D01*
X102371174Y-65107642D01*
X102370000Y-65083750D01*
X102370000Y-64596250D01*
X102371174Y-64572358D01*
X102374684Y-64548697D01*
X102380496Y-64525493D01*
X102388554Y-64502971D01*
X102398782Y-64481347D01*
X102411079Y-64460830D01*
X102425329Y-64441617D01*
X102441393Y-64423893D01*
X102459117Y-64407829D01*
X102478330Y-64393579D01*
X102498847Y-64381282D01*
X102520471Y-64371054D01*
X102542993Y-64362996D01*
X102566197Y-64357184D01*
X102589858Y-64353674D01*
X102613750Y-64352500D01*
X103526250Y-64352500D01*
X103550142Y-64353674D01*
X103550142Y-64353674D01*
G37*
D12*
X103070000Y-64840000D03*
D11*
G36*
X84710142Y-62438674D02*
G01*
X84733803Y-62442184D01*
X84757007Y-62447996D01*
X84779529Y-62456054D01*
X84801153Y-62466282D01*
X84821670Y-62478579D01*
X84840883Y-62492829D01*
X84858607Y-62508893D01*
X84874671Y-62526617D01*
X84888921Y-62545830D01*
X84901218Y-62566347D01*
X84911446Y-62587971D01*
X84919504Y-62610493D01*
X84925316Y-62633697D01*
X84928826Y-62657358D01*
X84930000Y-62681250D01*
X84930000Y-63168750D01*
X84928826Y-63192642D01*
X84925316Y-63216303D01*
X84919504Y-63239507D01*
X84911446Y-63262029D01*
X84901218Y-63283653D01*
X84888921Y-63304170D01*
X84874671Y-63323383D01*
X84858607Y-63341107D01*
X84840883Y-63357171D01*
X84821670Y-63371421D01*
X84801153Y-63383718D01*
X84779529Y-63393946D01*
X84757007Y-63402004D01*
X84733803Y-63407816D01*
X84710142Y-63411326D01*
X84686250Y-63412500D01*
X83773750Y-63412500D01*
X83749858Y-63411326D01*
X83726197Y-63407816D01*
X83702993Y-63402004D01*
X83680471Y-63393946D01*
X83658847Y-63383718D01*
X83638330Y-63371421D01*
X83619117Y-63357171D01*
X83601393Y-63341107D01*
X83585329Y-63323383D01*
X83571079Y-63304170D01*
X83558782Y-63283653D01*
X83548554Y-63262029D01*
X83540496Y-63239507D01*
X83534684Y-63216303D01*
X83531174Y-63192642D01*
X83530000Y-63168750D01*
X83530000Y-62681250D01*
X83531174Y-62657358D01*
X83534684Y-62633697D01*
X83540496Y-62610493D01*
X83548554Y-62587971D01*
X83558782Y-62566347D01*
X83571079Y-62545830D01*
X83585329Y-62526617D01*
X83601393Y-62508893D01*
X83619117Y-62492829D01*
X83638330Y-62478579D01*
X83658847Y-62466282D01*
X83680471Y-62456054D01*
X83702993Y-62447996D01*
X83726197Y-62442184D01*
X83749858Y-62438674D01*
X83773750Y-62437500D01*
X84686250Y-62437500D01*
X84710142Y-62438674D01*
X84710142Y-62438674D01*
G37*
D12*
X84230000Y-62925000D03*
D11*
G36*
X84710142Y-64313674D02*
G01*
X84733803Y-64317184D01*
X84757007Y-64322996D01*
X84779529Y-64331054D01*
X84801153Y-64341282D01*
X84821670Y-64353579D01*
X84840883Y-64367829D01*
X84858607Y-64383893D01*
X84874671Y-64401617D01*
X84888921Y-64420830D01*
X84901218Y-64441347D01*
X84911446Y-64462971D01*
X84919504Y-64485493D01*
X84925316Y-64508697D01*
X84928826Y-64532358D01*
X84930000Y-64556250D01*
X84930000Y-65043750D01*
X84928826Y-65067642D01*
X84925316Y-65091303D01*
X84919504Y-65114507D01*
X84911446Y-65137029D01*
X84901218Y-65158653D01*
X84888921Y-65179170D01*
X84874671Y-65198383D01*
X84858607Y-65216107D01*
X84840883Y-65232171D01*
X84821670Y-65246421D01*
X84801153Y-65258718D01*
X84779529Y-65268946D01*
X84757007Y-65277004D01*
X84733803Y-65282816D01*
X84710142Y-65286326D01*
X84686250Y-65287500D01*
X83773750Y-65287500D01*
X83749858Y-65286326D01*
X83726197Y-65282816D01*
X83702993Y-65277004D01*
X83680471Y-65268946D01*
X83658847Y-65258718D01*
X83638330Y-65246421D01*
X83619117Y-65232171D01*
X83601393Y-65216107D01*
X83585329Y-65198383D01*
X83571079Y-65179170D01*
X83558782Y-65158653D01*
X83548554Y-65137029D01*
X83540496Y-65114507D01*
X83534684Y-65091303D01*
X83531174Y-65067642D01*
X83530000Y-65043750D01*
X83530000Y-64556250D01*
X83531174Y-64532358D01*
X83534684Y-64508697D01*
X83540496Y-64485493D01*
X83548554Y-64462971D01*
X83558782Y-64441347D01*
X83571079Y-64420830D01*
X83585329Y-64401617D01*
X83601393Y-64383893D01*
X83619117Y-64367829D01*
X83638330Y-64353579D01*
X83658847Y-64341282D01*
X83680471Y-64331054D01*
X83702993Y-64322996D01*
X83726197Y-64317184D01*
X83749858Y-64313674D01*
X83773750Y-64312500D01*
X84686250Y-64312500D01*
X84710142Y-64313674D01*
X84710142Y-64313674D01*
G37*
D12*
X84230000Y-64800000D03*
D11*
G36*
X93197642Y-64041174D02*
G01*
X93221303Y-64044684D01*
X93244507Y-64050496D01*
X93267029Y-64058554D01*
X93288653Y-64068782D01*
X93309170Y-64081079D01*
X93328383Y-64095329D01*
X93346107Y-64111393D01*
X93362171Y-64129117D01*
X93376421Y-64148330D01*
X93388718Y-64168847D01*
X93398946Y-64190471D01*
X93407004Y-64212993D01*
X93412816Y-64236197D01*
X93416326Y-64259858D01*
X93417500Y-64283750D01*
X93417500Y-65196250D01*
X93416326Y-65220142D01*
X93412816Y-65243803D01*
X93407004Y-65267007D01*
X93398946Y-65289529D01*
X93388718Y-65311153D01*
X93376421Y-65331670D01*
X93362171Y-65350883D01*
X93346107Y-65368607D01*
X93328383Y-65384671D01*
X93309170Y-65398921D01*
X93288653Y-65411218D01*
X93267029Y-65421446D01*
X93244507Y-65429504D01*
X93221303Y-65435316D01*
X93197642Y-65438826D01*
X93173750Y-65440000D01*
X92686250Y-65440000D01*
X92662358Y-65438826D01*
X92638697Y-65435316D01*
X92615493Y-65429504D01*
X92592971Y-65421446D01*
X92571347Y-65411218D01*
X92550830Y-65398921D01*
X92531617Y-65384671D01*
X92513893Y-65368607D01*
X92497829Y-65350883D01*
X92483579Y-65331670D01*
X92471282Y-65311153D01*
X92461054Y-65289529D01*
X92452996Y-65267007D01*
X92447184Y-65243803D01*
X92443674Y-65220142D01*
X92442500Y-65196250D01*
X92442500Y-64283750D01*
X92443674Y-64259858D01*
X92447184Y-64236197D01*
X92452996Y-64212993D01*
X92461054Y-64190471D01*
X92471282Y-64168847D01*
X92483579Y-64148330D01*
X92497829Y-64129117D01*
X92513893Y-64111393D01*
X92531617Y-64095329D01*
X92550830Y-64081079D01*
X92571347Y-64068782D01*
X92592971Y-64058554D01*
X92615493Y-64050496D01*
X92638697Y-64044684D01*
X92662358Y-64041174D01*
X92686250Y-64040000D01*
X93173750Y-64040000D01*
X93197642Y-64041174D01*
X93197642Y-64041174D01*
G37*
D12*
X92930000Y-64740000D03*
D11*
G36*
X91322642Y-64041174D02*
G01*
X91346303Y-64044684D01*
X91369507Y-64050496D01*
X91392029Y-64058554D01*
X91413653Y-64068782D01*
X91434170Y-64081079D01*
X91453383Y-64095329D01*
X91471107Y-64111393D01*
X91487171Y-64129117D01*
X91501421Y-64148330D01*
X91513718Y-64168847D01*
X91523946Y-64190471D01*
X91532004Y-64212993D01*
X91537816Y-64236197D01*
X91541326Y-64259858D01*
X91542500Y-64283750D01*
X91542500Y-65196250D01*
X91541326Y-65220142D01*
X91537816Y-65243803D01*
X91532004Y-65267007D01*
X91523946Y-65289529D01*
X91513718Y-65311153D01*
X91501421Y-65331670D01*
X91487171Y-65350883D01*
X91471107Y-65368607D01*
X91453383Y-65384671D01*
X91434170Y-65398921D01*
X91413653Y-65411218D01*
X91392029Y-65421446D01*
X91369507Y-65429504D01*
X91346303Y-65435316D01*
X91322642Y-65438826D01*
X91298750Y-65440000D01*
X90811250Y-65440000D01*
X90787358Y-65438826D01*
X90763697Y-65435316D01*
X90740493Y-65429504D01*
X90717971Y-65421446D01*
X90696347Y-65411218D01*
X90675830Y-65398921D01*
X90656617Y-65384671D01*
X90638893Y-65368607D01*
X90622829Y-65350883D01*
X90608579Y-65331670D01*
X90596282Y-65311153D01*
X90586054Y-65289529D01*
X90577996Y-65267007D01*
X90572184Y-65243803D01*
X90568674Y-65220142D01*
X90567500Y-65196250D01*
X90567500Y-64283750D01*
X90568674Y-64259858D01*
X90572184Y-64236197D01*
X90577996Y-64212993D01*
X90586054Y-64190471D01*
X90596282Y-64168847D01*
X90608579Y-64148330D01*
X90622829Y-64129117D01*
X90638893Y-64111393D01*
X90656617Y-64095329D01*
X90675830Y-64081079D01*
X90696347Y-64068782D01*
X90717971Y-64058554D01*
X90740493Y-64050496D01*
X90763697Y-64044684D01*
X90787358Y-64041174D01*
X90811250Y-64040000D01*
X91298750Y-64040000D01*
X91322642Y-64041174D01*
X91322642Y-64041174D01*
G37*
D12*
X91055000Y-64740000D03*
D11*
G36*
X73380142Y-62178674D02*
G01*
X73403803Y-62182184D01*
X73427007Y-62187996D01*
X73449529Y-62196054D01*
X73471153Y-62206282D01*
X73491670Y-62218579D01*
X73510883Y-62232829D01*
X73528607Y-62248893D01*
X73544671Y-62266617D01*
X73558921Y-62285830D01*
X73571218Y-62306347D01*
X73581446Y-62327971D01*
X73589504Y-62350493D01*
X73595316Y-62373697D01*
X73598826Y-62397358D01*
X73600000Y-62421250D01*
X73600000Y-62908750D01*
X73598826Y-62932642D01*
X73595316Y-62956303D01*
X73589504Y-62979507D01*
X73581446Y-63002029D01*
X73571218Y-63023653D01*
X73558921Y-63044170D01*
X73544671Y-63063383D01*
X73528607Y-63081107D01*
X73510883Y-63097171D01*
X73491670Y-63111421D01*
X73471153Y-63123718D01*
X73449529Y-63133946D01*
X73427007Y-63142004D01*
X73403803Y-63147816D01*
X73380142Y-63151326D01*
X73356250Y-63152500D01*
X72443750Y-63152500D01*
X72419858Y-63151326D01*
X72396197Y-63147816D01*
X72372993Y-63142004D01*
X72350471Y-63133946D01*
X72328847Y-63123718D01*
X72308330Y-63111421D01*
X72289117Y-63097171D01*
X72271393Y-63081107D01*
X72255329Y-63063383D01*
X72241079Y-63044170D01*
X72228782Y-63023653D01*
X72218554Y-63002029D01*
X72210496Y-62979507D01*
X72204684Y-62956303D01*
X72201174Y-62932642D01*
X72200000Y-62908750D01*
X72200000Y-62421250D01*
X72201174Y-62397358D01*
X72204684Y-62373697D01*
X72210496Y-62350493D01*
X72218554Y-62327971D01*
X72228782Y-62306347D01*
X72241079Y-62285830D01*
X72255329Y-62266617D01*
X72271393Y-62248893D01*
X72289117Y-62232829D01*
X72308330Y-62218579D01*
X72328847Y-62206282D01*
X72350471Y-62196054D01*
X72372993Y-62187996D01*
X72396197Y-62182184D01*
X72419858Y-62178674D01*
X72443750Y-62177500D01*
X73356250Y-62177500D01*
X73380142Y-62178674D01*
X73380142Y-62178674D01*
G37*
D12*
X72900000Y-62665000D03*
D11*
G36*
X73380142Y-64053674D02*
G01*
X73403803Y-64057184D01*
X73427007Y-64062996D01*
X73449529Y-64071054D01*
X73471153Y-64081282D01*
X73491670Y-64093579D01*
X73510883Y-64107829D01*
X73528607Y-64123893D01*
X73544671Y-64141617D01*
X73558921Y-64160830D01*
X73571218Y-64181347D01*
X73581446Y-64202971D01*
X73589504Y-64225493D01*
X73595316Y-64248697D01*
X73598826Y-64272358D01*
X73600000Y-64296250D01*
X73600000Y-64783750D01*
X73598826Y-64807642D01*
X73595316Y-64831303D01*
X73589504Y-64854507D01*
X73581446Y-64877029D01*
X73571218Y-64898653D01*
X73558921Y-64919170D01*
X73544671Y-64938383D01*
X73528607Y-64956107D01*
X73510883Y-64972171D01*
X73491670Y-64986421D01*
X73471153Y-64998718D01*
X73449529Y-65008946D01*
X73427007Y-65017004D01*
X73403803Y-65022816D01*
X73380142Y-65026326D01*
X73356250Y-65027500D01*
X72443750Y-65027500D01*
X72419858Y-65026326D01*
X72396197Y-65022816D01*
X72372993Y-65017004D01*
X72350471Y-65008946D01*
X72328847Y-64998718D01*
X72308330Y-64986421D01*
X72289117Y-64972171D01*
X72271393Y-64956107D01*
X72255329Y-64938383D01*
X72241079Y-64919170D01*
X72228782Y-64898653D01*
X72218554Y-64877029D01*
X72210496Y-64854507D01*
X72204684Y-64831303D01*
X72201174Y-64807642D01*
X72200000Y-64783750D01*
X72200000Y-64296250D01*
X72201174Y-64272358D01*
X72204684Y-64248697D01*
X72210496Y-64225493D01*
X72218554Y-64202971D01*
X72228782Y-64181347D01*
X72241079Y-64160830D01*
X72255329Y-64141617D01*
X72271393Y-64123893D01*
X72289117Y-64107829D01*
X72308330Y-64093579D01*
X72328847Y-64081282D01*
X72350471Y-64071054D01*
X72372993Y-64062996D01*
X72396197Y-64057184D01*
X72419858Y-64053674D01*
X72443750Y-64052500D01*
X73356250Y-64052500D01*
X73380142Y-64053674D01*
X73380142Y-64053674D01*
G37*
D12*
X72900000Y-64540000D03*
D11*
G36*
X82007642Y-64121174D02*
G01*
X82031303Y-64124684D01*
X82054507Y-64130496D01*
X82077029Y-64138554D01*
X82098653Y-64148782D01*
X82119170Y-64161079D01*
X82138383Y-64175329D01*
X82156107Y-64191393D01*
X82172171Y-64209117D01*
X82186421Y-64228330D01*
X82198718Y-64248847D01*
X82208946Y-64270471D01*
X82217004Y-64292993D01*
X82222816Y-64316197D01*
X82226326Y-64339858D01*
X82227500Y-64363750D01*
X82227500Y-65276250D01*
X82226326Y-65300142D01*
X82222816Y-65323803D01*
X82217004Y-65347007D01*
X82208946Y-65369529D01*
X82198718Y-65391153D01*
X82186421Y-65411670D01*
X82172171Y-65430883D01*
X82156107Y-65448607D01*
X82138383Y-65464671D01*
X82119170Y-65478921D01*
X82098653Y-65491218D01*
X82077029Y-65501446D01*
X82054507Y-65509504D01*
X82031303Y-65515316D01*
X82007642Y-65518826D01*
X81983750Y-65520000D01*
X81496250Y-65520000D01*
X81472358Y-65518826D01*
X81448697Y-65515316D01*
X81425493Y-65509504D01*
X81402971Y-65501446D01*
X81381347Y-65491218D01*
X81360830Y-65478921D01*
X81341617Y-65464671D01*
X81323893Y-65448607D01*
X81307829Y-65430883D01*
X81293579Y-65411670D01*
X81281282Y-65391153D01*
X81271054Y-65369529D01*
X81262996Y-65347007D01*
X81257184Y-65323803D01*
X81253674Y-65300142D01*
X81252500Y-65276250D01*
X81252500Y-64363750D01*
X81253674Y-64339858D01*
X81257184Y-64316197D01*
X81262996Y-64292993D01*
X81271054Y-64270471D01*
X81281282Y-64248847D01*
X81293579Y-64228330D01*
X81307829Y-64209117D01*
X81323893Y-64191393D01*
X81341617Y-64175329D01*
X81360830Y-64161079D01*
X81381347Y-64148782D01*
X81402971Y-64138554D01*
X81425493Y-64130496D01*
X81448697Y-64124684D01*
X81472358Y-64121174D01*
X81496250Y-64120000D01*
X81983750Y-64120000D01*
X82007642Y-64121174D01*
X82007642Y-64121174D01*
G37*
D12*
X81740000Y-64820000D03*
D11*
G36*
X80132642Y-64121174D02*
G01*
X80156303Y-64124684D01*
X80179507Y-64130496D01*
X80202029Y-64138554D01*
X80223653Y-64148782D01*
X80244170Y-64161079D01*
X80263383Y-64175329D01*
X80281107Y-64191393D01*
X80297171Y-64209117D01*
X80311421Y-64228330D01*
X80323718Y-64248847D01*
X80333946Y-64270471D01*
X80342004Y-64292993D01*
X80347816Y-64316197D01*
X80351326Y-64339858D01*
X80352500Y-64363750D01*
X80352500Y-65276250D01*
X80351326Y-65300142D01*
X80347816Y-65323803D01*
X80342004Y-65347007D01*
X80333946Y-65369529D01*
X80323718Y-65391153D01*
X80311421Y-65411670D01*
X80297171Y-65430883D01*
X80281107Y-65448607D01*
X80263383Y-65464671D01*
X80244170Y-65478921D01*
X80223653Y-65491218D01*
X80202029Y-65501446D01*
X80179507Y-65509504D01*
X80156303Y-65515316D01*
X80132642Y-65518826D01*
X80108750Y-65520000D01*
X79621250Y-65520000D01*
X79597358Y-65518826D01*
X79573697Y-65515316D01*
X79550493Y-65509504D01*
X79527971Y-65501446D01*
X79506347Y-65491218D01*
X79485830Y-65478921D01*
X79466617Y-65464671D01*
X79448893Y-65448607D01*
X79432829Y-65430883D01*
X79418579Y-65411670D01*
X79406282Y-65391153D01*
X79396054Y-65369529D01*
X79387996Y-65347007D01*
X79382184Y-65323803D01*
X79378674Y-65300142D01*
X79377500Y-65276250D01*
X79377500Y-64363750D01*
X79378674Y-64339858D01*
X79382184Y-64316197D01*
X79387996Y-64292993D01*
X79396054Y-64270471D01*
X79406282Y-64248847D01*
X79418579Y-64228330D01*
X79432829Y-64209117D01*
X79448893Y-64191393D01*
X79466617Y-64175329D01*
X79485830Y-64161079D01*
X79506347Y-64148782D01*
X79527971Y-64138554D01*
X79550493Y-64130496D01*
X79573697Y-64124684D01*
X79597358Y-64121174D01*
X79621250Y-64120000D01*
X80108750Y-64120000D01*
X80132642Y-64121174D01*
X80132642Y-64121174D01*
G37*
D12*
X79865000Y-64820000D03*
D11*
G36*
X96580142Y-80828674D02*
G01*
X96603803Y-80832184D01*
X96627007Y-80837996D01*
X96649529Y-80846054D01*
X96671153Y-80856282D01*
X96691670Y-80868579D01*
X96710883Y-80882829D01*
X96728607Y-80898893D01*
X96744671Y-80916617D01*
X96758921Y-80935830D01*
X96771218Y-80956347D01*
X96781446Y-80977971D01*
X96789504Y-81000493D01*
X96795316Y-81023697D01*
X96798826Y-81047358D01*
X96800000Y-81071250D01*
X96800000Y-81558750D01*
X96798826Y-81582642D01*
X96795316Y-81606303D01*
X96789504Y-81629507D01*
X96781446Y-81652029D01*
X96771218Y-81673653D01*
X96758921Y-81694170D01*
X96744671Y-81713383D01*
X96728607Y-81731107D01*
X96710883Y-81747171D01*
X96691670Y-81761421D01*
X96671153Y-81773718D01*
X96649529Y-81783946D01*
X96627007Y-81792004D01*
X96603803Y-81797816D01*
X96580142Y-81801326D01*
X96556250Y-81802500D01*
X95643750Y-81802500D01*
X95619858Y-81801326D01*
X95596197Y-81797816D01*
X95572993Y-81792004D01*
X95550471Y-81783946D01*
X95528847Y-81773718D01*
X95508330Y-81761421D01*
X95489117Y-81747171D01*
X95471393Y-81731107D01*
X95455329Y-81713383D01*
X95441079Y-81694170D01*
X95428782Y-81673653D01*
X95418554Y-81652029D01*
X95410496Y-81629507D01*
X95404684Y-81606303D01*
X95401174Y-81582642D01*
X95400000Y-81558750D01*
X95400000Y-81071250D01*
X95401174Y-81047358D01*
X95404684Y-81023697D01*
X95410496Y-81000493D01*
X95418554Y-80977971D01*
X95428782Y-80956347D01*
X95441079Y-80935830D01*
X95455329Y-80916617D01*
X95471393Y-80898893D01*
X95489117Y-80882829D01*
X95508330Y-80868579D01*
X95528847Y-80856282D01*
X95550471Y-80846054D01*
X95572993Y-80837996D01*
X95596197Y-80832184D01*
X95619858Y-80828674D01*
X95643750Y-80827500D01*
X96556250Y-80827500D01*
X96580142Y-80828674D01*
X96580142Y-80828674D01*
G37*
D12*
X96100000Y-81315000D03*
D11*
G36*
X96580142Y-82703674D02*
G01*
X96603803Y-82707184D01*
X96627007Y-82712996D01*
X96649529Y-82721054D01*
X96671153Y-82731282D01*
X96691670Y-82743579D01*
X96710883Y-82757829D01*
X96728607Y-82773893D01*
X96744671Y-82791617D01*
X96758921Y-82810830D01*
X96771218Y-82831347D01*
X96781446Y-82852971D01*
X96789504Y-82875493D01*
X96795316Y-82898697D01*
X96798826Y-82922358D01*
X96800000Y-82946250D01*
X96800000Y-83433750D01*
X96798826Y-83457642D01*
X96795316Y-83481303D01*
X96789504Y-83504507D01*
X96781446Y-83527029D01*
X96771218Y-83548653D01*
X96758921Y-83569170D01*
X96744671Y-83588383D01*
X96728607Y-83606107D01*
X96710883Y-83622171D01*
X96691670Y-83636421D01*
X96671153Y-83648718D01*
X96649529Y-83658946D01*
X96627007Y-83667004D01*
X96603803Y-83672816D01*
X96580142Y-83676326D01*
X96556250Y-83677500D01*
X95643750Y-83677500D01*
X95619858Y-83676326D01*
X95596197Y-83672816D01*
X95572993Y-83667004D01*
X95550471Y-83658946D01*
X95528847Y-83648718D01*
X95508330Y-83636421D01*
X95489117Y-83622171D01*
X95471393Y-83606107D01*
X95455329Y-83588383D01*
X95441079Y-83569170D01*
X95428782Y-83548653D01*
X95418554Y-83527029D01*
X95410496Y-83504507D01*
X95404684Y-83481303D01*
X95401174Y-83457642D01*
X95400000Y-83433750D01*
X95400000Y-82946250D01*
X95401174Y-82922358D01*
X95404684Y-82898697D01*
X95410496Y-82875493D01*
X95418554Y-82852971D01*
X95428782Y-82831347D01*
X95441079Y-82810830D01*
X95455329Y-82791617D01*
X95471393Y-82773893D01*
X95489117Y-82757829D01*
X95508330Y-82743579D01*
X95528847Y-82731282D01*
X95550471Y-82721054D01*
X95572993Y-82712996D01*
X95596197Y-82707184D01*
X95619858Y-82703674D01*
X95643750Y-82702500D01*
X96556250Y-82702500D01*
X96580142Y-82703674D01*
X96580142Y-82703674D01*
G37*
D12*
X96100000Y-83190000D03*
D11*
G36*
X104342642Y-84581174D02*
G01*
X104366303Y-84584684D01*
X104389507Y-84590496D01*
X104412029Y-84598554D01*
X104433653Y-84608782D01*
X104454170Y-84621079D01*
X104473383Y-84635329D01*
X104491107Y-84651393D01*
X104507171Y-84669117D01*
X104521421Y-84688330D01*
X104533718Y-84708847D01*
X104543946Y-84730471D01*
X104552004Y-84752993D01*
X104557816Y-84776197D01*
X104561326Y-84799858D01*
X104562500Y-84823750D01*
X104562500Y-85736250D01*
X104561326Y-85760142D01*
X104557816Y-85783803D01*
X104552004Y-85807007D01*
X104543946Y-85829529D01*
X104533718Y-85851153D01*
X104521421Y-85871670D01*
X104507171Y-85890883D01*
X104491107Y-85908607D01*
X104473383Y-85924671D01*
X104454170Y-85938921D01*
X104433653Y-85951218D01*
X104412029Y-85961446D01*
X104389507Y-85969504D01*
X104366303Y-85975316D01*
X104342642Y-85978826D01*
X104318750Y-85980000D01*
X103831250Y-85980000D01*
X103807358Y-85978826D01*
X103783697Y-85975316D01*
X103760493Y-85969504D01*
X103737971Y-85961446D01*
X103716347Y-85951218D01*
X103695830Y-85938921D01*
X103676617Y-85924671D01*
X103658893Y-85908607D01*
X103642829Y-85890883D01*
X103628579Y-85871670D01*
X103616282Y-85851153D01*
X103606054Y-85829529D01*
X103597996Y-85807007D01*
X103592184Y-85783803D01*
X103588674Y-85760142D01*
X103587500Y-85736250D01*
X103587500Y-84823750D01*
X103588674Y-84799858D01*
X103592184Y-84776197D01*
X103597996Y-84752993D01*
X103606054Y-84730471D01*
X103616282Y-84708847D01*
X103628579Y-84688330D01*
X103642829Y-84669117D01*
X103658893Y-84651393D01*
X103676617Y-84635329D01*
X103695830Y-84621079D01*
X103716347Y-84608782D01*
X103737971Y-84598554D01*
X103760493Y-84590496D01*
X103783697Y-84584684D01*
X103807358Y-84581174D01*
X103831250Y-84580000D01*
X104318750Y-84580000D01*
X104342642Y-84581174D01*
X104342642Y-84581174D01*
G37*
D12*
X104075000Y-85280000D03*
D11*
G36*
X102467642Y-84581174D02*
G01*
X102491303Y-84584684D01*
X102514507Y-84590496D01*
X102537029Y-84598554D01*
X102558653Y-84608782D01*
X102579170Y-84621079D01*
X102598383Y-84635329D01*
X102616107Y-84651393D01*
X102632171Y-84669117D01*
X102646421Y-84688330D01*
X102658718Y-84708847D01*
X102668946Y-84730471D01*
X102677004Y-84752993D01*
X102682816Y-84776197D01*
X102686326Y-84799858D01*
X102687500Y-84823750D01*
X102687500Y-85736250D01*
X102686326Y-85760142D01*
X102682816Y-85783803D01*
X102677004Y-85807007D01*
X102668946Y-85829529D01*
X102658718Y-85851153D01*
X102646421Y-85871670D01*
X102632171Y-85890883D01*
X102616107Y-85908607D01*
X102598383Y-85924671D01*
X102579170Y-85938921D01*
X102558653Y-85951218D01*
X102537029Y-85961446D01*
X102514507Y-85969504D01*
X102491303Y-85975316D01*
X102467642Y-85978826D01*
X102443750Y-85980000D01*
X101956250Y-85980000D01*
X101932358Y-85978826D01*
X101908697Y-85975316D01*
X101885493Y-85969504D01*
X101862971Y-85961446D01*
X101841347Y-85951218D01*
X101820830Y-85938921D01*
X101801617Y-85924671D01*
X101783893Y-85908607D01*
X101767829Y-85890883D01*
X101753579Y-85871670D01*
X101741282Y-85851153D01*
X101731054Y-85829529D01*
X101722996Y-85807007D01*
X101717184Y-85783803D01*
X101713674Y-85760142D01*
X101712500Y-85736250D01*
X101712500Y-84823750D01*
X101713674Y-84799858D01*
X101717184Y-84776197D01*
X101722996Y-84752993D01*
X101731054Y-84730471D01*
X101741282Y-84708847D01*
X101753579Y-84688330D01*
X101767829Y-84669117D01*
X101783893Y-84651393D01*
X101801617Y-84635329D01*
X101820830Y-84621079D01*
X101841347Y-84608782D01*
X101862971Y-84598554D01*
X101885493Y-84590496D01*
X101908697Y-84584684D01*
X101932358Y-84581174D01*
X101956250Y-84580000D01*
X102443750Y-84580000D01*
X102467642Y-84581174D01*
X102467642Y-84581174D01*
G37*
D12*
X102200000Y-85280000D03*
D11*
G36*
X84300142Y-80846174D02*
G01*
X84323803Y-80849684D01*
X84347007Y-80855496D01*
X84369529Y-80863554D01*
X84391153Y-80873782D01*
X84411670Y-80886079D01*
X84430883Y-80900329D01*
X84448607Y-80916393D01*
X84464671Y-80934117D01*
X84478921Y-80953330D01*
X84491218Y-80973847D01*
X84501446Y-80995471D01*
X84509504Y-81017993D01*
X84515316Y-81041197D01*
X84518826Y-81064858D01*
X84520000Y-81088750D01*
X84520000Y-81576250D01*
X84518826Y-81600142D01*
X84515316Y-81623803D01*
X84509504Y-81647007D01*
X84501446Y-81669529D01*
X84491218Y-81691153D01*
X84478921Y-81711670D01*
X84464671Y-81730883D01*
X84448607Y-81748607D01*
X84430883Y-81764671D01*
X84411670Y-81778921D01*
X84391153Y-81791218D01*
X84369529Y-81801446D01*
X84347007Y-81809504D01*
X84323803Y-81815316D01*
X84300142Y-81818826D01*
X84276250Y-81820000D01*
X83363750Y-81820000D01*
X83339858Y-81818826D01*
X83316197Y-81815316D01*
X83292993Y-81809504D01*
X83270471Y-81801446D01*
X83248847Y-81791218D01*
X83228330Y-81778921D01*
X83209117Y-81764671D01*
X83191393Y-81748607D01*
X83175329Y-81730883D01*
X83161079Y-81711670D01*
X83148782Y-81691153D01*
X83138554Y-81669529D01*
X83130496Y-81647007D01*
X83124684Y-81623803D01*
X83121174Y-81600142D01*
X83120000Y-81576250D01*
X83120000Y-81088750D01*
X83121174Y-81064858D01*
X83124684Y-81041197D01*
X83130496Y-81017993D01*
X83138554Y-80995471D01*
X83148782Y-80973847D01*
X83161079Y-80953330D01*
X83175329Y-80934117D01*
X83191393Y-80916393D01*
X83209117Y-80900329D01*
X83228330Y-80886079D01*
X83248847Y-80873782D01*
X83270471Y-80863554D01*
X83292993Y-80855496D01*
X83316197Y-80849684D01*
X83339858Y-80846174D01*
X83363750Y-80845000D01*
X84276250Y-80845000D01*
X84300142Y-80846174D01*
X84300142Y-80846174D01*
G37*
D12*
X83820000Y-81332500D03*
D11*
G36*
X84300142Y-82721174D02*
G01*
X84323803Y-82724684D01*
X84347007Y-82730496D01*
X84369529Y-82738554D01*
X84391153Y-82748782D01*
X84411670Y-82761079D01*
X84430883Y-82775329D01*
X84448607Y-82791393D01*
X84464671Y-82809117D01*
X84478921Y-82828330D01*
X84491218Y-82848847D01*
X84501446Y-82870471D01*
X84509504Y-82892993D01*
X84515316Y-82916197D01*
X84518826Y-82939858D01*
X84520000Y-82963750D01*
X84520000Y-83451250D01*
X84518826Y-83475142D01*
X84515316Y-83498803D01*
X84509504Y-83522007D01*
X84501446Y-83544529D01*
X84491218Y-83566153D01*
X84478921Y-83586670D01*
X84464671Y-83605883D01*
X84448607Y-83623607D01*
X84430883Y-83639671D01*
X84411670Y-83653921D01*
X84391153Y-83666218D01*
X84369529Y-83676446D01*
X84347007Y-83684504D01*
X84323803Y-83690316D01*
X84300142Y-83693826D01*
X84276250Y-83695000D01*
X83363750Y-83695000D01*
X83339858Y-83693826D01*
X83316197Y-83690316D01*
X83292993Y-83684504D01*
X83270471Y-83676446D01*
X83248847Y-83666218D01*
X83228330Y-83653921D01*
X83209117Y-83639671D01*
X83191393Y-83623607D01*
X83175329Y-83605883D01*
X83161079Y-83586670D01*
X83148782Y-83566153D01*
X83138554Y-83544529D01*
X83130496Y-83522007D01*
X83124684Y-83498803D01*
X83121174Y-83475142D01*
X83120000Y-83451250D01*
X83120000Y-82963750D01*
X83121174Y-82939858D01*
X83124684Y-82916197D01*
X83130496Y-82892993D01*
X83138554Y-82870471D01*
X83148782Y-82848847D01*
X83161079Y-82828330D01*
X83175329Y-82809117D01*
X83191393Y-82791393D01*
X83209117Y-82775329D01*
X83228330Y-82761079D01*
X83248847Y-82748782D01*
X83270471Y-82738554D01*
X83292993Y-82730496D01*
X83316197Y-82724684D01*
X83339858Y-82721174D01*
X83363750Y-82720000D01*
X84276250Y-82720000D01*
X84300142Y-82721174D01*
X84300142Y-82721174D01*
G37*
D12*
X83820000Y-83207500D03*
D11*
G36*
X92781682Y-82394229D02*
G01*
X92805343Y-82397739D01*
X92828547Y-82403551D01*
X92851069Y-82411609D01*
X92872693Y-82421837D01*
X92893210Y-82434134D01*
X92912423Y-82448384D01*
X92930147Y-82464448D01*
X92946211Y-82482172D01*
X92960461Y-82501385D01*
X92972758Y-82521902D01*
X92982986Y-82543526D01*
X92991044Y-82566048D01*
X92996856Y-82589252D01*
X93000366Y-82612913D01*
X93001540Y-82636805D01*
X93001540Y-83549305D01*
X93000366Y-83573197D01*
X92996856Y-83596858D01*
X92991044Y-83620062D01*
X92982986Y-83642584D01*
X92972758Y-83664208D01*
X92960461Y-83684725D01*
X92946211Y-83703938D01*
X92930147Y-83721662D01*
X92912423Y-83737726D01*
X92893210Y-83751976D01*
X92872693Y-83764273D01*
X92851069Y-83774501D01*
X92828547Y-83782559D01*
X92805343Y-83788371D01*
X92781682Y-83791881D01*
X92757790Y-83793055D01*
X92270290Y-83793055D01*
X92246398Y-83791881D01*
X92222737Y-83788371D01*
X92199533Y-83782559D01*
X92177011Y-83774501D01*
X92155387Y-83764273D01*
X92134870Y-83751976D01*
X92115657Y-83737726D01*
X92097933Y-83721662D01*
X92081869Y-83703938D01*
X92067619Y-83684725D01*
X92055322Y-83664208D01*
X92045094Y-83642584D01*
X92037036Y-83620062D01*
X92031224Y-83596858D01*
X92027714Y-83573197D01*
X92026540Y-83549305D01*
X92026540Y-82636805D01*
X92027714Y-82612913D01*
X92031224Y-82589252D01*
X92037036Y-82566048D01*
X92045094Y-82543526D01*
X92055322Y-82521902D01*
X92067619Y-82501385D01*
X92081869Y-82482172D01*
X92097933Y-82464448D01*
X92115657Y-82448384D01*
X92134870Y-82434134D01*
X92155387Y-82421837D01*
X92177011Y-82411609D01*
X92199533Y-82403551D01*
X92222737Y-82397739D01*
X92246398Y-82394229D01*
X92270290Y-82393055D01*
X92757790Y-82393055D01*
X92781682Y-82394229D01*
X92781682Y-82394229D01*
G37*
D12*
X92514040Y-83093055D03*
D11*
G36*
X90906682Y-82394229D02*
G01*
X90930343Y-82397739D01*
X90953547Y-82403551D01*
X90976069Y-82411609D01*
X90997693Y-82421837D01*
X91018210Y-82434134D01*
X91037423Y-82448384D01*
X91055147Y-82464448D01*
X91071211Y-82482172D01*
X91085461Y-82501385D01*
X91097758Y-82521902D01*
X91107986Y-82543526D01*
X91116044Y-82566048D01*
X91121856Y-82589252D01*
X91125366Y-82612913D01*
X91126540Y-82636805D01*
X91126540Y-83549305D01*
X91125366Y-83573197D01*
X91121856Y-83596858D01*
X91116044Y-83620062D01*
X91107986Y-83642584D01*
X91097758Y-83664208D01*
X91085461Y-83684725D01*
X91071211Y-83703938D01*
X91055147Y-83721662D01*
X91037423Y-83737726D01*
X91018210Y-83751976D01*
X90997693Y-83764273D01*
X90976069Y-83774501D01*
X90953547Y-83782559D01*
X90930343Y-83788371D01*
X90906682Y-83791881D01*
X90882790Y-83793055D01*
X90395290Y-83793055D01*
X90371398Y-83791881D01*
X90347737Y-83788371D01*
X90324533Y-83782559D01*
X90302011Y-83774501D01*
X90280387Y-83764273D01*
X90259870Y-83751976D01*
X90240657Y-83737726D01*
X90222933Y-83721662D01*
X90206869Y-83703938D01*
X90192619Y-83684725D01*
X90180322Y-83664208D01*
X90170094Y-83642584D01*
X90162036Y-83620062D01*
X90156224Y-83596858D01*
X90152714Y-83573197D01*
X90151540Y-83549305D01*
X90151540Y-82636805D01*
X90152714Y-82612913D01*
X90156224Y-82589252D01*
X90162036Y-82566048D01*
X90170094Y-82543526D01*
X90180322Y-82521902D01*
X90192619Y-82501385D01*
X90206869Y-82482172D01*
X90222933Y-82464448D01*
X90240657Y-82448384D01*
X90259870Y-82434134D01*
X90280387Y-82421837D01*
X90302011Y-82411609D01*
X90324533Y-82403551D01*
X90347737Y-82397739D01*
X90371398Y-82394229D01*
X90395290Y-82393055D01*
X90882790Y-82393055D01*
X90906682Y-82394229D01*
X90906682Y-82394229D01*
G37*
D12*
X90639040Y-83093055D03*
D11*
G36*
X73330142Y-84538674D02*
G01*
X73353803Y-84542184D01*
X73377007Y-84547996D01*
X73399529Y-84556054D01*
X73421153Y-84566282D01*
X73441670Y-84578579D01*
X73460883Y-84592829D01*
X73478607Y-84608893D01*
X73494671Y-84626617D01*
X73508921Y-84645830D01*
X73521218Y-84666347D01*
X73531446Y-84687971D01*
X73539504Y-84710493D01*
X73545316Y-84733697D01*
X73548826Y-84757358D01*
X73550000Y-84781250D01*
X73550000Y-85268750D01*
X73548826Y-85292642D01*
X73545316Y-85316303D01*
X73539504Y-85339507D01*
X73531446Y-85362029D01*
X73521218Y-85383653D01*
X73508921Y-85404170D01*
X73494671Y-85423383D01*
X73478607Y-85441107D01*
X73460883Y-85457171D01*
X73441670Y-85471421D01*
X73421153Y-85483718D01*
X73399529Y-85493946D01*
X73377007Y-85502004D01*
X73353803Y-85507816D01*
X73330142Y-85511326D01*
X73306250Y-85512500D01*
X72393750Y-85512500D01*
X72369858Y-85511326D01*
X72346197Y-85507816D01*
X72322993Y-85502004D01*
X72300471Y-85493946D01*
X72278847Y-85483718D01*
X72258330Y-85471421D01*
X72239117Y-85457171D01*
X72221393Y-85441107D01*
X72205329Y-85423383D01*
X72191079Y-85404170D01*
X72178782Y-85383653D01*
X72168554Y-85362029D01*
X72160496Y-85339507D01*
X72154684Y-85316303D01*
X72151174Y-85292642D01*
X72150000Y-85268750D01*
X72150000Y-84781250D01*
X72151174Y-84757358D01*
X72154684Y-84733697D01*
X72160496Y-84710493D01*
X72168554Y-84687971D01*
X72178782Y-84666347D01*
X72191079Y-84645830D01*
X72205329Y-84626617D01*
X72221393Y-84608893D01*
X72239117Y-84592829D01*
X72258330Y-84578579D01*
X72278847Y-84566282D01*
X72300471Y-84556054D01*
X72322993Y-84547996D01*
X72346197Y-84542184D01*
X72369858Y-84538674D01*
X72393750Y-84537500D01*
X73306250Y-84537500D01*
X73330142Y-84538674D01*
X73330142Y-84538674D01*
G37*
D12*
X72850000Y-85025000D03*
D11*
G36*
X73330142Y-82663674D02*
G01*
X73353803Y-82667184D01*
X73377007Y-82672996D01*
X73399529Y-82681054D01*
X73421153Y-82691282D01*
X73441670Y-82703579D01*
X73460883Y-82717829D01*
X73478607Y-82733893D01*
X73494671Y-82751617D01*
X73508921Y-82770830D01*
X73521218Y-82791347D01*
X73531446Y-82812971D01*
X73539504Y-82835493D01*
X73545316Y-82858697D01*
X73548826Y-82882358D01*
X73550000Y-82906250D01*
X73550000Y-83393750D01*
X73548826Y-83417642D01*
X73545316Y-83441303D01*
X73539504Y-83464507D01*
X73531446Y-83487029D01*
X73521218Y-83508653D01*
X73508921Y-83529170D01*
X73494671Y-83548383D01*
X73478607Y-83566107D01*
X73460883Y-83582171D01*
X73441670Y-83596421D01*
X73421153Y-83608718D01*
X73399529Y-83618946D01*
X73377007Y-83627004D01*
X73353803Y-83632816D01*
X73330142Y-83636326D01*
X73306250Y-83637500D01*
X72393750Y-83637500D01*
X72369858Y-83636326D01*
X72346197Y-83632816D01*
X72322993Y-83627004D01*
X72300471Y-83618946D01*
X72278847Y-83608718D01*
X72258330Y-83596421D01*
X72239117Y-83582171D01*
X72221393Y-83566107D01*
X72205329Y-83548383D01*
X72191079Y-83529170D01*
X72178782Y-83508653D01*
X72168554Y-83487029D01*
X72160496Y-83464507D01*
X72154684Y-83441303D01*
X72151174Y-83417642D01*
X72150000Y-83393750D01*
X72150000Y-82906250D01*
X72151174Y-82882358D01*
X72154684Y-82858697D01*
X72160496Y-82835493D01*
X72168554Y-82812971D01*
X72178782Y-82791347D01*
X72191079Y-82770830D01*
X72205329Y-82751617D01*
X72221393Y-82733893D01*
X72239117Y-82717829D01*
X72258330Y-82703579D01*
X72278847Y-82691282D01*
X72300471Y-82681054D01*
X72322993Y-82672996D01*
X72346197Y-82667184D01*
X72369858Y-82663674D01*
X72393750Y-82662500D01*
X73306250Y-82662500D01*
X73330142Y-82663674D01*
X73330142Y-82663674D01*
G37*
D12*
X72850000Y-83150000D03*
D11*
G36*
X81781682Y-82404229D02*
G01*
X81805343Y-82407739D01*
X81828547Y-82413551D01*
X81851069Y-82421609D01*
X81872693Y-82431837D01*
X81893210Y-82444134D01*
X81912423Y-82458384D01*
X81930147Y-82474448D01*
X81946211Y-82492172D01*
X81960461Y-82511385D01*
X81972758Y-82531902D01*
X81982986Y-82553526D01*
X81991044Y-82576048D01*
X81996856Y-82599252D01*
X82000366Y-82622913D01*
X82001540Y-82646805D01*
X82001540Y-83559305D01*
X82000366Y-83583197D01*
X81996856Y-83606858D01*
X81991044Y-83630062D01*
X81982986Y-83652584D01*
X81972758Y-83674208D01*
X81960461Y-83694725D01*
X81946211Y-83713938D01*
X81930147Y-83731662D01*
X81912423Y-83747726D01*
X81893210Y-83761976D01*
X81872693Y-83774273D01*
X81851069Y-83784501D01*
X81828547Y-83792559D01*
X81805343Y-83798371D01*
X81781682Y-83801881D01*
X81757790Y-83803055D01*
X81270290Y-83803055D01*
X81246398Y-83801881D01*
X81222737Y-83798371D01*
X81199533Y-83792559D01*
X81177011Y-83784501D01*
X81155387Y-83774273D01*
X81134870Y-83761976D01*
X81115657Y-83747726D01*
X81097933Y-83731662D01*
X81081869Y-83713938D01*
X81067619Y-83694725D01*
X81055322Y-83674208D01*
X81045094Y-83652584D01*
X81037036Y-83630062D01*
X81031224Y-83606858D01*
X81027714Y-83583197D01*
X81026540Y-83559305D01*
X81026540Y-82646805D01*
X81027714Y-82622913D01*
X81031224Y-82599252D01*
X81037036Y-82576048D01*
X81045094Y-82553526D01*
X81055322Y-82531902D01*
X81067619Y-82511385D01*
X81081869Y-82492172D01*
X81097933Y-82474448D01*
X81115657Y-82458384D01*
X81134870Y-82444134D01*
X81155387Y-82431837D01*
X81177011Y-82421609D01*
X81199533Y-82413551D01*
X81222737Y-82407739D01*
X81246398Y-82404229D01*
X81270290Y-82403055D01*
X81757790Y-82403055D01*
X81781682Y-82404229D01*
X81781682Y-82404229D01*
G37*
D12*
X81514040Y-83103055D03*
D11*
G36*
X79906682Y-82404229D02*
G01*
X79930343Y-82407739D01*
X79953547Y-82413551D01*
X79976069Y-82421609D01*
X79997693Y-82431837D01*
X80018210Y-82444134D01*
X80037423Y-82458384D01*
X80055147Y-82474448D01*
X80071211Y-82492172D01*
X80085461Y-82511385D01*
X80097758Y-82531902D01*
X80107986Y-82553526D01*
X80116044Y-82576048D01*
X80121856Y-82599252D01*
X80125366Y-82622913D01*
X80126540Y-82646805D01*
X80126540Y-83559305D01*
X80125366Y-83583197D01*
X80121856Y-83606858D01*
X80116044Y-83630062D01*
X80107986Y-83652584D01*
X80097758Y-83674208D01*
X80085461Y-83694725D01*
X80071211Y-83713938D01*
X80055147Y-83731662D01*
X80037423Y-83747726D01*
X80018210Y-83761976D01*
X79997693Y-83774273D01*
X79976069Y-83784501D01*
X79953547Y-83792559D01*
X79930343Y-83798371D01*
X79906682Y-83801881D01*
X79882790Y-83803055D01*
X79395290Y-83803055D01*
X79371398Y-83801881D01*
X79347737Y-83798371D01*
X79324533Y-83792559D01*
X79302011Y-83784501D01*
X79280387Y-83774273D01*
X79259870Y-83761976D01*
X79240657Y-83747726D01*
X79222933Y-83731662D01*
X79206869Y-83713938D01*
X79192619Y-83694725D01*
X79180322Y-83674208D01*
X79170094Y-83652584D01*
X79162036Y-83630062D01*
X79156224Y-83606858D01*
X79152714Y-83583197D01*
X79151540Y-83559305D01*
X79151540Y-82646805D01*
X79152714Y-82622913D01*
X79156224Y-82599252D01*
X79162036Y-82576048D01*
X79170094Y-82553526D01*
X79180322Y-82531902D01*
X79192619Y-82511385D01*
X79206869Y-82492172D01*
X79222933Y-82474448D01*
X79240657Y-82458384D01*
X79259870Y-82444134D01*
X79280387Y-82431837D01*
X79302011Y-82421609D01*
X79324533Y-82413551D01*
X79347737Y-82407739D01*
X79371398Y-82404229D01*
X79395290Y-82403055D01*
X79882790Y-82403055D01*
X79906682Y-82404229D01*
X79906682Y-82404229D01*
G37*
D12*
X79639040Y-83103055D03*
D10*
X101072721Y-64784428D03*
X101072721Y-59704428D03*
X98532721Y-59704428D03*
X98532721Y-64784428D03*
X86532721Y-64784428D03*
X86532721Y-59704428D03*
X89072721Y-59704428D03*
X89072721Y-64784428D03*
X74992721Y-64704428D03*
X74992721Y-59624428D03*
X77532721Y-59624428D03*
X77532721Y-64704428D03*
X100944040Y-83183055D03*
X100944040Y-78103055D03*
X98404040Y-78103055D03*
X98404040Y-83183055D03*
X85944040Y-83103055D03*
X85944040Y-78023055D03*
X88484040Y-78023055D03*
X88484040Y-83103055D03*
D15*
X93970000Y-84080000D03*
X71189998Y-85045000D03*
X81620000Y-85190000D03*
D16*
X87294720Y-60466427D02*
X86532721Y-59704428D01*
X87619722Y-60791429D02*
X87294720Y-60466427D01*
X97445720Y-60791429D02*
X87619722Y-60791429D01*
X98532721Y-59704428D02*
X97445720Y-60791429D01*
X75754720Y-60386427D02*
X74992721Y-59624428D01*
X76079722Y-60711429D02*
X75754720Y-60386427D01*
X85525720Y-60711429D02*
X76079722Y-60711429D01*
X86532721Y-59704428D02*
X85525720Y-60711429D01*
X72695572Y-59624428D02*
X71460000Y-60860000D01*
X74992721Y-59624428D02*
X72695572Y-59624428D01*
X75358150Y-69000000D02*
X75308150Y-69050000D01*
X76000000Y-69000000D02*
X75358150Y-69000000D01*
X75308150Y-69050000D02*
X71780000Y-69050000D01*
X71780000Y-69050000D02*
X70430000Y-67700000D01*
X70430000Y-61890000D02*
X71460000Y-60860000D01*
X70430000Y-67700000D02*
X70430000Y-61890000D01*
X84979989Y-65649989D02*
X87505001Y-68175001D01*
X87505001Y-68175001D02*
X88355000Y-69025000D01*
X83157489Y-65649989D02*
X84979989Y-65649989D01*
X82327500Y-64820000D02*
X83157489Y-65649989D01*
X81740000Y-64820000D02*
X82327500Y-64820000D01*
X94887500Y-66697500D02*
X103640000Y-66697500D01*
X92930000Y-64740000D02*
X94887500Y-66697500D01*
X99294720Y-60466427D02*
X98532721Y-59704428D01*
X102525720Y-63697427D02*
X99294720Y-60466427D01*
X104019277Y-63697427D02*
X102525720Y-63697427D01*
X104665010Y-64343160D02*
X104019277Y-63697427D01*
X104665010Y-65672490D02*
X104665010Y-64343160D01*
X103640000Y-66697500D02*
X104665010Y-65672490D01*
X97642041Y-77341056D02*
X98404040Y-78103055D01*
X97237039Y-76936054D02*
X97642041Y-77341056D01*
X87031041Y-76936054D02*
X97237039Y-76936054D01*
X85944040Y-78023055D02*
X87031041Y-76936054D01*
X76031041Y-77016054D02*
X84937039Y-77016054D01*
X74944040Y-78103055D02*
X76031041Y-77016054D01*
X85182041Y-77261056D02*
X85944040Y-78023055D01*
X84937039Y-77016054D02*
X85182041Y-77261056D01*
X87505001Y-86550001D02*
X88355000Y-87400000D01*
X87179999Y-86224999D02*
X87505001Y-86550001D01*
X84635984Y-86224999D02*
X87179999Y-86224999D01*
X81514040Y-83103055D02*
X84635984Y-86224999D01*
X87505001Y-88249999D02*
X88355000Y-87400000D01*
X87179999Y-88575001D02*
X87505001Y-88249999D01*
X78067501Y-88575001D02*
X87179999Y-88575001D01*
X76922500Y-87430000D02*
X78067501Y-88575001D01*
X92514040Y-83093055D02*
X92983055Y-83093055D01*
X92983055Y-83093055D02*
X93970000Y-84080000D01*
X104075000Y-84442095D02*
X104075000Y-85280000D01*
X99491041Y-77016054D02*
X101465801Y-77016054D01*
X98404040Y-78103055D02*
X99491041Y-77016054D01*
X101465801Y-77016054D02*
X103330000Y-78880253D01*
X103330000Y-78880253D02*
X103330000Y-82350000D01*
X103330000Y-82350000D02*
X104075000Y-83095000D01*
X104075000Y-83095000D02*
X104075000Y-84442095D01*
X103626237Y-67271237D02*
X107741237Y-67271237D01*
X103070000Y-66715000D02*
X103626237Y-67271237D01*
X112575010Y-73755943D02*
X109330953Y-77000000D01*
X107741237Y-67271237D02*
X112575010Y-72105010D01*
X112575010Y-72105010D02*
X112575010Y-73755943D01*
X101481855Y-77000000D02*
X101465801Y-77016054D01*
X109330953Y-77000000D02*
X101481855Y-77000000D01*
X74900985Y-78060000D02*
X74944040Y-78103055D01*
X72200000Y-78060000D02*
X74900985Y-78060000D01*
X71174990Y-81882996D02*
X71174990Y-79085010D01*
X76335000Y-87430000D02*
X75085000Y-86180000D01*
X76922500Y-87430000D02*
X76335000Y-87430000D01*
X75085000Y-86180000D02*
X71200000Y-86180000D01*
X71200000Y-86180000D02*
X70400000Y-85380000D01*
X70400000Y-85380000D02*
X70400000Y-82657986D01*
X71174990Y-79085010D02*
X72200000Y-78060000D01*
X70400000Y-82657986D02*
X71174990Y-81882996D01*
X83977500Y-62672500D02*
X84230000Y-62925000D01*
X72410000Y-62672500D02*
X83977500Y-62672500D01*
X95732500Y-62925000D02*
X95830000Y-63022500D01*
X84230000Y-62925000D02*
X95732500Y-62925000D01*
X71384990Y-63697510D02*
X71372490Y-63697510D01*
X72410000Y-62672500D02*
X71384990Y-63697510D01*
X71372490Y-63697510D02*
X71070000Y-64000000D01*
X71070000Y-64711850D02*
X71060000Y-64721850D01*
X71070000Y-64000000D02*
X71070000Y-64711850D01*
X71060000Y-64721850D02*
X71060000Y-65600000D01*
X71060000Y-65600000D02*
X72550000Y-67090000D01*
X75965000Y-67090000D02*
X77875000Y-69000000D01*
X72550000Y-67090000D02*
X75965000Y-67090000D01*
X83250000Y-69000000D02*
X83275000Y-69025000D01*
X77875000Y-69000000D02*
X83250000Y-69000000D01*
X96082500Y-81332500D02*
X96100000Y-81315000D01*
X83820000Y-81332500D02*
X96082500Y-81332500D01*
X76397039Y-83338818D02*
X76397039Y-81672961D01*
X72390000Y-85045000D02*
X74690857Y-85045000D01*
X74690857Y-85045000D02*
X76397039Y-83338818D01*
X76737500Y-81332500D02*
X83820000Y-81332500D01*
X76397039Y-81672961D02*
X76737500Y-81332500D01*
X78827500Y-87400000D02*
X78797500Y-87430000D01*
X83275000Y-87400000D02*
X78827500Y-87400000D01*
X76412500Y-85045000D02*
X72390000Y-85045000D01*
X78797500Y-87430000D02*
X76412500Y-85045000D01*
X72390000Y-85045000D02*
X71189998Y-85045000D01*
X76770722Y-58862429D02*
X77532721Y-59624428D01*
X76445720Y-58537427D02*
X76770722Y-58862429D01*
X72707573Y-58537427D02*
X76445720Y-58537427D01*
X72260000Y-58985000D02*
X72707573Y-58537427D01*
X71460000Y-58985000D02*
X72260000Y-58985000D01*
X88310722Y-58942429D02*
X89072721Y-59704428D01*
X87985720Y-58617427D02*
X88310722Y-58942429D01*
X78539722Y-58617427D02*
X87985720Y-58617427D01*
X77532721Y-59624428D02*
X78539722Y-58617427D01*
X100310722Y-58942429D02*
X101072721Y-59704428D01*
X99985720Y-58617427D02*
X100310722Y-58942429D01*
X90159722Y-58617427D02*
X99985720Y-58617427D01*
X89072721Y-59704428D02*
X90159722Y-58617427D01*
X89246039Y-78785054D02*
X88484040Y-78023055D01*
X89651041Y-79190056D02*
X89246039Y-78785054D01*
X99857039Y-79190056D02*
X89651041Y-79190056D01*
X100944040Y-78103055D02*
X99857039Y-79190056D01*
X78246039Y-78865054D02*
X77484040Y-78103055D01*
X78491041Y-79110056D02*
X78246039Y-78865054D01*
X87397039Y-79110056D02*
X78491041Y-79110056D01*
X88484040Y-78023055D02*
X87397039Y-79110056D01*
X75652095Y-79935000D02*
X77484040Y-78103055D01*
X75647095Y-79930000D02*
X75652095Y-79935000D01*
X72870000Y-79930000D02*
X75647095Y-79930000D01*
X103601928Y-64784428D02*
X103640000Y-64822500D01*
X103014428Y-64784428D02*
X103070000Y-64840000D01*
X101072721Y-64784428D02*
X103014428Y-64784428D01*
X91010572Y-64784428D02*
X91055000Y-64740000D01*
X89072721Y-64784428D02*
X91010572Y-64784428D01*
X91055000Y-66645000D02*
X93435000Y-69025000D01*
X91055000Y-64740000D02*
X91055000Y-66645000D01*
X77648293Y-64820000D02*
X77532721Y-64704428D01*
X79865000Y-64820000D02*
X77648293Y-64820000D01*
X80560000Y-66280000D02*
X79865000Y-65585000D01*
X89510000Y-70410000D02*
X85460998Y-70410000D01*
X90895000Y-69025000D02*
X89510000Y-70410000D01*
X79865000Y-65585000D02*
X79865000Y-64820000D01*
X85460998Y-70410000D02*
X84450001Y-69399003D01*
X84450001Y-69399003D02*
X84450001Y-67914999D01*
X84450001Y-67914999D02*
X82815002Y-66280000D01*
X82815002Y-66280000D02*
X80560000Y-66280000D01*
X79559040Y-83183055D02*
X79639040Y-83103055D01*
X77484040Y-83183055D02*
X79559040Y-83183055D01*
X79639040Y-83103055D02*
X81620000Y-85084015D01*
X81620000Y-85084015D02*
X81620000Y-85190000D01*
X90629040Y-83103055D02*
X90639040Y-83093055D01*
X88484040Y-83103055D02*
X90629040Y-83103055D01*
X102200000Y-84439015D02*
X102200000Y-85280000D01*
X100944040Y-83183055D02*
X102200000Y-84439015D01*
X98419649Y-64897500D02*
X98532721Y-64784428D01*
X95830000Y-64897500D02*
X98419649Y-64897500D01*
X84245572Y-64784428D02*
X84230000Y-64800000D01*
X86532721Y-64784428D02*
X84245572Y-64784428D01*
X72566928Y-64704428D02*
X72410000Y-64547500D01*
X74828293Y-64540000D02*
X74992721Y-64704428D01*
X72900000Y-64540000D02*
X74828293Y-64540000D01*
X98397095Y-83190000D02*
X98404040Y-83183055D01*
X96100000Y-83190000D02*
X98397095Y-83190000D01*
X85839595Y-83207500D02*
X85944040Y-83103055D01*
X83820000Y-83207500D02*
X85839595Y-83207500D01*
X72403055Y-83183055D02*
X72390000Y-83170000D01*
X74182041Y-82421056D02*
X74944040Y-83183055D01*
X73578944Y-82421056D02*
X74182041Y-82421056D01*
X72850000Y-83150000D02*
X73578944Y-82421056D01*
D17*
G36*
X77930208Y-88509792D02*
G01*
X78063836Y-88619458D01*
X78216291Y-88700947D01*
X78381715Y-88751128D01*
X78522560Y-88765000D01*
X77472542Y-88765000D01*
X77595223Y-88740597D01*
X77710785Y-88692730D01*
X77814789Y-88623237D01*
X77903237Y-88534789D01*
X77924548Y-88502895D01*
X77930208Y-88509792D01*
X77930208Y-88509792D01*
G37*
X77930208Y-88509792D02*
X78063836Y-88619458D01*
X78216291Y-88700947D01*
X78381715Y-88751128D01*
X78522560Y-88765000D01*
X77472542Y-88765000D01*
X77595223Y-88740597D01*
X77710785Y-88692730D01*
X77814789Y-88623237D01*
X77903237Y-88534789D01*
X77924548Y-88502895D01*
X77930208Y-88509792D01*
G36*
X112265000Y-88765000D02*
G01*
X96571476Y-88765000D01*
X96804014Y-88640706D01*
X97030134Y-88455134D01*
X97215706Y-88229014D01*
X97353599Y-87971034D01*
X97438513Y-87691111D01*
X97467185Y-87400000D01*
X97438513Y-87108889D01*
X97353599Y-86828966D01*
X97215706Y-86570986D01*
X97030134Y-86344866D01*
X96804014Y-86159294D01*
X96546034Y-86021401D01*
X96266111Y-85936487D01*
X96047950Y-85915000D01*
X95902050Y-85915000D01*
X95683889Y-85936487D01*
X95403966Y-86021401D01*
X95145986Y-86159294D01*
X94919866Y-86344866D01*
X94734294Y-86570986D01*
X94705000Y-86625791D01*
X94675706Y-86570986D01*
X94490134Y-86344866D01*
X94264014Y-86159294D01*
X94006034Y-86021401D01*
X93726111Y-85936487D01*
X93507950Y-85915000D01*
X93362050Y-85915000D01*
X93143889Y-85936487D01*
X92863966Y-86021401D01*
X92605986Y-86159294D01*
X92379866Y-86344866D01*
X92194294Y-86570986D01*
X92165000Y-86625791D01*
X92135706Y-86570986D01*
X91950134Y-86344866D01*
X91724014Y-86159294D01*
X91466034Y-86021401D01*
X91186111Y-85936487D01*
X90967950Y-85915000D01*
X90822050Y-85915000D01*
X90603889Y-85936487D01*
X90323966Y-86021401D01*
X90065986Y-86159294D01*
X89839866Y-86344866D01*
X89654294Y-86570986D01*
X89619799Y-86635523D01*
X89550178Y-86518645D01*
X89355269Y-86302412D01*
X89121920Y-86128359D01*
X88859099Y-86003175D01*
X88711890Y-85958524D01*
X88482000Y-86079845D01*
X88482000Y-87273000D01*
X88502000Y-87273000D01*
X88502000Y-87527000D01*
X88482000Y-87527000D01*
X88482000Y-87547000D01*
X88228000Y-87547000D01*
X88228000Y-87527000D01*
X88208000Y-87527000D01*
X88208000Y-87273000D01*
X88228000Y-87273000D01*
X88228000Y-86079845D01*
X87998110Y-85958524D01*
X87850901Y-86003175D01*
X87588080Y-86128359D01*
X87354731Y-86302412D01*
X87159822Y-86518645D01*
X87090201Y-86635523D01*
X87055706Y-86570986D01*
X86870134Y-86344866D01*
X86644014Y-86159294D01*
X86386034Y-86021401D01*
X86106111Y-85936487D01*
X85887950Y-85915000D01*
X85742050Y-85915000D01*
X85523889Y-85936487D01*
X85243966Y-86021401D01*
X84985986Y-86159294D01*
X84759866Y-86344866D01*
X84735393Y-86374687D01*
X84714502Y-86305820D01*
X84655537Y-86195506D01*
X84576185Y-86098815D01*
X84479494Y-86019463D01*
X84369180Y-85960498D01*
X84249482Y-85924188D01*
X84125000Y-85911928D01*
X82425000Y-85911928D01*
X82354877Y-85918834D01*
X82423937Y-85849774D01*
X82537205Y-85680256D01*
X82615226Y-85491898D01*
X82655000Y-85291939D01*
X82655000Y-85088061D01*
X82615226Y-84888102D01*
X82537205Y-84699744D01*
X82423937Y-84530226D01*
X82279774Y-84386063D01*
X82269669Y-84379311D01*
X82302325Y-84365785D01*
X82406329Y-84296292D01*
X82494777Y-84207844D01*
X82564270Y-84103840D01*
X82612137Y-83988278D01*
X82623959Y-83928847D01*
X82630542Y-83941164D01*
X82740208Y-84074792D01*
X82873836Y-84184458D01*
X83026291Y-84265947D01*
X83191715Y-84316128D01*
X83363750Y-84333072D01*
X84276250Y-84333072D01*
X84448285Y-84316128D01*
X84613709Y-84265947D01*
X84766164Y-84184458D01*
X84899792Y-84074792D01*
X84917971Y-84052641D01*
X85053505Y-84188175D01*
X85282313Y-84341060D01*
X85536550Y-84446369D01*
X85806448Y-84500055D01*
X86081632Y-84500055D01*
X86351530Y-84446369D01*
X86605767Y-84341060D01*
X86834575Y-84188175D01*
X87029160Y-83993590D01*
X87182045Y-83764782D01*
X87214040Y-83687540D01*
X87246035Y-83764782D01*
X87398920Y-83993590D01*
X87593505Y-84188175D01*
X87822313Y-84341060D01*
X88076550Y-84446369D01*
X88346448Y-84500055D01*
X88621632Y-84500055D01*
X88891530Y-84446369D01*
X89145767Y-84341060D01*
X89374575Y-84188175D01*
X89569160Y-83993590D01*
X89607235Y-83936607D01*
X89662082Y-84039219D01*
X89771748Y-84172847D01*
X89905376Y-84282513D01*
X90057831Y-84364002D01*
X90223255Y-84414183D01*
X90395290Y-84431127D01*
X90882790Y-84431127D01*
X91054825Y-84414183D01*
X91220249Y-84364002D01*
X91372704Y-84282513D01*
X91506332Y-84172847D01*
X91511992Y-84165950D01*
X91533303Y-84197844D01*
X91621751Y-84286292D01*
X91725755Y-84355785D01*
X91841317Y-84403652D01*
X91963998Y-84428055D01*
X92228290Y-84428055D01*
X92387040Y-84269305D01*
X92387040Y-83220055D01*
X92641040Y-83220055D01*
X92641040Y-84269305D01*
X92799790Y-84428055D01*
X93064082Y-84428055D01*
X93186763Y-84403652D01*
X93302325Y-84355785D01*
X93406329Y-84286292D01*
X93494777Y-84197844D01*
X93564270Y-84093840D01*
X93612137Y-83978278D01*
X93636540Y-83855597D01*
X93636540Y-83378805D01*
X93477790Y-83220055D01*
X92641040Y-83220055D01*
X92387040Y-83220055D01*
X92367040Y-83220055D01*
X92367040Y-82966055D01*
X92387040Y-82966055D01*
X92387040Y-82946055D01*
X92641040Y-82946055D01*
X92641040Y-82966055D01*
X93477790Y-82966055D01*
X93636540Y-82807305D01*
X93636540Y-82330513D01*
X93612137Y-82207832D01*
X93564365Y-82092500D01*
X94946517Y-82092500D01*
X95020208Y-82182292D01*
X95105756Y-82252500D01*
X95020208Y-82322708D01*
X94910542Y-82456336D01*
X94829053Y-82608791D01*
X94778872Y-82774215D01*
X94761928Y-82946250D01*
X94761928Y-83433750D01*
X94778872Y-83605785D01*
X94829053Y-83771209D01*
X94910542Y-83923664D01*
X95020208Y-84057292D01*
X95153836Y-84166958D01*
X95306291Y-84248447D01*
X95471715Y-84298628D01*
X95643750Y-84315572D01*
X96556250Y-84315572D01*
X96728285Y-84298628D01*
X96893709Y-84248447D01*
X97046164Y-84166958D01*
X97179792Y-84057292D01*
X97250479Y-83971160D01*
X97318920Y-84073590D01*
X97513505Y-84268175D01*
X97742313Y-84421060D01*
X97996550Y-84526369D01*
X98266448Y-84580055D01*
X98541632Y-84580055D01*
X98811530Y-84526369D01*
X99065767Y-84421060D01*
X99294575Y-84268175D01*
X99489160Y-84073590D01*
X99642045Y-83844782D01*
X99674040Y-83767540D01*
X99706035Y-83844782D01*
X99858920Y-84073590D01*
X100053505Y-84268175D01*
X100282313Y-84421060D01*
X100536550Y-84526369D01*
X100806448Y-84580055D01*
X101081632Y-84580055D01*
X101115131Y-84573392D01*
X101091372Y-84651715D01*
X101074428Y-84823750D01*
X101074428Y-85736250D01*
X101091372Y-85908285D01*
X101141553Y-86073709D01*
X101223042Y-86226164D01*
X101332708Y-86359792D01*
X101466336Y-86469458D01*
X101618791Y-86550947D01*
X101784215Y-86601128D01*
X101956250Y-86618072D01*
X102443750Y-86618072D01*
X102615785Y-86601128D01*
X102781209Y-86550947D01*
X102933664Y-86469458D01*
X103067292Y-86359792D01*
X103072952Y-86352895D01*
X103094263Y-86384789D01*
X103182711Y-86473237D01*
X103286715Y-86542730D01*
X103402277Y-86590597D01*
X103524958Y-86615000D01*
X103789250Y-86615000D01*
X103948000Y-86456250D01*
X103948000Y-85407000D01*
X104202000Y-85407000D01*
X104202000Y-86456250D01*
X104360750Y-86615000D01*
X104625042Y-86615000D01*
X104747723Y-86590597D01*
X104863285Y-86542730D01*
X104967289Y-86473237D01*
X105055737Y-86384789D01*
X105125230Y-86280785D01*
X105173097Y-86165223D01*
X105197500Y-86042542D01*
X105197500Y-85565750D01*
X105038750Y-85407000D01*
X104202000Y-85407000D01*
X103948000Y-85407000D01*
X103928000Y-85407000D01*
X103928000Y-85153000D01*
X103948000Y-85153000D01*
X103948000Y-84103750D01*
X104202000Y-84103750D01*
X104202000Y-85153000D01*
X105038750Y-85153000D01*
X105197500Y-84994250D01*
X105197500Y-84517458D01*
X105173097Y-84394777D01*
X105125230Y-84279215D01*
X105055737Y-84175211D01*
X104967289Y-84086763D01*
X104863285Y-84017270D01*
X104747723Y-83969403D01*
X104625042Y-83945000D01*
X104360750Y-83945000D01*
X104202000Y-84103750D01*
X103948000Y-84103750D01*
X103789250Y-83945000D01*
X103524958Y-83945000D01*
X103402277Y-83969403D01*
X103286715Y-84017270D01*
X103182711Y-84086763D01*
X103094263Y-84175211D01*
X103072952Y-84207105D01*
X103067292Y-84200208D01*
X102933664Y-84090542D01*
X102852224Y-84047011D01*
X102834974Y-84014739D01*
X102740001Y-83899014D01*
X102711004Y-83875217D01*
X102310412Y-83474625D01*
X102341040Y-83320647D01*
X102341040Y-83045463D01*
X102287354Y-82775565D01*
X102182045Y-82521328D01*
X102029160Y-82292520D01*
X101834575Y-82097935D01*
X101605767Y-81945050D01*
X101351530Y-81839741D01*
X101081632Y-81786055D01*
X100806448Y-81786055D01*
X100536550Y-81839741D01*
X100282313Y-81945050D01*
X100053505Y-82097935D01*
X99858920Y-82292520D01*
X99706035Y-82521328D01*
X99674040Y-82598570D01*
X99642045Y-82521328D01*
X99489160Y-82292520D01*
X99294575Y-82097935D01*
X99065767Y-81945050D01*
X98811530Y-81839741D01*
X98541632Y-81786055D01*
X98266448Y-81786055D01*
X97996550Y-81839741D01*
X97742313Y-81945050D01*
X97513505Y-82097935D01*
X97318920Y-82292520D01*
X97245363Y-82402606D01*
X97179792Y-82322708D01*
X97094244Y-82252500D01*
X97179792Y-82182292D01*
X97289458Y-82048664D01*
X97370947Y-81896209D01*
X97406237Y-81779872D01*
X105755000Y-81779872D01*
X105755000Y-82220128D01*
X105840890Y-82651925D01*
X106009369Y-83058669D01*
X106253962Y-83424729D01*
X106565271Y-83736038D01*
X106931331Y-83980631D01*
X107338075Y-84149110D01*
X107769872Y-84235000D01*
X108210128Y-84235000D01*
X108641925Y-84149110D01*
X109048669Y-83980631D01*
X109414729Y-83736038D01*
X109726038Y-83424729D01*
X109970631Y-83058669D01*
X110139110Y-82651925D01*
X110225000Y-82220128D01*
X110225000Y-81779872D01*
X110139110Y-81348075D01*
X109970631Y-80941331D01*
X109726038Y-80575271D01*
X109414729Y-80263962D01*
X109048669Y-80019369D01*
X108641925Y-79850890D01*
X108210128Y-79765000D01*
X107769872Y-79765000D01*
X107338075Y-79850890D01*
X106931331Y-80019369D01*
X106565271Y-80263962D01*
X106253962Y-80575271D01*
X106009369Y-80941331D01*
X105840890Y-81348075D01*
X105755000Y-81779872D01*
X97406237Y-81779872D01*
X97421128Y-81730785D01*
X97438072Y-81558750D01*
X97438072Y-81071250D01*
X97421128Y-80899215D01*
X97370947Y-80733791D01*
X97289458Y-80581336D01*
X97179792Y-80447708D01*
X97046164Y-80338042D01*
X96893709Y-80256553D01*
X96728285Y-80206372D01*
X96556250Y-80189428D01*
X95643750Y-80189428D01*
X95471715Y-80206372D01*
X95306291Y-80256553D01*
X95153836Y-80338042D01*
X95020208Y-80447708D01*
X94917794Y-80572500D01*
X84987845Y-80572500D01*
X84899792Y-80465208D01*
X84766164Y-80355542D01*
X84613709Y-80274053D01*
X84448285Y-80223872D01*
X84276250Y-80206928D01*
X83363750Y-80206928D01*
X83191715Y-80223872D01*
X83026291Y-80274053D01*
X82873836Y-80355542D01*
X82740208Y-80465208D01*
X82652155Y-80572500D01*
X76774833Y-80572500D01*
X76737500Y-80568823D01*
X76700167Y-80572500D01*
X76588514Y-80583497D01*
X76445253Y-80626954D01*
X76313224Y-80697526D01*
X76197499Y-80792499D01*
X76173696Y-80821503D01*
X75886037Y-81109162D01*
X75857039Y-81132960D01*
X75833241Y-81161958D01*
X75833240Y-81161959D01*
X75762065Y-81248685D01*
X75691493Y-81380715D01*
X75648037Y-81523976D01*
X75633363Y-81672961D01*
X75637040Y-81710293D01*
X75637040Y-81965946D01*
X75605767Y-81945050D01*
X75351530Y-81839741D01*
X75081632Y-81786055D01*
X74806448Y-81786055D01*
X74645334Y-81818103D01*
X74606317Y-81786082D01*
X74474288Y-81715510D01*
X74331027Y-81672053D01*
X74219374Y-81661056D01*
X74219363Y-81661056D01*
X74182041Y-81657380D01*
X74144719Y-81661056D01*
X73616266Y-81661056D01*
X73578943Y-81657380D01*
X73541620Y-81661056D01*
X73541611Y-81661056D01*
X73429958Y-81672053D01*
X73286697Y-81715510D01*
X73154668Y-81786082D01*
X73154666Y-81786083D01*
X73154667Y-81786083D01*
X73067940Y-81857257D01*
X73067936Y-81857261D01*
X73038943Y-81881055D01*
X73015149Y-81910048D01*
X72900769Y-82024428D01*
X72393750Y-82024428D01*
X72221715Y-82041372D01*
X72056291Y-82091553D01*
X71903836Y-82173042D01*
X71770208Y-82282708D01*
X71660542Y-82416336D01*
X71579053Y-82568791D01*
X71528872Y-82734215D01*
X71511928Y-82906250D01*
X71511928Y-83393750D01*
X71528872Y-83565785D01*
X71579053Y-83731209D01*
X71660542Y-83883664D01*
X71770208Y-84017292D01*
X71855756Y-84087500D01*
X71770208Y-84157708D01*
X71754205Y-84177207D01*
X71680254Y-84127795D01*
X71491896Y-84049774D01*
X71291937Y-84010000D01*
X71088059Y-84010000D01*
X70888100Y-84049774D01*
X70699742Y-84127795D01*
X70530224Y-84241063D01*
X70386061Y-84385226D01*
X70272793Y-84554744D01*
X70194772Y-84743102D01*
X70154998Y-84943061D01*
X70154998Y-85146939D01*
X70194772Y-85346898D01*
X70272793Y-85535256D01*
X70386061Y-85704774D01*
X70530224Y-85848937D01*
X70699742Y-85962205D01*
X70888100Y-86040226D01*
X71088059Y-86080000D01*
X71291937Y-86080000D01*
X71491896Y-86040226D01*
X71680254Y-85962205D01*
X71776795Y-85897698D01*
X71903836Y-86001958D01*
X72056291Y-86083447D01*
X72221715Y-86133628D01*
X72393750Y-86150572D01*
X73306250Y-86150572D01*
X73478285Y-86133628D01*
X73643709Y-86083447D01*
X73796164Y-86001958D01*
X73929792Y-85892292D01*
X74001431Y-85805000D01*
X74653535Y-85805000D01*
X74690857Y-85808676D01*
X74728179Y-85805000D01*
X76097699Y-85805000D01*
X76387699Y-86095000D01*
X76372458Y-86095000D01*
X76249777Y-86119403D01*
X76134215Y-86167270D01*
X76030211Y-86236763D01*
X75941763Y-86325211D01*
X75872270Y-86429215D01*
X75824403Y-86544777D01*
X75800000Y-86667458D01*
X75800000Y-87144250D01*
X75958750Y-87303000D01*
X76795500Y-87303000D01*
X76795500Y-87283000D01*
X77049500Y-87283000D01*
X77049500Y-87303000D01*
X77069500Y-87303000D01*
X77069500Y-87557000D01*
X77049500Y-87557000D01*
X77049500Y-87577000D01*
X76795500Y-87577000D01*
X76795500Y-87557000D01*
X75958750Y-87557000D01*
X75800000Y-87715750D01*
X75800000Y-88192542D01*
X75824403Y-88315223D01*
X75872270Y-88430785D01*
X75941763Y-88534789D01*
X76030211Y-88623237D01*
X76134215Y-88692730D01*
X76249777Y-88740597D01*
X76372458Y-88765000D01*
X63735000Y-88765000D01*
X63735000Y-81779872D01*
X65765000Y-81779872D01*
X65765000Y-82220128D01*
X65850890Y-82651925D01*
X66019369Y-83058669D01*
X66263962Y-83424729D01*
X66575271Y-83736038D01*
X66941331Y-83980631D01*
X67348075Y-84149110D01*
X67779872Y-84235000D01*
X68220128Y-84235000D01*
X68651925Y-84149110D01*
X69058669Y-83980631D01*
X69424729Y-83736038D01*
X69736038Y-83424729D01*
X69980631Y-83058669D01*
X70149110Y-82651925D01*
X70235000Y-82220128D01*
X70235000Y-81779872D01*
X70149110Y-81348075D01*
X69980631Y-80941331D01*
X69736038Y-80575271D01*
X69424729Y-80263962D01*
X69058669Y-80019369D01*
X68651925Y-79850890D01*
X68220128Y-79765000D01*
X67779872Y-79765000D01*
X67348075Y-79850890D01*
X66941331Y-80019369D01*
X66575271Y-80263962D01*
X66263962Y-80575271D01*
X66019369Y-80941331D01*
X65850890Y-81348075D01*
X65765000Y-81779872D01*
X63735000Y-81779872D01*
X63735000Y-79686250D01*
X71531928Y-79686250D01*
X71531928Y-80173750D01*
X71548872Y-80345785D01*
X71599053Y-80511209D01*
X71680542Y-80663664D01*
X71790208Y-80797292D01*
X71923836Y-80906958D01*
X72076291Y-80988447D01*
X72241715Y-81038628D01*
X72413750Y-81055572D01*
X73326250Y-81055572D01*
X73498285Y-81038628D01*
X73663709Y-80988447D01*
X73816164Y-80906958D01*
X73949792Y-80797292D01*
X74037845Y-80690000D01*
X75564007Y-80690000D01*
X75652094Y-80698676D01*
X75652095Y-80698676D01*
X75801080Y-80684002D01*
X75944341Y-80640546D01*
X76076371Y-80569974D01*
X76081217Y-80565997D01*
X76192096Y-80475001D01*
X76215898Y-80445998D01*
X77192470Y-79469427D01*
X77346448Y-79500055D01*
X77621632Y-79500055D01*
X77775611Y-79469427D01*
X77927237Y-79621053D01*
X77951040Y-79650057D01*
X78066765Y-79745030D01*
X78198794Y-79815602D01*
X78342055Y-79859059D01*
X78453708Y-79870056D01*
X78453717Y-79870056D01*
X78491040Y-79873732D01*
X78528363Y-79870056D01*
X87359717Y-79870056D01*
X87397039Y-79873732D01*
X87434361Y-79870056D01*
X87434372Y-79870056D01*
X87546025Y-79859059D01*
X87689286Y-79815602D01*
X87821315Y-79745030D01*
X87937040Y-79650057D01*
X87960843Y-79621054D01*
X88192469Y-79389427D01*
X88346448Y-79420055D01*
X88621632Y-79420055D01*
X88775611Y-79389427D01*
X89087237Y-79701053D01*
X89111040Y-79730057D01*
X89226765Y-79825030D01*
X89358794Y-79895602D01*
X89502055Y-79939059D01*
X89613708Y-79950056D01*
X89613717Y-79950056D01*
X89651040Y-79953732D01*
X89688363Y-79950056D01*
X99819717Y-79950056D01*
X99857039Y-79953732D01*
X99894361Y-79950056D01*
X99894372Y-79950056D01*
X100006025Y-79939059D01*
X100149286Y-79895602D01*
X100281315Y-79825030D01*
X100397040Y-79730057D01*
X100420843Y-79701054D01*
X100652469Y-79469427D01*
X100806448Y-79500055D01*
X101081632Y-79500055D01*
X101351530Y-79446369D01*
X101605767Y-79341060D01*
X101834575Y-79188175D01*
X102029160Y-78993590D01*
X102182045Y-78764782D01*
X102287354Y-78510545D01*
X102341040Y-78240647D01*
X102341040Y-77965463D01*
X102287354Y-77695565D01*
X102182045Y-77441328D01*
X102029160Y-77212520D01*
X101834575Y-77017935D01*
X101605767Y-76865050D01*
X101351530Y-76759741D01*
X101081632Y-76706055D01*
X100806448Y-76706055D01*
X100536550Y-76759741D01*
X100282313Y-76865050D01*
X100053505Y-77017935D01*
X99858920Y-77212520D01*
X99706035Y-77441328D01*
X99676348Y-77512998D01*
X99671676Y-77500032D01*
X99609696Y-77384075D01*
X99369605Y-77317095D01*
X98583645Y-78103055D01*
X98597788Y-78117198D01*
X98418183Y-78296803D01*
X98404040Y-78282660D01*
X98389898Y-78296803D01*
X98210293Y-78117198D01*
X98224435Y-78103055D01*
X97438475Y-77317095D01*
X97198384Y-77384075D01*
X97081284Y-77633103D01*
X97015017Y-77900190D01*
X97002130Y-78175072D01*
X97040537Y-78430056D01*
X89965842Y-78430056D01*
X89850412Y-78314626D01*
X89881040Y-78160647D01*
X89881040Y-77885463D01*
X89827354Y-77615565D01*
X89722045Y-77361328D01*
X89572481Y-77137490D01*
X97618080Y-77137490D01*
X98404040Y-77923450D01*
X99190000Y-77137490D01*
X99123020Y-76897399D01*
X98873992Y-76780299D01*
X98606905Y-76714032D01*
X98332023Y-76701145D01*
X98059907Y-76742133D01*
X97801017Y-76835419D01*
X97685060Y-76897399D01*
X97618080Y-77137490D01*
X89572481Y-77137490D01*
X89569160Y-77132520D01*
X89374575Y-76937935D01*
X89145767Y-76785050D01*
X88891530Y-76679741D01*
X88621632Y-76626055D01*
X88346448Y-76626055D01*
X88076550Y-76679741D01*
X87822313Y-76785050D01*
X87593505Y-76937935D01*
X87398920Y-77132520D01*
X87246035Y-77361328D01*
X87216348Y-77432998D01*
X87211676Y-77420032D01*
X87149696Y-77304075D01*
X86909605Y-77237095D01*
X86123645Y-78023055D01*
X86137788Y-78037198D01*
X85958183Y-78216803D01*
X85944040Y-78202660D01*
X85929898Y-78216803D01*
X85750293Y-78037198D01*
X85764435Y-78023055D01*
X84978475Y-77237095D01*
X84738384Y-77304075D01*
X84621284Y-77553103D01*
X84555017Y-77820190D01*
X84542130Y-78095072D01*
X84580537Y-78350056D01*
X78859277Y-78350056D01*
X78881040Y-78240647D01*
X78881040Y-77965463D01*
X78827354Y-77695565D01*
X78722045Y-77441328D01*
X78569160Y-77212520D01*
X78414130Y-77057490D01*
X85158080Y-77057490D01*
X85944040Y-77843450D01*
X86730000Y-77057490D01*
X86663020Y-76817399D01*
X86413992Y-76700299D01*
X86146905Y-76634032D01*
X85872023Y-76621145D01*
X85599907Y-76662133D01*
X85341017Y-76755419D01*
X85225060Y-76817399D01*
X85158080Y-77057490D01*
X78414130Y-77057490D01*
X78374575Y-77017935D01*
X78145767Y-76865050D01*
X77891530Y-76759741D01*
X77621632Y-76706055D01*
X77346448Y-76706055D01*
X77076550Y-76759741D01*
X76822313Y-76865050D01*
X76593505Y-77017935D01*
X76398920Y-77212520D01*
X76246035Y-77441328D01*
X76216348Y-77512998D01*
X76211676Y-77500032D01*
X76149696Y-77384075D01*
X75909605Y-77317095D01*
X75123645Y-78103055D01*
X75137788Y-78117198D01*
X74958183Y-78296803D01*
X74944040Y-78282660D01*
X74929898Y-78296803D01*
X74750293Y-78117198D01*
X74764435Y-78103055D01*
X74750293Y-78088913D01*
X74929898Y-77909308D01*
X74944040Y-77923450D01*
X75730000Y-77137490D01*
X75663020Y-76897399D01*
X75413992Y-76780299D01*
X75146905Y-76714032D01*
X74872023Y-76701145D01*
X74599907Y-76742133D01*
X74341017Y-76835419D01*
X74225060Y-76897399D01*
X74158081Y-77137488D01*
X74041671Y-77021078D01*
X73981638Y-77081112D01*
X73974789Y-77074263D01*
X73870785Y-77004770D01*
X73755223Y-76956903D01*
X73632542Y-76932500D01*
X73155750Y-76932500D01*
X72997000Y-77091250D01*
X72997000Y-77928000D01*
X73017000Y-77928000D01*
X73017000Y-78182000D01*
X72997000Y-78182000D01*
X72997000Y-78202000D01*
X72743000Y-78202000D01*
X72743000Y-78182000D01*
X71693750Y-78182000D01*
X71535000Y-78340750D01*
X71535000Y-78605042D01*
X71559403Y-78727723D01*
X71607270Y-78843285D01*
X71676763Y-78947289D01*
X71765211Y-79035737D01*
X71797105Y-79057048D01*
X71790208Y-79062708D01*
X71680542Y-79196336D01*
X71599053Y-79348791D01*
X71548872Y-79514215D01*
X71531928Y-79686250D01*
X63735000Y-79686250D01*
X63735000Y-77504958D01*
X71535000Y-77504958D01*
X71535000Y-77769250D01*
X71693750Y-77928000D01*
X72743000Y-77928000D01*
X72743000Y-77091250D01*
X72584250Y-76932500D01*
X72107458Y-76932500D01*
X71984777Y-76956903D01*
X71869215Y-77004770D01*
X71765211Y-77074263D01*
X71676763Y-77162711D01*
X71607270Y-77266715D01*
X71559403Y-77382277D01*
X71535000Y-77504958D01*
X63735000Y-77504958D01*
X63735000Y-74518599D01*
X64058119Y-74783777D01*
X64429018Y-74982026D01*
X64831467Y-75104108D01*
X65145118Y-75135000D01*
X110854882Y-75135000D01*
X111168533Y-75104108D01*
X111570982Y-74982026D01*
X111941881Y-74783777D01*
X112265001Y-74518599D01*
X112265000Y-88765000D01*
X112265000Y-88765000D01*
G37*
X112265000Y-88765000D02*
X96571476Y-88765000D01*
X96804014Y-88640706D01*
X97030134Y-88455134D01*
X97215706Y-88229014D01*
X97353599Y-87971034D01*
X97438513Y-87691111D01*
X97467185Y-87400000D01*
X97438513Y-87108889D01*
X97353599Y-86828966D01*
X97215706Y-86570986D01*
X97030134Y-86344866D01*
X96804014Y-86159294D01*
X96546034Y-86021401D01*
X96266111Y-85936487D01*
X96047950Y-85915000D01*
X95902050Y-85915000D01*
X95683889Y-85936487D01*
X95403966Y-86021401D01*
X95145986Y-86159294D01*
X94919866Y-86344866D01*
X94734294Y-86570986D01*
X94705000Y-86625791D01*
X94675706Y-86570986D01*
X94490134Y-86344866D01*
X94264014Y-86159294D01*
X94006034Y-86021401D01*
X93726111Y-85936487D01*
X93507950Y-85915000D01*
X93362050Y-85915000D01*
X93143889Y-85936487D01*
X92863966Y-86021401D01*
X92605986Y-86159294D01*
X92379866Y-86344866D01*
X92194294Y-86570986D01*
X92165000Y-86625791D01*
X92135706Y-86570986D01*
X91950134Y-86344866D01*
X91724014Y-86159294D01*
X91466034Y-86021401D01*
X91186111Y-85936487D01*
X90967950Y-85915000D01*
X90822050Y-85915000D01*
X90603889Y-85936487D01*
X90323966Y-86021401D01*
X90065986Y-86159294D01*
X89839866Y-86344866D01*
X89654294Y-86570986D01*
X89619799Y-86635523D01*
X89550178Y-86518645D01*
X89355269Y-86302412D01*
X89121920Y-86128359D01*
X88859099Y-86003175D01*
X88711890Y-85958524D01*
X88482000Y-86079845D01*
X88482000Y-87273000D01*
X88502000Y-87273000D01*
X88502000Y-87527000D01*
X88482000Y-87527000D01*
X88482000Y-87547000D01*
X88228000Y-87547000D01*
X88228000Y-87527000D01*
X88208000Y-87527000D01*
X88208000Y-87273000D01*
X88228000Y-87273000D01*
X88228000Y-86079845D01*
X87998110Y-85958524D01*
X87850901Y-86003175D01*
X87588080Y-86128359D01*
X87354731Y-86302412D01*
X87159822Y-86518645D01*
X87090201Y-86635523D01*
X87055706Y-86570986D01*
X86870134Y-86344866D01*
X86644014Y-86159294D01*
X86386034Y-86021401D01*
X86106111Y-85936487D01*
X85887950Y-85915000D01*
X85742050Y-85915000D01*
X85523889Y-85936487D01*
X85243966Y-86021401D01*
X84985986Y-86159294D01*
X84759866Y-86344866D01*
X84735393Y-86374687D01*
X84714502Y-86305820D01*
X84655537Y-86195506D01*
X84576185Y-86098815D01*
X84479494Y-86019463D01*
X84369180Y-85960498D01*
X84249482Y-85924188D01*
X84125000Y-85911928D01*
X82425000Y-85911928D01*
X82354877Y-85918834D01*
X82423937Y-85849774D01*
X82537205Y-85680256D01*
X82615226Y-85491898D01*
X82655000Y-85291939D01*
X82655000Y-85088061D01*
X82615226Y-84888102D01*
X82537205Y-84699744D01*
X82423937Y-84530226D01*
X82279774Y-84386063D01*
X82269669Y-84379311D01*
X82302325Y-84365785D01*
X82406329Y-84296292D01*
X82494777Y-84207844D01*
X82564270Y-84103840D01*
X82612137Y-83988278D01*
X82623959Y-83928847D01*
X82630542Y-83941164D01*
X82740208Y-84074792D01*
X82873836Y-84184458D01*
X83026291Y-84265947D01*
X83191715Y-84316128D01*
X83363750Y-84333072D01*
X84276250Y-84333072D01*
X84448285Y-84316128D01*
X84613709Y-84265947D01*
X84766164Y-84184458D01*
X84899792Y-84074792D01*
X84917971Y-84052641D01*
X85053505Y-84188175D01*
X85282313Y-84341060D01*
X85536550Y-84446369D01*
X85806448Y-84500055D01*
X86081632Y-84500055D01*
X86351530Y-84446369D01*
X86605767Y-84341060D01*
X86834575Y-84188175D01*
X87029160Y-83993590D01*
X87182045Y-83764782D01*
X87214040Y-83687540D01*
X87246035Y-83764782D01*
X87398920Y-83993590D01*
X87593505Y-84188175D01*
X87822313Y-84341060D01*
X88076550Y-84446369D01*
X88346448Y-84500055D01*
X88621632Y-84500055D01*
X88891530Y-84446369D01*
X89145767Y-84341060D01*
X89374575Y-84188175D01*
X89569160Y-83993590D01*
X89607235Y-83936607D01*
X89662082Y-84039219D01*
X89771748Y-84172847D01*
X89905376Y-84282513D01*
X90057831Y-84364002D01*
X90223255Y-84414183D01*
X90395290Y-84431127D01*
X90882790Y-84431127D01*
X91054825Y-84414183D01*
X91220249Y-84364002D01*
X91372704Y-84282513D01*
X91506332Y-84172847D01*
X91511992Y-84165950D01*
X91533303Y-84197844D01*
X91621751Y-84286292D01*
X91725755Y-84355785D01*
X91841317Y-84403652D01*
X91963998Y-84428055D01*
X92228290Y-84428055D01*
X92387040Y-84269305D01*
X92387040Y-83220055D01*
X92641040Y-83220055D01*
X92641040Y-84269305D01*
X92799790Y-84428055D01*
X93064082Y-84428055D01*
X93186763Y-84403652D01*
X93302325Y-84355785D01*
X93406329Y-84286292D01*
X93494777Y-84197844D01*
X93564270Y-84093840D01*
X93612137Y-83978278D01*
X93636540Y-83855597D01*
X93636540Y-83378805D01*
X93477790Y-83220055D01*
X92641040Y-83220055D01*
X92387040Y-83220055D01*
X92367040Y-83220055D01*
X92367040Y-82966055D01*
X92387040Y-82966055D01*
X92387040Y-82946055D01*
X92641040Y-82946055D01*
X92641040Y-82966055D01*
X93477790Y-82966055D01*
X93636540Y-82807305D01*
X93636540Y-82330513D01*
X93612137Y-82207832D01*
X93564365Y-82092500D01*
X94946517Y-82092500D01*
X95020208Y-82182292D01*
X95105756Y-82252500D01*
X95020208Y-82322708D01*
X94910542Y-82456336D01*
X94829053Y-82608791D01*
X94778872Y-82774215D01*
X94761928Y-82946250D01*
X94761928Y-83433750D01*
X94778872Y-83605785D01*
X94829053Y-83771209D01*
X94910542Y-83923664D01*
X95020208Y-84057292D01*
X95153836Y-84166958D01*
X95306291Y-84248447D01*
X95471715Y-84298628D01*
X95643750Y-84315572D01*
X96556250Y-84315572D01*
X96728285Y-84298628D01*
X96893709Y-84248447D01*
X97046164Y-84166958D01*
X97179792Y-84057292D01*
X97250479Y-83971160D01*
X97318920Y-84073590D01*
X97513505Y-84268175D01*
X97742313Y-84421060D01*
X97996550Y-84526369D01*
X98266448Y-84580055D01*
X98541632Y-84580055D01*
X98811530Y-84526369D01*
X99065767Y-84421060D01*
X99294575Y-84268175D01*
X99489160Y-84073590D01*
X99642045Y-83844782D01*
X99674040Y-83767540D01*
X99706035Y-83844782D01*
X99858920Y-84073590D01*
X100053505Y-84268175D01*
X100282313Y-84421060D01*
X100536550Y-84526369D01*
X100806448Y-84580055D01*
X101081632Y-84580055D01*
X101115131Y-84573392D01*
X101091372Y-84651715D01*
X101074428Y-84823750D01*
X101074428Y-85736250D01*
X101091372Y-85908285D01*
X101141553Y-86073709D01*
X101223042Y-86226164D01*
X101332708Y-86359792D01*
X101466336Y-86469458D01*
X101618791Y-86550947D01*
X101784215Y-86601128D01*
X101956250Y-86618072D01*
X102443750Y-86618072D01*
X102615785Y-86601128D01*
X102781209Y-86550947D01*
X102933664Y-86469458D01*
X103067292Y-86359792D01*
X103072952Y-86352895D01*
X103094263Y-86384789D01*
X103182711Y-86473237D01*
X103286715Y-86542730D01*
X103402277Y-86590597D01*
X103524958Y-86615000D01*
X103789250Y-86615000D01*
X103948000Y-86456250D01*
X103948000Y-85407000D01*
X104202000Y-85407000D01*
X104202000Y-86456250D01*
X104360750Y-86615000D01*
X104625042Y-86615000D01*
X104747723Y-86590597D01*
X104863285Y-86542730D01*
X104967289Y-86473237D01*
X105055737Y-86384789D01*
X105125230Y-86280785D01*
X105173097Y-86165223D01*
X105197500Y-86042542D01*
X105197500Y-85565750D01*
X105038750Y-85407000D01*
X104202000Y-85407000D01*
X103948000Y-85407000D01*
X103928000Y-85407000D01*
X103928000Y-85153000D01*
X103948000Y-85153000D01*
X103948000Y-84103750D01*
X104202000Y-84103750D01*
X104202000Y-85153000D01*
X105038750Y-85153000D01*
X105197500Y-84994250D01*
X105197500Y-84517458D01*
X105173097Y-84394777D01*
X105125230Y-84279215D01*
X105055737Y-84175211D01*
X104967289Y-84086763D01*
X104863285Y-84017270D01*
X104747723Y-83969403D01*
X104625042Y-83945000D01*
X104360750Y-83945000D01*
X104202000Y-84103750D01*
X103948000Y-84103750D01*
X103789250Y-83945000D01*
X103524958Y-83945000D01*
X103402277Y-83969403D01*
X103286715Y-84017270D01*
X103182711Y-84086763D01*
X103094263Y-84175211D01*
X103072952Y-84207105D01*
X103067292Y-84200208D01*
X102933664Y-84090542D01*
X102852224Y-84047011D01*
X102834974Y-84014739D01*
X102740001Y-83899014D01*
X102711004Y-83875217D01*
X102310412Y-83474625D01*
X102341040Y-83320647D01*
X102341040Y-83045463D01*
X102287354Y-82775565D01*
X102182045Y-82521328D01*
X102029160Y-82292520D01*
X101834575Y-82097935D01*
X101605767Y-81945050D01*
X101351530Y-81839741D01*
X101081632Y-81786055D01*
X100806448Y-81786055D01*
X100536550Y-81839741D01*
X100282313Y-81945050D01*
X100053505Y-82097935D01*
X99858920Y-82292520D01*
X99706035Y-82521328D01*
X99674040Y-82598570D01*
X99642045Y-82521328D01*
X99489160Y-82292520D01*
X99294575Y-82097935D01*
X99065767Y-81945050D01*
X98811530Y-81839741D01*
X98541632Y-81786055D01*
X98266448Y-81786055D01*
X97996550Y-81839741D01*
X97742313Y-81945050D01*
X97513505Y-82097935D01*
X97318920Y-82292520D01*
X97245363Y-82402606D01*
X97179792Y-82322708D01*
X97094244Y-82252500D01*
X97179792Y-82182292D01*
X97289458Y-82048664D01*
X97370947Y-81896209D01*
X97406237Y-81779872D01*
X105755000Y-81779872D01*
X105755000Y-82220128D01*
X105840890Y-82651925D01*
X106009369Y-83058669D01*
X106253962Y-83424729D01*
X106565271Y-83736038D01*
X106931331Y-83980631D01*
X107338075Y-84149110D01*
X107769872Y-84235000D01*
X108210128Y-84235000D01*
X108641925Y-84149110D01*
X109048669Y-83980631D01*
X109414729Y-83736038D01*
X109726038Y-83424729D01*
X109970631Y-83058669D01*
X110139110Y-82651925D01*
X110225000Y-82220128D01*
X110225000Y-81779872D01*
X110139110Y-81348075D01*
X109970631Y-80941331D01*
X109726038Y-80575271D01*
X109414729Y-80263962D01*
X109048669Y-80019369D01*
X108641925Y-79850890D01*
X108210128Y-79765000D01*
X107769872Y-79765000D01*
X107338075Y-79850890D01*
X106931331Y-80019369D01*
X106565271Y-80263962D01*
X106253962Y-80575271D01*
X106009369Y-80941331D01*
X105840890Y-81348075D01*
X105755000Y-81779872D01*
X97406237Y-81779872D01*
X97421128Y-81730785D01*
X97438072Y-81558750D01*
X97438072Y-81071250D01*
X97421128Y-80899215D01*
X97370947Y-80733791D01*
X97289458Y-80581336D01*
X97179792Y-80447708D01*
X97046164Y-80338042D01*
X96893709Y-80256553D01*
X96728285Y-80206372D01*
X96556250Y-80189428D01*
X95643750Y-80189428D01*
X95471715Y-80206372D01*
X95306291Y-80256553D01*
X95153836Y-80338042D01*
X95020208Y-80447708D01*
X94917794Y-80572500D01*
X84987845Y-80572500D01*
X84899792Y-80465208D01*
X84766164Y-80355542D01*
X84613709Y-80274053D01*
X84448285Y-80223872D01*
X84276250Y-80206928D01*
X83363750Y-80206928D01*
X83191715Y-80223872D01*
X83026291Y-80274053D01*
X82873836Y-80355542D01*
X82740208Y-80465208D01*
X82652155Y-80572500D01*
X76774833Y-80572500D01*
X76737500Y-80568823D01*
X76700167Y-80572500D01*
X76588514Y-80583497D01*
X76445253Y-80626954D01*
X76313224Y-80697526D01*
X76197499Y-80792499D01*
X76173696Y-80821503D01*
X75886037Y-81109162D01*
X75857039Y-81132960D01*
X75833241Y-81161958D01*
X75833240Y-81161959D01*
X75762065Y-81248685D01*
X75691493Y-81380715D01*
X75648037Y-81523976D01*
X75633363Y-81672961D01*
X75637040Y-81710293D01*
X75637040Y-81965946D01*
X75605767Y-81945050D01*
X75351530Y-81839741D01*
X75081632Y-81786055D01*
X74806448Y-81786055D01*
X74645334Y-81818103D01*
X74606317Y-81786082D01*
X74474288Y-81715510D01*
X74331027Y-81672053D01*
X74219374Y-81661056D01*
X74219363Y-81661056D01*
X74182041Y-81657380D01*
X74144719Y-81661056D01*
X73616266Y-81661056D01*
X73578943Y-81657380D01*
X73541620Y-81661056D01*
X73541611Y-81661056D01*
X73429958Y-81672053D01*
X73286697Y-81715510D01*
X73154668Y-81786082D01*
X73154666Y-81786083D01*
X73154667Y-81786083D01*
X73067940Y-81857257D01*
X73067936Y-81857261D01*
X73038943Y-81881055D01*
X73015149Y-81910048D01*
X72900769Y-82024428D01*
X72393750Y-82024428D01*
X72221715Y-82041372D01*
X72056291Y-82091553D01*
X71903836Y-82173042D01*
X71770208Y-82282708D01*
X71660542Y-82416336D01*
X71579053Y-82568791D01*
X71528872Y-82734215D01*
X71511928Y-82906250D01*
X71511928Y-83393750D01*
X71528872Y-83565785D01*
X71579053Y-83731209D01*
X71660542Y-83883664D01*
X71770208Y-84017292D01*
X71855756Y-84087500D01*
X71770208Y-84157708D01*
X71754205Y-84177207D01*
X71680254Y-84127795D01*
X71491896Y-84049774D01*
X71291937Y-84010000D01*
X71088059Y-84010000D01*
X70888100Y-84049774D01*
X70699742Y-84127795D01*
X70530224Y-84241063D01*
X70386061Y-84385226D01*
X70272793Y-84554744D01*
X70194772Y-84743102D01*
X70154998Y-84943061D01*
X70154998Y-85146939D01*
X70194772Y-85346898D01*
X70272793Y-85535256D01*
X70386061Y-85704774D01*
X70530224Y-85848937D01*
X70699742Y-85962205D01*
X70888100Y-86040226D01*
X71088059Y-86080000D01*
X71291937Y-86080000D01*
X71491896Y-86040226D01*
X71680254Y-85962205D01*
X71776795Y-85897698D01*
X71903836Y-86001958D01*
X72056291Y-86083447D01*
X72221715Y-86133628D01*
X72393750Y-86150572D01*
X73306250Y-86150572D01*
X73478285Y-86133628D01*
X73643709Y-86083447D01*
X73796164Y-86001958D01*
X73929792Y-85892292D01*
X74001431Y-85805000D01*
X74653535Y-85805000D01*
X74690857Y-85808676D01*
X74728179Y-85805000D01*
X76097699Y-85805000D01*
X76387699Y-86095000D01*
X76372458Y-86095000D01*
X76249777Y-86119403D01*
X76134215Y-86167270D01*
X76030211Y-86236763D01*
X75941763Y-86325211D01*
X75872270Y-86429215D01*
X75824403Y-86544777D01*
X75800000Y-86667458D01*
X75800000Y-87144250D01*
X75958750Y-87303000D01*
X76795500Y-87303000D01*
X76795500Y-87283000D01*
X77049500Y-87283000D01*
X77049500Y-87303000D01*
X77069500Y-87303000D01*
X77069500Y-87557000D01*
X77049500Y-87557000D01*
X77049500Y-87577000D01*
X76795500Y-87577000D01*
X76795500Y-87557000D01*
X75958750Y-87557000D01*
X75800000Y-87715750D01*
X75800000Y-88192542D01*
X75824403Y-88315223D01*
X75872270Y-88430785D01*
X75941763Y-88534789D01*
X76030211Y-88623237D01*
X76134215Y-88692730D01*
X76249777Y-88740597D01*
X76372458Y-88765000D01*
X63735000Y-88765000D01*
X63735000Y-81779872D01*
X65765000Y-81779872D01*
X65765000Y-82220128D01*
X65850890Y-82651925D01*
X66019369Y-83058669D01*
X66263962Y-83424729D01*
X66575271Y-83736038D01*
X66941331Y-83980631D01*
X67348075Y-84149110D01*
X67779872Y-84235000D01*
X68220128Y-84235000D01*
X68651925Y-84149110D01*
X69058669Y-83980631D01*
X69424729Y-83736038D01*
X69736038Y-83424729D01*
X69980631Y-83058669D01*
X70149110Y-82651925D01*
X70235000Y-82220128D01*
X70235000Y-81779872D01*
X70149110Y-81348075D01*
X69980631Y-80941331D01*
X69736038Y-80575271D01*
X69424729Y-80263962D01*
X69058669Y-80019369D01*
X68651925Y-79850890D01*
X68220128Y-79765000D01*
X67779872Y-79765000D01*
X67348075Y-79850890D01*
X66941331Y-80019369D01*
X66575271Y-80263962D01*
X66263962Y-80575271D01*
X66019369Y-80941331D01*
X65850890Y-81348075D01*
X65765000Y-81779872D01*
X63735000Y-81779872D01*
X63735000Y-79686250D01*
X71531928Y-79686250D01*
X71531928Y-80173750D01*
X71548872Y-80345785D01*
X71599053Y-80511209D01*
X71680542Y-80663664D01*
X71790208Y-80797292D01*
X71923836Y-80906958D01*
X72076291Y-80988447D01*
X72241715Y-81038628D01*
X72413750Y-81055572D01*
X73326250Y-81055572D01*
X73498285Y-81038628D01*
X73663709Y-80988447D01*
X73816164Y-80906958D01*
X73949792Y-80797292D01*
X74037845Y-80690000D01*
X75564007Y-80690000D01*
X75652094Y-80698676D01*
X75652095Y-80698676D01*
X75801080Y-80684002D01*
X75944341Y-80640546D01*
X76076371Y-80569974D01*
X76081217Y-80565997D01*
X76192096Y-80475001D01*
X76215898Y-80445998D01*
X77192470Y-79469427D01*
X77346448Y-79500055D01*
X77621632Y-79500055D01*
X77775611Y-79469427D01*
X77927237Y-79621053D01*
X77951040Y-79650057D01*
X78066765Y-79745030D01*
X78198794Y-79815602D01*
X78342055Y-79859059D01*
X78453708Y-79870056D01*
X78453717Y-79870056D01*
X78491040Y-79873732D01*
X78528363Y-79870056D01*
X87359717Y-79870056D01*
X87397039Y-79873732D01*
X87434361Y-79870056D01*
X87434372Y-79870056D01*
X87546025Y-79859059D01*
X87689286Y-79815602D01*
X87821315Y-79745030D01*
X87937040Y-79650057D01*
X87960843Y-79621054D01*
X88192469Y-79389427D01*
X88346448Y-79420055D01*
X88621632Y-79420055D01*
X88775611Y-79389427D01*
X89087237Y-79701053D01*
X89111040Y-79730057D01*
X89226765Y-79825030D01*
X89358794Y-79895602D01*
X89502055Y-79939059D01*
X89613708Y-79950056D01*
X89613717Y-79950056D01*
X89651040Y-79953732D01*
X89688363Y-79950056D01*
X99819717Y-79950056D01*
X99857039Y-79953732D01*
X99894361Y-79950056D01*
X99894372Y-79950056D01*
X100006025Y-79939059D01*
X100149286Y-79895602D01*
X100281315Y-79825030D01*
X100397040Y-79730057D01*
X100420843Y-79701054D01*
X100652469Y-79469427D01*
X100806448Y-79500055D01*
X101081632Y-79500055D01*
X101351530Y-79446369D01*
X101605767Y-79341060D01*
X101834575Y-79188175D01*
X102029160Y-78993590D01*
X102182045Y-78764782D01*
X102287354Y-78510545D01*
X102341040Y-78240647D01*
X102341040Y-77965463D01*
X102287354Y-77695565D01*
X102182045Y-77441328D01*
X102029160Y-77212520D01*
X101834575Y-77017935D01*
X101605767Y-76865050D01*
X101351530Y-76759741D01*
X101081632Y-76706055D01*
X100806448Y-76706055D01*
X100536550Y-76759741D01*
X100282313Y-76865050D01*
X100053505Y-77017935D01*
X99858920Y-77212520D01*
X99706035Y-77441328D01*
X99676348Y-77512998D01*
X99671676Y-77500032D01*
X99609696Y-77384075D01*
X99369605Y-77317095D01*
X98583645Y-78103055D01*
X98597788Y-78117198D01*
X98418183Y-78296803D01*
X98404040Y-78282660D01*
X98389898Y-78296803D01*
X98210293Y-78117198D01*
X98224435Y-78103055D01*
X97438475Y-77317095D01*
X97198384Y-77384075D01*
X97081284Y-77633103D01*
X97015017Y-77900190D01*
X97002130Y-78175072D01*
X97040537Y-78430056D01*
X89965842Y-78430056D01*
X89850412Y-78314626D01*
X89881040Y-78160647D01*
X89881040Y-77885463D01*
X89827354Y-77615565D01*
X89722045Y-77361328D01*
X89572481Y-77137490D01*
X97618080Y-77137490D01*
X98404040Y-77923450D01*
X99190000Y-77137490D01*
X99123020Y-76897399D01*
X98873992Y-76780299D01*
X98606905Y-76714032D01*
X98332023Y-76701145D01*
X98059907Y-76742133D01*
X97801017Y-76835419D01*
X97685060Y-76897399D01*
X97618080Y-77137490D01*
X89572481Y-77137490D01*
X89569160Y-77132520D01*
X89374575Y-76937935D01*
X89145767Y-76785050D01*
X88891530Y-76679741D01*
X88621632Y-76626055D01*
X88346448Y-76626055D01*
X88076550Y-76679741D01*
X87822313Y-76785050D01*
X87593505Y-76937935D01*
X87398920Y-77132520D01*
X87246035Y-77361328D01*
X87216348Y-77432998D01*
X87211676Y-77420032D01*
X87149696Y-77304075D01*
X86909605Y-77237095D01*
X86123645Y-78023055D01*
X86137788Y-78037198D01*
X85958183Y-78216803D01*
X85944040Y-78202660D01*
X85929898Y-78216803D01*
X85750293Y-78037198D01*
X85764435Y-78023055D01*
X84978475Y-77237095D01*
X84738384Y-77304075D01*
X84621284Y-77553103D01*
X84555017Y-77820190D01*
X84542130Y-78095072D01*
X84580537Y-78350056D01*
X78859277Y-78350056D01*
X78881040Y-78240647D01*
X78881040Y-77965463D01*
X78827354Y-77695565D01*
X78722045Y-77441328D01*
X78569160Y-77212520D01*
X78414130Y-77057490D01*
X85158080Y-77057490D01*
X85944040Y-77843450D01*
X86730000Y-77057490D01*
X86663020Y-76817399D01*
X86413992Y-76700299D01*
X86146905Y-76634032D01*
X85872023Y-76621145D01*
X85599907Y-76662133D01*
X85341017Y-76755419D01*
X85225060Y-76817399D01*
X85158080Y-77057490D01*
X78414130Y-77057490D01*
X78374575Y-77017935D01*
X78145767Y-76865050D01*
X77891530Y-76759741D01*
X77621632Y-76706055D01*
X77346448Y-76706055D01*
X77076550Y-76759741D01*
X76822313Y-76865050D01*
X76593505Y-77017935D01*
X76398920Y-77212520D01*
X76246035Y-77441328D01*
X76216348Y-77512998D01*
X76211676Y-77500032D01*
X76149696Y-77384075D01*
X75909605Y-77317095D01*
X75123645Y-78103055D01*
X75137788Y-78117198D01*
X74958183Y-78296803D01*
X74944040Y-78282660D01*
X74929898Y-78296803D01*
X74750293Y-78117198D01*
X74764435Y-78103055D01*
X74750293Y-78088913D01*
X74929898Y-77909308D01*
X74944040Y-77923450D01*
X75730000Y-77137490D01*
X75663020Y-76897399D01*
X75413992Y-76780299D01*
X75146905Y-76714032D01*
X74872023Y-76701145D01*
X74599907Y-76742133D01*
X74341017Y-76835419D01*
X74225060Y-76897399D01*
X74158081Y-77137488D01*
X74041671Y-77021078D01*
X73981638Y-77081112D01*
X73974789Y-77074263D01*
X73870785Y-77004770D01*
X73755223Y-76956903D01*
X73632542Y-76932500D01*
X73155750Y-76932500D01*
X72997000Y-77091250D01*
X72997000Y-77928000D01*
X73017000Y-77928000D01*
X73017000Y-78182000D01*
X72997000Y-78182000D01*
X72997000Y-78202000D01*
X72743000Y-78202000D01*
X72743000Y-78182000D01*
X71693750Y-78182000D01*
X71535000Y-78340750D01*
X71535000Y-78605042D01*
X71559403Y-78727723D01*
X71607270Y-78843285D01*
X71676763Y-78947289D01*
X71765211Y-79035737D01*
X71797105Y-79057048D01*
X71790208Y-79062708D01*
X71680542Y-79196336D01*
X71599053Y-79348791D01*
X71548872Y-79514215D01*
X71531928Y-79686250D01*
X63735000Y-79686250D01*
X63735000Y-77504958D01*
X71535000Y-77504958D01*
X71535000Y-77769250D01*
X71693750Y-77928000D01*
X72743000Y-77928000D01*
X72743000Y-77091250D01*
X72584250Y-76932500D01*
X72107458Y-76932500D01*
X71984777Y-76956903D01*
X71869215Y-77004770D01*
X71765211Y-77074263D01*
X71676763Y-77162711D01*
X71607270Y-77266715D01*
X71559403Y-77382277D01*
X71535000Y-77504958D01*
X63735000Y-77504958D01*
X63735000Y-74518599D01*
X64058119Y-74783777D01*
X64429018Y-74982026D01*
X64831467Y-75104108D01*
X65145118Y-75135000D01*
X110854882Y-75135000D01*
X111168533Y-75104108D01*
X111570982Y-74982026D01*
X111941881Y-74783777D01*
X112265001Y-74518599D01*
X112265000Y-88765000D01*
G36*
X87159822Y-88281355D02*
G01*
X87354731Y-88497588D01*
X87588080Y-88671641D01*
X87784085Y-88765000D01*
X86411476Y-88765000D01*
X86644014Y-88640706D01*
X86870134Y-88455134D01*
X87055706Y-88229014D01*
X87090201Y-88164477D01*
X87159822Y-88281355D01*
X87159822Y-88281355D01*
G37*
X87159822Y-88281355D02*
X87354731Y-88497588D01*
X87588080Y-88671641D01*
X87784085Y-88765000D01*
X86411476Y-88765000D01*
X86644014Y-88640706D01*
X86870134Y-88455134D01*
X87055706Y-88229014D01*
X87090201Y-88164477D01*
X87159822Y-88281355D01*
G36*
X81641040Y-82976055D02*
G01*
X81661040Y-82976055D01*
X81661040Y-83230055D01*
X81641040Y-83230055D01*
X81641040Y-83250055D01*
X81387040Y-83250055D01*
X81387040Y-83230055D01*
X81367040Y-83230055D01*
X81367040Y-82976055D01*
X81387040Y-82976055D01*
X81387040Y-82956055D01*
X81641040Y-82956055D01*
X81641040Y-82976055D01*
X81641040Y-82976055D01*
G37*
X81641040Y-82976055D02*
X81661040Y-82976055D01*
X81661040Y-83230055D01*
X81641040Y-83230055D01*
X81641040Y-83250055D01*
X81387040Y-83250055D01*
X81387040Y-83230055D01*
X81367040Y-83230055D01*
X81367040Y-82976055D01*
X81387040Y-82976055D01*
X81387040Y-82956055D01*
X81641040Y-82956055D01*
X81641040Y-82976055D01*
G36*
X112265000Y-71481401D02*
G01*
X111941881Y-71216223D01*
X111570982Y-71017974D01*
X111168533Y-70895892D01*
X110854882Y-70865000D01*
X90129801Y-70865000D01*
X90529004Y-70465797D01*
X90603889Y-70488513D01*
X90822050Y-70510000D01*
X90967950Y-70510000D01*
X91186111Y-70488513D01*
X91466034Y-70403599D01*
X91724014Y-70265706D01*
X91950134Y-70080134D01*
X92135706Y-69854014D01*
X92165000Y-69799209D01*
X92194294Y-69854014D01*
X92379866Y-70080134D01*
X92605986Y-70265706D01*
X92863966Y-70403599D01*
X93143889Y-70488513D01*
X93362050Y-70510000D01*
X93507950Y-70510000D01*
X93726111Y-70488513D01*
X94006034Y-70403599D01*
X94264014Y-70265706D01*
X94490134Y-70080134D01*
X94675706Y-69854014D01*
X94705000Y-69799209D01*
X94734294Y-69854014D01*
X94919866Y-70080134D01*
X95145986Y-70265706D01*
X95403966Y-70403599D01*
X95683889Y-70488513D01*
X95902050Y-70510000D01*
X96047950Y-70510000D01*
X96266111Y-70488513D01*
X96546034Y-70403599D01*
X96804014Y-70265706D01*
X97030134Y-70080134D01*
X97215706Y-69854014D01*
X97353599Y-69596034D01*
X97438513Y-69316111D01*
X97467185Y-69025000D01*
X97438513Y-68733889D01*
X97353599Y-68453966D01*
X97215706Y-68195986D01*
X97030134Y-67969866D01*
X96804014Y-67784294D01*
X96546034Y-67646401D01*
X96266111Y-67561487D01*
X96047950Y-67540000D01*
X95902050Y-67540000D01*
X95683889Y-67561487D01*
X95403966Y-67646401D01*
X95145986Y-67784294D01*
X94919866Y-67969866D01*
X94734294Y-68195986D01*
X94705000Y-68250791D01*
X94675706Y-68195986D01*
X94490134Y-67969866D01*
X94264014Y-67784294D01*
X94006034Y-67646401D01*
X93726111Y-67561487D01*
X93507950Y-67540000D01*
X93362050Y-67540000D01*
X93143889Y-67561487D01*
X93069005Y-67584203D01*
X92485552Y-67000750D01*
X101735000Y-67000750D01*
X101735000Y-67265042D01*
X101759403Y-67387723D01*
X101807270Y-67503285D01*
X101876763Y-67607289D01*
X101965211Y-67695737D01*
X102069215Y-67765230D01*
X102184777Y-67813097D01*
X102307458Y-67837500D01*
X102784250Y-67837500D01*
X102943000Y-67678750D01*
X102943000Y-66842000D01*
X103197000Y-66842000D01*
X103197000Y-67678750D01*
X103355750Y-67837500D01*
X103832542Y-67837500D01*
X103955223Y-67813097D01*
X104070785Y-67765230D01*
X104174789Y-67695737D01*
X104263237Y-67607289D01*
X104332730Y-67503285D01*
X104380597Y-67387723D01*
X104405000Y-67265042D01*
X104405000Y-67000750D01*
X104246250Y-66842000D01*
X103197000Y-66842000D01*
X102943000Y-66842000D01*
X101893750Y-66842000D01*
X101735000Y-67000750D01*
X92485552Y-67000750D01*
X91815000Y-66330199D01*
X91815000Y-65907845D01*
X91922292Y-65819792D01*
X91927952Y-65812895D01*
X91949263Y-65844789D01*
X92037711Y-65933237D01*
X92141715Y-66002730D01*
X92257277Y-66050597D01*
X92379958Y-66075000D01*
X92644250Y-66075000D01*
X92803000Y-65916250D01*
X92803000Y-64867000D01*
X93057000Y-64867000D01*
X93057000Y-65916250D01*
X93215750Y-66075000D01*
X93480042Y-66075000D01*
X93602723Y-66050597D01*
X93718285Y-66002730D01*
X93822289Y-65933237D01*
X93910737Y-65844789D01*
X93980230Y-65740785D01*
X94028097Y-65625223D01*
X94052500Y-65502542D01*
X94052500Y-65025750D01*
X93893750Y-64867000D01*
X93057000Y-64867000D01*
X92803000Y-64867000D01*
X92783000Y-64867000D01*
X92783000Y-64613000D01*
X92803000Y-64613000D01*
X92803000Y-64593000D01*
X93057000Y-64593000D01*
X93057000Y-64613000D01*
X93893750Y-64613000D01*
X94052500Y-64454250D01*
X94052500Y-63977458D01*
X94028097Y-63854777D01*
X93980230Y-63739215D01*
X93944005Y-63685000D01*
X94602504Y-63685000D01*
X94640542Y-63756164D01*
X94750208Y-63889792D01*
X94835756Y-63960000D01*
X94750208Y-64030208D01*
X94640542Y-64163836D01*
X94559053Y-64316291D01*
X94508872Y-64481715D01*
X94491928Y-64653750D01*
X94491928Y-65141250D01*
X94508872Y-65313285D01*
X94559053Y-65478709D01*
X94640542Y-65631164D01*
X94750208Y-65764792D01*
X94883836Y-65874458D01*
X95036291Y-65955947D01*
X95201715Y-66006128D01*
X95373750Y-66023072D01*
X96286250Y-66023072D01*
X96458285Y-66006128D01*
X96623709Y-65955947D01*
X96776164Y-65874458D01*
X96909792Y-65764792D01*
X96997845Y-65657500D01*
X97435933Y-65657500D01*
X97447601Y-65674963D01*
X97642186Y-65869548D01*
X97870994Y-66022433D01*
X98125231Y-66127742D01*
X98395129Y-66181428D01*
X98670313Y-66181428D01*
X98940211Y-66127742D01*
X99194448Y-66022433D01*
X99423256Y-65869548D01*
X99617841Y-65674963D01*
X99770726Y-65446155D01*
X99802721Y-65368913D01*
X99834716Y-65446155D01*
X99987601Y-65674963D01*
X100182186Y-65869548D01*
X100410994Y-66022433D01*
X100665231Y-66127742D01*
X100935129Y-66181428D01*
X101210313Y-66181428D01*
X101480211Y-66127742D01*
X101734448Y-66022433D01*
X101780318Y-65991784D01*
X101759403Y-66042277D01*
X101735000Y-66164958D01*
X101735000Y-66429250D01*
X101893750Y-66588000D01*
X102943000Y-66588000D01*
X102943000Y-66568000D01*
X103197000Y-66568000D01*
X103197000Y-66588000D01*
X104246250Y-66588000D01*
X104405000Y-66429250D01*
X104405000Y-66164958D01*
X104380597Y-66042277D01*
X104332730Y-65926715D01*
X104263237Y-65822711D01*
X104174789Y-65734263D01*
X104142895Y-65712952D01*
X104149792Y-65707292D01*
X104259458Y-65573664D01*
X104340947Y-65421209D01*
X104391128Y-65255785D01*
X104408072Y-65083750D01*
X104408072Y-64596250D01*
X104391128Y-64424215D01*
X104340947Y-64258791D01*
X104259458Y-64106336D01*
X104149792Y-63972708D01*
X104016164Y-63863042D01*
X103879273Y-63789872D01*
X105765000Y-63789872D01*
X105765000Y-64230128D01*
X105850890Y-64661925D01*
X106019369Y-65068669D01*
X106263962Y-65434729D01*
X106575271Y-65746038D01*
X106941331Y-65990631D01*
X107348075Y-66159110D01*
X107779872Y-66245000D01*
X108220128Y-66245000D01*
X108651925Y-66159110D01*
X109058669Y-65990631D01*
X109424729Y-65746038D01*
X109736038Y-65434729D01*
X109980631Y-65068669D01*
X110149110Y-64661925D01*
X110235000Y-64230128D01*
X110235000Y-63789872D01*
X110149110Y-63358075D01*
X109980631Y-62951331D01*
X109736038Y-62585271D01*
X109424729Y-62273962D01*
X109058669Y-62029369D01*
X108651925Y-61860890D01*
X108220128Y-61775000D01*
X107779872Y-61775000D01*
X107348075Y-61860890D01*
X106941331Y-62029369D01*
X106575271Y-62273962D01*
X106263962Y-62585271D01*
X106019369Y-62951331D01*
X105850890Y-63358075D01*
X105765000Y-63789872D01*
X103879273Y-63789872D01*
X103863709Y-63781553D01*
X103698285Y-63731372D01*
X103526250Y-63714428D01*
X102613750Y-63714428D01*
X102441715Y-63731372D01*
X102276291Y-63781553D01*
X102125891Y-63861943D01*
X101963256Y-63699308D01*
X101734448Y-63546423D01*
X101480211Y-63441114D01*
X101210313Y-63387428D01*
X100935129Y-63387428D01*
X100665231Y-63441114D01*
X100410994Y-63546423D01*
X100182186Y-63699308D01*
X99987601Y-63893893D01*
X99834716Y-64122701D01*
X99802721Y-64199943D01*
X99770726Y-64122701D01*
X99617841Y-63893893D01*
X99423256Y-63699308D01*
X99194448Y-63546423D01*
X98940211Y-63441114D01*
X98670313Y-63387428D01*
X98395129Y-63387428D01*
X98125231Y-63441114D01*
X97870994Y-63546423D01*
X97642186Y-63699308D01*
X97447601Y-63893893D01*
X97294716Y-64122701D01*
X97288586Y-64137500D01*
X96997845Y-64137500D01*
X96909792Y-64030208D01*
X96824244Y-63960000D01*
X96909792Y-63889792D01*
X97019458Y-63756164D01*
X97100947Y-63603709D01*
X97151128Y-63438285D01*
X97168072Y-63266250D01*
X97168072Y-62778750D01*
X97151128Y-62606715D01*
X97100947Y-62441291D01*
X97019458Y-62288836D01*
X96909792Y-62155208D01*
X96776164Y-62045542D01*
X96623709Y-61964053D01*
X96458285Y-61913872D01*
X96286250Y-61896928D01*
X95373750Y-61896928D01*
X95201715Y-61913872D01*
X95036291Y-61964053D01*
X94883836Y-62045542D01*
X94750208Y-62155208D01*
X94742172Y-62165000D01*
X85397845Y-62165000D01*
X85309792Y-62057708D01*
X85176164Y-61948042D01*
X85023709Y-61866553D01*
X84858285Y-61816372D01*
X84686250Y-61799428D01*
X83773750Y-61799428D01*
X83601715Y-61816372D01*
X83436291Y-61866553D01*
X83350330Y-61912500D01*
X74074000Y-61912500D01*
X73979792Y-61797708D01*
X73846164Y-61688042D01*
X73693709Y-61606553D01*
X73528285Y-61556372D01*
X73356250Y-61539428D01*
X72943598Y-61539428D01*
X72983237Y-61499789D01*
X73052730Y-61395785D01*
X73100597Y-61280223D01*
X73125000Y-61157542D01*
X73125000Y-60893250D01*
X72966250Y-60734500D01*
X71917000Y-60734500D01*
X71917000Y-61571250D01*
X72005941Y-61660191D01*
X71953836Y-61688042D01*
X71820208Y-61797708D01*
X71710542Y-61931336D01*
X71629053Y-62083791D01*
X71578872Y-62249215D01*
X71561928Y-62421250D01*
X71561928Y-62445770D01*
X70931199Y-63076500D01*
X70832489Y-63157509D01*
X70808690Y-63186508D01*
X70559002Y-63436197D01*
X70529999Y-63459999D01*
X70492076Y-63506209D01*
X70435026Y-63575724D01*
X70373210Y-63691372D01*
X70364454Y-63707754D01*
X70320997Y-63851015D01*
X70310000Y-63962668D01*
X70310000Y-63962678D01*
X70306324Y-64000000D01*
X70310000Y-64037322D01*
X70310000Y-64582988D01*
X70300000Y-64684518D01*
X70300000Y-64684528D01*
X70296324Y-64721850D01*
X70300000Y-64759172D01*
X70300000Y-65562678D01*
X70296324Y-65600000D01*
X70300000Y-65637322D01*
X70300000Y-65637333D01*
X70309548Y-65734263D01*
X70310998Y-65748985D01*
X70354454Y-65892246D01*
X70425026Y-66024276D01*
X70496201Y-66111002D01*
X70520000Y-66140001D01*
X70548998Y-66163799D01*
X71986200Y-67601002D01*
X72009999Y-67630001D01*
X72125724Y-67724974D01*
X72257753Y-67795546D01*
X72401014Y-67839003D01*
X72512667Y-67850000D01*
X72512676Y-67850000D01*
X72549999Y-67853676D01*
X72587322Y-67850000D01*
X75064474Y-67850000D01*
X75019263Y-67895211D01*
X74949770Y-67999215D01*
X74901903Y-68114777D01*
X74877500Y-68237458D01*
X74877500Y-68714250D01*
X75036250Y-68873000D01*
X75873000Y-68873000D01*
X75873000Y-68853000D01*
X76127000Y-68853000D01*
X76127000Y-68873000D01*
X76147000Y-68873000D01*
X76147000Y-69127000D01*
X76127000Y-69127000D01*
X76127000Y-70176250D01*
X76285750Y-70335000D01*
X76550042Y-70335000D01*
X76672723Y-70310597D01*
X76788285Y-70262730D01*
X76892289Y-70193237D01*
X76980737Y-70104789D01*
X77002048Y-70072895D01*
X77007708Y-70079792D01*
X77141336Y-70189458D01*
X77293791Y-70270947D01*
X77459215Y-70321128D01*
X77631250Y-70338072D01*
X78118750Y-70338072D01*
X78290785Y-70321128D01*
X78456209Y-70270947D01*
X78608664Y-70189458D01*
X78742292Y-70079792D01*
X78851958Y-69946164D01*
X78933447Y-69793709D01*
X78943673Y-69760000D01*
X81786928Y-69760000D01*
X81786928Y-69875000D01*
X81799188Y-69999482D01*
X81835498Y-70119180D01*
X81894463Y-70229494D01*
X81973815Y-70326185D01*
X82070506Y-70405537D01*
X82180820Y-70464502D01*
X82300518Y-70500812D01*
X82425000Y-70513072D01*
X84125000Y-70513072D01*
X84249482Y-70500812D01*
X84369180Y-70464502D01*
X84415786Y-70439590D01*
X84841196Y-70865000D01*
X65145118Y-70865000D01*
X64831467Y-70895892D01*
X64429018Y-71017974D01*
X64058119Y-71216223D01*
X63735000Y-71481401D01*
X63735000Y-69285750D01*
X74877500Y-69285750D01*
X74877500Y-69762542D01*
X74901903Y-69885223D01*
X74949770Y-70000785D01*
X75019263Y-70104789D01*
X75107711Y-70193237D01*
X75211715Y-70262730D01*
X75327277Y-70310597D01*
X75449958Y-70335000D01*
X75714250Y-70335000D01*
X75873000Y-70176250D01*
X75873000Y-69127000D01*
X75036250Y-69127000D01*
X74877500Y-69285750D01*
X63735000Y-69285750D01*
X63735000Y-63779872D01*
X65765000Y-63779872D01*
X65765000Y-64220128D01*
X65850890Y-64651925D01*
X66019369Y-65058669D01*
X66263962Y-65424729D01*
X66575271Y-65736038D01*
X66941331Y-65980631D01*
X67348075Y-66149110D01*
X67779872Y-66235000D01*
X68220128Y-66235000D01*
X68651925Y-66149110D01*
X69058669Y-65980631D01*
X69424729Y-65736038D01*
X69736038Y-65424729D01*
X69980631Y-65058669D01*
X70149110Y-64651925D01*
X70235000Y-64220128D01*
X70235000Y-63779872D01*
X70149110Y-63348075D01*
X69980631Y-62941331D01*
X69736038Y-62575271D01*
X69424729Y-62263962D01*
X69058669Y-62019369D01*
X68651925Y-61850890D01*
X68220128Y-61765000D01*
X67779872Y-61765000D01*
X67348075Y-61850890D01*
X66941331Y-62019369D01*
X66575271Y-62263962D01*
X66263962Y-62575271D01*
X66019369Y-62941331D01*
X65850890Y-63348075D01*
X65765000Y-63779872D01*
X63735000Y-63779872D01*
X63735000Y-60893250D01*
X70455000Y-60893250D01*
X70455000Y-61157542D01*
X70479403Y-61280223D01*
X70527270Y-61395785D01*
X70596763Y-61499789D01*
X70685211Y-61588237D01*
X70789215Y-61657730D01*
X70904777Y-61705597D01*
X71027458Y-61730000D01*
X71504250Y-61730000D01*
X71663000Y-61571250D01*
X71663000Y-60734500D01*
X70613750Y-60734500D01*
X70455000Y-60893250D01*
X63735000Y-60893250D01*
X63735000Y-60589993D01*
X74206761Y-60589993D01*
X74273741Y-60830084D01*
X74522769Y-60947184D01*
X74789856Y-61013451D01*
X75064738Y-61026338D01*
X75336854Y-60985350D01*
X75595744Y-60892064D01*
X75711701Y-60830084D01*
X75778681Y-60589993D01*
X74992721Y-59804033D01*
X74206761Y-60589993D01*
X63735000Y-60589993D01*
X63735000Y-58488750D01*
X70451928Y-58488750D01*
X70451928Y-58976250D01*
X70468872Y-59148285D01*
X70519053Y-59313709D01*
X70600542Y-59466164D01*
X70710208Y-59599792D01*
X70717105Y-59605452D01*
X70685211Y-59626763D01*
X70596763Y-59715211D01*
X70527270Y-59819215D01*
X70479403Y-59934777D01*
X70455000Y-60057458D01*
X70455000Y-60321750D01*
X70613750Y-60480500D01*
X71663000Y-60480500D01*
X71663000Y-60460500D01*
X71917000Y-60460500D01*
X71917000Y-60480500D01*
X72966250Y-60480500D01*
X73125000Y-60321750D01*
X73125000Y-60057458D01*
X73100597Y-59934777D01*
X73052730Y-59819215D01*
X72983237Y-59715211D01*
X72894789Y-59626763D01*
X72862895Y-59605452D01*
X72869792Y-59599792D01*
X72979458Y-59466164D01*
X73060947Y-59313709D01*
X73065886Y-59297427D01*
X73634497Y-59297427D01*
X73603698Y-59421563D01*
X73590811Y-59696445D01*
X73631799Y-59968561D01*
X73725085Y-60227451D01*
X73787065Y-60343408D01*
X74027156Y-60410388D01*
X74813116Y-59624428D01*
X74798974Y-59610286D01*
X74978579Y-59430681D01*
X74992721Y-59444823D01*
X75006864Y-59430681D01*
X75186469Y-59610286D01*
X75172326Y-59624428D01*
X75958286Y-60410388D01*
X76198377Y-60343408D01*
X76262206Y-60207668D01*
X76294716Y-60286155D01*
X76447601Y-60514963D01*
X76642186Y-60709548D01*
X76870994Y-60862433D01*
X77125231Y-60967742D01*
X77395129Y-61021428D01*
X77670313Y-61021428D01*
X77940211Y-60967742D01*
X78194448Y-60862433D01*
X78423256Y-60709548D01*
X78462811Y-60669993D01*
X85746761Y-60669993D01*
X85813741Y-60910084D01*
X86062769Y-61027184D01*
X86329856Y-61093451D01*
X86604738Y-61106338D01*
X86876854Y-61065350D01*
X87135744Y-60972064D01*
X87251701Y-60910084D01*
X87318681Y-60669993D01*
X86532721Y-59884033D01*
X85746761Y-60669993D01*
X78462811Y-60669993D01*
X78617841Y-60514963D01*
X78770726Y-60286155D01*
X78876035Y-60031918D01*
X78929721Y-59762020D01*
X78929721Y-59486836D01*
X78907958Y-59377427D01*
X85174497Y-59377427D01*
X85143698Y-59501563D01*
X85130811Y-59776445D01*
X85171799Y-60048561D01*
X85265085Y-60307451D01*
X85327065Y-60423408D01*
X85567156Y-60490388D01*
X86353116Y-59704428D01*
X86338974Y-59690286D01*
X86518579Y-59510681D01*
X86532721Y-59524823D01*
X86546864Y-59510681D01*
X86726469Y-59690286D01*
X86712326Y-59704428D01*
X87498286Y-60490388D01*
X87738377Y-60423408D01*
X87802206Y-60287668D01*
X87834716Y-60366155D01*
X87987601Y-60594963D01*
X88182186Y-60789548D01*
X88410994Y-60942433D01*
X88665231Y-61047742D01*
X88935129Y-61101428D01*
X89210313Y-61101428D01*
X89480211Y-61047742D01*
X89734448Y-60942433D01*
X89963256Y-60789548D01*
X90082811Y-60669993D01*
X97746761Y-60669993D01*
X97813741Y-60910084D01*
X98062769Y-61027184D01*
X98329856Y-61093451D01*
X98604738Y-61106338D01*
X98876854Y-61065350D01*
X99135744Y-60972064D01*
X99251701Y-60910084D01*
X99318681Y-60669993D01*
X98532721Y-59884033D01*
X97746761Y-60669993D01*
X90082811Y-60669993D01*
X90157841Y-60594963D01*
X90310726Y-60366155D01*
X90416035Y-60111918D01*
X90469721Y-59842020D01*
X90469721Y-59566836D01*
X90439093Y-59412858D01*
X90474524Y-59377427D01*
X97174497Y-59377427D01*
X97143698Y-59501563D01*
X97130811Y-59776445D01*
X97171799Y-60048561D01*
X97265085Y-60307451D01*
X97327065Y-60423408D01*
X97567156Y-60490388D01*
X98353116Y-59704428D01*
X98338974Y-59690286D01*
X98518579Y-59510681D01*
X98532721Y-59524823D01*
X98546864Y-59510681D01*
X98726469Y-59690286D01*
X98712326Y-59704428D01*
X99498286Y-60490388D01*
X99738377Y-60423408D01*
X99802206Y-60287668D01*
X99834716Y-60366155D01*
X99987601Y-60594963D01*
X100182186Y-60789548D01*
X100410994Y-60942433D01*
X100665231Y-61047742D01*
X100935129Y-61101428D01*
X101210313Y-61101428D01*
X101480211Y-61047742D01*
X101734448Y-60942433D01*
X101963256Y-60789548D01*
X102157841Y-60594963D01*
X102310726Y-60366155D01*
X102416035Y-60111918D01*
X102469721Y-59842020D01*
X102469721Y-59566836D01*
X102416035Y-59296938D01*
X102310726Y-59042701D01*
X102157841Y-58813893D01*
X101963256Y-58619308D01*
X101734448Y-58466423D01*
X101480211Y-58361114D01*
X101210313Y-58307428D01*
X100935129Y-58307428D01*
X100781150Y-58338056D01*
X100549524Y-58106430D01*
X100525721Y-58077426D01*
X100409996Y-57982453D01*
X100277967Y-57911881D01*
X100134706Y-57868424D01*
X100023053Y-57857427D01*
X100023042Y-57857427D01*
X99985720Y-57853751D01*
X99948398Y-57857427D01*
X90197055Y-57857427D01*
X90159722Y-57853750D01*
X90122389Y-57857427D01*
X90010736Y-57868424D01*
X89867475Y-57911881D01*
X89735446Y-57982453D01*
X89619721Y-58077426D01*
X89595923Y-58106424D01*
X89364291Y-58338056D01*
X89210313Y-58307428D01*
X88935129Y-58307428D01*
X88781150Y-58338056D01*
X88549524Y-58106430D01*
X88525721Y-58077426D01*
X88409996Y-57982453D01*
X88277967Y-57911881D01*
X88134706Y-57868424D01*
X88023053Y-57857427D01*
X88023042Y-57857427D01*
X87985720Y-57853751D01*
X87948398Y-57857427D01*
X78577044Y-57857427D01*
X78539721Y-57853751D01*
X78502398Y-57857427D01*
X78502389Y-57857427D01*
X78390736Y-57868424D01*
X78247475Y-57911881D01*
X78115446Y-57982453D01*
X78115444Y-57982454D01*
X78115445Y-57982454D01*
X78028718Y-58053628D01*
X78028714Y-58053632D01*
X77999721Y-58077426D01*
X77975927Y-58106419D01*
X77824290Y-58258056D01*
X77670313Y-58227428D01*
X77395129Y-58227428D01*
X77241150Y-58258056D01*
X77009524Y-58026430D01*
X76985721Y-57997426D01*
X76869996Y-57902453D01*
X76737967Y-57831881D01*
X76594706Y-57788424D01*
X76483053Y-57777427D01*
X76483042Y-57777427D01*
X76445720Y-57773751D01*
X76408398Y-57777427D01*
X72762831Y-57777427D01*
X72736164Y-57755542D01*
X72583709Y-57674053D01*
X72418285Y-57623872D01*
X72246250Y-57606928D01*
X71333750Y-57606928D01*
X71161715Y-57623872D01*
X70996291Y-57674053D01*
X70843836Y-57755542D01*
X70710208Y-57865208D01*
X70600542Y-57998836D01*
X70519053Y-58151291D01*
X70468872Y-58316715D01*
X70451928Y-58488750D01*
X63735000Y-58488750D01*
X63735000Y-57235001D01*
X112265001Y-57235001D01*
X112265000Y-71481401D01*
X112265000Y-71481401D01*
G37*
X112265000Y-71481401D02*
X111941881Y-71216223D01*
X111570982Y-71017974D01*
X111168533Y-70895892D01*
X110854882Y-70865000D01*
X90129801Y-70865000D01*
X90529004Y-70465797D01*
X90603889Y-70488513D01*
X90822050Y-70510000D01*
X90967950Y-70510000D01*
X91186111Y-70488513D01*
X91466034Y-70403599D01*
X91724014Y-70265706D01*
X91950134Y-70080134D01*
X92135706Y-69854014D01*
X92165000Y-69799209D01*
X92194294Y-69854014D01*
X92379866Y-70080134D01*
X92605986Y-70265706D01*
X92863966Y-70403599D01*
X93143889Y-70488513D01*
X93362050Y-70510000D01*
X93507950Y-70510000D01*
X93726111Y-70488513D01*
X94006034Y-70403599D01*
X94264014Y-70265706D01*
X94490134Y-70080134D01*
X94675706Y-69854014D01*
X94705000Y-69799209D01*
X94734294Y-69854014D01*
X94919866Y-70080134D01*
X95145986Y-70265706D01*
X95403966Y-70403599D01*
X95683889Y-70488513D01*
X95902050Y-70510000D01*
X96047950Y-70510000D01*
X96266111Y-70488513D01*
X96546034Y-70403599D01*
X96804014Y-70265706D01*
X97030134Y-70080134D01*
X97215706Y-69854014D01*
X97353599Y-69596034D01*
X97438513Y-69316111D01*
X97467185Y-69025000D01*
X97438513Y-68733889D01*
X97353599Y-68453966D01*
X97215706Y-68195986D01*
X97030134Y-67969866D01*
X96804014Y-67784294D01*
X96546034Y-67646401D01*
X96266111Y-67561487D01*
X96047950Y-67540000D01*
X95902050Y-67540000D01*
X95683889Y-67561487D01*
X95403966Y-67646401D01*
X95145986Y-67784294D01*
X94919866Y-67969866D01*
X94734294Y-68195986D01*
X94705000Y-68250791D01*
X94675706Y-68195986D01*
X94490134Y-67969866D01*
X94264014Y-67784294D01*
X94006034Y-67646401D01*
X93726111Y-67561487D01*
X93507950Y-67540000D01*
X93362050Y-67540000D01*
X93143889Y-67561487D01*
X93069005Y-67584203D01*
X92485552Y-67000750D01*
X101735000Y-67000750D01*
X101735000Y-67265042D01*
X101759403Y-67387723D01*
X101807270Y-67503285D01*
X101876763Y-67607289D01*
X101965211Y-67695737D01*
X102069215Y-67765230D01*
X102184777Y-67813097D01*
X102307458Y-67837500D01*
X102784250Y-67837500D01*
X102943000Y-67678750D01*
X102943000Y-66842000D01*
X103197000Y-66842000D01*
X103197000Y-67678750D01*
X103355750Y-67837500D01*
X103832542Y-67837500D01*
X103955223Y-67813097D01*
X104070785Y-67765230D01*
X104174789Y-67695737D01*
X104263237Y-67607289D01*
X104332730Y-67503285D01*
X104380597Y-67387723D01*
X104405000Y-67265042D01*
X104405000Y-67000750D01*
X104246250Y-66842000D01*
X103197000Y-66842000D01*
X102943000Y-66842000D01*
X101893750Y-66842000D01*
X101735000Y-67000750D01*
X92485552Y-67000750D01*
X91815000Y-66330199D01*
X91815000Y-65907845D01*
X91922292Y-65819792D01*
X91927952Y-65812895D01*
X91949263Y-65844789D01*
X92037711Y-65933237D01*
X92141715Y-66002730D01*
X92257277Y-66050597D01*
X92379958Y-66075000D01*
X92644250Y-66075000D01*
X92803000Y-65916250D01*
X92803000Y-64867000D01*
X93057000Y-64867000D01*
X93057000Y-65916250D01*
X93215750Y-66075000D01*
X93480042Y-66075000D01*
X93602723Y-66050597D01*
X93718285Y-66002730D01*
X93822289Y-65933237D01*
X93910737Y-65844789D01*
X93980230Y-65740785D01*
X94028097Y-65625223D01*
X94052500Y-65502542D01*
X94052500Y-65025750D01*
X93893750Y-64867000D01*
X93057000Y-64867000D01*
X92803000Y-64867000D01*
X92783000Y-64867000D01*
X92783000Y-64613000D01*
X92803000Y-64613000D01*
X92803000Y-64593000D01*
X93057000Y-64593000D01*
X93057000Y-64613000D01*
X93893750Y-64613000D01*
X94052500Y-64454250D01*
X94052500Y-63977458D01*
X94028097Y-63854777D01*
X93980230Y-63739215D01*
X93944005Y-63685000D01*
X94602504Y-63685000D01*
X94640542Y-63756164D01*
X94750208Y-63889792D01*
X94835756Y-63960000D01*
X94750208Y-64030208D01*
X94640542Y-64163836D01*
X94559053Y-64316291D01*
X94508872Y-64481715D01*
X94491928Y-64653750D01*
X94491928Y-65141250D01*
X94508872Y-65313285D01*
X94559053Y-65478709D01*
X94640542Y-65631164D01*
X94750208Y-65764792D01*
X94883836Y-65874458D01*
X95036291Y-65955947D01*
X95201715Y-66006128D01*
X95373750Y-66023072D01*
X96286250Y-66023072D01*
X96458285Y-66006128D01*
X96623709Y-65955947D01*
X96776164Y-65874458D01*
X96909792Y-65764792D01*
X96997845Y-65657500D01*
X97435933Y-65657500D01*
X97447601Y-65674963D01*
X97642186Y-65869548D01*
X97870994Y-66022433D01*
X98125231Y-66127742D01*
X98395129Y-66181428D01*
X98670313Y-66181428D01*
X98940211Y-66127742D01*
X99194448Y-66022433D01*
X99423256Y-65869548D01*
X99617841Y-65674963D01*
X99770726Y-65446155D01*
X99802721Y-65368913D01*
X99834716Y-65446155D01*
X99987601Y-65674963D01*
X100182186Y-65869548D01*
X100410994Y-66022433D01*
X100665231Y-66127742D01*
X100935129Y-66181428D01*
X101210313Y-66181428D01*
X101480211Y-66127742D01*
X101734448Y-66022433D01*
X101780318Y-65991784D01*
X101759403Y-66042277D01*
X101735000Y-66164958D01*
X101735000Y-66429250D01*
X101893750Y-66588000D01*
X102943000Y-66588000D01*
X102943000Y-66568000D01*
X103197000Y-66568000D01*
X103197000Y-66588000D01*
X104246250Y-66588000D01*
X104405000Y-66429250D01*
X104405000Y-66164958D01*
X104380597Y-66042277D01*
X104332730Y-65926715D01*
X104263237Y-65822711D01*
X104174789Y-65734263D01*
X104142895Y-65712952D01*
X104149792Y-65707292D01*
X104259458Y-65573664D01*
X104340947Y-65421209D01*
X104391128Y-65255785D01*
X104408072Y-65083750D01*
X104408072Y-64596250D01*
X104391128Y-64424215D01*
X104340947Y-64258791D01*
X104259458Y-64106336D01*
X104149792Y-63972708D01*
X104016164Y-63863042D01*
X103879273Y-63789872D01*
X105765000Y-63789872D01*
X105765000Y-64230128D01*
X105850890Y-64661925D01*
X106019369Y-65068669D01*
X106263962Y-65434729D01*
X106575271Y-65746038D01*
X106941331Y-65990631D01*
X107348075Y-66159110D01*
X107779872Y-66245000D01*
X108220128Y-66245000D01*
X108651925Y-66159110D01*
X109058669Y-65990631D01*
X109424729Y-65746038D01*
X109736038Y-65434729D01*
X109980631Y-65068669D01*
X110149110Y-64661925D01*
X110235000Y-64230128D01*
X110235000Y-63789872D01*
X110149110Y-63358075D01*
X109980631Y-62951331D01*
X109736038Y-62585271D01*
X109424729Y-62273962D01*
X109058669Y-62029369D01*
X108651925Y-61860890D01*
X108220128Y-61775000D01*
X107779872Y-61775000D01*
X107348075Y-61860890D01*
X106941331Y-62029369D01*
X106575271Y-62273962D01*
X106263962Y-62585271D01*
X106019369Y-62951331D01*
X105850890Y-63358075D01*
X105765000Y-63789872D01*
X103879273Y-63789872D01*
X103863709Y-63781553D01*
X103698285Y-63731372D01*
X103526250Y-63714428D01*
X102613750Y-63714428D01*
X102441715Y-63731372D01*
X102276291Y-63781553D01*
X102125891Y-63861943D01*
X101963256Y-63699308D01*
X101734448Y-63546423D01*
X101480211Y-63441114D01*
X101210313Y-63387428D01*
X100935129Y-63387428D01*
X100665231Y-63441114D01*
X100410994Y-63546423D01*
X100182186Y-63699308D01*
X99987601Y-63893893D01*
X99834716Y-64122701D01*
X99802721Y-64199943D01*
X99770726Y-64122701D01*
X99617841Y-63893893D01*
X99423256Y-63699308D01*
X99194448Y-63546423D01*
X98940211Y-63441114D01*
X98670313Y-63387428D01*
X98395129Y-63387428D01*
X98125231Y-63441114D01*
X97870994Y-63546423D01*
X97642186Y-63699308D01*
X97447601Y-63893893D01*
X97294716Y-64122701D01*
X97288586Y-64137500D01*
X96997845Y-64137500D01*
X96909792Y-64030208D01*
X96824244Y-63960000D01*
X96909792Y-63889792D01*
X97019458Y-63756164D01*
X97100947Y-63603709D01*
X97151128Y-63438285D01*
X97168072Y-63266250D01*
X97168072Y-62778750D01*
X97151128Y-62606715D01*
X97100947Y-62441291D01*
X97019458Y-62288836D01*
X96909792Y-62155208D01*
X96776164Y-62045542D01*
X96623709Y-61964053D01*
X96458285Y-61913872D01*
X96286250Y-61896928D01*
X95373750Y-61896928D01*
X95201715Y-61913872D01*
X95036291Y-61964053D01*
X94883836Y-62045542D01*
X94750208Y-62155208D01*
X94742172Y-62165000D01*
X85397845Y-62165000D01*
X85309792Y-62057708D01*
X85176164Y-61948042D01*
X85023709Y-61866553D01*
X84858285Y-61816372D01*
X84686250Y-61799428D01*
X83773750Y-61799428D01*
X83601715Y-61816372D01*
X83436291Y-61866553D01*
X83350330Y-61912500D01*
X74074000Y-61912500D01*
X73979792Y-61797708D01*
X73846164Y-61688042D01*
X73693709Y-61606553D01*
X73528285Y-61556372D01*
X73356250Y-61539428D01*
X72943598Y-61539428D01*
X72983237Y-61499789D01*
X73052730Y-61395785D01*
X73100597Y-61280223D01*
X73125000Y-61157542D01*
X73125000Y-60893250D01*
X72966250Y-60734500D01*
X71917000Y-60734500D01*
X71917000Y-61571250D01*
X72005941Y-61660191D01*
X71953836Y-61688042D01*
X71820208Y-61797708D01*
X71710542Y-61931336D01*
X71629053Y-62083791D01*
X71578872Y-62249215D01*
X71561928Y-62421250D01*
X71561928Y-62445770D01*
X70931199Y-63076500D01*
X70832489Y-63157509D01*
X70808690Y-63186508D01*
X70559002Y-63436197D01*
X70529999Y-63459999D01*
X70492076Y-63506209D01*
X70435026Y-63575724D01*
X70373210Y-63691372D01*
X70364454Y-63707754D01*
X70320997Y-63851015D01*
X70310000Y-63962668D01*
X70310000Y-63962678D01*
X70306324Y-64000000D01*
X70310000Y-64037322D01*
X70310000Y-64582988D01*
X70300000Y-64684518D01*
X70300000Y-64684528D01*
X70296324Y-64721850D01*
X70300000Y-64759172D01*
X70300000Y-65562678D01*
X70296324Y-65600000D01*
X70300000Y-65637322D01*
X70300000Y-65637333D01*
X70309548Y-65734263D01*
X70310998Y-65748985D01*
X70354454Y-65892246D01*
X70425026Y-66024276D01*
X70496201Y-66111002D01*
X70520000Y-66140001D01*
X70548998Y-66163799D01*
X71986200Y-67601002D01*
X72009999Y-67630001D01*
X72125724Y-67724974D01*
X72257753Y-67795546D01*
X72401014Y-67839003D01*
X72512667Y-67850000D01*
X72512676Y-67850000D01*
X72549999Y-67853676D01*
X72587322Y-67850000D01*
X75064474Y-67850000D01*
X75019263Y-67895211D01*
X74949770Y-67999215D01*
X74901903Y-68114777D01*
X74877500Y-68237458D01*
X74877500Y-68714250D01*
X75036250Y-68873000D01*
X75873000Y-68873000D01*
X75873000Y-68853000D01*
X76127000Y-68853000D01*
X76127000Y-68873000D01*
X76147000Y-68873000D01*
X76147000Y-69127000D01*
X76127000Y-69127000D01*
X76127000Y-70176250D01*
X76285750Y-70335000D01*
X76550042Y-70335000D01*
X76672723Y-70310597D01*
X76788285Y-70262730D01*
X76892289Y-70193237D01*
X76980737Y-70104789D01*
X77002048Y-70072895D01*
X77007708Y-70079792D01*
X77141336Y-70189458D01*
X77293791Y-70270947D01*
X77459215Y-70321128D01*
X77631250Y-70338072D01*
X78118750Y-70338072D01*
X78290785Y-70321128D01*
X78456209Y-70270947D01*
X78608664Y-70189458D01*
X78742292Y-70079792D01*
X78851958Y-69946164D01*
X78933447Y-69793709D01*
X78943673Y-69760000D01*
X81786928Y-69760000D01*
X81786928Y-69875000D01*
X81799188Y-69999482D01*
X81835498Y-70119180D01*
X81894463Y-70229494D01*
X81973815Y-70326185D01*
X82070506Y-70405537D01*
X82180820Y-70464502D01*
X82300518Y-70500812D01*
X82425000Y-70513072D01*
X84125000Y-70513072D01*
X84249482Y-70500812D01*
X84369180Y-70464502D01*
X84415786Y-70439590D01*
X84841196Y-70865000D01*
X65145118Y-70865000D01*
X64831467Y-70895892D01*
X64429018Y-71017974D01*
X64058119Y-71216223D01*
X63735000Y-71481401D01*
X63735000Y-69285750D01*
X74877500Y-69285750D01*
X74877500Y-69762542D01*
X74901903Y-69885223D01*
X74949770Y-70000785D01*
X75019263Y-70104789D01*
X75107711Y-70193237D01*
X75211715Y-70262730D01*
X75327277Y-70310597D01*
X75449958Y-70335000D01*
X75714250Y-70335000D01*
X75873000Y-70176250D01*
X75873000Y-69127000D01*
X75036250Y-69127000D01*
X74877500Y-69285750D01*
X63735000Y-69285750D01*
X63735000Y-63779872D01*
X65765000Y-63779872D01*
X65765000Y-64220128D01*
X65850890Y-64651925D01*
X66019369Y-65058669D01*
X66263962Y-65424729D01*
X66575271Y-65736038D01*
X66941331Y-65980631D01*
X67348075Y-66149110D01*
X67779872Y-66235000D01*
X68220128Y-66235000D01*
X68651925Y-66149110D01*
X69058669Y-65980631D01*
X69424729Y-65736038D01*
X69736038Y-65424729D01*
X69980631Y-65058669D01*
X70149110Y-64651925D01*
X70235000Y-64220128D01*
X70235000Y-63779872D01*
X70149110Y-63348075D01*
X69980631Y-62941331D01*
X69736038Y-62575271D01*
X69424729Y-62263962D01*
X69058669Y-62019369D01*
X68651925Y-61850890D01*
X68220128Y-61765000D01*
X67779872Y-61765000D01*
X67348075Y-61850890D01*
X66941331Y-62019369D01*
X66575271Y-62263962D01*
X66263962Y-62575271D01*
X66019369Y-62941331D01*
X65850890Y-63348075D01*
X65765000Y-63779872D01*
X63735000Y-63779872D01*
X63735000Y-60893250D01*
X70455000Y-60893250D01*
X70455000Y-61157542D01*
X70479403Y-61280223D01*
X70527270Y-61395785D01*
X70596763Y-61499789D01*
X70685211Y-61588237D01*
X70789215Y-61657730D01*
X70904777Y-61705597D01*
X71027458Y-61730000D01*
X71504250Y-61730000D01*
X71663000Y-61571250D01*
X71663000Y-60734500D01*
X70613750Y-60734500D01*
X70455000Y-60893250D01*
X63735000Y-60893250D01*
X63735000Y-60589993D01*
X74206761Y-60589993D01*
X74273741Y-60830084D01*
X74522769Y-60947184D01*
X74789856Y-61013451D01*
X75064738Y-61026338D01*
X75336854Y-60985350D01*
X75595744Y-60892064D01*
X75711701Y-60830084D01*
X75778681Y-60589993D01*
X74992721Y-59804033D01*
X74206761Y-60589993D01*
X63735000Y-60589993D01*
X63735000Y-58488750D01*
X70451928Y-58488750D01*
X70451928Y-58976250D01*
X70468872Y-59148285D01*
X70519053Y-59313709D01*
X70600542Y-59466164D01*
X70710208Y-59599792D01*
X70717105Y-59605452D01*
X70685211Y-59626763D01*
X70596763Y-59715211D01*
X70527270Y-59819215D01*
X70479403Y-59934777D01*
X70455000Y-60057458D01*
X70455000Y-60321750D01*
X70613750Y-60480500D01*
X71663000Y-60480500D01*
X71663000Y-60460500D01*
X71917000Y-60460500D01*
X71917000Y-60480500D01*
X72966250Y-60480500D01*
X73125000Y-60321750D01*
X73125000Y-60057458D01*
X73100597Y-59934777D01*
X73052730Y-59819215D01*
X72983237Y-59715211D01*
X72894789Y-59626763D01*
X72862895Y-59605452D01*
X72869792Y-59599792D01*
X72979458Y-59466164D01*
X73060947Y-59313709D01*
X73065886Y-59297427D01*
X73634497Y-59297427D01*
X73603698Y-59421563D01*
X73590811Y-59696445D01*
X73631799Y-59968561D01*
X73725085Y-60227451D01*
X73787065Y-60343408D01*
X74027156Y-60410388D01*
X74813116Y-59624428D01*
X74798974Y-59610286D01*
X74978579Y-59430681D01*
X74992721Y-59444823D01*
X75006864Y-59430681D01*
X75186469Y-59610286D01*
X75172326Y-59624428D01*
X75958286Y-60410388D01*
X76198377Y-60343408D01*
X76262206Y-60207668D01*
X76294716Y-60286155D01*
X76447601Y-60514963D01*
X76642186Y-60709548D01*
X76870994Y-60862433D01*
X77125231Y-60967742D01*
X77395129Y-61021428D01*
X77670313Y-61021428D01*
X77940211Y-60967742D01*
X78194448Y-60862433D01*
X78423256Y-60709548D01*
X78462811Y-60669993D01*
X85746761Y-60669993D01*
X85813741Y-60910084D01*
X86062769Y-61027184D01*
X86329856Y-61093451D01*
X86604738Y-61106338D01*
X86876854Y-61065350D01*
X87135744Y-60972064D01*
X87251701Y-60910084D01*
X87318681Y-60669993D01*
X86532721Y-59884033D01*
X85746761Y-60669993D01*
X78462811Y-60669993D01*
X78617841Y-60514963D01*
X78770726Y-60286155D01*
X78876035Y-60031918D01*
X78929721Y-59762020D01*
X78929721Y-59486836D01*
X78907958Y-59377427D01*
X85174497Y-59377427D01*
X85143698Y-59501563D01*
X85130811Y-59776445D01*
X85171799Y-60048561D01*
X85265085Y-60307451D01*
X85327065Y-60423408D01*
X85567156Y-60490388D01*
X86353116Y-59704428D01*
X86338974Y-59690286D01*
X86518579Y-59510681D01*
X86532721Y-59524823D01*
X86546864Y-59510681D01*
X86726469Y-59690286D01*
X86712326Y-59704428D01*
X87498286Y-60490388D01*
X87738377Y-60423408D01*
X87802206Y-60287668D01*
X87834716Y-60366155D01*
X87987601Y-60594963D01*
X88182186Y-60789548D01*
X88410994Y-60942433D01*
X88665231Y-61047742D01*
X88935129Y-61101428D01*
X89210313Y-61101428D01*
X89480211Y-61047742D01*
X89734448Y-60942433D01*
X89963256Y-60789548D01*
X90082811Y-60669993D01*
X97746761Y-60669993D01*
X97813741Y-60910084D01*
X98062769Y-61027184D01*
X98329856Y-61093451D01*
X98604738Y-61106338D01*
X98876854Y-61065350D01*
X99135744Y-60972064D01*
X99251701Y-60910084D01*
X99318681Y-60669993D01*
X98532721Y-59884033D01*
X97746761Y-60669993D01*
X90082811Y-60669993D01*
X90157841Y-60594963D01*
X90310726Y-60366155D01*
X90416035Y-60111918D01*
X90469721Y-59842020D01*
X90469721Y-59566836D01*
X90439093Y-59412858D01*
X90474524Y-59377427D01*
X97174497Y-59377427D01*
X97143698Y-59501563D01*
X97130811Y-59776445D01*
X97171799Y-60048561D01*
X97265085Y-60307451D01*
X97327065Y-60423408D01*
X97567156Y-60490388D01*
X98353116Y-59704428D01*
X98338974Y-59690286D01*
X98518579Y-59510681D01*
X98532721Y-59524823D01*
X98546864Y-59510681D01*
X98726469Y-59690286D01*
X98712326Y-59704428D01*
X99498286Y-60490388D01*
X99738377Y-60423408D01*
X99802206Y-60287668D01*
X99834716Y-60366155D01*
X99987601Y-60594963D01*
X100182186Y-60789548D01*
X100410994Y-60942433D01*
X100665231Y-61047742D01*
X100935129Y-61101428D01*
X101210313Y-61101428D01*
X101480211Y-61047742D01*
X101734448Y-60942433D01*
X101963256Y-60789548D01*
X102157841Y-60594963D01*
X102310726Y-60366155D01*
X102416035Y-60111918D01*
X102469721Y-59842020D01*
X102469721Y-59566836D01*
X102416035Y-59296938D01*
X102310726Y-59042701D01*
X102157841Y-58813893D01*
X101963256Y-58619308D01*
X101734448Y-58466423D01*
X101480211Y-58361114D01*
X101210313Y-58307428D01*
X100935129Y-58307428D01*
X100781150Y-58338056D01*
X100549524Y-58106430D01*
X100525721Y-58077426D01*
X100409996Y-57982453D01*
X100277967Y-57911881D01*
X100134706Y-57868424D01*
X100023053Y-57857427D01*
X100023042Y-57857427D01*
X99985720Y-57853751D01*
X99948398Y-57857427D01*
X90197055Y-57857427D01*
X90159722Y-57853750D01*
X90122389Y-57857427D01*
X90010736Y-57868424D01*
X89867475Y-57911881D01*
X89735446Y-57982453D01*
X89619721Y-58077426D01*
X89595923Y-58106424D01*
X89364291Y-58338056D01*
X89210313Y-58307428D01*
X88935129Y-58307428D01*
X88781150Y-58338056D01*
X88549524Y-58106430D01*
X88525721Y-58077426D01*
X88409996Y-57982453D01*
X88277967Y-57911881D01*
X88134706Y-57868424D01*
X88023053Y-57857427D01*
X88023042Y-57857427D01*
X87985720Y-57853751D01*
X87948398Y-57857427D01*
X78577044Y-57857427D01*
X78539721Y-57853751D01*
X78502398Y-57857427D01*
X78502389Y-57857427D01*
X78390736Y-57868424D01*
X78247475Y-57911881D01*
X78115446Y-57982453D01*
X78115444Y-57982454D01*
X78115445Y-57982454D01*
X78028718Y-58053628D01*
X78028714Y-58053632D01*
X77999721Y-58077426D01*
X77975927Y-58106419D01*
X77824290Y-58258056D01*
X77670313Y-58227428D01*
X77395129Y-58227428D01*
X77241150Y-58258056D01*
X77009524Y-58026430D01*
X76985721Y-57997426D01*
X76869996Y-57902453D01*
X76737967Y-57831881D01*
X76594706Y-57788424D01*
X76483053Y-57777427D01*
X76483042Y-57777427D01*
X76445720Y-57773751D01*
X76408398Y-57777427D01*
X72762831Y-57777427D01*
X72736164Y-57755542D01*
X72583709Y-57674053D01*
X72418285Y-57623872D01*
X72246250Y-57606928D01*
X71333750Y-57606928D01*
X71161715Y-57623872D01*
X70996291Y-57674053D01*
X70843836Y-57755542D01*
X70710208Y-57865208D01*
X70600542Y-57998836D01*
X70519053Y-58151291D01*
X70468872Y-58316715D01*
X70451928Y-58488750D01*
X63735000Y-58488750D01*
X63735000Y-57235001D01*
X112265001Y-57235001D01*
X112265000Y-71481401D01*
G36*
X87834716Y-65446155D02*
G01*
X87987601Y-65674963D01*
X88182186Y-65869548D01*
X88410994Y-66022433D01*
X88665231Y-66127742D01*
X88935129Y-66181428D01*
X89210313Y-66181428D01*
X89480211Y-66127742D01*
X89734448Y-66022433D01*
X89963256Y-65869548D01*
X90108963Y-65723841D01*
X90187708Y-65819792D01*
X90295001Y-65907845D01*
X90295001Y-66607668D01*
X90291324Y-66645000D01*
X90295001Y-66682333D01*
X90305998Y-66793986D01*
X90319180Y-66837442D01*
X90349454Y-66937246D01*
X90420026Y-67069276D01*
X90487360Y-67151322D01*
X90515000Y-67185001D01*
X90543998Y-67208799D01*
X90875199Y-67540000D01*
X90822050Y-67540000D01*
X90603889Y-67561487D01*
X90323966Y-67646401D01*
X90065986Y-67784294D01*
X89839866Y-67969866D01*
X89654294Y-68195986D01*
X89619799Y-68260523D01*
X89550178Y-68143645D01*
X89355269Y-67927412D01*
X89121920Y-67753359D01*
X88859099Y-67628175D01*
X88711890Y-67583524D01*
X88482000Y-67704845D01*
X88482000Y-68898000D01*
X88502000Y-68898000D01*
X88502000Y-69152000D01*
X88482000Y-69152000D01*
X88482000Y-69172000D01*
X88228000Y-69172000D01*
X88228000Y-69152000D01*
X88208000Y-69152000D01*
X88208000Y-68898000D01*
X88228000Y-68898000D01*
X88228000Y-67704845D01*
X87998110Y-67583524D01*
X87850901Y-67628175D01*
X87588080Y-67753359D01*
X87354731Y-67927412D01*
X87159822Y-68143645D01*
X87090201Y-68260523D01*
X87055706Y-68195986D01*
X86870134Y-67969866D01*
X86644014Y-67784294D01*
X86386034Y-67646401D01*
X86106111Y-67561487D01*
X85887950Y-67540000D01*
X85742050Y-67540000D01*
X85523889Y-67561487D01*
X85243966Y-67646401D01*
X85174056Y-67683769D01*
X85155547Y-67622752D01*
X85084975Y-67490723D01*
X84990002Y-67374998D01*
X84961004Y-67351200D01*
X83482166Y-65872363D01*
X83601715Y-65908628D01*
X83773750Y-65925572D01*
X84686250Y-65925572D01*
X84858285Y-65908628D01*
X85023709Y-65858447D01*
X85176164Y-65776958D01*
X85309792Y-65667292D01*
X85382929Y-65578175D01*
X85447601Y-65674963D01*
X85642186Y-65869548D01*
X85870994Y-66022433D01*
X86125231Y-66127742D01*
X86395129Y-66181428D01*
X86670313Y-66181428D01*
X86940211Y-66127742D01*
X87194448Y-66022433D01*
X87423256Y-65869548D01*
X87617841Y-65674963D01*
X87770726Y-65446155D01*
X87802721Y-65368913D01*
X87834716Y-65446155D01*
X87834716Y-65446155D01*
G37*
X87834716Y-65446155D02*
X87987601Y-65674963D01*
X88182186Y-65869548D01*
X88410994Y-66022433D01*
X88665231Y-66127742D01*
X88935129Y-66181428D01*
X89210313Y-66181428D01*
X89480211Y-66127742D01*
X89734448Y-66022433D01*
X89963256Y-65869548D01*
X90108963Y-65723841D01*
X90187708Y-65819792D01*
X90295001Y-65907845D01*
X90295001Y-66607668D01*
X90291324Y-66645000D01*
X90295001Y-66682333D01*
X90305998Y-66793986D01*
X90319180Y-66837442D01*
X90349454Y-66937246D01*
X90420026Y-67069276D01*
X90487360Y-67151322D01*
X90515000Y-67185001D01*
X90543998Y-67208799D01*
X90875199Y-67540000D01*
X90822050Y-67540000D01*
X90603889Y-67561487D01*
X90323966Y-67646401D01*
X90065986Y-67784294D01*
X89839866Y-67969866D01*
X89654294Y-68195986D01*
X89619799Y-68260523D01*
X89550178Y-68143645D01*
X89355269Y-67927412D01*
X89121920Y-67753359D01*
X88859099Y-67628175D01*
X88711890Y-67583524D01*
X88482000Y-67704845D01*
X88482000Y-68898000D01*
X88502000Y-68898000D01*
X88502000Y-69152000D01*
X88482000Y-69152000D01*
X88482000Y-69172000D01*
X88228000Y-69172000D01*
X88228000Y-69152000D01*
X88208000Y-69152000D01*
X88208000Y-68898000D01*
X88228000Y-68898000D01*
X88228000Y-67704845D01*
X87998110Y-67583524D01*
X87850901Y-67628175D01*
X87588080Y-67753359D01*
X87354731Y-67927412D01*
X87159822Y-68143645D01*
X87090201Y-68260523D01*
X87055706Y-68195986D01*
X86870134Y-67969866D01*
X86644014Y-67784294D01*
X86386034Y-67646401D01*
X86106111Y-67561487D01*
X85887950Y-67540000D01*
X85742050Y-67540000D01*
X85523889Y-67561487D01*
X85243966Y-67646401D01*
X85174056Y-67683769D01*
X85155547Y-67622752D01*
X85084975Y-67490723D01*
X84990002Y-67374998D01*
X84961004Y-67351200D01*
X83482166Y-65872363D01*
X83601715Y-65908628D01*
X83773750Y-65925572D01*
X84686250Y-65925572D01*
X84858285Y-65908628D01*
X85023709Y-65858447D01*
X85176164Y-65776958D01*
X85309792Y-65667292D01*
X85382929Y-65578175D01*
X85447601Y-65674963D01*
X85642186Y-65869548D01*
X85870994Y-66022433D01*
X86125231Y-66127742D01*
X86395129Y-66181428D01*
X86670313Y-66181428D01*
X86940211Y-66127742D01*
X87194448Y-66022433D01*
X87423256Y-65869548D01*
X87617841Y-65674963D01*
X87770726Y-65446155D01*
X87802721Y-65368913D01*
X87834716Y-65446155D01*
G36*
X82959053Y-63506209D02*
G01*
X83040542Y-63658664D01*
X83150208Y-63792292D01*
X83235756Y-63862500D01*
X83150208Y-63932708D01*
X83040542Y-64066336D01*
X82959053Y-64218791D01*
X82908872Y-64384215D01*
X82891928Y-64556250D01*
X82891928Y-65043750D01*
X82908872Y-65215785D01*
X82959053Y-65381209D01*
X83040542Y-65533664D01*
X83063003Y-65561032D01*
X82963988Y-65530997D01*
X82862500Y-65521001D01*
X82862500Y-65105750D01*
X82703750Y-64947000D01*
X81867000Y-64947000D01*
X81867000Y-64967000D01*
X81613000Y-64967000D01*
X81613000Y-64947000D01*
X81593000Y-64947000D01*
X81593000Y-64693000D01*
X81613000Y-64693000D01*
X81613000Y-63643750D01*
X81867000Y-63643750D01*
X81867000Y-64693000D01*
X82703750Y-64693000D01*
X82862500Y-64534250D01*
X82862500Y-64057458D01*
X82838097Y-63934777D01*
X82790230Y-63819215D01*
X82720737Y-63715211D01*
X82632289Y-63626763D01*
X82528285Y-63557270D01*
X82412723Y-63509403D01*
X82290042Y-63485000D01*
X82025750Y-63485000D01*
X81867000Y-63643750D01*
X81613000Y-63643750D01*
X81454250Y-63485000D01*
X81189958Y-63485000D01*
X81067277Y-63509403D01*
X80951715Y-63557270D01*
X80847711Y-63626763D01*
X80759263Y-63715211D01*
X80737952Y-63747105D01*
X80732292Y-63740208D01*
X80598664Y-63630542D01*
X80446209Y-63549053D01*
X80280785Y-63498872D01*
X80108750Y-63481928D01*
X79621250Y-63481928D01*
X79449215Y-63498872D01*
X79283791Y-63549053D01*
X79131336Y-63630542D01*
X78997708Y-63740208D01*
X78888042Y-63873836D01*
X78806553Y-64026291D01*
X78796327Y-64060000D01*
X78777892Y-64060000D01*
X78770726Y-64042701D01*
X78617841Y-63813893D01*
X78423256Y-63619308D01*
X78194448Y-63466423D01*
X78112551Y-63432500D01*
X82936694Y-63432500D01*
X82959053Y-63506209D01*
X82959053Y-63506209D01*
G37*
X82959053Y-63506209D02*
X83040542Y-63658664D01*
X83150208Y-63792292D01*
X83235756Y-63862500D01*
X83150208Y-63932708D01*
X83040542Y-64066336D01*
X82959053Y-64218791D01*
X82908872Y-64384215D01*
X82891928Y-64556250D01*
X82891928Y-65043750D01*
X82908872Y-65215785D01*
X82959053Y-65381209D01*
X83040542Y-65533664D01*
X83063003Y-65561032D01*
X82963988Y-65530997D01*
X82862500Y-65521001D01*
X82862500Y-65105750D01*
X82703750Y-64947000D01*
X81867000Y-64947000D01*
X81867000Y-64967000D01*
X81613000Y-64967000D01*
X81613000Y-64947000D01*
X81593000Y-64947000D01*
X81593000Y-64693000D01*
X81613000Y-64693000D01*
X81613000Y-63643750D01*
X81867000Y-63643750D01*
X81867000Y-64693000D01*
X82703750Y-64693000D01*
X82862500Y-64534250D01*
X82862500Y-64057458D01*
X82838097Y-63934777D01*
X82790230Y-63819215D01*
X82720737Y-63715211D01*
X82632289Y-63626763D01*
X82528285Y-63557270D01*
X82412723Y-63509403D01*
X82290042Y-63485000D01*
X82025750Y-63485000D01*
X81867000Y-63643750D01*
X81613000Y-63643750D01*
X81454250Y-63485000D01*
X81189958Y-63485000D01*
X81067277Y-63509403D01*
X80951715Y-63557270D01*
X80847711Y-63626763D01*
X80759263Y-63715211D01*
X80737952Y-63747105D01*
X80732292Y-63740208D01*
X80598664Y-63630542D01*
X80446209Y-63549053D01*
X80280785Y-63498872D01*
X80108750Y-63481928D01*
X79621250Y-63481928D01*
X79449215Y-63498872D01*
X79283791Y-63549053D01*
X79131336Y-63630542D01*
X78997708Y-63740208D01*
X78888042Y-63873836D01*
X78806553Y-64026291D01*
X78796327Y-64060000D01*
X78777892Y-64060000D01*
X78770726Y-64042701D01*
X78617841Y-63813893D01*
X78423256Y-63619308D01*
X78194448Y-63466423D01*
X78112551Y-63432500D01*
X82936694Y-63432500D01*
X82959053Y-63506209D01*
M02*
