G04 #@! TF.GenerationSoftware,KiCad,Pcbnew,(6.0.0-rc1-dev-1521-g81a0ab4d7)*
G04 #@! TF.CreationDate,2019-02-16T01:33:36+09:00
G04 #@! TF.ProjectId,Linesens_mini,4c696e65-7365-46e7-935f-6d696e692e6b,rev?*
G04 #@! TF.SameCoordinates,Original*
G04 #@! TF.FileFunction,Paste,Top*
G04 #@! TF.FilePolarity,Positive*
%FSLAX46Y46*%
G04 Gerber Fmt 4.6, Leading zero omitted, Abs format (unit mm)*
G04 Created by KiCad (PCBNEW (6.0.0-rc1-dev-1521-g81a0ab4d7)) date 02/16/19 01:33:36*
%MOMM*%
%LPD*%
G04 APERTURE LIST*
%ADD10C,0.100000*%
%ADD11C,0.975000*%
G04 APERTURE END LIST*
D10*
G36*
X77190142Y-86731174D02*
G01*
X77213803Y-86734684D01*
X77237007Y-86740496D01*
X77259529Y-86748554D01*
X77281153Y-86758782D01*
X77301670Y-86771079D01*
X77320883Y-86785329D01*
X77338607Y-86801393D01*
X77354671Y-86819117D01*
X77368921Y-86838330D01*
X77381218Y-86858847D01*
X77391446Y-86880471D01*
X77399504Y-86902993D01*
X77405316Y-86926197D01*
X77408826Y-86949858D01*
X77410000Y-86973750D01*
X77410000Y-87886250D01*
X77408826Y-87910142D01*
X77405316Y-87933803D01*
X77399504Y-87957007D01*
X77391446Y-87979529D01*
X77381218Y-88001153D01*
X77368921Y-88021670D01*
X77354671Y-88040883D01*
X77338607Y-88058607D01*
X77320883Y-88074671D01*
X77301670Y-88088921D01*
X77281153Y-88101218D01*
X77259529Y-88111446D01*
X77237007Y-88119504D01*
X77213803Y-88125316D01*
X77190142Y-88128826D01*
X77166250Y-88130000D01*
X76678750Y-88130000D01*
X76654858Y-88128826D01*
X76631197Y-88125316D01*
X76607993Y-88119504D01*
X76585471Y-88111446D01*
X76563847Y-88101218D01*
X76543330Y-88088921D01*
X76524117Y-88074671D01*
X76506393Y-88058607D01*
X76490329Y-88040883D01*
X76476079Y-88021670D01*
X76463782Y-88001153D01*
X76453554Y-87979529D01*
X76445496Y-87957007D01*
X76439684Y-87933803D01*
X76436174Y-87910142D01*
X76435000Y-87886250D01*
X76435000Y-86973750D01*
X76436174Y-86949858D01*
X76439684Y-86926197D01*
X76445496Y-86902993D01*
X76453554Y-86880471D01*
X76463782Y-86858847D01*
X76476079Y-86838330D01*
X76490329Y-86819117D01*
X76506393Y-86801393D01*
X76524117Y-86785329D01*
X76543330Y-86771079D01*
X76563847Y-86758782D01*
X76585471Y-86748554D01*
X76607993Y-86740496D01*
X76631197Y-86734684D01*
X76654858Y-86731174D01*
X76678750Y-86730000D01*
X77166250Y-86730000D01*
X77190142Y-86731174D01*
X77190142Y-86731174D01*
G37*
D11*
X76922500Y-87430000D03*
D10*
G36*
X79065142Y-86731174D02*
G01*
X79088803Y-86734684D01*
X79112007Y-86740496D01*
X79134529Y-86748554D01*
X79156153Y-86758782D01*
X79176670Y-86771079D01*
X79195883Y-86785329D01*
X79213607Y-86801393D01*
X79229671Y-86819117D01*
X79243921Y-86838330D01*
X79256218Y-86858847D01*
X79266446Y-86880471D01*
X79274504Y-86902993D01*
X79280316Y-86926197D01*
X79283826Y-86949858D01*
X79285000Y-86973750D01*
X79285000Y-87886250D01*
X79283826Y-87910142D01*
X79280316Y-87933803D01*
X79274504Y-87957007D01*
X79266446Y-87979529D01*
X79256218Y-88001153D01*
X79243921Y-88021670D01*
X79229671Y-88040883D01*
X79213607Y-88058607D01*
X79195883Y-88074671D01*
X79176670Y-88088921D01*
X79156153Y-88101218D01*
X79134529Y-88111446D01*
X79112007Y-88119504D01*
X79088803Y-88125316D01*
X79065142Y-88128826D01*
X79041250Y-88130000D01*
X78553750Y-88130000D01*
X78529858Y-88128826D01*
X78506197Y-88125316D01*
X78482993Y-88119504D01*
X78460471Y-88111446D01*
X78438847Y-88101218D01*
X78418330Y-88088921D01*
X78399117Y-88074671D01*
X78381393Y-88058607D01*
X78365329Y-88040883D01*
X78351079Y-88021670D01*
X78338782Y-88001153D01*
X78328554Y-87979529D01*
X78320496Y-87957007D01*
X78314684Y-87933803D01*
X78311174Y-87910142D01*
X78310000Y-87886250D01*
X78310000Y-86973750D01*
X78311174Y-86949858D01*
X78314684Y-86926197D01*
X78320496Y-86902993D01*
X78328554Y-86880471D01*
X78338782Y-86858847D01*
X78351079Y-86838330D01*
X78365329Y-86819117D01*
X78381393Y-86801393D01*
X78399117Y-86785329D01*
X78418330Y-86771079D01*
X78438847Y-86758782D01*
X78460471Y-86748554D01*
X78482993Y-86740496D01*
X78506197Y-86734684D01*
X78529858Y-86731174D01*
X78553750Y-86730000D01*
X79041250Y-86730000D01*
X79065142Y-86731174D01*
X79065142Y-86731174D01*
G37*
D11*
X78797500Y-87430000D03*
D10*
G36*
X73350142Y-79443674D02*
G01*
X73373803Y-79447184D01*
X73397007Y-79452996D01*
X73419529Y-79461054D01*
X73441153Y-79471282D01*
X73461670Y-79483579D01*
X73480883Y-79497829D01*
X73498607Y-79513893D01*
X73514671Y-79531617D01*
X73528921Y-79550830D01*
X73541218Y-79571347D01*
X73551446Y-79592971D01*
X73559504Y-79615493D01*
X73565316Y-79638697D01*
X73568826Y-79662358D01*
X73570000Y-79686250D01*
X73570000Y-80173750D01*
X73568826Y-80197642D01*
X73565316Y-80221303D01*
X73559504Y-80244507D01*
X73551446Y-80267029D01*
X73541218Y-80288653D01*
X73528921Y-80309170D01*
X73514671Y-80328383D01*
X73498607Y-80346107D01*
X73480883Y-80362171D01*
X73461670Y-80376421D01*
X73441153Y-80388718D01*
X73419529Y-80398946D01*
X73397007Y-80407004D01*
X73373803Y-80412816D01*
X73350142Y-80416326D01*
X73326250Y-80417500D01*
X72413750Y-80417500D01*
X72389858Y-80416326D01*
X72366197Y-80412816D01*
X72342993Y-80407004D01*
X72320471Y-80398946D01*
X72298847Y-80388718D01*
X72278330Y-80376421D01*
X72259117Y-80362171D01*
X72241393Y-80346107D01*
X72225329Y-80328383D01*
X72211079Y-80309170D01*
X72198782Y-80288653D01*
X72188554Y-80267029D01*
X72180496Y-80244507D01*
X72174684Y-80221303D01*
X72171174Y-80197642D01*
X72170000Y-80173750D01*
X72170000Y-79686250D01*
X72171174Y-79662358D01*
X72174684Y-79638697D01*
X72180496Y-79615493D01*
X72188554Y-79592971D01*
X72198782Y-79571347D01*
X72211079Y-79550830D01*
X72225329Y-79531617D01*
X72241393Y-79513893D01*
X72259117Y-79497829D01*
X72278330Y-79483579D01*
X72298847Y-79471282D01*
X72320471Y-79461054D01*
X72342993Y-79452996D01*
X72366197Y-79447184D01*
X72389858Y-79443674D01*
X72413750Y-79442500D01*
X73326250Y-79442500D01*
X73350142Y-79443674D01*
X73350142Y-79443674D01*
G37*
D11*
X72870000Y-79930000D03*
D10*
G36*
X73350142Y-77568674D02*
G01*
X73373803Y-77572184D01*
X73397007Y-77577996D01*
X73419529Y-77586054D01*
X73441153Y-77596282D01*
X73461670Y-77608579D01*
X73480883Y-77622829D01*
X73498607Y-77638893D01*
X73514671Y-77656617D01*
X73528921Y-77675830D01*
X73541218Y-77696347D01*
X73551446Y-77717971D01*
X73559504Y-77740493D01*
X73565316Y-77763697D01*
X73568826Y-77787358D01*
X73570000Y-77811250D01*
X73570000Y-78298750D01*
X73568826Y-78322642D01*
X73565316Y-78346303D01*
X73559504Y-78369507D01*
X73551446Y-78392029D01*
X73541218Y-78413653D01*
X73528921Y-78434170D01*
X73514671Y-78453383D01*
X73498607Y-78471107D01*
X73480883Y-78487171D01*
X73461670Y-78501421D01*
X73441153Y-78513718D01*
X73419529Y-78523946D01*
X73397007Y-78532004D01*
X73373803Y-78537816D01*
X73350142Y-78541326D01*
X73326250Y-78542500D01*
X72413750Y-78542500D01*
X72389858Y-78541326D01*
X72366197Y-78537816D01*
X72342993Y-78532004D01*
X72320471Y-78523946D01*
X72298847Y-78513718D01*
X72278330Y-78501421D01*
X72259117Y-78487171D01*
X72241393Y-78471107D01*
X72225329Y-78453383D01*
X72211079Y-78434170D01*
X72198782Y-78413653D01*
X72188554Y-78392029D01*
X72180496Y-78369507D01*
X72174684Y-78346303D01*
X72171174Y-78322642D01*
X72170000Y-78298750D01*
X72170000Y-77811250D01*
X72171174Y-77787358D01*
X72174684Y-77763697D01*
X72180496Y-77740493D01*
X72188554Y-77717971D01*
X72198782Y-77696347D01*
X72211079Y-77675830D01*
X72225329Y-77656617D01*
X72241393Y-77638893D01*
X72259117Y-77622829D01*
X72278330Y-77608579D01*
X72298847Y-77596282D01*
X72320471Y-77586054D01*
X72342993Y-77577996D01*
X72366197Y-77572184D01*
X72389858Y-77568674D01*
X72413750Y-77567500D01*
X73326250Y-77567500D01*
X73350142Y-77568674D01*
X73350142Y-77568674D01*
G37*
D11*
X72870000Y-78055000D03*
D10*
G36*
X76267642Y-68301174D02*
G01*
X76291303Y-68304684D01*
X76314507Y-68310496D01*
X76337029Y-68318554D01*
X76358653Y-68328782D01*
X76379170Y-68341079D01*
X76398383Y-68355329D01*
X76416107Y-68371393D01*
X76432171Y-68389117D01*
X76446421Y-68408330D01*
X76458718Y-68428847D01*
X76468946Y-68450471D01*
X76477004Y-68472993D01*
X76482816Y-68496197D01*
X76486326Y-68519858D01*
X76487500Y-68543750D01*
X76487500Y-69456250D01*
X76486326Y-69480142D01*
X76482816Y-69503803D01*
X76477004Y-69527007D01*
X76468946Y-69549529D01*
X76458718Y-69571153D01*
X76446421Y-69591670D01*
X76432171Y-69610883D01*
X76416107Y-69628607D01*
X76398383Y-69644671D01*
X76379170Y-69658921D01*
X76358653Y-69671218D01*
X76337029Y-69681446D01*
X76314507Y-69689504D01*
X76291303Y-69695316D01*
X76267642Y-69698826D01*
X76243750Y-69700000D01*
X75756250Y-69700000D01*
X75732358Y-69698826D01*
X75708697Y-69695316D01*
X75685493Y-69689504D01*
X75662971Y-69681446D01*
X75641347Y-69671218D01*
X75620830Y-69658921D01*
X75601617Y-69644671D01*
X75583893Y-69628607D01*
X75567829Y-69610883D01*
X75553579Y-69591670D01*
X75541282Y-69571153D01*
X75531054Y-69549529D01*
X75522996Y-69527007D01*
X75517184Y-69503803D01*
X75513674Y-69480142D01*
X75512500Y-69456250D01*
X75512500Y-68543750D01*
X75513674Y-68519858D01*
X75517184Y-68496197D01*
X75522996Y-68472993D01*
X75531054Y-68450471D01*
X75541282Y-68428847D01*
X75553579Y-68408330D01*
X75567829Y-68389117D01*
X75583893Y-68371393D01*
X75601617Y-68355329D01*
X75620830Y-68341079D01*
X75641347Y-68328782D01*
X75662971Y-68318554D01*
X75685493Y-68310496D01*
X75708697Y-68304684D01*
X75732358Y-68301174D01*
X75756250Y-68300000D01*
X76243750Y-68300000D01*
X76267642Y-68301174D01*
X76267642Y-68301174D01*
G37*
D11*
X76000000Y-69000000D03*
D10*
G36*
X78142642Y-68301174D02*
G01*
X78166303Y-68304684D01*
X78189507Y-68310496D01*
X78212029Y-68318554D01*
X78233653Y-68328782D01*
X78254170Y-68341079D01*
X78273383Y-68355329D01*
X78291107Y-68371393D01*
X78307171Y-68389117D01*
X78321421Y-68408330D01*
X78333718Y-68428847D01*
X78343946Y-68450471D01*
X78352004Y-68472993D01*
X78357816Y-68496197D01*
X78361326Y-68519858D01*
X78362500Y-68543750D01*
X78362500Y-69456250D01*
X78361326Y-69480142D01*
X78357816Y-69503803D01*
X78352004Y-69527007D01*
X78343946Y-69549529D01*
X78333718Y-69571153D01*
X78321421Y-69591670D01*
X78307171Y-69610883D01*
X78291107Y-69628607D01*
X78273383Y-69644671D01*
X78254170Y-69658921D01*
X78233653Y-69671218D01*
X78212029Y-69681446D01*
X78189507Y-69689504D01*
X78166303Y-69695316D01*
X78142642Y-69698826D01*
X78118750Y-69700000D01*
X77631250Y-69700000D01*
X77607358Y-69698826D01*
X77583697Y-69695316D01*
X77560493Y-69689504D01*
X77537971Y-69681446D01*
X77516347Y-69671218D01*
X77495830Y-69658921D01*
X77476617Y-69644671D01*
X77458893Y-69628607D01*
X77442829Y-69610883D01*
X77428579Y-69591670D01*
X77416282Y-69571153D01*
X77406054Y-69549529D01*
X77397996Y-69527007D01*
X77392184Y-69503803D01*
X77388674Y-69480142D01*
X77387500Y-69456250D01*
X77387500Y-68543750D01*
X77388674Y-68519858D01*
X77392184Y-68496197D01*
X77397996Y-68472993D01*
X77406054Y-68450471D01*
X77416282Y-68428847D01*
X77428579Y-68408330D01*
X77442829Y-68389117D01*
X77458893Y-68371393D01*
X77476617Y-68355329D01*
X77495830Y-68341079D01*
X77516347Y-68328782D01*
X77537971Y-68318554D01*
X77560493Y-68310496D01*
X77583697Y-68304684D01*
X77607358Y-68301174D01*
X77631250Y-68300000D01*
X78118750Y-68300000D01*
X78142642Y-68301174D01*
X78142642Y-68301174D01*
G37*
D11*
X77875000Y-69000000D03*
D10*
G36*
X72270142Y-58246174D02*
G01*
X72293803Y-58249684D01*
X72317007Y-58255496D01*
X72339529Y-58263554D01*
X72361153Y-58273782D01*
X72381670Y-58286079D01*
X72400883Y-58300329D01*
X72418607Y-58316393D01*
X72434671Y-58334117D01*
X72448921Y-58353330D01*
X72461218Y-58373847D01*
X72471446Y-58395471D01*
X72479504Y-58417993D01*
X72485316Y-58441197D01*
X72488826Y-58464858D01*
X72490000Y-58488750D01*
X72490000Y-58976250D01*
X72488826Y-59000142D01*
X72485316Y-59023803D01*
X72479504Y-59047007D01*
X72471446Y-59069529D01*
X72461218Y-59091153D01*
X72448921Y-59111670D01*
X72434671Y-59130883D01*
X72418607Y-59148607D01*
X72400883Y-59164671D01*
X72381670Y-59178921D01*
X72361153Y-59191218D01*
X72339529Y-59201446D01*
X72317007Y-59209504D01*
X72293803Y-59215316D01*
X72270142Y-59218826D01*
X72246250Y-59220000D01*
X71333750Y-59220000D01*
X71309858Y-59218826D01*
X71286197Y-59215316D01*
X71262993Y-59209504D01*
X71240471Y-59201446D01*
X71218847Y-59191218D01*
X71198330Y-59178921D01*
X71179117Y-59164671D01*
X71161393Y-59148607D01*
X71145329Y-59130883D01*
X71131079Y-59111670D01*
X71118782Y-59091153D01*
X71108554Y-59069529D01*
X71100496Y-59047007D01*
X71094684Y-59023803D01*
X71091174Y-59000142D01*
X71090000Y-58976250D01*
X71090000Y-58488750D01*
X71091174Y-58464858D01*
X71094684Y-58441197D01*
X71100496Y-58417993D01*
X71108554Y-58395471D01*
X71118782Y-58373847D01*
X71131079Y-58353330D01*
X71145329Y-58334117D01*
X71161393Y-58316393D01*
X71179117Y-58300329D01*
X71198330Y-58286079D01*
X71218847Y-58273782D01*
X71240471Y-58263554D01*
X71262993Y-58255496D01*
X71286197Y-58249684D01*
X71309858Y-58246174D01*
X71333750Y-58245000D01*
X72246250Y-58245000D01*
X72270142Y-58246174D01*
X72270142Y-58246174D01*
G37*
D11*
X71790000Y-58732500D03*
D10*
G36*
X72270142Y-60121174D02*
G01*
X72293803Y-60124684D01*
X72317007Y-60130496D01*
X72339529Y-60138554D01*
X72361153Y-60148782D01*
X72381670Y-60161079D01*
X72400883Y-60175329D01*
X72418607Y-60191393D01*
X72434671Y-60209117D01*
X72448921Y-60228330D01*
X72461218Y-60248847D01*
X72471446Y-60270471D01*
X72479504Y-60292993D01*
X72485316Y-60316197D01*
X72488826Y-60339858D01*
X72490000Y-60363750D01*
X72490000Y-60851250D01*
X72488826Y-60875142D01*
X72485316Y-60898803D01*
X72479504Y-60922007D01*
X72471446Y-60944529D01*
X72461218Y-60966153D01*
X72448921Y-60986670D01*
X72434671Y-61005883D01*
X72418607Y-61023607D01*
X72400883Y-61039671D01*
X72381670Y-61053921D01*
X72361153Y-61066218D01*
X72339529Y-61076446D01*
X72317007Y-61084504D01*
X72293803Y-61090316D01*
X72270142Y-61093826D01*
X72246250Y-61095000D01*
X71333750Y-61095000D01*
X71309858Y-61093826D01*
X71286197Y-61090316D01*
X71262993Y-61084504D01*
X71240471Y-61076446D01*
X71218847Y-61066218D01*
X71198330Y-61053921D01*
X71179117Y-61039671D01*
X71161393Y-61023607D01*
X71145329Y-61005883D01*
X71131079Y-60986670D01*
X71118782Y-60966153D01*
X71108554Y-60944529D01*
X71100496Y-60922007D01*
X71094684Y-60898803D01*
X71091174Y-60875142D01*
X71090000Y-60851250D01*
X71090000Y-60363750D01*
X71091174Y-60339858D01*
X71094684Y-60316197D01*
X71100496Y-60292993D01*
X71108554Y-60270471D01*
X71118782Y-60248847D01*
X71131079Y-60228330D01*
X71145329Y-60209117D01*
X71161393Y-60191393D01*
X71179117Y-60175329D01*
X71198330Y-60161079D01*
X71218847Y-60148782D01*
X71240471Y-60138554D01*
X71262993Y-60130496D01*
X71286197Y-60124684D01*
X71309858Y-60121174D01*
X71333750Y-60120000D01*
X72246250Y-60120000D01*
X72270142Y-60121174D01*
X72270142Y-60121174D01*
G37*
D11*
X71790000Y-60607500D03*
D10*
G36*
X96310142Y-62536174D02*
G01*
X96333803Y-62539684D01*
X96357007Y-62545496D01*
X96379529Y-62553554D01*
X96401153Y-62563782D01*
X96421670Y-62576079D01*
X96440883Y-62590329D01*
X96458607Y-62606393D01*
X96474671Y-62624117D01*
X96488921Y-62643330D01*
X96501218Y-62663847D01*
X96511446Y-62685471D01*
X96519504Y-62707993D01*
X96525316Y-62731197D01*
X96528826Y-62754858D01*
X96530000Y-62778750D01*
X96530000Y-63266250D01*
X96528826Y-63290142D01*
X96525316Y-63313803D01*
X96519504Y-63337007D01*
X96511446Y-63359529D01*
X96501218Y-63381153D01*
X96488921Y-63401670D01*
X96474671Y-63420883D01*
X96458607Y-63438607D01*
X96440883Y-63454671D01*
X96421670Y-63468921D01*
X96401153Y-63481218D01*
X96379529Y-63491446D01*
X96357007Y-63499504D01*
X96333803Y-63505316D01*
X96310142Y-63508826D01*
X96286250Y-63510000D01*
X95373750Y-63510000D01*
X95349858Y-63508826D01*
X95326197Y-63505316D01*
X95302993Y-63499504D01*
X95280471Y-63491446D01*
X95258847Y-63481218D01*
X95238330Y-63468921D01*
X95219117Y-63454671D01*
X95201393Y-63438607D01*
X95185329Y-63420883D01*
X95171079Y-63401670D01*
X95158782Y-63381153D01*
X95148554Y-63359529D01*
X95140496Y-63337007D01*
X95134684Y-63313803D01*
X95131174Y-63290142D01*
X95130000Y-63266250D01*
X95130000Y-62778750D01*
X95131174Y-62754858D01*
X95134684Y-62731197D01*
X95140496Y-62707993D01*
X95148554Y-62685471D01*
X95158782Y-62663847D01*
X95171079Y-62643330D01*
X95185329Y-62624117D01*
X95201393Y-62606393D01*
X95219117Y-62590329D01*
X95238330Y-62576079D01*
X95258847Y-62563782D01*
X95280471Y-62553554D01*
X95302993Y-62545496D01*
X95326197Y-62539684D01*
X95349858Y-62536174D01*
X95373750Y-62535000D01*
X96286250Y-62535000D01*
X96310142Y-62536174D01*
X96310142Y-62536174D01*
G37*
D11*
X95830000Y-63022500D03*
D10*
G36*
X96310142Y-64411174D02*
G01*
X96333803Y-64414684D01*
X96357007Y-64420496D01*
X96379529Y-64428554D01*
X96401153Y-64438782D01*
X96421670Y-64451079D01*
X96440883Y-64465329D01*
X96458607Y-64481393D01*
X96474671Y-64499117D01*
X96488921Y-64518330D01*
X96501218Y-64538847D01*
X96511446Y-64560471D01*
X96519504Y-64582993D01*
X96525316Y-64606197D01*
X96528826Y-64629858D01*
X96530000Y-64653750D01*
X96530000Y-65141250D01*
X96528826Y-65165142D01*
X96525316Y-65188803D01*
X96519504Y-65212007D01*
X96511446Y-65234529D01*
X96501218Y-65256153D01*
X96488921Y-65276670D01*
X96474671Y-65295883D01*
X96458607Y-65313607D01*
X96440883Y-65329671D01*
X96421670Y-65343921D01*
X96401153Y-65356218D01*
X96379529Y-65366446D01*
X96357007Y-65374504D01*
X96333803Y-65380316D01*
X96310142Y-65383826D01*
X96286250Y-65385000D01*
X95373750Y-65385000D01*
X95349858Y-65383826D01*
X95326197Y-65380316D01*
X95302993Y-65374504D01*
X95280471Y-65366446D01*
X95258847Y-65356218D01*
X95238330Y-65343921D01*
X95219117Y-65329671D01*
X95201393Y-65313607D01*
X95185329Y-65295883D01*
X95171079Y-65276670D01*
X95158782Y-65256153D01*
X95148554Y-65234529D01*
X95140496Y-65212007D01*
X95134684Y-65188803D01*
X95131174Y-65165142D01*
X95130000Y-65141250D01*
X95130000Y-64653750D01*
X95131174Y-64629858D01*
X95134684Y-64606197D01*
X95140496Y-64582993D01*
X95148554Y-64560471D01*
X95158782Y-64538847D01*
X95171079Y-64518330D01*
X95185329Y-64499117D01*
X95201393Y-64481393D01*
X95219117Y-64465329D01*
X95238330Y-64451079D01*
X95258847Y-64438782D01*
X95280471Y-64428554D01*
X95302993Y-64420496D01*
X95326197Y-64414684D01*
X95349858Y-64411174D01*
X95373750Y-64410000D01*
X96286250Y-64410000D01*
X96310142Y-64411174D01*
X96310142Y-64411174D01*
G37*
D11*
X95830000Y-64897500D03*
D10*
G36*
X103550142Y-66228674D02*
G01*
X103573803Y-66232184D01*
X103597007Y-66237996D01*
X103619529Y-66246054D01*
X103641153Y-66256282D01*
X103661670Y-66268579D01*
X103680883Y-66282829D01*
X103698607Y-66298893D01*
X103714671Y-66316617D01*
X103728921Y-66335830D01*
X103741218Y-66356347D01*
X103751446Y-66377971D01*
X103759504Y-66400493D01*
X103765316Y-66423697D01*
X103768826Y-66447358D01*
X103770000Y-66471250D01*
X103770000Y-66958750D01*
X103768826Y-66982642D01*
X103765316Y-67006303D01*
X103759504Y-67029507D01*
X103751446Y-67052029D01*
X103741218Y-67073653D01*
X103728921Y-67094170D01*
X103714671Y-67113383D01*
X103698607Y-67131107D01*
X103680883Y-67147171D01*
X103661670Y-67161421D01*
X103641153Y-67173718D01*
X103619529Y-67183946D01*
X103597007Y-67192004D01*
X103573803Y-67197816D01*
X103550142Y-67201326D01*
X103526250Y-67202500D01*
X102613750Y-67202500D01*
X102589858Y-67201326D01*
X102566197Y-67197816D01*
X102542993Y-67192004D01*
X102520471Y-67183946D01*
X102498847Y-67173718D01*
X102478330Y-67161421D01*
X102459117Y-67147171D01*
X102441393Y-67131107D01*
X102425329Y-67113383D01*
X102411079Y-67094170D01*
X102398782Y-67073653D01*
X102388554Y-67052029D01*
X102380496Y-67029507D01*
X102374684Y-67006303D01*
X102371174Y-66982642D01*
X102370000Y-66958750D01*
X102370000Y-66471250D01*
X102371174Y-66447358D01*
X102374684Y-66423697D01*
X102380496Y-66400493D01*
X102388554Y-66377971D01*
X102398782Y-66356347D01*
X102411079Y-66335830D01*
X102425329Y-66316617D01*
X102441393Y-66298893D01*
X102459117Y-66282829D01*
X102478330Y-66268579D01*
X102498847Y-66256282D01*
X102520471Y-66246054D01*
X102542993Y-66237996D01*
X102566197Y-66232184D01*
X102589858Y-66228674D01*
X102613750Y-66227500D01*
X103526250Y-66227500D01*
X103550142Y-66228674D01*
X103550142Y-66228674D01*
G37*
D11*
X103070000Y-66715000D03*
D10*
G36*
X103550142Y-64353674D02*
G01*
X103573803Y-64357184D01*
X103597007Y-64362996D01*
X103619529Y-64371054D01*
X103641153Y-64381282D01*
X103661670Y-64393579D01*
X103680883Y-64407829D01*
X103698607Y-64423893D01*
X103714671Y-64441617D01*
X103728921Y-64460830D01*
X103741218Y-64481347D01*
X103751446Y-64502971D01*
X103759504Y-64525493D01*
X103765316Y-64548697D01*
X103768826Y-64572358D01*
X103770000Y-64596250D01*
X103770000Y-65083750D01*
X103768826Y-65107642D01*
X103765316Y-65131303D01*
X103759504Y-65154507D01*
X103751446Y-65177029D01*
X103741218Y-65198653D01*
X103728921Y-65219170D01*
X103714671Y-65238383D01*
X103698607Y-65256107D01*
X103680883Y-65272171D01*
X103661670Y-65286421D01*
X103641153Y-65298718D01*
X103619529Y-65308946D01*
X103597007Y-65317004D01*
X103573803Y-65322816D01*
X103550142Y-65326326D01*
X103526250Y-65327500D01*
X102613750Y-65327500D01*
X102589858Y-65326326D01*
X102566197Y-65322816D01*
X102542993Y-65317004D01*
X102520471Y-65308946D01*
X102498847Y-65298718D01*
X102478330Y-65286421D01*
X102459117Y-65272171D01*
X102441393Y-65256107D01*
X102425329Y-65238383D01*
X102411079Y-65219170D01*
X102398782Y-65198653D01*
X102388554Y-65177029D01*
X102380496Y-65154507D01*
X102374684Y-65131303D01*
X102371174Y-65107642D01*
X102370000Y-65083750D01*
X102370000Y-64596250D01*
X102371174Y-64572358D01*
X102374684Y-64548697D01*
X102380496Y-64525493D01*
X102388554Y-64502971D01*
X102398782Y-64481347D01*
X102411079Y-64460830D01*
X102425329Y-64441617D01*
X102441393Y-64423893D01*
X102459117Y-64407829D01*
X102478330Y-64393579D01*
X102498847Y-64381282D01*
X102520471Y-64371054D01*
X102542993Y-64362996D01*
X102566197Y-64357184D01*
X102589858Y-64353674D01*
X102613750Y-64352500D01*
X103526250Y-64352500D01*
X103550142Y-64353674D01*
X103550142Y-64353674D01*
G37*
D11*
X103070000Y-64840000D03*
D10*
G36*
X84710142Y-62438674D02*
G01*
X84733803Y-62442184D01*
X84757007Y-62447996D01*
X84779529Y-62456054D01*
X84801153Y-62466282D01*
X84821670Y-62478579D01*
X84840883Y-62492829D01*
X84858607Y-62508893D01*
X84874671Y-62526617D01*
X84888921Y-62545830D01*
X84901218Y-62566347D01*
X84911446Y-62587971D01*
X84919504Y-62610493D01*
X84925316Y-62633697D01*
X84928826Y-62657358D01*
X84930000Y-62681250D01*
X84930000Y-63168750D01*
X84928826Y-63192642D01*
X84925316Y-63216303D01*
X84919504Y-63239507D01*
X84911446Y-63262029D01*
X84901218Y-63283653D01*
X84888921Y-63304170D01*
X84874671Y-63323383D01*
X84858607Y-63341107D01*
X84840883Y-63357171D01*
X84821670Y-63371421D01*
X84801153Y-63383718D01*
X84779529Y-63393946D01*
X84757007Y-63402004D01*
X84733803Y-63407816D01*
X84710142Y-63411326D01*
X84686250Y-63412500D01*
X83773750Y-63412500D01*
X83749858Y-63411326D01*
X83726197Y-63407816D01*
X83702993Y-63402004D01*
X83680471Y-63393946D01*
X83658847Y-63383718D01*
X83638330Y-63371421D01*
X83619117Y-63357171D01*
X83601393Y-63341107D01*
X83585329Y-63323383D01*
X83571079Y-63304170D01*
X83558782Y-63283653D01*
X83548554Y-63262029D01*
X83540496Y-63239507D01*
X83534684Y-63216303D01*
X83531174Y-63192642D01*
X83530000Y-63168750D01*
X83530000Y-62681250D01*
X83531174Y-62657358D01*
X83534684Y-62633697D01*
X83540496Y-62610493D01*
X83548554Y-62587971D01*
X83558782Y-62566347D01*
X83571079Y-62545830D01*
X83585329Y-62526617D01*
X83601393Y-62508893D01*
X83619117Y-62492829D01*
X83638330Y-62478579D01*
X83658847Y-62466282D01*
X83680471Y-62456054D01*
X83702993Y-62447996D01*
X83726197Y-62442184D01*
X83749858Y-62438674D01*
X83773750Y-62437500D01*
X84686250Y-62437500D01*
X84710142Y-62438674D01*
X84710142Y-62438674D01*
G37*
D11*
X84230000Y-62925000D03*
D10*
G36*
X84710142Y-64313674D02*
G01*
X84733803Y-64317184D01*
X84757007Y-64322996D01*
X84779529Y-64331054D01*
X84801153Y-64341282D01*
X84821670Y-64353579D01*
X84840883Y-64367829D01*
X84858607Y-64383893D01*
X84874671Y-64401617D01*
X84888921Y-64420830D01*
X84901218Y-64441347D01*
X84911446Y-64462971D01*
X84919504Y-64485493D01*
X84925316Y-64508697D01*
X84928826Y-64532358D01*
X84930000Y-64556250D01*
X84930000Y-65043750D01*
X84928826Y-65067642D01*
X84925316Y-65091303D01*
X84919504Y-65114507D01*
X84911446Y-65137029D01*
X84901218Y-65158653D01*
X84888921Y-65179170D01*
X84874671Y-65198383D01*
X84858607Y-65216107D01*
X84840883Y-65232171D01*
X84821670Y-65246421D01*
X84801153Y-65258718D01*
X84779529Y-65268946D01*
X84757007Y-65277004D01*
X84733803Y-65282816D01*
X84710142Y-65286326D01*
X84686250Y-65287500D01*
X83773750Y-65287500D01*
X83749858Y-65286326D01*
X83726197Y-65282816D01*
X83702993Y-65277004D01*
X83680471Y-65268946D01*
X83658847Y-65258718D01*
X83638330Y-65246421D01*
X83619117Y-65232171D01*
X83601393Y-65216107D01*
X83585329Y-65198383D01*
X83571079Y-65179170D01*
X83558782Y-65158653D01*
X83548554Y-65137029D01*
X83540496Y-65114507D01*
X83534684Y-65091303D01*
X83531174Y-65067642D01*
X83530000Y-65043750D01*
X83530000Y-64556250D01*
X83531174Y-64532358D01*
X83534684Y-64508697D01*
X83540496Y-64485493D01*
X83548554Y-64462971D01*
X83558782Y-64441347D01*
X83571079Y-64420830D01*
X83585329Y-64401617D01*
X83601393Y-64383893D01*
X83619117Y-64367829D01*
X83638330Y-64353579D01*
X83658847Y-64341282D01*
X83680471Y-64331054D01*
X83702993Y-64322996D01*
X83726197Y-64317184D01*
X83749858Y-64313674D01*
X83773750Y-64312500D01*
X84686250Y-64312500D01*
X84710142Y-64313674D01*
X84710142Y-64313674D01*
G37*
D11*
X84230000Y-64800000D03*
D10*
G36*
X93197642Y-64041174D02*
G01*
X93221303Y-64044684D01*
X93244507Y-64050496D01*
X93267029Y-64058554D01*
X93288653Y-64068782D01*
X93309170Y-64081079D01*
X93328383Y-64095329D01*
X93346107Y-64111393D01*
X93362171Y-64129117D01*
X93376421Y-64148330D01*
X93388718Y-64168847D01*
X93398946Y-64190471D01*
X93407004Y-64212993D01*
X93412816Y-64236197D01*
X93416326Y-64259858D01*
X93417500Y-64283750D01*
X93417500Y-65196250D01*
X93416326Y-65220142D01*
X93412816Y-65243803D01*
X93407004Y-65267007D01*
X93398946Y-65289529D01*
X93388718Y-65311153D01*
X93376421Y-65331670D01*
X93362171Y-65350883D01*
X93346107Y-65368607D01*
X93328383Y-65384671D01*
X93309170Y-65398921D01*
X93288653Y-65411218D01*
X93267029Y-65421446D01*
X93244507Y-65429504D01*
X93221303Y-65435316D01*
X93197642Y-65438826D01*
X93173750Y-65440000D01*
X92686250Y-65440000D01*
X92662358Y-65438826D01*
X92638697Y-65435316D01*
X92615493Y-65429504D01*
X92592971Y-65421446D01*
X92571347Y-65411218D01*
X92550830Y-65398921D01*
X92531617Y-65384671D01*
X92513893Y-65368607D01*
X92497829Y-65350883D01*
X92483579Y-65331670D01*
X92471282Y-65311153D01*
X92461054Y-65289529D01*
X92452996Y-65267007D01*
X92447184Y-65243803D01*
X92443674Y-65220142D01*
X92442500Y-65196250D01*
X92442500Y-64283750D01*
X92443674Y-64259858D01*
X92447184Y-64236197D01*
X92452996Y-64212993D01*
X92461054Y-64190471D01*
X92471282Y-64168847D01*
X92483579Y-64148330D01*
X92497829Y-64129117D01*
X92513893Y-64111393D01*
X92531617Y-64095329D01*
X92550830Y-64081079D01*
X92571347Y-64068782D01*
X92592971Y-64058554D01*
X92615493Y-64050496D01*
X92638697Y-64044684D01*
X92662358Y-64041174D01*
X92686250Y-64040000D01*
X93173750Y-64040000D01*
X93197642Y-64041174D01*
X93197642Y-64041174D01*
G37*
D11*
X92930000Y-64740000D03*
D10*
G36*
X91322642Y-64041174D02*
G01*
X91346303Y-64044684D01*
X91369507Y-64050496D01*
X91392029Y-64058554D01*
X91413653Y-64068782D01*
X91434170Y-64081079D01*
X91453383Y-64095329D01*
X91471107Y-64111393D01*
X91487171Y-64129117D01*
X91501421Y-64148330D01*
X91513718Y-64168847D01*
X91523946Y-64190471D01*
X91532004Y-64212993D01*
X91537816Y-64236197D01*
X91541326Y-64259858D01*
X91542500Y-64283750D01*
X91542500Y-65196250D01*
X91541326Y-65220142D01*
X91537816Y-65243803D01*
X91532004Y-65267007D01*
X91523946Y-65289529D01*
X91513718Y-65311153D01*
X91501421Y-65331670D01*
X91487171Y-65350883D01*
X91471107Y-65368607D01*
X91453383Y-65384671D01*
X91434170Y-65398921D01*
X91413653Y-65411218D01*
X91392029Y-65421446D01*
X91369507Y-65429504D01*
X91346303Y-65435316D01*
X91322642Y-65438826D01*
X91298750Y-65440000D01*
X90811250Y-65440000D01*
X90787358Y-65438826D01*
X90763697Y-65435316D01*
X90740493Y-65429504D01*
X90717971Y-65421446D01*
X90696347Y-65411218D01*
X90675830Y-65398921D01*
X90656617Y-65384671D01*
X90638893Y-65368607D01*
X90622829Y-65350883D01*
X90608579Y-65331670D01*
X90596282Y-65311153D01*
X90586054Y-65289529D01*
X90577996Y-65267007D01*
X90572184Y-65243803D01*
X90568674Y-65220142D01*
X90567500Y-65196250D01*
X90567500Y-64283750D01*
X90568674Y-64259858D01*
X90572184Y-64236197D01*
X90577996Y-64212993D01*
X90586054Y-64190471D01*
X90596282Y-64168847D01*
X90608579Y-64148330D01*
X90622829Y-64129117D01*
X90638893Y-64111393D01*
X90656617Y-64095329D01*
X90675830Y-64081079D01*
X90696347Y-64068782D01*
X90717971Y-64058554D01*
X90740493Y-64050496D01*
X90763697Y-64044684D01*
X90787358Y-64041174D01*
X90811250Y-64040000D01*
X91298750Y-64040000D01*
X91322642Y-64041174D01*
X91322642Y-64041174D01*
G37*
D11*
X91055000Y-64740000D03*
D10*
G36*
X73380142Y-62178674D02*
G01*
X73403803Y-62182184D01*
X73427007Y-62187996D01*
X73449529Y-62196054D01*
X73471153Y-62206282D01*
X73491670Y-62218579D01*
X73510883Y-62232829D01*
X73528607Y-62248893D01*
X73544671Y-62266617D01*
X73558921Y-62285830D01*
X73571218Y-62306347D01*
X73581446Y-62327971D01*
X73589504Y-62350493D01*
X73595316Y-62373697D01*
X73598826Y-62397358D01*
X73600000Y-62421250D01*
X73600000Y-62908750D01*
X73598826Y-62932642D01*
X73595316Y-62956303D01*
X73589504Y-62979507D01*
X73581446Y-63002029D01*
X73571218Y-63023653D01*
X73558921Y-63044170D01*
X73544671Y-63063383D01*
X73528607Y-63081107D01*
X73510883Y-63097171D01*
X73491670Y-63111421D01*
X73471153Y-63123718D01*
X73449529Y-63133946D01*
X73427007Y-63142004D01*
X73403803Y-63147816D01*
X73380142Y-63151326D01*
X73356250Y-63152500D01*
X72443750Y-63152500D01*
X72419858Y-63151326D01*
X72396197Y-63147816D01*
X72372993Y-63142004D01*
X72350471Y-63133946D01*
X72328847Y-63123718D01*
X72308330Y-63111421D01*
X72289117Y-63097171D01*
X72271393Y-63081107D01*
X72255329Y-63063383D01*
X72241079Y-63044170D01*
X72228782Y-63023653D01*
X72218554Y-63002029D01*
X72210496Y-62979507D01*
X72204684Y-62956303D01*
X72201174Y-62932642D01*
X72200000Y-62908750D01*
X72200000Y-62421250D01*
X72201174Y-62397358D01*
X72204684Y-62373697D01*
X72210496Y-62350493D01*
X72218554Y-62327971D01*
X72228782Y-62306347D01*
X72241079Y-62285830D01*
X72255329Y-62266617D01*
X72271393Y-62248893D01*
X72289117Y-62232829D01*
X72308330Y-62218579D01*
X72328847Y-62206282D01*
X72350471Y-62196054D01*
X72372993Y-62187996D01*
X72396197Y-62182184D01*
X72419858Y-62178674D01*
X72443750Y-62177500D01*
X73356250Y-62177500D01*
X73380142Y-62178674D01*
X73380142Y-62178674D01*
G37*
D11*
X72900000Y-62665000D03*
D10*
G36*
X73380142Y-64053674D02*
G01*
X73403803Y-64057184D01*
X73427007Y-64062996D01*
X73449529Y-64071054D01*
X73471153Y-64081282D01*
X73491670Y-64093579D01*
X73510883Y-64107829D01*
X73528607Y-64123893D01*
X73544671Y-64141617D01*
X73558921Y-64160830D01*
X73571218Y-64181347D01*
X73581446Y-64202971D01*
X73589504Y-64225493D01*
X73595316Y-64248697D01*
X73598826Y-64272358D01*
X73600000Y-64296250D01*
X73600000Y-64783750D01*
X73598826Y-64807642D01*
X73595316Y-64831303D01*
X73589504Y-64854507D01*
X73581446Y-64877029D01*
X73571218Y-64898653D01*
X73558921Y-64919170D01*
X73544671Y-64938383D01*
X73528607Y-64956107D01*
X73510883Y-64972171D01*
X73491670Y-64986421D01*
X73471153Y-64998718D01*
X73449529Y-65008946D01*
X73427007Y-65017004D01*
X73403803Y-65022816D01*
X73380142Y-65026326D01*
X73356250Y-65027500D01*
X72443750Y-65027500D01*
X72419858Y-65026326D01*
X72396197Y-65022816D01*
X72372993Y-65017004D01*
X72350471Y-65008946D01*
X72328847Y-64998718D01*
X72308330Y-64986421D01*
X72289117Y-64972171D01*
X72271393Y-64956107D01*
X72255329Y-64938383D01*
X72241079Y-64919170D01*
X72228782Y-64898653D01*
X72218554Y-64877029D01*
X72210496Y-64854507D01*
X72204684Y-64831303D01*
X72201174Y-64807642D01*
X72200000Y-64783750D01*
X72200000Y-64296250D01*
X72201174Y-64272358D01*
X72204684Y-64248697D01*
X72210496Y-64225493D01*
X72218554Y-64202971D01*
X72228782Y-64181347D01*
X72241079Y-64160830D01*
X72255329Y-64141617D01*
X72271393Y-64123893D01*
X72289117Y-64107829D01*
X72308330Y-64093579D01*
X72328847Y-64081282D01*
X72350471Y-64071054D01*
X72372993Y-64062996D01*
X72396197Y-64057184D01*
X72419858Y-64053674D01*
X72443750Y-64052500D01*
X73356250Y-64052500D01*
X73380142Y-64053674D01*
X73380142Y-64053674D01*
G37*
D11*
X72900000Y-64540000D03*
D10*
G36*
X82007642Y-64121174D02*
G01*
X82031303Y-64124684D01*
X82054507Y-64130496D01*
X82077029Y-64138554D01*
X82098653Y-64148782D01*
X82119170Y-64161079D01*
X82138383Y-64175329D01*
X82156107Y-64191393D01*
X82172171Y-64209117D01*
X82186421Y-64228330D01*
X82198718Y-64248847D01*
X82208946Y-64270471D01*
X82217004Y-64292993D01*
X82222816Y-64316197D01*
X82226326Y-64339858D01*
X82227500Y-64363750D01*
X82227500Y-65276250D01*
X82226326Y-65300142D01*
X82222816Y-65323803D01*
X82217004Y-65347007D01*
X82208946Y-65369529D01*
X82198718Y-65391153D01*
X82186421Y-65411670D01*
X82172171Y-65430883D01*
X82156107Y-65448607D01*
X82138383Y-65464671D01*
X82119170Y-65478921D01*
X82098653Y-65491218D01*
X82077029Y-65501446D01*
X82054507Y-65509504D01*
X82031303Y-65515316D01*
X82007642Y-65518826D01*
X81983750Y-65520000D01*
X81496250Y-65520000D01*
X81472358Y-65518826D01*
X81448697Y-65515316D01*
X81425493Y-65509504D01*
X81402971Y-65501446D01*
X81381347Y-65491218D01*
X81360830Y-65478921D01*
X81341617Y-65464671D01*
X81323893Y-65448607D01*
X81307829Y-65430883D01*
X81293579Y-65411670D01*
X81281282Y-65391153D01*
X81271054Y-65369529D01*
X81262996Y-65347007D01*
X81257184Y-65323803D01*
X81253674Y-65300142D01*
X81252500Y-65276250D01*
X81252500Y-64363750D01*
X81253674Y-64339858D01*
X81257184Y-64316197D01*
X81262996Y-64292993D01*
X81271054Y-64270471D01*
X81281282Y-64248847D01*
X81293579Y-64228330D01*
X81307829Y-64209117D01*
X81323893Y-64191393D01*
X81341617Y-64175329D01*
X81360830Y-64161079D01*
X81381347Y-64148782D01*
X81402971Y-64138554D01*
X81425493Y-64130496D01*
X81448697Y-64124684D01*
X81472358Y-64121174D01*
X81496250Y-64120000D01*
X81983750Y-64120000D01*
X82007642Y-64121174D01*
X82007642Y-64121174D01*
G37*
D11*
X81740000Y-64820000D03*
D10*
G36*
X80132642Y-64121174D02*
G01*
X80156303Y-64124684D01*
X80179507Y-64130496D01*
X80202029Y-64138554D01*
X80223653Y-64148782D01*
X80244170Y-64161079D01*
X80263383Y-64175329D01*
X80281107Y-64191393D01*
X80297171Y-64209117D01*
X80311421Y-64228330D01*
X80323718Y-64248847D01*
X80333946Y-64270471D01*
X80342004Y-64292993D01*
X80347816Y-64316197D01*
X80351326Y-64339858D01*
X80352500Y-64363750D01*
X80352500Y-65276250D01*
X80351326Y-65300142D01*
X80347816Y-65323803D01*
X80342004Y-65347007D01*
X80333946Y-65369529D01*
X80323718Y-65391153D01*
X80311421Y-65411670D01*
X80297171Y-65430883D01*
X80281107Y-65448607D01*
X80263383Y-65464671D01*
X80244170Y-65478921D01*
X80223653Y-65491218D01*
X80202029Y-65501446D01*
X80179507Y-65509504D01*
X80156303Y-65515316D01*
X80132642Y-65518826D01*
X80108750Y-65520000D01*
X79621250Y-65520000D01*
X79597358Y-65518826D01*
X79573697Y-65515316D01*
X79550493Y-65509504D01*
X79527971Y-65501446D01*
X79506347Y-65491218D01*
X79485830Y-65478921D01*
X79466617Y-65464671D01*
X79448893Y-65448607D01*
X79432829Y-65430883D01*
X79418579Y-65411670D01*
X79406282Y-65391153D01*
X79396054Y-65369529D01*
X79387996Y-65347007D01*
X79382184Y-65323803D01*
X79378674Y-65300142D01*
X79377500Y-65276250D01*
X79377500Y-64363750D01*
X79378674Y-64339858D01*
X79382184Y-64316197D01*
X79387996Y-64292993D01*
X79396054Y-64270471D01*
X79406282Y-64248847D01*
X79418579Y-64228330D01*
X79432829Y-64209117D01*
X79448893Y-64191393D01*
X79466617Y-64175329D01*
X79485830Y-64161079D01*
X79506347Y-64148782D01*
X79527971Y-64138554D01*
X79550493Y-64130496D01*
X79573697Y-64124684D01*
X79597358Y-64121174D01*
X79621250Y-64120000D01*
X80108750Y-64120000D01*
X80132642Y-64121174D01*
X80132642Y-64121174D01*
G37*
D11*
X79865000Y-64820000D03*
D10*
G36*
X96580142Y-80828674D02*
G01*
X96603803Y-80832184D01*
X96627007Y-80837996D01*
X96649529Y-80846054D01*
X96671153Y-80856282D01*
X96691670Y-80868579D01*
X96710883Y-80882829D01*
X96728607Y-80898893D01*
X96744671Y-80916617D01*
X96758921Y-80935830D01*
X96771218Y-80956347D01*
X96781446Y-80977971D01*
X96789504Y-81000493D01*
X96795316Y-81023697D01*
X96798826Y-81047358D01*
X96800000Y-81071250D01*
X96800000Y-81558750D01*
X96798826Y-81582642D01*
X96795316Y-81606303D01*
X96789504Y-81629507D01*
X96781446Y-81652029D01*
X96771218Y-81673653D01*
X96758921Y-81694170D01*
X96744671Y-81713383D01*
X96728607Y-81731107D01*
X96710883Y-81747171D01*
X96691670Y-81761421D01*
X96671153Y-81773718D01*
X96649529Y-81783946D01*
X96627007Y-81792004D01*
X96603803Y-81797816D01*
X96580142Y-81801326D01*
X96556250Y-81802500D01*
X95643750Y-81802500D01*
X95619858Y-81801326D01*
X95596197Y-81797816D01*
X95572993Y-81792004D01*
X95550471Y-81783946D01*
X95528847Y-81773718D01*
X95508330Y-81761421D01*
X95489117Y-81747171D01*
X95471393Y-81731107D01*
X95455329Y-81713383D01*
X95441079Y-81694170D01*
X95428782Y-81673653D01*
X95418554Y-81652029D01*
X95410496Y-81629507D01*
X95404684Y-81606303D01*
X95401174Y-81582642D01*
X95400000Y-81558750D01*
X95400000Y-81071250D01*
X95401174Y-81047358D01*
X95404684Y-81023697D01*
X95410496Y-81000493D01*
X95418554Y-80977971D01*
X95428782Y-80956347D01*
X95441079Y-80935830D01*
X95455329Y-80916617D01*
X95471393Y-80898893D01*
X95489117Y-80882829D01*
X95508330Y-80868579D01*
X95528847Y-80856282D01*
X95550471Y-80846054D01*
X95572993Y-80837996D01*
X95596197Y-80832184D01*
X95619858Y-80828674D01*
X95643750Y-80827500D01*
X96556250Y-80827500D01*
X96580142Y-80828674D01*
X96580142Y-80828674D01*
G37*
D11*
X96100000Y-81315000D03*
D10*
G36*
X96580142Y-82703674D02*
G01*
X96603803Y-82707184D01*
X96627007Y-82712996D01*
X96649529Y-82721054D01*
X96671153Y-82731282D01*
X96691670Y-82743579D01*
X96710883Y-82757829D01*
X96728607Y-82773893D01*
X96744671Y-82791617D01*
X96758921Y-82810830D01*
X96771218Y-82831347D01*
X96781446Y-82852971D01*
X96789504Y-82875493D01*
X96795316Y-82898697D01*
X96798826Y-82922358D01*
X96800000Y-82946250D01*
X96800000Y-83433750D01*
X96798826Y-83457642D01*
X96795316Y-83481303D01*
X96789504Y-83504507D01*
X96781446Y-83527029D01*
X96771218Y-83548653D01*
X96758921Y-83569170D01*
X96744671Y-83588383D01*
X96728607Y-83606107D01*
X96710883Y-83622171D01*
X96691670Y-83636421D01*
X96671153Y-83648718D01*
X96649529Y-83658946D01*
X96627007Y-83667004D01*
X96603803Y-83672816D01*
X96580142Y-83676326D01*
X96556250Y-83677500D01*
X95643750Y-83677500D01*
X95619858Y-83676326D01*
X95596197Y-83672816D01*
X95572993Y-83667004D01*
X95550471Y-83658946D01*
X95528847Y-83648718D01*
X95508330Y-83636421D01*
X95489117Y-83622171D01*
X95471393Y-83606107D01*
X95455329Y-83588383D01*
X95441079Y-83569170D01*
X95428782Y-83548653D01*
X95418554Y-83527029D01*
X95410496Y-83504507D01*
X95404684Y-83481303D01*
X95401174Y-83457642D01*
X95400000Y-83433750D01*
X95400000Y-82946250D01*
X95401174Y-82922358D01*
X95404684Y-82898697D01*
X95410496Y-82875493D01*
X95418554Y-82852971D01*
X95428782Y-82831347D01*
X95441079Y-82810830D01*
X95455329Y-82791617D01*
X95471393Y-82773893D01*
X95489117Y-82757829D01*
X95508330Y-82743579D01*
X95528847Y-82731282D01*
X95550471Y-82721054D01*
X95572993Y-82712996D01*
X95596197Y-82707184D01*
X95619858Y-82703674D01*
X95643750Y-82702500D01*
X96556250Y-82702500D01*
X96580142Y-82703674D01*
X96580142Y-82703674D01*
G37*
D11*
X96100000Y-83190000D03*
D10*
G36*
X104342642Y-84581174D02*
G01*
X104366303Y-84584684D01*
X104389507Y-84590496D01*
X104412029Y-84598554D01*
X104433653Y-84608782D01*
X104454170Y-84621079D01*
X104473383Y-84635329D01*
X104491107Y-84651393D01*
X104507171Y-84669117D01*
X104521421Y-84688330D01*
X104533718Y-84708847D01*
X104543946Y-84730471D01*
X104552004Y-84752993D01*
X104557816Y-84776197D01*
X104561326Y-84799858D01*
X104562500Y-84823750D01*
X104562500Y-85736250D01*
X104561326Y-85760142D01*
X104557816Y-85783803D01*
X104552004Y-85807007D01*
X104543946Y-85829529D01*
X104533718Y-85851153D01*
X104521421Y-85871670D01*
X104507171Y-85890883D01*
X104491107Y-85908607D01*
X104473383Y-85924671D01*
X104454170Y-85938921D01*
X104433653Y-85951218D01*
X104412029Y-85961446D01*
X104389507Y-85969504D01*
X104366303Y-85975316D01*
X104342642Y-85978826D01*
X104318750Y-85980000D01*
X103831250Y-85980000D01*
X103807358Y-85978826D01*
X103783697Y-85975316D01*
X103760493Y-85969504D01*
X103737971Y-85961446D01*
X103716347Y-85951218D01*
X103695830Y-85938921D01*
X103676617Y-85924671D01*
X103658893Y-85908607D01*
X103642829Y-85890883D01*
X103628579Y-85871670D01*
X103616282Y-85851153D01*
X103606054Y-85829529D01*
X103597996Y-85807007D01*
X103592184Y-85783803D01*
X103588674Y-85760142D01*
X103587500Y-85736250D01*
X103587500Y-84823750D01*
X103588674Y-84799858D01*
X103592184Y-84776197D01*
X103597996Y-84752993D01*
X103606054Y-84730471D01*
X103616282Y-84708847D01*
X103628579Y-84688330D01*
X103642829Y-84669117D01*
X103658893Y-84651393D01*
X103676617Y-84635329D01*
X103695830Y-84621079D01*
X103716347Y-84608782D01*
X103737971Y-84598554D01*
X103760493Y-84590496D01*
X103783697Y-84584684D01*
X103807358Y-84581174D01*
X103831250Y-84580000D01*
X104318750Y-84580000D01*
X104342642Y-84581174D01*
X104342642Y-84581174D01*
G37*
D11*
X104075000Y-85280000D03*
D10*
G36*
X102467642Y-84581174D02*
G01*
X102491303Y-84584684D01*
X102514507Y-84590496D01*
X102537029Y-84598554D01*
X102558653Y-84608782D01*
X102579170Y-84621079D01*
X102598383Y-84635329D01*
X102616107Y-84651393D01*
X102632171Y-84669117D01*
X102646421Y-84688330D01*
X102658718Y-84708847D01*
X102668946Y-84730471D01*
X102677004Y-84752993D01*
X102682816Y-84776197D01*
X102686326Y-84799858D01*
X102687500Y-84823750D01*
X102687500Y-85736250D01*
X102686326Y-85760142D01*
X102682816Y-85783803D01*
X102677004Y-85807007D01*
X102668946Y-85829529D01*
X102658718Y-85851153D01*
X102646421Y-85871670D01*
X102632171Y-85890883D01*
X102616107Y-85908607D01*
X102598383Y-85924671D01*
X102579170Y-85938921D01*
X102558653Y-85951218D01*
X102537029Y-85961446D01*
X102514507Y-85969504D01*
X102491303Y-85975316D01*
X102467642Y-85978826D01*
X102443750Y-85980000D01*
X101956250Y-85980000D01*
X101932358Y-85978826D01*
X101908697Y-85975316D01*
X101885493Y-85969504D01*
X101862971Y-85961446D01*
X101841347Y-85951218D01*
X101820830Y-85938921D01*
X101801617Y-85924671D01*
X101783893Y-85908607D01*
X101767829Y-85890883D01*
X101753579Y-85871670D01*
X101741282Y-85851153D01*
X101731054Y-85829529D01*
X101722996Y-85807007D01*
X101717184Y-85783803D01*
X101713674Y-85760142D01*
X101712500Y-85736250D01*
X101712500Y-84823750D01*
X101713674Y-84799858D01*
X101717184Y-84776197D01*
X101722996Y-84752993D01*
X101731054Y-84730471D01*
X101741282Y-84708847D01*
X101753579Y-84688330D01*
X101767829Y-84669117D01*
X101783893Y-84651393D01*
X101801617Y-84635329D01*
X101820830Y-84621079D01*
X101841347Y-84608782D01*
X101862971Y-84598554D01*
X101885493Y-84590496D01*
X101908697Y-84584684D01*
X101932358Y-84581174D01*
X101956250Y-84580000D01*
X102443750Y-84580000D01*
X102467642Y-84581174D01*
X102467642Y-84581174D01*
G37*
D11*
X102200000Y-85280000D03*
D10*
G36*
X84300142Y-80846174D02*
G01*
X84323803Y-80849684D01*
X84347007Y-80855496D01*
X84369529Y-80863554D01*
X84391153Y-80873782D01*
X84411670Y-80886079D01*
X84430883Y-80900329D01*
X84448607Y-80916393D01*
X84464671Y-80934117D01*
X84478921Y-80953330D01*
X84491218Y-80973847D01*
X84501446Y-80995471D01*
X84509504Y-81017993D01*
X84515316Y-81041197D01*
X84518826Y-81064858D01*
X84520000Y-81088750D01*
X84520000Y-81576250D01*
X84518826Y-81600142D01*
X84515316Y-81623803D01*
X84509504Y-81647007D01*
X84501446Y-81669529D01*
X84491218Y-81691153D01*
X84478921Y-81711670D01*
X84464671Y-81730883D01*
X84448607Y-81748607D01*
X84430883Y-81764671D01*
X84411670Y-81778921D01*
X84391153Y-81791218D01*
X84369529Y-81801446D01*
X84347007Y-81809504D01*
X84323803Y-81815316D01*
X84300142Y-81818826D01*
X84276250Y-81820000D01*
X83363750Y-81820000D01*
X83339858Y-81818826D01*
X83316197Y-81815316D01*
X83292993Y-81809504D01*
X83270471Y-81801446D01*
X83248847Y-81791218D01*
X83228330Y-81778921D01*
X83209117Y-81764671D01*
X83191393Y-81748607D01*
X83175329Y-81730883D01*
X83161079Y-81711670D01*
X83148782Y-81691153D01*
X83138554Y-81669529D01*
X83130496Y-81647007D01*
X83124684Y-81623803D01*
X83121174Y-81600142D01*
X83120000Y-81576250D01*
X83120000Y-81088750D01*
X83121174Y-81064858D01*
X83124684Y-81041197D01*
X83130496Y-81017993D01*
X83138554Y-80995471D01*
X83148782Y-80973847D01*
X83161079Y-80953330D01*
X83175329Y-80934117D01*
X83191393Y-80916393D01*
X83209117Y-80900329D01*
X83228330Y-80886079D01*
X83248847Y-80873782D01*
X83270471Y-80863554D01*
X83292993Y-80855496D01*
X83316197Y-80849684D01*
X83339858Y-80846174D01*
X83363750Y-80845000D01*
X84276250Y-80845000D01*
X84300142Y-80846174D01*
X84300142Y-80846174D01*
G37*
D11*
X83820000Y-81332500D03*
D10*
G36*
X84300142Y-82721174D02*
G01*
X84323803Y-82724684D01*
X84347007Y-82730496D01*
X84369529Y-82738554D01*
X84391153Y-82748782D01*
X84411670Y-82761079D01*
X84430883Y-82775329D01*
X84448607Y-82791393D01*
X84464671Y-82809117D01*
X84478921Y-82828330D01*
X84491218Y-82848847D01*
X84501446Y-82870471D01*
X84509504Y-82892993D01*
X84515316Y-82916197D01*
X84518826Y-82939858D01*
X84520000Y-82963750D01*
X84520000Y-83451250D01*
X84518826Y-83475142D01*
X84515316Y-83498803D01*
X84509504Y-83522007D01*
X84501446Y-83544529D01*
X84491218Y-83566153D01*
X84478921Y-83586670D01*
X84464671Y-83605883D01*
X84448607Y-83623607D01*
X84430883Y-83639671D01*
X84411670Y-83653921D01*
X84391153Y-83666218D01*
X84369529Y-83676446D01*
X84347007Y-83684504D01*
X84323803Y-83690316D01*
X84300142Y-83693826D01*
X84276250Y-83695000D01*
X83363750Y-83695000D01*
X83339858Y-83693826D01*
X83316197Y-83690316D01*
X83292993Y-83684504D01*
X83270471Y-83676446D01*
X83248847Y-83666218D01*
X83228330Y-83653921D01*
X83209117Y-83639671D01*
X83191393Y-83623607D01*
X83175329Y-83605883D01*
X83161079Y-83586670D01*
X83148782Y-83566153D01*
X83138554Y-83544529D01*
X83130496Y-83522007D01*
X83124684Y-83498803D01*
X83121174Y-83475142D01*
X83120000Y-83451250D01*
X83120000Y-82963750D01*
X83121174Y-82939858D01*
X83124684Y-82916197D01*
X83130496Y-82892993D01*
X83138554Y-82870471D01*
X83148782Y-82848847D01*
X83161079Y-82828330D01*
X83175329Y-82809117D01*
X83191393Y-82791393D01*
X83209117Y-82775329D01*
X83228330Y-82761079D01*
X83248847Y-82748782D01*
X83270471Y-82738554D01*
X83292993Y-82730496D01*
X83316197Y-82724684D01*
X83339858Y-82721174D01*
X83363750Y-82720000D01*
X84276250Y-82720000D01*
X84300142Y-82721174D01*
X84300142Y-82721174D01*
G37*
D11*
X83820000Y-83207500D03*
D10*
G36*
X92781682Y-82394229D02*
G01*
X92805343Y-82397739D01*
X92828547Y-82403551D01*
X92851069Y-82411609D01*
X92872693Y-82421837D01*
X92893210Y-82434134D01*
X92912423Y-82448384D01*
X92930147Y-82464448D01*
X92946211Y-82482172D01*
X92960461Y-82501385D01*
X92972758Y-82521902D01*
X92982986Y-82543526D01*
X92991044Y-82566048D01*
X92996856Y-82589252D01*
X93000366Y-82612913D01*
X93001540Y-82636805D01*
X93001540Y-83549305D01*
X93000366Y-83573197D01*
X92996856Y-83596858D01*
X92991044Y-83620062D01*
X92982986Y-83642584D01*
X92972758Y-83664208D01*
X92960461Y-83684725D01*
X92946211Y-83703938D01*
X92930147Y-83721662D01*
X92912423Y-83737726D01*
X92893210Y-83751976D01*
X92872693Y-83764273D01*
X92851069Y-83774501D01*
X92828547Y-83782559D01*
X92805343Y-83788371D01*
X92781682Y-83791881D01*
X92757790Y-83793055D01*
X92270290Y-83793055D01*
X92246398Y-83791881D01*
X92222737Y-83788371D01*
X92199533Y-83782559D01*
X92177011Y-83774501D01*
X92155387Y-83764273D01*
X92134870Y-83751976D01*
X92115657Y-83737726D01*
X92097933Y-83721662D01*
X92081869Y-83703938D01*
X92067619Y-83684725D01*
X92055322Y-83664208D01*
X92045094Y-83642584D01*
X92037036Y-83620062D01*
X92031224Y-83596858D01*
X92027714Y-83573197D01*
X92026540Y-83549305D01*
X92026540Y-82636805D01*
X92027714Y-82612913D01*
X92031224Y-82589252D01*
X92037036Y-82566048D01*
X92045094Y-82543526D01*
X92055322Y-82521902D01*
X92067619Y-82501385D01*
X92081869Y-82482172D01*
X92097933Y-82464448D01*
X92115657Y-82448384D01*
X92134870Y-82434134D01*
X92155387Y-82421837D01*
X92177011Y-82411609D01*
X92199533Y-82403551D01*
X92222737Y-82397739D01*
X92246398Y-82394229D01*
X92270290Y-82393055D01*
X92757790Y-82393055D01*
X92781682Y-82394229D01*
X92781682Y-82394229D01*
G37*
D11*
X92514040Y-83093055D03*
D10*
G36*
X90906682Y-82394229D02*
G01*
X90930343Y-82397739D01*
X90953547Y-82403551D01*
X90976069Y-82411609D01*
X90997693Y-82421837D01*
X91018210Y-82434134D01*
X91037423Y-82448384D01*
X91055147Y-82464448D01*
X91071211Y-82482172D01*
X91085461Y-82501385D01*
X91097758Y-82521902D01*
X91107986Y-82543526D01*
X91116044Y-82566048D01*
X91121856Y-82589252D01*
X91125366Y-82612913D01*
X91126540Y-82636805D01*
X91126540Y-83549305D01*
X91125366Y-83573197D01*
X91121856Y-83596858D01*
X91116044Y-83620062D01*
X91107986Y-83642584D01*
X91097758Y-83664208D01*
X91085461Y-83684725D01*
X91071211Y-83703938D01*
X91055147Y-83721662D01*
X91037423Y-83737726D01*
X91018210Y-83751976D01*
X90997693Y-83764273D01*
X90976069Y-83774501D01*
X90953547Y-83782559D01*
X90930343Y-83788371D01*
X90906682Y-83791881D01*
X90882790Y-83793055D01*
X90395290Y-83793055D01*
X90371398Y-83791881D01*
X90347737Y-83788371D01*
X90324533Y-83782559D01*
X90302011Y-83774501D01*
X90280387Y-83764273D01*
X90259870Y-83751976D01*
X90240657Y-83737726D01*
X90222933Y-83721662D01*
X90206869Y-83703938D01*
X90192619Y-83684725D01*
X90180322Y-83664208D01*
X90170094Y-83642584D01*
X90162036Y-83620062D01*
X90156224Y-83596858D01*
X90152714Y-83573197D01*
X90151540Y-83549305D01*
X90151540Y-82636805D01*
X90152714Y-82612913D01*
X90156224Y-82589252D01*
X90162036Y-82566048D01*
X90170094Y-82543526D01*
X90180322Y-82521902D01*
X90192619Y-82501385D01*
X90206869Y-82482172D01*
X90222933Y-82464448D01*
X90240657Y-82448384D01*
X90259870Y-82434134D01*
X90280387Y-82421837D01*
X90302011Y-82411609D01*
X90324533Y-82403551D01*
X90347737Y-82397739D01*
X90371398Y-82394229D01*
X90395290Y-82393055D01*
X90882790Y-82393055D01*
X90906682Y-82394229D01*
X90906682Y-82394229D01*
G37*
D11*
X90639040Y-83093055D03*
D10*
G36*
X73330142Y-84538674D02*
G01*
X73353803Y-84542184D01*
X73377007Y-84547996D01*
X73399529Y-84556054D01*
X73421153Y-84566282D01*
X73441670Y-84578579D01*
X73460883Y-84592829D01*
X73478607Y-84608893D01*
X73494671Y-84626617D01*
X73508921Y-84645830D01*
X73521218Y-84666347D01*
X73531446Y-84687971D01*
X73539504Y-84710493D01*
X73545316Y-84733697D01*
X73548826Y-84757358D01*
X73550000Y-84781250D01*
X73550000Y-85268750D01*
X73548826Y-85292642D01*
X73545316Y-85316303D01*
X73539504Y-85339507D01*
X73531446Y-85362029D01*
X73521218Y-85383653D01*
X73508921Y-85404170D01*
X73494671Y-85423383D01*
X73478607Y-85441107D01*
X73460883Y-85457171D01*
X73441670Y-85471421D01*
X73421153Y-85483718D01*
X73399529Y-85493946D01*
X73377007Y-85502004D01*
X73353803Y-85507816D01*
X73330142Y-85511326D01*
X73306250Y-85512500D01*
X72393750Y-85512500D01*
X72369858Y-85511326D01*
X72346197Y-85507816D01*
X72322993Y-85502004D01*
X72300471Y-85493946D01*
X72278847Y-85483718D01*
X72258330Y-85471421D01*
X72239117Y-85457171D01*
X72221393Y-85441107D01*
X72205329Y-85423383D01*
X72191079Y-85404170D01*
X72178782Y-85383653D01*
X72168554Y-85362029D01*
X72160496Y-85339507D01*
X72154684Y-85316303D01*
X72151174Y-85292642D01*
X72150000Y-85268750D01*
X72150000Y-84781250D01*
X72151174Y-84757358D01*
X72154684Y-84733697D01*
X72160496Y-84710493D01*
X72168554Y-84687971D01*
X72178782Y-84666347D01*
X72191079Y-84645830D01*
X72205329Y-84626617D01*
X72221393Y-84608893D01*
X72239117Y-84592829D01*
X72258330Y-84578579D01*
X72278847Y-84566282D01*
X72300471Y-84556054D01*
X72322993Y-84547996D01*
X72346197Y-84542184D01*
X72369858Y-84538674D01*
X72393750Y-84537500D01*
X73306250Y-84537500D01*
X73330142Y-84538674D01*
X73330142Y-84538674D01*
G37*
D11*
X72850000Y-85025000D03*
D10*
G36*
X73330142Y-82663674D02*
G01*
X73353803Y-82667184D01*
X73377007Y-82672996D01*
X73399529Y-82681054D01*
X73421153Y-82691282D01*
X73441670Y-82703579D01*
X73460883Y-82717829D01*
X73478607Y-82733893D01*
X73494671Y-82751617D01*
X73508921Y-82770830D01*
X73521218Y-82791347D01*
X73531446Y-82812971D01*
X73539504Y-82835493D01*
X73545316Y-82858697D01*
X73548826Y-82882358D01*
X73550000Y-82906250D01*
X73550000Y-83393750D01*
X73548826Y-83417642D01*
X73545316Y-83441303D01*
X73539504Y-83464507D01*
X73531446Y-83487029D01*
X73521218Y-83508653D01*
X73508921Y-83529170D01*
X73494671Y-83548383D01*
X73478607Y-83566107D01*
X73460883Y-83582171D01*
X73441670Y-83596421D01*
X73421153Y-83608718D01*
X73399529Y-83618946D01*
X73377007Y-83627004D01*
X73353803Y-83632816D01*
X73330142Y-83636326D01*
X73306250Y-83637500D01*
X72393750Y-83637500D01*
X72369858Y-83636326D01*
X72346197Y-83632816D01*
X72322993Y-83627004D01*
X72300471Y-83618946D01*
X72278847Y-83608718D01*
X72258330Y-83596421D01*
X72239117Y-83582171D01*
X72221393Y-83566107D01*
X72205329Y-83548383D01*
X72191079Y-83529170D01*
X72178782Y-83508653D01*
X72168554Y-83487029D01*
X72160496Y-83464507D01*
X72154684Y-83441303D01*
X72151174Y-83417642D01*
X72150000Y-83393750D01*
X72150000Y-82906250D01*
X72151174Y-82882358D01*
X72154684Y-82858697D01*
X72160496Y-82835493D01*
X72168554Y-82812971D01*
X72178782Y-82791347D01*
X72191079Y-82770830D01*
X72205329Y-82751617D01*
X72221393Y-82733893D01*
X72239117Y-82717829D01*
X72258330Y-82703579D01*
X72278847Y-82691282D01*
X72300471Y-82681054D01*
X72322993Y-82672996D01*
X72346197Y-82667184D01*
X72369858Y-82663674D01*
X72393750Y-82662500D01*
X73306250Y-82662500D01*
X73330142Y-82663674D01*
X73330142Y-82663674D01*
G37*
D11*
X72850000Y-83150000D03*
D10*
G36*
X81781682Y-82404229D02*
G01*
X81805343Y-82407739D01*
X81828547Y-82413551D01*
X81851069Y-82421609D01*
X81872693Y-82431837D01*
X81893210Y-82444134D01*
X81912423Y-82458384D01*
X81930147Y-82474448D01*
X81946211Y-82492172D01*
X81960461Y-82511385D01*
X81972758Y-82531902D01*
X81982986Y-82553526D01*
X81991044Y-82576048D01*
X81996856Y-82599252D01*
X82000366Y-82622913D01*
X82001540Y-82646805D01*
X82001540Y-83559305D01*
X82000366Y-83583197D01*
X81996856Y-83606858D01*
X81991044Y-83630062D01*
X81982986Y-83652584D01*
X81972758Y-83674208D01*
X81960461Y-83694725D01*
X81946211Y-83713938D01*
X81930147Y-83731662D01*
X81912423Y-83747726D01*
X81893210Y-83761976D01*
X81872693Y-83774273D01*
X81851069Y-83784501D01*
X81828547Y-83792559D01*
X81805343Y-83798371D01*
X81781682Y-83801881D01*
X81757790Y-83803055D01*
X81270290Y-83803055D01*
X81246398Y-83801881D01*
X81222737Y-83798371D01*
X81199533Y-83792559D01*
X81177011Y-83784501D01*
X81155387Y-83774273D01*
X81134870Y-83761976D01*
X81115657Y-83747726D01*
X81097933Y-83731662D01*
X81081869Y-83713938D01*
X81067619Y-83694725D01*
X81055322Y-83674208D01*
X81045094Y-83652584D01*
X81037036Y-83630062D01*
X81031224Y-83606858D01*
X81027714Y-83583197D01*
X81026540Y-83559305D01*
X81026540Y-82646805D01*
X81027714Y-82622913D01*
X81031224Y-82599252D01*
X81037036Y-82576048D01*
X81045094Y-82553526D01*
X81055322Y-82531902D01*
X81067619Y-82511385D01*
X81081869Y-82492172D01*
X81097933Y-82474448D01*
X81115657Y-82458384D01*
X81134870Y-82444134D01*
X81155387Y-82431837D01*
X81177011Y-82421609D01*
X81199533Y-82413551D01*
X81222737Y-82407739D01*
X81246398Y-82404229D01*
X81270290Y-82403055D01*
X81757790Y-82403055D01*
X81781682Y-82404229D01*
X81781682Y-82404229D01*
G37*
D11*
X81514040Y-83103055D03*
D10*
G36*
X79906682Y-82404229D02*
G01*
X79930343Y-82407739D01*
X79953547Y-82413551D01*
X79976069Y-82421609D01*
X79997693Y-82431837D01*
X80018210Y-82444134D01*
X80037423Y-82458384D01*
X80055147Y-82474448D01*
X80071211Y-82492172D01*
X80085461Y-82511385D01*
X80097758Y-82531902D01*
X80107986Y-82553526D01*
X80116044Y-82576048D01*
X80121856Y-82599252D01*
X80125366Y-82622913D01*
X80126540Y-82646805D01*
X80126540Y-83559305D01*
X80125366Y-83583197D01*
X80121856Y-83606858D01*
X80116044Y-83630062D01*
X80107986Y-83652584D01*
X80097758Y-83674208D01*
X80085461Y-83694725D01*
X80071211Y-83713938D01*
X80055147Y-83731662D01*
X80037423Y-83747726D01*
X80018210Y-83761976D01*
X79997693Y-83774273D01*
X79976069Y-83784501D01*
X79953547Y-83792559D01*
X79930343Y-83798371D01*
X79906682Y-83801881D01*
X79882790Y-83803055D01*
X79395290Y-83803055D01*
X79371398Y-83801881D01*
X79347737Y-83798371D01*
X79324533Y-83792559D01*
X79302011Y-83784501D01*
X79280387Y-83774273D01*
X79259870Y-83761976D01*
X79240657Y-83747726D01*
X79222933Y-83731662D01*
X79206869Y-83713938D01*
X79192619Y-83694725D01*
X79180322Y-83674208D01*
X79170094Y-83652584D01*
X79162036Y-83630062D01*
X79156224Y-83606858D01*
X79152714Y-83583197D01*
X79151540Y-83559305D01*
X79151540Y-82646805D01*
X79152714Y-82622913D01*
X79156224Y-82599252D01*
X79162036Y-82576048D01*
X79170094Y-82553526D01*
X79180322Y-82531902D01*
X79192619Y-82511385D01*
X79206869Y-82492172D01*
X79222933Y-82474448D01*
X79240657Y-82458384D01*
X79259870Y-82444134D01*
X79280387Y-82431837D01*
X79302011Y-82421609D01*
X79324533Y-82413551D01*
X79347737Y-82407739D01*
X79371398Y-82404229D01*
X79395290Y-82403055D01*
X79882790Y-82403055D01*
X79906682Y-82404229D01*
X79906682Y-82404229D01*
G37*
D11*
X79639040Y-83103055D03*
M02*
