G04 #@! TF.GenerationSoftware,KiCad,Pcbnew,(6.0.0-rc1-dev-1521-g81a0ab4d7)*
G04 #@! TF.CreationDate,2019-02-16T01:33:36+09:00
G04 #@! TF.ProjectId,Linesens_mini,4c696e65-7365-46e7-935f-6d696e692e6b,rev?*
G04 #@! TF.SameCoordinates,Original*
G04 #@! TF.FileFunction,Copper,L2,Bot*
G04 #@! TF.FilePolarity,Positive*
%FSLAX46Y46*%
G04 Gerber Fmt 4.6, Leading zero omitted, Abs format (unit mm)*
G04 Created by KiCad (PCBNEW (6.0.0-rc1-dev-1521-g81a0ab4d7)) date 02/16/19 01:33:36*
%MOMM*%
%LPD*%
G04 APERTURE LIST*
%ADD10C,1.524000*%
%ADD11R,1.700000X1.700000*%
%ADD12O,1.700000X1.700000*%
%ADD13C,0.800000*%
%ADD14C,0.250000*%
%ADD15C,0.254000*%
G04 APERTURE END LIST*
D10*
X77484040Y-83183055D03*
X77484040Y-78103055D03*
X74944040Y-78103055D03*
X74944040Y-83183055D03*
D11*
X83275000Y-69025000D03*
D12*
X85815000Y-69025000D03*
X88355000Y-69025000D03*
X90895000Y-69025000D03*
X93435000Y-69025000D03*
X95975000Y-69025000D03*
X95975000Y-87400000D03*
X93435000Y-87400000D03*
X90895000Y-87400000D03*
X88355000Y-87400000D03*
X85815000Y-87400000D03*
D11*
X83275000Y-87400000D03*
D10*
X101072721Y-64784428D03*
X101072721Y-59704428D03*
X98532721Y-59704428D03*
X98532721Y-64784428D03*
X86532721Y-64784428D03*
X86532721Y-59704428D03*
X89072721Y-59704428D03*
X89072721Y-64784428D03*
X74992721Y-64704428D03*
X74992721Y-59624428D03*
X77532721Y-59624428D03*
X77532721Y-64704428D03*
X100944040Y-83183055D03*
X100944040Y-78103055D03*
X98404040Y-78103055D03*
X98404040Y-83183055D03*
X85944040Y-83103055D03*
X85944040Y-78023055D03*
X88484040Y-78023055D03*
X88484040Y-83103055D03*
D13*
X93970000Y-84080000D03*
X71189998Y-85045000D03*
X81620000Y-85190000D03*
D14*
X88355000Y-67822919D02*
X88355000Y-69025000D01*
X87619722Y-67087641D02*
X88355000Y-67822919D01*
X87619722Y-60791429D02*
X87619722Y-67087641D01*
X86532721Y-59704428D02*
X87619722Y-60791429D01*
X98404040Y-79645960D02*
X98404040Y-78103055D01*
X93970000Y-84080000D02*
X98404040Y-79645960D01*
X71189998Y-84479315D02*
X71189998Y-85045000D01*
X81470000Y-70830000D02*
X64710000Y-70830000D01*
X83275000Y-69025000D02*
X81470000Y-70830000D01*
X64710000Y-70830000D02*
X63424990Y-72115010D01*
X63424990Y-72115010D02*
X63424990Y-73755943D01*
X63424990Y-73755943D02*
X71189998Y-81520951D01*
X71189998Y-81520951D02*
X71189998Y-84479315D01*
X77532721Y-60742721D02*
X77532721Y-59624428D01*
X85815000Y-69025000D02*
X77532721Y-60742721D01*
X87722041Y-78785054D02*
X88484040Y-78023055D01*
X87031041Y-79476054D02*
X87722041Y-78785054D01*
X87031041Y-86183959D02*
X87031041Y-79476054D01*
X85815000Y-87400000D02*
X87031041Y-86183959D01*
X102021670Y-78103055D02*
X100944040Y-78103055D01*
X87180000Y-70390000D02*
X110990000Y-70390000D01*
X85815000Y-69025000D02*
X87180000Y-70390000D01*
X110990000Y-70390000D02*
X112575010Y-71975010D01*
X112575010Y-71975010D02*
X112575010Y-73755943D01*
X112575010Y-73755943D02*
X108227898Y-78103055D01*
X108227898Y-78103055D02*
X102021670Y-78103055D01*
X96832149Y-69025000D02*
X95975000Y-69025000D01*
X101072721Y-64784428D02*
X96832149Y-69025000D01*
X85250999Y-88575001D02*
X89719999Y-88575001D01*
X84450001Y-87774003D02*
X85250999Y-88575001D01*
X84450001Y-86289999D02*
X84450001Y-87774003D01*
X89719999Y-88575001D02*
X90045001Y-88249999D01*
X83750001Y-85589999D02*
X84450001Y-86289999D01*
X90045001Y-88249999D02*
X90895000Y-87400000D01*
X82019999Y-85589999D02*
X83750001Y-85589999D01*
X81620000Y-85190000D02*
X82019999Y-85589999D01*
X89138055Y-83103055D02*
X88484040Y-83103055D01*
X93435000Y-87400000D02*
X89138055Y-83103055D01*
X100191945Y-83183055D02*
X100944040Y-83183055D01*
X95975000Y-87400000D02*
X100191945Y-83183055D01*
D15*
G36*
X107913097Y-77343055D02*
G01*
X102116381Y-77343055D01*
X102029160Y-77212520D01*
X101834575Y-77017935D01*
X101605767Y-76865050D01*
X101351530Y-76759741D01*
X101081632Y-76706055D01*
X100806448Y-76706055D01*
X100536550Y-76759741D01*
X100282313Y-76865050D01*
X100053505Y-77017935D01*
X99858920Y-77212520D01*
X99706035Y-77441328D01*
X99676348Y-77512998D01*
X99671676Y-77500032D01*
X99609696Y-77384075D01*
X99369605Y-77317095D01*
X98583645Y-78103055D01*
X99369605Y-78889015D01*
X99609696Y-78822035D01*
X99673525Y-78686295D01*
X99706035Y-78764782D01*
X99858920Y-78993590D01*
X100053505Y-79188175D01*
X100282313Y-79341060D01*
X100536550Y-79446369D01*
X100806448Y-79500055D01*
X101081632Y-79500055D01*
X101351530Y-79446369D01*
X101605767Y-79341060D01*
X101834575Y-79188175D01*
X102029160Y-78993590D01*
X102116381Y-78863055D01*
X108190576Y-78863055D01*
X108227898Y-78866731D01*
X108265220Y-78863055D01*
X108265231Y-78863055D01*
X108376884Y-78852058D01*
X108520145Y-78808601D01*
X108652174Y-78738029D01*
X108767899Y-78643056D01*
X108791702Y-78614052D01*
X112265001Y-75140754D01*
X112265000Y-88765000D01*
X96571476Y-88765000D01*
X96804014Y-88640706D01*
X97030134Y-88455134D01*
X97215706Y-88229014D01*
X97353599Y-87971034D01*
X97438513Y-87691111D01*
X97467185Y-87400000D01*
X97438513Y-87108889D01*
X97415797Y-87034004D01*
X100130308Y-84319493D01*
X100282313Y-84421060D01*
X100536550Y-84526369D01*
X100806448Y-84580055D01*
X101081632Y-84580055D01*
X101351530Y-84526369D01*
X101605767Y-84421060D01*
X101834575Y-84268175D01*
X102029160Y-84073590D01*
X102182045Y-83844782D01*
X102287354Y-83590545D01*
X102341040Y-83320647D01*
X102341040Y-83045463D01*
X102287354Y-82775565D01*
X102182045Y-82521328D01*
X102029160Y-82292520D01*
X101834575Y-82097935D01*
X101605767Y-81945050D01*
X101351530Y-81839741D01*
X101081632Y-81786055D01*
X100806448Y-81786055D01*
X100536550Y-81839741D01*
X100282313Y-81945050D01*
X100053505Y-82097935D01*
X99858920Y-82292520D01*
X99706035Y-82521328D01*
X99674040Y-82598570D01*
X99642045Y-82521328D01*
X99489160Y-82292520D01*
X99294575Y-82097935D01*
X99065767Y-81945050D01*
X98811530Y-81839741D01*
X98541632Y-81786055D01*
X98266448Y-81786055D01*
X97996550Y-81839741D01*
X97742313Y-81945050D01*
X97513505Y-82097935D01*
X97318920Y-82292520D01*
X97166035Y-82521328D01*
X97060726Y-82775565D01*
X97007040Y-83045463D01*
X97007040Y-83320647D01*
X97060726Y-83590545D01*
X97166035Y-83844782D01*
X97318920Y-84073590D01*
X97513505Y-84268175D01*
X97742313Y-84421060D01*
X97839063Y-84461135D01*
X96340996Y-85959203D01*
X96266111Y-85936487D01*
X96047950Y-85915000D01*
X95902050Y-85915000D01*
X95683889Y-85936487D01*
X95403966Y-86021401D01*
X95145986Y-86159294D01*
X94919866Y-86344866D01*
X94734294Y-86570986D01*
X94705000Y-86625791D01*
X94675706Y-86570986D01*
X94490134Y-86344866D01*
X94264014Y-86159294D01*
X94006034Y-86021401D01*
X93726111Y-85936487D01*
X93507950Y-85915000D01*
X93362050Y-85915000D01*
X93143889Y-85936487D01*
X93069005Y-85959203D01*
X89832814Y-82723013D01*
X89827354Y-82695565D01*
X89722045Y-82441328D01*
X89569160Y-82212520D01*
X89374575Y-82017935D01*
X89145767Y-81865050D01*
X88940131Y-81779872D01*
X105755000Y-81779872D01*
X105755000Y-82220128D01*
X105840890Y-82651925D01*
X106009369Y-83058669D01*
X106253962Y-83424729D01*
X106565271Y-83736038D01*
X106931331Y-83980631D01*
X107338075Y-84149110D01*
X107769872Y-84235000D01*
X108210128Y-84235000D01*
X108641925Y-84149110D01*
X109048669Y-83980631D01*
X109414729Y-83736038D01*
X109726038Y-83424729D01*
X109970631Y-83058669D01*
X110139110Y-82651925D01*
X110225000Y-82220128D01*
X110225000Y-81779872D01*
X110139110Y-81348075D01*
X109970631Y-80941331D01*
X109726038Y-80575271D01*
X109414729Y-80263962D01*
X109048669Y-80019369D01*
X108641925Y-79850890D01*
X108210128Y-79765000D01*
X107769872Y-79765000D01*
X107338075Y-79850890D01*
X106931331Y-80019369D01*
X106565271Y-80263962D01*
X106253962Y-80575271D01*
X106009369Y-80941331D01*
X105840890Y-81348075D01*
X105755000Y-81779872D01*
X88940131Y-81779872D01*
X88891530Y-81759741D01*
X88621632Y-81706055D01*
X88346448Y-81706055D01*
X88076550Y-81759741D01*
X87822313Y-81865050D01*
X87791041Y-81885945D01*
X87791041Y-79790855D01*
X88192470Y-79389427D01*
X88346448Y-79420055D01*
X88621632Y-79420055D01*
X88891530Y-79366369D01*
X89145767Y-79261060D01*
X89374575Y-79108175D01*
X89414130Y-79068620D01*
X97618080Y-79068620D01*
X97685060Y-79308711D01*
X97934088Y-79425811D01*
X98201175Y-79492078D01*
X98476057Y-79504965D01*
X98748173Y-79463977D01*
X99007063Y-79370691D01*
X99123020Y-79308711D01*
X99190000Y-79068620D01*
X98404040Y-78282660D01*
X97618080Y-79068620D01*
X89414130Y-79068620D01*
X89569160Y-78913590D01*
X89722045Y-78684782D01*
X89827354Y-78430545D01*
X89878170Y-78175072D01*
X97002130Y-78175072D01*
X97043118Y-78447188D01*
X97136404Y-78706078D01*
X97198384Y-78822035D01*
X97438475Y-78889015D01*
X98224435Y-78103055D01*
X97438475Y-77317095D01*
X97198384Y-77384075D01*
X97081284Y-77633103D01*
X97015017Y-77900190D01*
X97002130Y-78175072D01*
X89878170Y-78175072D01*
X89881040Y-78160647D01*
X89881040Y-77885463D01*
X89827354Y-77615565D01*
X89722045Y-77361328D01*
X89572481Y-77137490D01*
X97618080Y-77137490D01*
X98404040Y-77923450D01*
X99190000Y-77137490D01*
X99123020Y-76897399D01*
X98873992Y-76780299D01*
X98606905Y-76714032D01*
X98332023Y-76701145D01*
X98059907Y-76742133D01*
X97801017Y-76835419D01*
X97685060Y-76897399D01*
X97618080Y-77137490D01*
X89572481Y-77137490D01*
X89569160Y-77132520D01*
X89374575Y-76937935D01*
X89145767Y-76785050D01*
X88891530Y-76679741D01*
X88621632Y-76626055D01*
X88346448Y-76626055D01*
X88076550Y-76679741D01*
X87822313Y-76785050D01*
X87593505Y-76937935D01*
X87398920Y-77132520D01*
X87246035Y-77361328D01*
X87216348Y-77432998D01*
X87211676Y-77420032D01*
X87149696Y-77304075D01*
X86909605Y-77237095D01*
X86123645Y-78023055D01*
X86137788Y-78037198D01*
X85958183Y-78216803D01*
X85944040Y-78202660D01*
X85158080Y-78988620D01*
X85225060Y-79228711D01*
X85474088Y-79345811D01*
X85741175Y-79412078D01*
X86016057Y-79424965D01*
X86276257Y-79385772D01*
X86272397Y-79424965D01*
X86267365Y-79476054D01*
X86271042Y-79513386D01*
X86271042Y-81743731D01*
X86081632Y-81706055D01*
X85806448Y-81706055D01*
X85536550Y-81759741D01*
X85282313Y-81865050D01*
X85053505Y-82017935D01*
X84858920Y-82212520D01*
X84706035Y-82441328D01*
X84600726Y-82695565D01*
X84547040Y-82965463D01*
X84547040Y-83240647D01*
X84600726Y-83510545D01*
X84706035Y-83764782D01*
X84858920Y-83993590D01*
X85053505Y-84188175D01*
X85282313Y-84341060D01*
X85536550Y-84446369D01*
X85806448Y-84500055D01*
X86081632Y-84500055D01*
X86271041Y-84462379D01*
X86271041Y-85869157D01*
X86180995Y-85959203D01*
X86106111Y-85936487D01*
X85887950Y-85915000D01*
X85742050Y-85915000D01*
X85523889Y-85936487D01*
X85243966Y-86021401D01*
X85174056Y-86058769D01*
X85155547Y-85997752D01*
X85084975Y-85865723D01*
X85038159Y-85808677D01*
X85013800Y-85778995D01*
X85013796Y-85778991D01*
X84990002Y-85749998D01*
X84961010Y-85726205D01*
X84313804Y-85079001D01*
X84290002Y-85049998D01*
X84174277Y-84955025D01*
X84042248Y-84884453D01*
X83898987Y-84840996D01*
X83787334Y-84829999D01*
X83787323Y-84829999D01*
X83750001Y-84826323D01*
X83712679Y-84829999D01*
X82591159Y-84829999D01*
X82537205Y-84699744D01*
X82423937Y-84530226D01*
X82279774Y-84386063D01*
X82110256Y-84272795D01*
X81921898Y-84194774D01*
X81721939Y-84155000D01*
X81518061Y-84155000D01*
X81318102Y-84194774D01*
X81129744Y-84272795D01*
X80960226Y-84386063D01*
X80816063Y-84530226D01*
X80702795Y-84699744D01*
X80624774Y-84888102D01*
X80585000Y-85088061D01*
X80585000Y-85291939D01*
X80624774Y-85491898D01*
X80702795Y-85680256D01*
X80816063Y-85849774D01*
X80960226Y-85993937D01*
X81129744Y-86107205D01*
X81318102Y-86185226D01*
X81518061Y-86225000D01*
X81595774Y-86225000D01*
X81727752Y-86295545D01*
X81829273Y-86326341D01*
X81799188Y-86425518D01*
X81786928Y-86550000D01*
X81786928Y-88250000D01*
X81799188Y-88374482D01*
X81835498Y-88494180D01*
X81894463Y-88604494D01*
X81973815Y-88701185D01*
X82051574Y-88765000D01*
X63735000Y-88765000D01*
X63735000Y-75140754D01*
X68393789Y-79799543D01*
X68220128Y-79765000D01*
X67779872Y-79765000D01*
X67348075Y-79850890D01*
X66941331Y-80019369D01*
X66575271Y-80263962D01*
X66263962Y-80575271D01*
X66019369Y-80941331D01*
X65850890Y-81348075D01*
X65765000Y-81779872D01*
X65765000Y-82220128D01*
X65850890Y-82651925D01*
X66019369Y-83058669D01*
X66263962Y-83424729D01*
X66575271Y-83736038D01*
X66941331Y-83980631D01*
X67348075Y-84149110D01*
X67779872Y-84235000D01*
X68220128Y-84235000D01*
X68651925Y-84149110D01*
X69058669Y-83980631D01*
X69424729Y-83736038D01*
X69736038Y-83424729D01*
X69980631Y-83058669D01*
X70149110Y-82651925D01*
X70235000Y-82220128D01*
X70235000Y-81779872D01*
X70200457Y-81606212D01*
X70429998Y-81835753D01*
X70429999Y-84341288D01*
X70386061Y-84385226D01*
X70272793Y-84554744D01*
X70194772Y-84743102D01*
X70154998Y-84943061D01*
X70154998Y-85146939D01*
X70194772Y-85346898D01*
X70272793Y-85535256D01*
X70386061Y-85704774D01*
X70530224Y-85848937D01*
X70699742Y-85962205D01*
X70888100Y-86040226D01*
X71088059Y-86080000D01*
X71291937Y-86080000D01*
X71491896Y-86040226D01*
X71680254Y-85962205D01*
X71849772Y-85848937D01*
X71993935Y-85704774D01*
X72107203Y-85535256D01*
X72185224Y-85346898D01*
X72224998Y-85146939D01*
X72224998Y-84943061D01*
X72185224Y-84743102D01*
X72107203Y-84554744D01*
X71993935Y-84385226D01*
X71949998Y-84341289D01*
X71949998Y-83045463D01*
X73547040Y-83045463D01*
X73547040Y-83320647D01*
X73600726Y-83590545D01*
X73706035Y-83844782D01*
X73858920Y-84073590D01*
X74053505Y-84268175D01*
X74282313Y-84421060D01*
X74536550Y-84526369D01*
X74806448Y-84580055D01*
X75081632Y-84580055D01*
X75351530Y-84526369D01*
X75605767Y-84421060D01*
X75834575Y-84268175D01*
X76029160Y-84073590D01*
X76182045Y-83844782D01*
X76214040Y-83767540D01*
X76246035Y-83844782D01*
X76398920Y-84073590D01*
X76593505Y-84268175D01*
X76822313Y-84421060D01*
X77076550Y-84526369D01*
X77346448Y-84580055D01*
X77621632Y-84580055D01*
X77891530Y-84526369D01*
X78145767Y-84421060D01*
X78374575Y-84268175D01*
X78569160Y-84073590D01*
X78722045Y-83844782D01*
X78827354Y-83590545D01*
X78881040Y-83320647D01*
X78881040Y-83045463D01*
X78827354Y-82775565D01*
X78722045Y-82521328D01*
X78569160Y-82292520D01*
X78374575Y-82097935D01*
X78145767Y-81945050D01*
X77891530Y-81839741D01*
X77621632Y-81786055D01*
X77346448Y-81786055D01*
X77076550Y-81839741D01*
X76822313Y-81945050D01*
X76593505Y-82097935D01*
X76398920Y-82292520D01*
X76246035Y-82521328D01*
X76214040Y-82598570D01*
X76182045Y-82521328D01*
X76029160Y-82292520D01*
X75834575Y-82097935D01*
X75605767Y-81945050D01*
X75351530Y-81839741D01*
X75081632Y-81786055D01*
X74806448Y-81786055D01*
X74536550Y-81839741D01*
X74282313Y-81945050D01*
X74053505Y-82097935D01*
X73858920Y-82292520D01*
X73706035Y-82521328D01*
X73600726Y-82775565D01*
X73547040Y-83045463D01*
X71949998Y-83045463D01*
X71949998Y-81558284D01*
X71953675Y-81520951D01*
X71939001Y-81371965D01*
X71895544Y-81228704D01*
X71824972Y-81096675D01*
X71753797Y-81009948D01*
X71729999Y-80980950D01*
X71701002Y-80957153D01*
X69812469Y-79068620D01*
X74158080Y-79068620D01*
X74225060Y-79308711D01*
X74474088Y-79425811D01*
X74741175Y-79492078D01*
X75016057Y-79504965D01*
X75288173Y-79463977D01*
X75547063Y-79370691D01*
X75663020Y-79308711D01*
X75730000Y-79068620D01*
X74944040Y-78282660D01*
X74158080Y-79068620D01*
X69812469Y-79068620D01*
X68918921Y-78175072D01*
X73542130Y-78175072D01*
X73583118Y-78447188D01*
X73676404Y-78706078D01*
X73738384Y-78822035D01*
X73978475Y-78889015D01*
X74764435Y-78103055D01*
X75123645Y-78103055D01*
X75909605Y-78889015D01*
X76149696Y-78822035D01*
X76213525Y-78686295D01*
X76246035Y-78764782D01*
X76398920Y-78993590D01*
X76593505Y-79188175D01*
X76822313Y-79341060D01*
X77076550Y-79446369D01*
X77346448Y-79500055D01*
X77621632Y-79500055D01*
X77891530Y-79446369D01*
X78145767Y-79341060D01*
X78374575Y-79188175D01*
X78569160Y-78993590D01*
X78722045Y-78764782D01*
X78827354Y-78510545D01*
X78881040Y-78240647D01*
X78881040Y-78095072D01*
X84542130Y-78095072D01*
X84583118Y-78367188D01*
X84676404Y-78626078D01*
X84738384Y-78742035D01*
X84978475Y-78809015D01*
X85764435Y-78023055D01*
X84978475Y-77237095D01*
X84738384Y-77304075D01*
X84621284Y-77553103D01*
X84555017Y-77820190D01*
X84542130Y-78095072D01*
X78881040Y-78095072D01*
X78881040Y-77965463D01*
X78827354Y-77695565D01*
X78722045Y-77441328D01*
X78569160Y-77212520D01*
X78414130Y-77057490D01*
X85158080Y-77057490D01*
X85944040Y-77843450D01*
X86730000Y-77057490D01*
X86663020Y-76817399D01*
X86413992Y-76700299D01*
X86146905Y-76634032D01*
X85872023Y-76621145D01*
X85599907Y-76662133D01*
X85341017Y-76755419D01*
X85225060Y-76817399D01*
X85158080Y-77057490D01*
X78414130Y-77057490D01*
X78374575Y-77017935D01*
X78145767Y-76865050D01*
X77891530Y-76759741D01*
X77621632Y-76706055D01*
X77346448Y-76706055D01*
X77076550Y-76759741D01*
X76822313Y-76865050D01*
X76593505Y-77017935D01*
X76398920Y-77212520D01*
X76246035Y-77441328D01*
X76216348Y-77512998D01*
X76211676Y-77500032D01*
X76149696Y-77384075D01*
X75909605Y-77317095D01*
X75123645Y-78103055D01*
X74764435Y-78103055D01*
X73978475Y-77317095D01*
X73738384Y-77384075D01*
X73621284Y-77633103D01*
X73555017Y-77900190D01*
X73542130Y-78175072D01*
X68918921Y-78175072D01*
X67881339Y-77137490D01*
X74158080Y-77137490D01*
X74944040Y-77923450D01*
X75730000Y-77137490D01*
X75663020Y-76897399D01*
X75413992Y-76780299D01*
X75146905Y-76714032D01*
X74872023Y-76701145D01*
X74599907Y-76742133D01*
X74341017Y-76835419D01*
X74225060Y-76897399D01*
X74158080Y-77137490D01*
X67881339Y-77137490D01*
X65878848Y-75135000D01*
X110121151Y-75135000D01*
X107913097Y-77343055D01*
X107913097Y-77343055D01*
G37*
X107913097Y-77343055D02*
X102116381Y-77343055D01*
X102029160Y-77212520D01*
X101834575Y-77017935D01*
X101605767Y-76865050D01*
X101351530Y-76759741D01*
X101081632Y-76706055D01*
X100806448Y-76706055D01*
X100536550Y-76759741D01*
X100282313Y-76865050D01*
X100053505Y-77017935D01*
X99858920Y-77212520D01*
X99706035Y-77441328D01*
X99676348Y-77512998D01*
X99671676Y-77500032D01*
X99609696Y-77384075D01*
X99369605Y-77317095D01*
X98583645Y-78103055D01*
X99369605Y-78889015D01*
X99609696Y-78822035D01*
X99673525Y-78686295D01*
X99706035Y-78764782D01*
X99858920Y-78993590D01*
X100053505Y-79188175D01*
X100282313Y-79341060D01*
X100536550Y-79446369D01*
X100806448Y-79500055D01*
X101081632Y-79500055D01*
X101351530Y-79446369D01*
X101605767Y-79341060D01*
X101834575Y-79188175D01*
X102029160Y-78993590D01*
X102116381Y-78863055D01*
X108190576Y-78863055D01*
X108227898Y-78866731D01*
X108265220Y-78863055D01*
X108265231Y-78863055D01*
X108376884Y-78852058D01*
X108520145Y-78808601D01*
X108652174Y-78738029D01*
X108767899Y-78643056D01*
X108791702Y-78614052D01*
X112265001Y-75140754D01*
X112265000Y-88765000D01*
X96571476Y-88765000D01*
X96804014Y-88640706D01*
X97030134Y-88455134D01*
X97215706Y-88229014D01*
X97353599Y-87971034D01*
X97438513Y-87691111D01*
X97467185Y-87400000D01*
X97438513Y-87108889D01*
X97415797Y-87034004D01*
X100130308Y-84319493D01*
X100282313Y-84421060D01*
X100536550Y-84526369D01*
X100806448Y-84580055D01*
X101081632Y-84580055D01*
X101351530Y-84526369D01*
X101605767Y-84421060D01*
X101834575Y-84268175D01*
X102029160Y-84073590D01*
X102182045Y-83844782D01*
X102287354Y-83590545D01*
X102341040Y-83320647D01*
X102341040Y-83045463D01*
X102287354Y-82775565D01*
X102182045Y-82521328D01*
X102029160Y-82292520D01*
X101834575Y-82097935D01*
X101605767Y-81945050D01*
X101351530Y-81839741D01*
X101081632Y-81786055D01*
X100806448Y-81786055D01*
X100536550Y-81839741D01*
X100282313Y-81945050D01*
X100053505Y-82097935D01*
X99858920Y-82292520D01*
X99706035Y-82521328D01*
X99674040Y-82598570D01*
X99642045Y-82521328D01*
X99489160Y-82292520D01*
X99294575Y-82097935D01*
X99065767Y-81945050D01*
X98811530Y-81839741D01*
X98541632Y-81786055D01*
X98266448Y-81786055D01*
X97996550Y-81839741D01*
X97742313Y-81945050D01*
X97513505Y-82097935D01*
X97318920Y-82292520D01*
X97166035Y-82521328D01*
X97060726Y-82775565D01*
X97007040Y-83045463D01*
X97007040Y-83320647D01*
X97060726Y-83590545D01*
X97166035Y-83844782D01*
X97318920Y-84073590D01*
X97513505Y-84268175D01*
X97742313Y-84421060D01*
X97839063Y-84461135D01*
X96340996Y-85959203D01*
X96266111Y-85936487D01*
X96047950Y-85915000D01*
X95902050Y-85915000D01*
X95683889Y-85936487D01*
X95403966Y-86021401D01*
X95145986Y-86159294D01*
X94919866Y-86344866D01*
X94734294Y-86570986D01*
X94705000Y-86625791D01*
X94675706Y-86570986D01*
X94490134Y-86344866D01*
X94264014Y-86159294D01*
X94006034Y-86021401D01*
X93726111Y-85936487D01*
X93507950Y-85915000D01*
X93362050Y-85915000D01*
X93143889Y-85936487D01*
X93069005Y-85959203D01*
X89832814Y-82723013D01*
X89827354Y-82695565D01*
X89722045Y-82441328D01*
X89569160Y-82212520D01*
X89374575Y-82017935D01*
X89145767Y-81865050D01*
X88940131Y-81779872D01*
X105755000Y-81779872D01*
X105755000Y-82220128D01*
X105840890Y-82651925D01*
X106009369Y-83058669D01*
X106253962Y-83424729D01*
X106565271Y-83736038D01*
X106931331Y-83980631D01*
X107338075Y-84149110D01*
X107769872Y-84235000D01*
X108210128Y-84235000D01*
X108641925Y-84149110D01*
X109048669Y-83980631D01*
X109414729Y-83736038D01*
X109726038Y-83424729D01*
X109970631Y-83058669D01*
X110139110Y-82651925D01*
X110225000Y-82220128D01*
X110225000Y-81779872D01*
X110139110Y-81348075D01*
X109970631Y-80941331D01*
X109726038Y-80575271D01*
X109414729Y-80263962D01*
X109048669Y-80019369D01*
X108641925Y-79850890D01*
X108210128Y-79765000D01*
X107769872Y-79765000D01*
X107338075Y-79850890D01*
X106931331Y-80019369D01*
X106565271Y-80263962D01*
X106253962Y-80575271D01*
X106009369Y-80941331D01*
X105840890Y-81348075D01*
X105755000Y-81779872D01*
X88940131Y-81779872D01*
X88891530Y-81759741D01*
X88621632Y-81706055D01*
X88346448Y-81706055D01*
X88076550Y-81759741D01*
X87822313Y-81865050D01*
X87791041Y-81885945D01*
X87791041Y-79790855D01*
X88192470Y-79389427D01*
X88346448Y-79420055D01*
X88621632Y-79420055D01*
X88891530Y-79366369D01*
X89145767Y-79261060D01*
X89374575Y-79108175D01*
X89414130Y-79068620D01*
X97618080Y-79068620D01*
X97685060Y-79308711D01*
X97934088Y-79425811D01*
X98201175Y-79492078D01*
X98476057Y-79504965D01*
X98748173Y-79463977D01*
X99007063Y-79370691D01*
X99123020Y-79308711D01*
X99190000Y-79068620D01*
X98404040Y-78282660D01*
X97618080Y-79068620D01*
X89414130Y-79068620D01*
X89569160Y-78913590D01*
X89722045Y-78684782D01*
X89827354Y-78430545D01*
X89878170Y-78175072D01*
X97002130Y-78175072D01*
X97043118Y-78447188D01*
X97136404Y-78706078D01*
X97198384Y-78822035D01*
X97438475Y-78889015D01*
X98224435Y-78103055D01*
X97438475Y-77317095D01*
X97198384Y-77384075D01*
X97081284Y-77633103D01*
X97015017Y-77900190D01*
X97002130Y-78175072D01*
X89878170Y-78175072D01*
X89881040Y-78160647D01*
X89881040Y-77885463D01*
X89827354Y-77615565D01*
X89722045Y-77361328D01*
X89572481Y-77137490D01*
X97618080Y-77137490D01*
X98404040Y-77923450D01*
X99190000Y-77137490D01*
X99123020Y-76897399D01*
X98873992Y-76780299D01*
X98606905Y-76714032D01*
X98332023Y-76701145D01*
X98059907Y-76742133D01*
X97801017Y-76835419D01*
X97685060Y-76897399D01*
X97618080Y-77137490D01*
X89572481Y-77137490D01*
X89569160Y-77132520D01*
X89374575Y-76937935D01*
X89145767Y-76785050D01*
X88891530Y-76679741D01*
X88621632Y-76626055D01*
X88346448Y-76626055D01*
X88076550Y-76679741D01*
X87822313Y-76785050D01*
X87593505Y-76937935D01*
X87398920Y-77132520D01*
X87246035Y-77361328D01*
X87216348Y-77432998D01*
X87211676Y-77420032D01*
X87149696Y-77304075D01*
X86909605Y-77237095D01*
X86123645Y-78023055D01*
X86137788Y-78037198D01*
X85958183Y-78216803D01*
X85944040Y-78202660D01*
X85158080Y-78988620D01*
X85225060Y-79228711D01*
X85474088Y-79345811D01*
X85741175Y-79412078D01*
X86016057Y-79424965D01*
X86276257Y-79385772D01*
X86272397Y-79424965D01*
X86267365Y-79476054D01*
X86271042Y-79513386D01*
X86271042Y-81743731D01*
X86081632Y-81706055D01*
X85806448Y-81706055D01*
X85536550Y-81759741D01*
X85282313Y-81865050D01*
X85053505Y-82017935D01*
X84858920Y-82212520D01*
X84706035Y-82441328D01*
X84600726Y-82695565D01*
X84547040Y-82965463D01*
X84547040Y-83240647D01*
X84600726Y-83510545D01*
X84706035Y-83764782D01*
X84858920Y-83993590D01*
X85053505Y-84188175D01*
X85282313Y-84341060D01*
X85536550Y-84446369D01*
X85806448Y-84500055D01*
X86081632Y-84500055D01*
X86271041Y-84462379D01*
X86271041Y-85869157D01*
X86180995Y-85959203D01*
X86106111Y-85936487D01*
X85887950Y-85915000D01*
X85742050Y-85915000D01*
X85523889Y-85936487D01*
X85243966Y-86021401D01*
X85174056Y-86058769D01*
X85155547Y-85997752D01*
X85084975Y-85865723D01*
X85038159Y-85808677D01*
X85013800Y-85778995D01*
X85013796Y-85778991D01*
X84990002Y-85749998D01*
X84961010Y-85726205D01*
X84313804Y-85079001D01*
X84290002Y-85049998D01*
X84174277Y-84955025D01*
X84042248Y-84884453D01*
X83898987Y-84840996D01*
X83787334Y-84829999D01*
X83787323Y-84829999D01*
X83750001Y-84826323D01*
X83712679Y-84829999D01*
X82591159Y-84829999D01*
X82537205Y-84699744D01*
X82423937Y-84530226D01*
X82279774Y-84386063D01*
X82110256Y-84272795D01*
X81921898Y-84194774D01*
X81721939Y-84155000D01*
X81518061Y-84155000D01*
X81318102Y-84194774D01*
X81129744Y-84272795D01*
X80960226Y-84386063D01*
X80816063Y-84530226D01*
X80702795Y-84699744D01*
X80624774Y-84888102D01*
X80585000Y-85088061D01*
X80585000Y-85291939D01*
X80624774Y-85491898D01*
X80702795Y-85680256D01*
X80816063Y-85849774D01*
X80960226Y-85993937D01*
X81129744Y-86107205D01*
X81318102Y-86185226D01*
X81518061Y-86225000D01*
X81595774Y-86225000D01*
X81727752Y-86295545D01*
X81829273Y-86326341D01*
X81799188Y-86425518D01*
X81786928Y-86550000D01*
X81786928Y-88250000D01*
X81799188Y-88374482D01*
X81835498Y-88494180D01*
X81894463Y-88604494D01*
X81973815Y-88701185D01*
X82051574Y-88765000D01*
X63735000Y-88765000D01*
X63735000Y-75140754D01*
X68393789Y-79799543D01*
X68220128Y-79765000D01*
X67779872Y-79765000D01*
X67348075Y-79850890D01*
X66941331Y-80019369D01*
X66575271Y-80263962D01*
X66263962Y-80575271D01*
X66019369Y-80941331D01*
X65850890Y-81348075D01*
X65765000Y-81779872D01*
X65765000Y-82220128D01*
X65850890Y-82651925D01*
X66019369Y-83058669D01*
X66263962Y-83424729D01*
X66575271Y-83736038D01*
X66941331Y-83980631D01*
X67348075Y-84149110D01*
X67779872Y-84235000D01*
X68220128Y-84235000D01*
X68651925Y-84149110D01*
X69058669Y-83980631D01*
X69424729Y-83736038D01*
X69736038Y-83424729D01*
X69980631Y-83058669D01*
X70149110Y-82651925D01*
X70235000Y-82220128D01*
X70235000Y-81779872D01*
X70200457Y-81606212D01*
X70429998Y-81835753D01*
X70429999Y-84341288D01*
X70386061Y-84385226D01*
X70272793Y-84554744D01*
X70194772Y-84743102D01*
X70154998Y-84943061D01*
X70154998Y-85146939D01*
X70194772Y-85346898D01*
X70272793Y-85535256D01*
X70386061Y-85704774D01*
X70530224Y-85848937D01*
X70699742Y-85962205D01*
X70888100Y-86040226D01*
X71088059Y-86080000D01*
X71291937Y-86080000D01*
X71491896Y-86040226D01*
X71680254Y-85962205D01*
X71849772Y-85848937D01*
X71993935Y-85704774D01*
X72107203Y-85535256D01*
X72185224Y-85346898D01*
X72224998Y-85146939D01*
X72224998Y-84943061D01*
X72185224Y-84743102D01*
X72107203Y-84554744D01*
X71993935Y-84385226D01*
X71949998Y-84341289D01*
X71949998Y-83045463D01*
X73547040Y-83045463D01*
X73547040Y-83320647D01*
X73600726Y-83590545D01*
X73706035Y-83844782D01*
X73858920Y-84073590D01*
X74053505Y-84268175D01*
X74282313Y-84421060D01*
X74536550Y-84526369D01*
X74806448Y-84580055D01*
X75081632Y-84580055D01*
X75351530Y-84526369D01*
X75605767Y-84421060D01*
X75834575Y-84268175D01*
X76029160Y-84073590D01*
X76182045Y-83844782D01*
X76214040Y-83767540D01*
X76246035Y-83844782D01*
X76398920Y-84073590D01*
X76593505Y-84268175D01*
X76822313Y-84421060D01*
X77076550Y-84526369D01*
X77346448Y-84580055D01*
X77621632Y-84580055D01*
X77891530Y-84526369D01*
X78145767Y-84421060D01*
X78374575Y-84268175D01*
X78569160Y-84073590D01*
X78722045Y-83844782D01*
X78827354Y-83590545D01*
X78881040Y-83320647D01*
X78881040Y-83045463D01*
X78827354Y-82775565D01*
X78722045Y-82521328D01*
X78569160Y-82292520D01*
X78374575Y-82097935D01*
X78145767Y-81945050D01*
X77891530Y-81839741D01*
X77621632Y-81786055D01*
X77346448Y-81786055D01*
X77076550Y-81839741D01*
X76822313Y-81945050D01*
X76593505Y-82097935D01*
X76398920Y-82292520D01*
X76246035Y-82521328D01*
X76214040Y-82598570D01*
X76182045Y-82521328D01*
X76029160Y-82292520D01*
X75834575Y-82097935D01*
X75605767Y-81945050D01*
X75351530Y-81839741D01*
X75081632Y-81786055D01*
X74806448Y-81786055D01*
X74536550Y-81839741D01*
X74282313Y-81945050D01*
X74053505Y-82097935D01*
X73858920Y-82292520D01*
X73706035Y-82521328D01*
X73600726Y-82775565D01*
X73547040Y-83045463D01*
X71949998Y-83045463D01*
X71949998Y-81558284D01*
X71953675Y-81520951D01*
X71939001Y-81371965D01*
X71895544Y-81228704D01*
X71824972Y-81096675D01*
X71753797Y-81009948D01*
X71729999Y-80980950D01*
X71701002Y-80957153D01*
X69812469Y-79068620D01*
X74158080Y-79068620D01*
X74225060Y-79308711D01*
X74474088Y-79425811D01*
X74741175Y-79492078D01*
X75016057Y-79504965D01*
X75288173Y-79463977D01*
X75547063Y-79370691D01*
X75663020Y-79308711D01*
X75730000Y-79068620D01*
X74944040Y-78282660D01*
X74158080Y-79068620D01*
X69812469Y-79068620D01*
X68918921Y-78175072D01*
X73542130Y-78175072D01*
X73583118Y-78447188D01*
X73676404Y-78706078D01*
X73738384Y-78822035D01*
X73978475Y-78889015D01*
X74764435Y-78103055D01*
X75123645Y-78103055D01*
X75909605Y-78889015D01*
X76149696Y-78822035D01*
X76213525Y-78686295D01*
X76246035Y-78764782D01*
X76398920Y-78993590D01*
X76593505Y-79188175D01*
X76822313Y-79341060D01*
X77076550Y-79446369D01*
X77346448Y-79500055D01*
X77621632Y-79500055D01*
X77891530Y-79446369D01*
X78145767Y-79341060D01*
X78374575Y-79188175D01*
X78569160Y-78993590D01*
X78722045Y-78764782D01*
X78827354Y-78510545D01*
X78881040Y-78240647D01*
X78881040Y-78095072D01*
X84542130Y-78095072D01*
X84583118Y-78367188D01*
X84676404Y-78626078D01*
X84738384Y-78742035D01*
X84978475Y-78809015D01*
X85764435Y-78023055D01*
X84978475Y-77237095D01*
X84738384Y-77304075D01*
X84621284Y-77553103D01*
X84555017Y-77820190D01*
X84542130Y-78095072D01*
X78881040Y-78095072D01*
X78881040Y-77965463D01*
X78827354Y-77695565D01*
X78722045Y-77441328D01*
X78569160Y-77212520D01*
X78414130Y-77057490D01*
X85158080Y-77057490D01*
X85944040Y-77843450D01*
X86730000Y-77057490D01*
X86663020Y-76817399D01*
X86413992Y-76700299D01*
X86146905Y-76634032D01*
X85872023Y-76621145D01*
X85599907Y-76662133D01*
X85341017Y-76755419D01*
X85225060Y-76817399D01*
X85158080Y-77057490D01*
X78414130Y-77057490D01*
X78374575Y-77017935D01*
X78145767Y-76865050D01*
X77891530Y-76759741D01*
X77621632Y-76706055D01*
X77346448Y-76706055D01*
X77076550Y-76759741D01*
X76822313Y-76865050D01*
X76593505Y-77017935D01*
X76398920Y-77212520D01*
X76246035Y-77441328D01*
X76216348Y-77512998D01*
X76211676Y-77500032D01*
X76149696Y-77384075D01*
X75909605Y-77317095D01*
X75123645Y-78103055D01*
X74764435Y-78103055D01*
X73978475Y-77317095D01*
X73738384Y-77384075D01*
X73621284Y-77633103D01*
X73555017Y-77900190D01*
X73542130Y-78175072D01*
X68918921Y-78175072D01*
X67881339Y-77137490D01*
X74158080Y-77137490D01*
X74944040Y-77923450D01*
X75730000Y-77137490D01*
X75663020Y-76897399D01*
X75413992Y-76780299D01*
X75146905Y-76714032D01*
X74872023Y-76701145D01*
X74599907Y-76742133D01*
X74341017Y-76835419D01*
X74225060Y-76897399D01*
X74158080Y-77137490D01*
X67881339Y-77137490D01*
X65878848Y-75135000D01*
X110121151Y-75135000D01*
X107913097Y-77343055D01*
G36*
X90875198Y-85915000D02*
G01*
X90822050Y-85915000D01*
X90603889Y-85936487D01*
X90323966Y-86021401D01*
X90065986Y-86159294D01*
X89839866Y-86344866D01*
X89654294Y-86570986D01*
X89619799Y-86635523D01*
X89550178Y-86518645D01*
X89355269Y-86302412D01*
X89121920Y-86128359D01*
X88859099Y-86003175D01*
X88711890Y-85958524D01*
X88482000Y-86079845D01*
X88482000Y-87273000D01*
X88502000Y-87273000D01*
X88502000Y-87527000D01*
X88482000Y-87527000D01*
X88482000Y-87547000D01*
X88228000Y-87547000D01*
X88228000Y-87527000D01*
X88208000Y-87527000D01*
X88208000Y-87273000D01*
X88228000Y-87273000D01*
X88228000Y-86079845D01*
X87998110Y-85958524D01*
X87850901Y-86003175D01*
X87791041Y-86031687D01*
X87791041Y-84320165D01*
X87822313Y-84341060D01*
X88076550Y-84446369D01*
X88346448Y-84500055D01*
X88621632Y-84500055D01*
X88891530Y-84446369D01*
X89145767Y-84341060D01*
X89238977Y-84278779D01*
X90875198Y-85915000D01*
X90875198Y-85915000D01*
G37*
X90875198Y-85915000D02*
X90822050Y-85915000D01*
X90603889Y-85936487D01*
X90323966Y-86021401D01*
X90065986Y-86159294D01*
X89839866Y-86344866D01*
X89654294Y-86570986D01*
X89619799Y-86635523D01*
X89550178Y-86518645D01*
X89355269Y-86302412D01*
X89121920Y-86128359D01*
X88859099Y-86003175D01*
X88711890Y-85958524D01*
X88482000Y-86079845D01*
X88482000Y-87273000D01*
X88502000Y-87273000D01*
X88502000Y-87527000D01*
X88482000Y-87527000D01*
X88482000Y-87547000D01*
X88228000Y-87547000D01*
X88228000Y-87527000D01*
X88208000Y-87527000D01*
X88208000Y-87273000D01*
X88228000Y-87273000D01*
X88228000Y-86079845D01*
X87998110Y-85958524D01*
X87850901Y-86003175D01*
X87791041Y-86031687D01*
X87791041Y-84320165D01*
X87822313Y-84341060D01*
X88076550Y-84446369D01*
X88346448Y-84500055D01*
X88621632Y-84500055D01*
X88891530Y-84446369D01*
X89145767Y-84341060D01*
X89238977Y-84278779D01*
X90875198Y-85915000D01*
G36*
X112265000Y-70590199D02*
G01*
X111553804Y-69879003D01*
X111530001Y-69849999D01*
X111414276Y-69755026D01*
X111282247Y-69684454D01*
X111138986Y-69640997D01*
X111027333Y-69630000D01*
X111027322Y-69630000D01*
X110990000Y-69626324D01*
X110952678Y-69630000D01*
X97335444Y-69630000D01*
X97353599Y-69596034D01*
X97359984Y-69574985D01*
X97372150Y-69565001D01*
X97395953Y-69535997D01*
X100781152Y-66150800D01*
X100935129Y-66181428D01*
X101210313Y-66181428D01*
X101480211Y-66127742D01*
X101734448Y-66022433D01*
X101963256Y-65869548D01*
X102157841Y-65674963D01*
X102310726Y-65446155D01*
X102416035Y-65191918D01*
X102469721Y-64922020D01*
X102469721Y-64646836D01*
X102416035Y-64376938D01*
X102310726Y-64122701D01*
X102157841Y-63893893D01*
X102053820Y-63789872D01*
X105765000Y-63789872D01*
X105765000Y-64230128D01*
X105850890Y-64661925D01*
X106019369Y-65068669D01*
X106263962Y-65434729D01*
X106575271Y-65746038D01*
X106941331Y-65990631D01*
X107348075Y-66159110D01*
X107779872Y-66245000D01*
X108220128Y-66245000D01*
X108651925Y-66159110D01*
X109058669Y-65990631D01*
X109424729Y-65746038D01*
X109736038Y-65434729D01*
X109980631Y-65068669D01*
X110149110Y-64661925D01*
X110235000Y-64230128D01*
X110235000Y-63789872D01*
X110149110Y-63358075D01*
X109980631Y-62951331D01*
X109736038Y-62585271D01*
X109424729Y-62273962D01*
X109058669Y-62029369D01*
X108651925Y-61860890D01*
X108220128Y-61775000D01*
X107779872Y-61775000D01*
X107348075Y-61860890D01*
X106941331Y-62029369D01*
X106575271Y-62273962D01*
X106263962Y-62585271D01*
X106019369Y-62951331D01*
X105850890Y-63358075D01*
X105765000Y-63789872D01*
X102053820Y-63789872D01*
X101963256Y-63699308D01*
X101734448Y-63546423D01*
X101480211Y-63441114D01*
X101210313Y-63387428D01*
X100935129Y-63387428D01*
X100665231Y-63441114D01*
X100410994Y-63546423D01*
X100182186Y-63699308D01*
X99987601Y-63893893D01*
X99834716Y-64122701D01*
X99802721Y-64199943D01*
X99770726Y-64122701D01*
X99617841Y-63893893D01*
X99423256Y-63699308D01*
X99194448Y-63546423D01*
X98940211Y-63441114D01*
X98670313Y-63387428D01*
X98395129Y-63387428D01*
X98125231Y-63441114D01*
X97870994Y-63546423D01*
X97642186Y-63699308D01*
X97447601Y-63893893D01*
X97294716Y-64122701D01*
X97189407Y-64376938D01*
X97135721Y-64646836D01*
X97135721Y-64922020D01*
X97189407Y-65191918D01*
X97294716Y-65446155D01*
X97447601Y-65674963D01*
X97642186Y-65869548D01*
X97870994Y-66022433D01*
X98125231Y-66127742D01*
X98395129Y-66181428D01*
X98600919Y-66181428D01*
X96910589Y-67871758D01*
X96804014Y-67784294D01*
X96546034Y-67646401D01*
X96266111Y-67561487D01*
X96047950Y-67540000D01*
X95902050Y-67540000D01*
X95683889Y-67561487D01*
X95403966Y-67646401D01*
X95145986Y-67784294D01*
X94919866Y-67969866D01*
X94734294Y-68195986D01*
X94705000Y-68250791D01*
X94675706Y-68195986D01*
X94490134Y-67969866D01*
X94264014Y-67784294D01*
X94006034Y-67646401D01*
X93726111Y-67561487D01*
X93507950Y-67540000D01*
X93362050Y-67540000D01*
X93143889Y-67561487D01*
X92863966Y-67646401D01*
X92605986Y-67784294D01*
X92379866Y-67969866D01*
X92194294Y-68195986D01*
X92165000Y-68250791D01*
X92135706Y-68195986D01*
X91950134Y-67969866D01*
X91724014Y-67784294D01*
X91466034Y-67646401D01*
X91186111Y-67561487D01*
X90967950Y-67540000D01*
X90822050Y-67540000D01*
X90603889Y-67561487D01*
X90323966Y-67646401D01*
X90065986Y-67784294D01*
X89839866Y-67969866D01*
X89654294Y-68195986D01*
X89619799Y-68260523D01*
X89550178Y-68143645D01*
X89355269Y-67927412D01*
X89121920Y-67753359D01*
X88859099Y-67628175D01*
X88711890Y-67583524D01*
X88482000Y-67704845D01*
X88482000Y-68898000D01*
X88502000Y-68898000D01*
X88502000Y-69152000D01*
X88482000Y-69152000D01*
X88482000Y-69172000D01*
X88228000Y-69172000D01*
X88228000Y-69152000D01*
X88208000Y-69152000D01*
X88208000Y-68898000D01*
X88228000Y-68898000D01*
X88228000Y-67704845D01*
X87998110Y-67583524D01*
X87850901Y-67628175D01*
X87588080Y-67753359D01*
X87354731Y-67927412D01*
X87159822Y-68143645D01*
X87090201Y-68260523D01*
X87055706Y-68195986D01*
X86870134Y-67969866D01*
X86644014Y-67784294D01*
X86386034Y-67646401D01*
X86106111Y-67561487D01*
X85887950Y-67540000D01*
X85742050Y-67540000D01*
X85523889Y-67561487D01*
X85449005Y-67584203D01*
X82511638Y-64646836D01*
X85135721Y-64646836D01*
X85135721Y-64922020D01*
X85189407Y-65191918D01*
X85294716Y-65446155D01*
X85447601Y-65674963D01*
X85642186Y-65869548D01*
X85870994Y-66022433D01*
X86125231Y-66127742D01*
X86395129Y-66181428D01*
X86670313Y-66181428D01*
X86940211Y-66127742D01*
X87194448Y-66022433D01*
X87423256Y-65869548D01*
X87617841Y-65674963D01*
X87770726Y-65446155D01*
X87802721Y-65368913D01*
X87834716Y-65446155D01*
X87987601Y-65674963D01*
X88182186Y-65869548D01*
X88410994Y-66022433D01*
X88665231Y-66127742D01*
X88935129Y-66181428D01*
X89210313Y-66181428D01*
X89480211Y-66127742D01*
X89734448Y-66022433D01*
X89963256Y-65869548D01*
X90157841Y-65674963D01*
X90310726Y-65446155D01*
X90416035Y-65191918D01*
X90469721Y-64922020D01*
X90469721Y-64646836D01*
X90416035Y-64376938D01*
X90310726Y-64122701D01*
X90157841Y-63893893D01*
X89963256Y-63699308D01*
X89734448Y-63546423D01*
X89480211Y-63441114D01*
X89210313Y-63387428D01*
X88935129Y-63387428D01*
X88665231Y-63441114D01*
X88410994Y-63546423D01*
X88182186Y-63699308D01*
X87987601Y-63893893D01*
X87834716Y-64122701D01*
X87802721Y-64199943D01*
X87770726Y-64122701D01*
X87617841Y-63893893D01*
X87423256Y-63699308D01*
X87194448Y-63546423D01*
X86940211Y-63441114D01*
X86670313Y-63387428D01*
X86395129Y-63387428D01*
X86125231Y-63441114D01*
X85870994Y-63546423D01*
X85642186Y-63699308D01*
X85447601Y-63893893D01*
X85294716Y-64122701D01*
X85189407Y-64376938D01*
X85135721Y-64646836D01*
X82511638Y-64646836D01*
X78534795Y-60669993D01*
X85746761Y-60669993D01*
X85813741Y-60910084D01*
X86062769Y-61027184D01*
X86329856Y-61093451D01*
X86604738Y-61106338D01*
X86876854Y-61065350D01*
X87135744Y-60972064D01*
X87251701Y-60910084D01*
X87318681Y-60669993D01*
X86532721Y-59884033D01*
X85746761Y-60669993D01*
X78534795Y-60669993D01*
X78498803Y-60634001D01*
X78617841Y-60514963D01*
X78770726Y-60286155D01*
X78876035Y-60031918D01*
X78926851Y-59776445D01*
X85130811Y-59776445D01*
X85171799Y-60048561D01*
X85265085Y-60307451D01*
X85327065Y-60423408D01*
X85567156Y-60490388D01*
X86353116Y-59704428D01*
X86712326Y-59704428D01*
X87498286Y-60490388D01*
X87738377Y-60423408D01*
X87802206Y-60287668D01*
X87834716Y-60366155D01*
X87987601Y-60594963D01*
X88182186Y-60789548D01*
X88410994Y-60942433D01*
X88665231Y-61047742D01*
X88935129Y-61101428D01*
X89210313Y-61101428D01*
X89480211Y-61047742D01*
X89734448Y-60942433D01*
X89963256Y-60789548D01*
X90082811Y-60669993D01*
X97746761Y-60669993D01*
X97813741Y-60910084D01*
X98062769Y-61027184D01*
X98329856Y-61093451D01*
X98604738Y-61106338D01*
X98876854Y-61065350D01*
X99135744Y-60972064D01*
X99251701Y-60910084D01*
X99318681Y-60669993D01*
X98532721Y-59884033D01*
X97746761Y-60669993D01*
X90082811Y-60669993D01*
X90157841Y-60594963D01*
X90310726Y-60366155D01*
X90416035Y-60111918D01*
X90469721Y-59842020D01*
X90469721Y-59776445D01*
X97130811Y-59776445D01*
X97171799Y-60048561D01*
X97265085Y-60307451D01*
X97327065Y-60423408D01*
X97567156Y-60490388D01*
X98353116Y-59704428D01*
X98712326Y-59704428D01*
X99498286Y-60490388D01*
X99738377Y-60423408D01*
X99802206Y-60287668D01*
X99834716Y-60366155D01*
X99987601Y-60594963D01*
X100182186Y-60789548D01*
X100410994Y-60942433D01*
X100665231Y-61047742D01*
X100935129Y-61101428D01*
X101210313Y-61101428D01*
X101480211Y-61047742D01*
X101734448Y-60942433D01*
X101963256Y-60789548D01*
X102157841Y-60594963D01*
X102310726Y-60366155D01*
X102416035Y-60111918D01*
X102469721Y-59842020D01*
X102469721Y-59566836D01*
X102416035Y-59296938D01*
X102310726Y-59042701D01*
X102157841Y-58813893D01*
X101963256Y-58619308D01*
X101734448Y-58466423D01*
X101480211Y-58361114D01*
X101210313Y-58307428D01*
X100935129Y-58307428D01*
X100665231Y-58361114D01*
X100410994Y-58466423D01*
X100182186Y-58619308D01*
X99987601Y-58813893D01*
X99834716Y-59042701D01*
X99805029Y-59114371D01*
X99800357Y-59101405D01*
X99738377Y-58985448D01*
X99498286Y-58918468D01*
X98712326Y-59704428D01*
X98353116Y-59704428D01*
X97567156Y-58918468D01*
X97327065Y-58985448D01*
X97209965Y-59234476D01*
X97143698Y-59501563D01*
X97130811Y-59776445D01*
X90469721Y-59776445D01*
X90469721Y-59566836D01*
X90416035Y-59296938D01*
X90310726Y-59042701D01*
X90157841Y-58813893D01*
X90082811Y-58738863D01*
X97746761Y-58738863D01*
X98532721Y-59524823D01*
X99318681Y-58738863D01*
X99251701Y-58498772D01*
X99002673Y-58381672D01*
X98735586Y-58315405D01*
X98460704Y-58302518D01*
X98188588Y-58343506D01*
X97929698Y-58436792D01*
X97813741Y-58498772D01*
X97746761Y-58738863D01*
X90082811Y-58738863D01*
X89963256Y-58619308D01*
X89734448Y-58466423D01*
X89480211Y-58361114D01*
X89210313Y-58307428D01*
X88935129Y-58307428D01*
X88665231Y-58361114D01*
X88410994Y-58466423D01*
X88182186Y-58619308D01*
X87987601Y-58813893D01*
X87834716Y-59042701D01*
X87805029Y-59114371D01*
X87800357Y-59101405D01*
X87738377Y-58985448D01*
X87498286Y-58918468D01*
X86712326Y-59704428D01*
X86353116Y-59704428D01*
X85567156Y-58918468D01*
X85327065Y-58985448D01*
X85209965Y-59234476D01*
X85143698Y-59501563D01*
X85130811Y-59776445D01*
X78926851Y-59776445D01*
X78929721Y-59762020D01*
X78929721Y-59486836D01*
X78876035Y-59216938D01*
X78770726Y-58962701D01*
X78621162Y-58738863D01*
X85746761Y-58738863D01*
X86532721Y-59524823D01*
X87318681Y-58738863D01*
X87251701Y-58498772D01*
X87002673Y-58381672D01*
X86735586Y-58315405D01*
X86460704Y-58302518D01*
X86188588Y-58343506D01*
X85929698Y-58436792D01*
X85813741Y-58498772D01*
X85746761Y-58738863D01*
X78621162Y-58738863D01*
X78617841Y-58733893D01*
X78423256Y-58539308D01*
X78194448Y-58386423D01*
X77940211Y-58281114D01*
X77670313Y-58227428D01*
X77395129Y-58227428D01*
X77125231Y-58281114D01*
X76870994Y-58386423D01*
X76642186Y-58539308D01*
X76447601Y-58733893D01*
X76294716Y-58962701D01*
X76265029Y-59034371D01*
X76260357Y-59021405D01*
X76198377Y-58905448D01*
X75958286Y-58838468D01*
X75172326Y-59624428D01*
X75958286Y-60410388D01*
X76198377Y-60343408D01*
X76262206Y-60207668D01*
X76294716Y-60286155D01*
X76447601Y-60514963D01*
X76642186Y-60709548D01*
X76774483Y-60797947D01*
X76783718Y-60891706D01*
X76824814Y-61027184D01*
X76827175Y-61034967D01*
X76897747Y-61166997D01*
X76937592Y-61215547D01*
X76992720Y-61282722D01*
X77021724Y-61306525D01*
X83252126Y-67536928D01*
X82425000Y-67536928D01*
X82300518Y-67549188D01*
X82180820Y-67585498D01*
X82070506Y-67644463D01*
X81973815Y-67723815D01*
X81894463Y-67820506D01*
X81835498Y-67930820D01*
X81799188Y-68050518D01*
X81786928Y-68175000D01*
X81786928Y-69438270D01*
X81155199Y-70070000D01*
X64747333Y-70070000D01*
X64710000Y-70066323D01*
X64672667Y-70070000D01*
X64561014Y-70080997D01*
X64417753Y-70124454D01*
X64285724Y-70195026D01*
X64169999Y-70289999D01*
X64146201Y-70318997D01*
X63735000Y-70730198D01*
X63735000Y-63779872D01*
X65765000Y-63779872D01*
X65765000Y-64220128D01*
X65850890Y-64651925D01*
X66019369Y-65058669D01*
X66263962Y-65424729D01*
X66575271Y-65736038D01*
X66941331Y-65980631D01*
X67348075Y-66149110D01*
X67779872Y-66235000D01*
X68220128Y-66235000D01*
X68651925Y-66149110D01*
X69058669Y-65980631D01*
X69424729Y-65736038D01*
X69736038Y-65424729D01*
X69980631Y-65058669D01*
X70149110Y-64651925D01*
X70166035Y-64566836D01*
X73595721Y-64566836D01*
X73595721Y-64842020D01*
X73649407Y-65111918D01*
X73754716Y-65366155D01*
X73907601Y-65594963D01*
X74102186Y-65789548D01*
X74330994Y-65942433D01*
X74585231Y-66047742D01*
X74855129Y-66101428D01*
X75130313Y-66101428D01*
X75400211Y-66047742D01*
X75654448Y-65942433D01*
X75883256Y-65789548D01*
X76077841Y-65594963D01*
X76230726Y-65366155D01*
X76262721Y-65288913D01*
X76294716Y-65366155D01*
X76447601Y-65594963D01*
X76642186Y-65789548D01*
X76870994Y-65942433D01*
X77125231Y-66047742D01*
X77395129Y-66101428D01*
X77670313Y-66101428D01*
X77940211Y-66047742D01*
X78194448Y-65942433D01*
X78423256Y-65789548D01*
X78617841Y-65594963D01*
X78770726Y-65366155D01*
X78876035Y-65111918D01*
X78929721Y-64842020D01*
X78929721Y-64566836D01*
X78876035Y-64296938D01*
X78770726Y-64042701D01*
X78617841Y-63813893D01*
X78423256Y-63619308D01*
X78194448Y-63466423D01*
X77940211Y-63361114D01*
X77670313Y-63307428D01*
X77395129Y-63307428D01*
X77125231Y-63361114D01*
X76870994Y-63466423D01*
X76642186Y-63619308D01*
X76447601Y-63813893D01*
X76294716Y-64042701D01*
X76262721Y-64119943D01*
X76230726Y-64042701D01*
X76077841Y-63813893D01*
X75883256Y-63619308D01*
X75654448Y-63466423D01*
X75400211Y-63361114D01*
X75130313Y-63307428D01*
X74855129Y-63307428D01*
X74585231Y-63361114D01*
X74330994Y-63466423D01*
X74102186Y-63619308D01*
X73907601Y-63813893D01*
X73754716Y-64042701D01*
X73649407Y-64296938D01*
X73595721Y-64566836D01*
X70166035Y-64566836D01*
X70235000Y-64220128D01*
X70235000Y-63779872D01*
X70149110Y-63348075D01*
X69980631Y-62941331D01*
X69736038Y-62575271D01*
X69424729Y-62263962D01*
X69058669Y-62019369D01*
X68651925Y-61850890D01*
X68220128Y-61765000D01*
X67779872Y-61765000D01*
X67348075Y-61850890D01*
X66941331Y-62019369D01*
X66575271Y-62263962D01*
X66263962Y-62575271D01*
X66019369Y-62941331D01*
X65850890Y-63348075D01*
X65765000Y-63779872D01*
X63735000Y-63779872D01*
X63735000Y-60589993D01*
X74206761Y-60589993D01*
X74273741Y-60830084D01*
X74522769Y-60947184D01*
X74789856Y-61013451D01*
X75064738Y-61026338D01*
X75336854Y-60985350D01*
X75595744Y-60892064D01*
X75711701Y-60830084D01*
X75778681Y-60589993D01*
X74992721Y-59804033D01*
X74206761Y-60589993D01*
X63735000Y-60589993D01*
X63735000Y-59696445D01*
X73590811Y-59696445D01*
X73631799Y-59968561D01*
X73725085Y-60227451D01*
X73787065Y-60343408D01*
X74027156Y-60410388D01*
X74813116Y-59624428D01*
X74027156Y-58838468D01*
X73787065Y-58905448D01*
X73669965Y-59154476D01*
X73603698Y-59421563D01*
X73590811Y-59696445D01*
X63735000Y-59696445D01*
X63735000Y-58658863D01*
X74206761Y-58658863D01*
X74992721Y-59444823D01*
X75778681Y-58658863D01*
X75711701Y-58418772D01*
X75462673Y-58301672D01*
X75195586Y-58235405D01*
X74920704Y-58222518D01*
X74648588Y-58263506D01*
X74389698Y-58356792D01*
X74273741Y-58418772D01*
X74206761Y-58658863D01*
X63735000Y-58658863D01*
X63735000Y-57235001D01*
X112265001Y-57235001D01*
X112265000Y-70590199D01*
X112265000Y-70590199D01*
G37*
X112265000Y-70590199D02*
X111553804Y-69879003D01*
X111530001Y-69849999D01*
X111414276Y-69755026D01*
X111282247Y-69684454D01*
X111138986Y-69640997D01*
X111027333Y-69630000D01*
X111027322Y-69630000D01*
X110990000Y-69626324D01*
X110952678Y-69630000D01*
X97335444Y-69630000D01*
X97353599Y-69596034D01*
X97359984Y-69574985D01*
X97372150Y-69565001D01*
X97395953Y-69535997D01*
X100781152Y-66150800D01*
X100935129Y-66181428D01*
X101210313Y-66181428D01*
X101480211Y-66127742D01*
X101734448Y-66022433D01*
X101963256Y-65869548D01*
X102157841Y-65674963D01*
X102310726Y-65446155D01*
X102416035Y-65191918D01*
X102469721Y-64922020D01*
X102469721Y-64646836D01*
X102416035Y-64376938D01*
X102310726Y-64122701D01*
X102157841Y-63893893D01*
X102053820Y-63789872D01*
X105765000Y-63789872D01*
X105765000Y-64230128D01*
X105850890Y-64661925D01*
X106019369Y-65068669D01*
X106263962Y-65434729D01*
X106575271Y-65746038D01*
X106941331Y-65990631D01*
X107348075Y-66159110D01*
X107779872Y-66245000D01*
X108220128Y-66245000D01*
X108651925Y-66159110D01*
X109058669Y-65990631D01*
X109424729Y-65746038D01*
X109736038Y-65434729D01*
X109980631Y-65068669D01*
X110149110Y-64661925D01*
X110235000Y-64230128D01*
X110235000Y-63789872D01*
X110149110Y-63358075D01*
X109980631Y-62951331D01*
X109736038Y-62585271D01*
X109424729Y-62273962D01*
X109058669Y-62029369D01*
X108651925Y-61860890D01*
X108220128Y-61775000D01*
X107779872Y-61775000D01*
X107348075Y-61860890D01*
X106941331Y-62029369D01*
X106575271Y-62273962D01*
X106263962Y-62585271D01*
X106019369Y-62951331D01*
X105850890Y-63358075D01*
X105765000Y-63789872D01*
X102053820Y-63789872D01*
X101963256Y-63699308D01*
X101734448Y-63546423D01*
X101480211Y-63441114D01*
X101210313Y-63387428D01*
X100935129Y-63387428D01*
X100665231Y-63441114D01*
X100410994Y-63546423D01*
X100182186Y-63699308D01*
X99987601Y-63893893D01*
X99834716Y-64122701D01*
X99802721Y-64199943D01*
X99770726Y-64122701D01*
X99617841Y-63893893D01*
X99423256Y-63699308D01*
X99194448Y-63546423D01*
X98940211Y-63441114D01*
X98670313Y-63387428D01*
X98395129Y-63387428D01*
X98125231Y-63441114D01*
X97870994Y-63546423D01*
X97642186Y-63699308D01*
X97447601Y-63893893D01*
X97294716Y-64122701D01*
X97189407Y-64376938D01*
X97135721Y-64646836D01*
X97135721Y-64922020D01*
X97189407Y-65191918D01*
X97294716Y-65446155D01*
X97447601Y-65674963D01*
X97642186Y-65869548D01*
X97870994Y-66022433D01*
X98125231Y-66127742D01*
X98395129Y-66181428D01*
X98600919Y-66181428D01*
X96910589Y-67871758D01*
X96804014Y-67784294D01*
X96546034Y-67646401D01*
X96266111Y-67561487D01*
X96047950Y-67540000D01*
X95902050Y-67540000D01*
X95683889Y-67561487D01*
X95403966Y-67646401D01*
X95145986Y-67784294D01*
X94919866Y-67969866D01*
X94734294Y-68195986D01*
X94705000Y-68250791D01*
X94675706Y-68195986D01*
X94490134Y-67969866D01*
X94264014Y-67784294D01*
X94006034Y-67646401D01*
X93726111Y-67561487D01*
X93507950Y-67540000D01*
X93362050Y-67540000D01*
X93143889Y-67561487D01*
X92863966Y-67646401D01*
X92605986Y-67784294D01*
X92379866Y-67969866D01*
X92194294Y-68195986D01*
X92165000Y-68250791D01*
X92135706Y-68195986D01*
X91950134Y-67969866D01*
X91724014Y-67784294D01*
X91466034Y-67646401D01*
X91186111Y-67561487D01*
X90967950Y-67540000D01*
X90822050Y-67540000D01*
X90603889Y-67561487D01*
X90323966Y-67646401D01*
X90065986Y-67784294D01*
X89839866Y-67969866D01*
X89654294Y-68195986D01*
X89619799Y-68260523D01*
X89550178Y-68143645D01*
X89355269Y-67927412D01*
X89121920Y-67753359D01*
X88859099Y-67628175D01*
X88711890Y-67583524D01*
X88482000Y-67704845D01*
X88482000Y-68898000D01*
X88502000Y-68898000D01*
X88502000Y-69152000D01*
X88482000Y-69152000D01*
X88482000Y-69172000D01*
X88228000Y-69172000D01*
X88228000Y-69152000D01*
X88208000Y-69152000D01*
X88208000Y-68898000D01*
X88228000Y-68898000D01*
X88228000Y-67704845D01*
X87998110Y-67583524D01*
X87850901Y-67628175D01*
X87588080Y-67753359D01*
X87354731Y-67927412D01*
X87159822Y-68143645D01*
X87090201Y-68260523D01*
X87055706Y-68195986D01*
X86870134Y-67969866D01*
X86644014Y-67784294D01*
X86386034Y-67646401D01*
X86106111Y-67561487D01*
X85887950Y-67540000D01*
X85742050Y-67540000D01*
X85523889Y-67561487D01*
X85449005Y-67584203D01*
X82511638Y-64646836D01*
X85135721Y-64646836D01*
X85135721Y-64922020D01*
X85189407Y-65191918D01*
X85294716Y-65446155D01*
X85447601Y-65674963D01*
X85642186Y-65869548D01*
X85870994Y-66022433D01*
X86125231Y-66127742D01*
X86395129Y-66181428D01*
X86670313Y-66181428D01*
X86940211Y-66127742D01*
X87194448Y-66022433D01*
X87423256Y-65869548D01*
X87617841Y-65674963D01*
X87770726Y-65446155D01*
X87802721Y-65368913D01*
X87834716Y-65446155D01*
X87987601Y-65674963D01*
X88182186Y-65869548D01*
X88410994Y-66022433D01*
X88665231Y-66127742D01*
X88935129Y-66181428D01*
X89210313Y-66181428D01*
X89480211Y-66127742D01*
X89734448Y-66022433D01*
X89963256Y-65869548D01*
X90157841Y-65674963D01*
X90310726Y-65446155D01*
X90416035Y-65191918D01*
X90469721Y-64922020D01*
X90469721Y-64646836D01*
X90416035Y-64376938D01*
X90310726Y-64122701D01*
X90157841Y-63893893D01*
X89963256Y-63699308D01*
X89734448Y-63546423D01*
X89480211Y-63441114D01*
X89210313Y-63387428D01*
X88935129Y-63387428D01*
X88665231Y-63441114D01*
X88410994Y-63546423D01*
X88182186Y-63699308D01*
X87987601Y-63893893D01*
X87834716Y-64122701D01*
X87802721Y-64199943D01*
X87770726Y-64122701D01*
X87617841Y-63893893D01*
X87423256Y-63699308D01*
X87194448Y-63546423D01*
X86940211Y-63441114D01*
X86670313Y-63387428D01*
X86395129Y-63387428D01*
X86125231Y-63441114D01*
X85870994Y-63546423D01*
X85642186Y-63699308D01*
X85447601Y-63893893D01*
X85294716Y-64122701D01*
X85189407Y-64376938D01*
X85135721Y-64646836D01*
X82511638Y-64646836D01*
X78534795Y-60669993D01*
X85746761Y-60669993D01*
X85813741Y-60910084D01*
X86062769Y-61027184D01*
X86329856Y-61093451D01*
X86604738Y-61106338D01*
X86876854Y-61065350D01*
X87135744Y-60972064D01*
X87251701Y-60910084D01*
X87318681Y-60669993D01*
X86532721Y-59884033D01*
X85746761Y-60669993D01*
X78534795Y-60669993D01*
X78498803Y-60634001D01*
X78617841Y-60514963D01*
X78770726Y-60286155D01*
X78876035Y-60031918D01*
X78926851Y-59776445D01*
X85130811Y-59776445D01*
X85171799Y-60048561D01*
X85265085Y-60307451D01*
X85327065Y-60423408D01*
X85567156Y-60490388D01*
X86353116Y-59704428D01*
X86712326Y-59704428D01*
X87498286Y-60490388D01*
X87738377Y-60423408D01*
X87802206Y-60287668D01*
X87834716Y-60366155D01*
X87987601Y-60594963D01*
X88182186Y-60789548D01*
X88410994Y-60942433D01*
X88665231Y-61047742D01*
X88935129Y-61101428D01*
X89210313Y-61101428D01*
X89480211Y-61047742D01*
X89734448Y-60942433D01*
X89963256Y-60789548D01*
X90082811Y-60669993D01*
X97746761Y-60669993D01*
X97813741Y-60910084D01*
X98062769Y-61027184D01*
X98329856Y-61093451D01*
X98604738Y-61106338D01*
X98876854Y-61065350D01*
X99135744Y-60972064D01*
X99251701Y-60910084D01*
X99318681Y-60669993D01*
X98532721Y-59884033D01*
X97746761Y-60669993D01*
X90082811Y-60669993D01*
X90157841Y-60594963D01*
X90310726Y-60366155D01*
X90416035Y-60111918D01*
X90469721Y-59842020D01*
X90469721Y-59776445D01*
X97130811Y-59776445D01*
X97171799Y-60048561D01*
X97265085Y-60307451D01*
X97327065Y-60423408D01*
X97567156Y-60490388D01*
X98353116Y-59704428D01*
X98712326Y-59704428D01*
X99498286Y-60490388D01*
X99738377Y-60423408D01*
X99802206Y-60287668D01*
X99834716Y-60366155D01*
X99987601Y-60594963D01*
X100182186Y-60789548D01*
X100410994Y-60942433D01*
X100665231Y-61047742D01*
X100935129Y-61101428D01*
X101210313Y-61101428D01*
X101480211Y-61047742D01*
X101734448Y-60942433D01*
X101963256Y-60789548D01*
X102157841Y-60594963D01*
X102310726Y-60366155D01*
X102416035Y-60111918D01*
X102469721Y-59842020D01*
X102469721Y-59566836D01*
X102416035Y-59296938D01*
X102310726Y-59042701D01*
X102157841Y-58813893D01*
X101963256Y-58619308D01*
X101734448Y-58466423D01*
X101480211Y-58361114D01*
X101210313Y-58307428D01*
X100935129Y-58307428D01*
X100665231Y-58361114D01*
X100410994Y-58466423D01*
X100182186Y-58619308D01*
X99987601Y-58813893D01*
X99834716Y-59042701D01*
X99805029Y-59114371D01*
X99800357Y-59101405D01*
X99738377Y-58985448D01*
X99498286Y-58918468D01*
X98712326Y-59704428D01*
X98353116Y-59704428D01*
X97567156Y-58918468D01*
X97327065Y-58985448D01*
X97209965Y-59234476D01*
X97143698Y-59501563D01*
X97130811Y-59776445D01*
X90469721Y-59776445D01*
X90469721Y-59566836D01*
X90416035Y-59296938D01*
X90310726Y-59042701D01*
X90157841Y-58813893D01*
X90082811Y-58738863D01*
X97746761Y-58738863D01*
X98532721Y-59524823D01*
X99318681Y-58738863D01*
X99251701Y-58498772D01*
X99002673Y-58381672D01*
X98735586Y-58315405D01*
X98460704Y-58302518D01*
X98188588Y-58343506D01*
X97929698Y-58436792D01*
X97813741Y-58498772D01*
X97746761Y-58738863D01*
X90082811Y-58738863D01*
X89963256Y-58619308D01*
X89734448Y-58466423D01*
X89480211Y-58361114D01*
X89210313Y-58307428D01*
X88935129Y-58307428D01*
X88665231Y-58361114D01*
X88410994Y-58466423D01*
X88182186Y-58619308D01*
X87987601Y-58813893D01*
X87834716Y-59042701D01*
X87805029Y-59114371D01*
X87800357Y-59101405D01*
X87738377Y-58985448D01*
X87498286Y-58918468D01*
X86712326Y-59704428D01*
X86353116Y-59704428D01*
X85567156Y-58918468D01*
X85327065Y-58985448D01*
X85209965Y-59234476D01*
X85143698Y-59501563D01*
X85130811Y-59776445D01*
X78926851Y-59776445D01*
X78929721Y-59762020D01*
X78929721Y-59486836D01*
X78876035Y-59216938D01*
X78770726Y-58962701D01*
X78621162Y-58738863D01*
X85746761Y-58738863D01*
X86532721Y-59524823D01*
X87318681Y-58738863D01*
X87251701Y-58498772D01*
X87002673Y-58381672D01*
X86735586Y-58315405D01*
X86460704Y-58302518D01*
X86188588Y-58343506D01*
X85929698Y-58436792D01*
X85813741Y-58498772D01*
X85746761Y-58738863D01*
X78621162Y-58738863D01*
X78617841Y-58733893D01*
X78423256Y-58539308D01*
X78194448Y-58386423D01*
X77940211Y-58281114D01*
X77670313Y-58227428D01*
X77395129Y-58227428D01*
X77125231Y-58281114D01*
X76870994Y-58386423D01*
X76642186Y-58539308D01*
X76447601Y-58733893D01*
X76294716Y-58962701D01*
X76265029Y-59034371D01*
X76260357Y-59021405D01*
X76198377Y-58905448D01*
X75958286Y-58838468D01*
X75172326Y-59624428D01*
X75958286Y-60410388D01*
X76198377Y-60343408D01*
X76262206Y-60207668D01*
X76294716Y-60286155D01*
X76447601Y-60514963D01*
X76642186Y-60709548D01*
X76774483Y-60797947D01*
X76783718Y-60891706D01*
X76824814Y-61027184D01*
X76827175Y-61034967D01*
X76897747Y-61166997D01*
X76937592Y-61215547D01*
X76992720Y-61282722D01*
X77021724Y-61306525D01*
X83252126Y-67536928D01*
X82425000Y-67536928D01*
X82300518Y-67549188D01*
X82180820Y-67585498D01*
X82070506Y-67644463D01*
X81973815Y-67723815D01*
X81894463Y-67820506D01*
X81835498Y-67930820D01*
X81799188Y-68050518D01*
X81786928Y-68175000D01*
X81786928Y-69438270D01*
X81155199Y-70070000D01*
X64747333Y-70070000D01*
X64710000Y-70066323D01*
X64672667Y-70070000D01*
X64561014Y-70080997D01*
X64417753Y-70124454D01*
X64285724Y-70195026D01*
X64169999Y-70289999D01*
X64146201Y-70318997D01*
X63735000Y-70730198D01*
X63735000Y-63779872D01*
X65765000Y-63779872D01*
X65765000Y-64220128D01*
X65850890Y-64651925D01*
X66019369Y-65058669D01*
X66263962Y-65424729D01*
X66575271Y-65736038D01*
X66941331Y-65980631D01*
X67348075Y-66149110D01*
X67779872Y-66235000D01*
X68220128Y-66235000D01*
X68651925Y-66149110D01*
X69058669Y-65980631D01*
X69424729Y-65736038D01*
X69736038Y-65424729D01*
X69980631Y-65058669D01*
X70149110Y-64651925D01*
X70166035Y-64566836D01*
X73595721Y-64566836D01*
X73595721Y-64842020D01*
X73649407Y-65111918D01*
X73754716Y-65366155D01*
X73907601Y-65594963D01*
X74102186Y-65789548D01*
X74330994Y-65942433D01*
X74585231Y-66047742D01*
X74855129Y-66101428D01*
X75130313Y-66101428D01*
X75400211Y-66047742D01*
X75654448Y-65942433D01*
X75883256Y-65789548D01*
X76077841Y-65594963D01*
X76230726Y-65366155D01*
X76262721Y-65288913D01*
X76294716Y-65366155D01*
X76447601Y-65594963D01*
X76642186Y-65789548D01*
X76870994Y-65942433D01*
X77125231Y-66047742D01*
X77395129Y-66101428D01*
X77670313Y-66101428D01*
X77940211Y-66047742D01*
X78194448Y-65942433D01*
X78423256Y-65789548D01*
X78617841Y-65594963D01*
X78770726Y-65366155D01*
X78876035Y-65111918D01*
X78929721Y-64842020D01*
X78929721Y-64566836D01*
X78876035Y-64296938D01*
X78770726Y-64042701D01*
X78617841Y-63813893D01*
X78423256Y-63619308D01*
X78194448Y-63466423D01*
X77940211Y-63361114D01*
X77670313Y-63307428D01*
X77395129Y-63307428D01*
X77125231Y-63361114D01*
X76870994Y-63466423D01*
X76642186Y-63619308D01*
X76447601Y-63813893D01*
X76294716Y-64042701D01*
X76262721Y-64119943D01*
X76230726Y-64042701D01*
X76077841Y-63813893D01*
X75883256Y-63619308D01*
X75654448Y-63466423D01*
X75400211Y-63361114D01*
X75130313Y-63307428D01*
X74855129Y-63307428D01*
X74585231Y-63361114D01*
X74330994Y-63466423D01*
X74102186Y-63619308D01*
X73907601Y-63813893D01*
X73754716Y-64042701D01*
X73649407Y-64296938D01*
X73595721Y-64566836D01*
X70166035Y-64566836D01*
X70235000Y-64220128D01*
X70235000Y-63779872D01*
X70149110Y-63348075D01*
X69980631Y-62941331D01*
X69736038Y-62575271D01*
X69424729Y-62263962D01*
X69058669Y-62019369D01*
X68651925Y-61850890D01*
X68220128Y-61765000D01*
X67779872Y-61765000D01*
X67348075Y-61850890D01*
X66941331Y-62019369D01*
X66575271Y-62263962D01*
X66263962Y-62575271D01*
X66019369Y-62941331D01*
X65850890Y-63348075D01*
X65765000Y-63779872D01*
X63735000Y-63779872D01*
X63735000Y-60589993D01*
X74206761Y-60589993D01*
X74273741Y-60830084D01*
X74522769Y-60947184D01*
X74789856Y-61013451D01*
X75064738Y-61026338D01*
X75336854Y-60985350D01*
X75595744Y-60892064D01*
X75711701Y-60830084D01*
X75778681Y-60589993D01*
X74992721Y-59804033D01*
X74206761Y-60589993D01*
X63735000Y-60589993D01*
X63735000Y-59696445D01*
X73590811Y-59696445D01*
X73631799Y-59968561D01*
X73725085Y-60227451D01*
X73787065Y-60343408D01*
X74027156Y-60410388D01*
X74813116Y-59624428D01*
X74027156Y-58838468D01*
X73787065Y-58905448D01*
X73669965Y-59154476D01*
X73603698Y-59421563D01*
X73590811Y-59696445D01*
X63735000Y-59696445D01*
X63735000Y-58658863D01*
X74206761Y-58658863D01*
X74992721Y-59444823D01*
X75778681Y-58658863D01*
X75711701Y-58418772D01*
X75462673Y-58301672D01*
X75195586Y-58235405D01*
X74920704Y-58222518D01*
X74648588Y-58263506D01*
X74389698Y-58356792D01*
X74273741Y-58418772D01*
X74206761Y-58658863D01*
X63735000Y-58658863D01*
X63735000Y-57235001D01*
X112265001Y-57235001D01*
X112265000Y-70590199D01*
M02*
