G04 #@! TF.GenerationSoftware,KiCad,Pcbnew,(6.0.0-rc1-dev-1521-g81a0ab4d7)*
G04 #@! TF.CreationDate,2019-02-16T01:33:36+09:00
G04 #@! TF.ProjectId,Linesens_mini,4c696e65-7365-46e7-935f-6d696e692e6b,rev?*
G04 #@! TF.SameCoordinates,Original*
G04 #@! TF.FileFunction,Legend,Top*
G04 #@! TF.FilePolarity,Positive*
%FSLAX46Y46*%
G04 Gerber Fmt 4.6, Leading zero omitted, Abs format (unit mm)*
G04 Created by KiCad (PCBNEW (6.0.0-rc1-dev-1521-g81a0ab4d7)) date 02/16/19 01:33:36*
%MOMM*%
%LPD*%
G04 APERTURE LIST*
%ADD10C,0.120000*%
%ADD11C,0.150000*%
G04 APERTURE END LIST*
D10*
X78118578Y-86720000D02*
X77601422Y-86720000D01*
X78118578Y-88140000D02*
X77601422Y-88140000D01*
X72160000Y-79251078D02*
X72160000Y-78733922D01*
X73580000Y-79251078D02*
X73580000Y-78733922D01*
X77196078Y-68290000D02*
X76678922Y-68290000D01*
X77196078Y-69710000D02*
X76678922Y-69710000D01*
X72500000Y-59411422D02*
X72500000Y-59928578D01*
X71080000Y-59411422D02*
X71080000Y-59928578D01*
X97305000Y-70355000D02*
X97305000Y-67695000D01*
X84545000Y-70355000D02*
X97305000Y-70355000D01*
X84545000Y-67695000D02*
X97305000Y-67695000D01*
X84545000Y-70355000D02*
X84545000Y-67695000D01*
X83275000Y-70355000D02*
X81945000Y-70355000D01*
X81945000Y-70355000D02*
X81945000Y-69025000D01*
X81945000Y-88730000D02*
X81945000Y-87400000D01*
X83275000Y-88730000D02*
X81945000Y-88730000D01*
X84545000Y-88730000D02*
X84545000Y-86070000D01*
X84545000Y-86070000D02*
X97305000Y-86070000D01*
X84545000Y-88730000D02*
X97305000Y-88730000D01*
X97305000Y-88730000D02*
X97305000Y-86070000D01*
X96540000Y-63701422D02*
X96540000Y-64218578D01*
X95120000Y-63701422D02*
X95120000Y-64218578D01*
X102360000Y-65518922D02*
X102360000Y-66036078D01*
X103780000Y-65518922D02*
X103780000Y-66036078D01*
X84940000Y-63603922D02*
X84940000Y-64121078D01*
X83520000Y-63603922D02*
X83520000Y-64121078D01*
X91733922Y-65450000D02*
X92251078Y-65450000D01*
X91733922Y-64030000D02*
X92251078Y-64030000D01*
X73610000Y-63343922D02*
X73610000Y-63861078D01*
X72190000Y-63343922D02*
X72190000Y-63861078D01*
X80543922Y-65530000D02*
X81061078Y-65530000D01*
X80543922Y-64110000D02*
X81061078Y-64110000D01*
X96810000Y-81993922D02*
X96810000Y-82511078D01*
X95390000Y-81993922D02*
X95390000Y-82511078D01*
X102878922Y-85990000D02*
X103396078Y-85990000D01*
X102878922Y-84570000D02*
X103396078Y-84570000D01*
X84530000Y-82011422D02*
X84530000Y-82528578D01*
X83110000Y-82011422D02*
X83110000Y-82528578D01*
X91317962Y-83803055D02*
X91835118Y-83803055D01*
X91317962Y-82383055D02*
X91835118Y-82383055D01*
X72140000Y-84346078D02*
X72140000Y-83828922D01*
X73560000Y-84346078D02*
X73560000Y-83828922D01*
X80317962Y-83813055D02*
X80835118Y-83813055D01*
X80317962Y-82393055D02*
X80835118Y-82393055D01*
D11*
X77474285Y-86051428D02*
X77131428Y-86051428D01*
X77302857Y-86051428D02*
X77302857Y-85451428D01*
X77245714Y-85537142D01*
X77188571Y-85594285D01*
X77131428Y-85622857D01*
X77845714Y-85451428D02*
X77902857Y-85451428D01*
X77960000Y-85480000D01*
X77988571Y-85508571D01*
X78017142Y-85565714D01*
X78045714Y-85680000D01*
X78045714Y-85822857D01*
X78017142Y-85937142D01*
X77988571Y-85994285D01*
X77960000Y-86022857D01*
X77902857Y-86051428D01*
X77845714Y-86051428D01*
X77788571Y-86022857D01*
X77760000Y-85994285D01*
X77731428Y-85937142D01*
X77702857Y-85822857D01*
X77702857Y-85680000D01*
X77731428Y-85565714D01*
X77760000Y-85508571D01*
X77788571Y-85480000D01*
X77845714Y-85451428D01*
X78560000Y-85651428D02*
X78560000Y-86051428D01*
X78302857Y-85651428D02*
X78302857Y-85965714D01*
X78331428Y-86022857D01*
X78388571Y-86051428D01*
X78474285Y-86051428D01*
X78531428Y-86022857D01*
X78560000Y-85994285D01*
X72594285Y-76861428D02*
X72251428Y-76861428D01*
X72422857Y-76861428D02*
X72422857Y-76261428D01*
X72365714Y-76347142D01*
X72308571Y-76404285D01*
X72251428Y-76432857D01*
X72965714Y-76261428D02*
X73022857Y-76261428D01*
X73080000Y-76290000D01*
X73108571Y-76318571D01*
X73137142Y-76375714D01*
X73165714Y-76490000D01*
X73165714Y-76632857D01*
X73137142Y-76747142D01*
X73108571Y-76804285D01*
X73080000Y-76832857D01*
X73022857Y-76861428D01*
X72965714Y-76861428D01*
X72908571Y-76832857D01*
X72880000Y-76804285D01*
X72851428Y-76747142D01*
X72822857Y-76632857D01*
X72822857Y-76490000D01*
X72851428Y-76375714D01*
X72880000Y-76318571D01*
X72908571Y-76290000D01*
X72965714Y-76261428D01*
X73680000Y-76461428D02*
X73680000Y-76861428D01*
X73422857Y-76461428D02*
X73422857Y-76775714D01*
X73451428Y-76832857D01*
X73508571Y-76861428D01*
X73594285Y-76861428D01*
X73651428Y-76832857D01*
X73680000Y-76804285D01*
X76551785Y-70921428D02*
X76208928Y-70921428D01*
X76380357Y-70921428D02*
X76380357Y-70321428D01*
X76323214Y-70407142D01*
X76266071Y-70464285D01*
X76208928Y-70492857D01*
X76923214Y-70321428D02*
X76980357Y-70321428D01*
X77037500Y-70350000D01*
X77066071Y-70378571D01*
X77094642Y-70435714D01*
X77123214Y-70550000D01*
X77123214Y-70692857D01*
X77094642Y-70807142D01*
X77066071Y-70864285D01*
X77037500Y-70892857D01*
X76980357Y-70921428D01*
X76923214Y-70921428D01*
X76866071Y-70892857D01*
X76837500Y-70864285D01*
X76808928Y-70807142D01*
X76780357Y-70692857D01*
X76780357Y-70550000D01*
X76808928Y-70435714D01*
X76837500Y-70378571D01*
X76866071Y-70350000D01*
X76923214Y-70321428D01*
X77637500Y-70521428D02*
X77637500Y-70921428D01*
X77380357Y-70521428D02*
X77380357Y-70835714D01*
X77408928Y-70892857D01*
X77466071Y-70921428D01*
X77551785Y-70921428D01*
X77608928Y-70892857D01*
X77637500Y-70864285D01*
X71364285Y-57651428D02*
X71021428Y-57651428D01*
X71192857Y-57651428D02*
X71192857Y-57051428D01*
X71135714Y-57137142D01*
X71078571Y-57194285D01*
X71021428Y-57222857D01*
X71735714Y-57051428D02*
X71792857Y-57051428D01*
X71850000Y-57080000D01*
X71878571Y-57108571D01*
X71907142Y-57165714D01*
X71935714Y-57280000D01*
X71935714Y-57422857D01*
X71907142Y-57537142D01*
X71878571Y-57594285D01*
X71850000Y-57622857D01*
X71792857Y-57651428D01*
X71735714Y-57651428D01*
X71678571Y-57622857D01*
X71650000Y-57594285D01*
X71621428Y-57537142D01*
X71592857Y-57422857D01*
X71592857Y-57280000D01*
X71621428Y-57165714D01*
X71650000Y-57108571D01*
X71678571Y-57080000D01*
X71735714Y-57051428D01*
X72450000Y-57251428D02*
X72450000Y-57651428D01*
X72192857Y-57251428D02*
X72192857Y-57565714D01*
X72221428Y-57622857D01*
X72278571Y-57651428D01*
X72364285Y-57651428D01*
X72421428Y-57622857D01*
X72450000Y-57594285D01*
X94641428Y-64360000D02*
X94641428Y-64702857D01*
X94641428Y-64531428D02*
X94041428Y-64531428D01*
X94127142Y-64588571D01*
X94184285Y-64645714D01*
X94212857Y-64702857D01*
X94041428Y-63988571D02*
X94041428Y-63931428D01*
X94070000Y-63874285D01*
X94098571Y-63845714D01*
X94155714Y-63817142D01*
X94270000Y-63788571D01*
X94412857Y-63788571D01*
X94527142Y-63817142D01*
X94584285Y-63845714D01*
X94612857Y-63874285D01*
X94641428Y-63931428D01*
X94641428Y-63988571D01*
X94612857Y-64045714D01*
X94584285Y-64074285D01*
X94527142Y-64102857D01*
X94412857Y-64131428D01*
X94270000Y-64131428D01*
X94155714Y-64102857D01*
X94098571Y-64074285D01*
X94070000Y-64045714D01*
X94041428Y-63988571D01*
X94041428Y-63417142D02*
X94041428Y-63360000D01*
X94070000Y-63302857D01*
X94098571Y-63274285D01*
X94155714Y-63245714D01*
X94270000Y-63217142D01*
X94412857Y-63217142D01*
X94527142Y-63245714D01*
X94584285Y-63274285D01*
X94612857Y-63302857D01*
X94641428Y-63360000D01*
X94641428Y-63417142D01*
X94612857Y-63474285D01*
X94584285Y-63502857D01*
X94527142Y-63531428D01*
X94412857Y-63560000D01*
X94270000Y-63560000D01*
X94155714Y-63531428D01*
X94098571Y-63502857D01*
X94070000Y-63474285D01*
X94041428Y-63417142D01*
X102738571Y-68391428D02*
X102395714Y-68391428D01*
X102567142Y-68391428D02*
X102567142Y-67791428D01*
X102510000Y-67877142D01*
X102452857Y-67934285D01*
X102395714Y-67962857D01*
X102995714Y-68391428D02*
X102995714Y-67791428D01*
X103195714Y-68220000D01*
X103395714Y-67791428D01*
X103395714Y-68391428D01*
X83810000Y-66361428D02*
X83467142Y-66361428D01*
X83638571Y-66361428D02*
X83638571Y-65761428D01*
X83581428Y-65847142D01*
X83524285Y-65904285D01*
X83467142Y-65932857D01*
X84181428Y-65761428D02*
X84238571Y-65761428D01*
X84295714Y-65790000D01*
X84324285Y-65818571D01*
X84352857Y-65875714D01*
X84381428Y-65990000D01*
X84381428Y-66132857D01*
X84352857Y-66247142D01*
X84324285Y-66304285D01*
X84295714Y-66332857D01*
X84238571Y-66361428D01*
X84181428Y-66361428D01*
X84124285Y-66332857D01*
X84095714Y-66304285D01*
X84067142Y-66247142D01*
X84038571Y-66132857D01*
X84038571Y-65990000D01*
X84067142Y-65875714D01*
X84095714Y-65818571D01*
X84124285Y-65790000D01*
X84181428Y-65761428D01*
X84752857Y-65761428D02*
X84810000Y-65761428D01*
X84867142Y-65790000D01*
X84895714Y-65818571D01*
X84924285Y-65875714D01*
X84952857Y-65990000D01*
X84952857Y-66132857D01*
X84924285Y-66247142D01*
X84895714Y-66304285D01*
X84867142Y-66332857D01*
X84810000Y-66361428D01*
X84752857Y-66361428D01*
X84695714Y-66332857D01*
X84667142Y-66304285D01*
X84638571Y-66247142D01*
X84610000Y-66132857D01*
X84610000Y-65990000D01*
X84638571Y-65875714D01*
X84667142Y-65818571D01*
X84695714Y-65790000D01*
X84752857Y-65761428D01*
X91958571Y-63321428D02*
X91615714Y-63321428D01*
X91787142Y-63321428D02*
X91787142Y-62721428D01*
X91730000Y-62807142D01*
X91672857Y-62864285D01*
X91615714Y-62892857D01*
X92215714Y-63321428D02*
X92215714Y-62721428D01*
X92415714Y-63150000D01*
X92615714Y-62721428D01*
X92615714Y-63321428D01*
X72520000Y-66201428D02*
X72177142Y-66201428D01*
X72348571Y-66201428D02*
X72348571Y-65601428D01*
X72291428Y-65687142D01*
X72234285Y-65744285D01*
X72177142Y-65772857D01*
X72891428Y-65601428D02*
X72948571Y-65601428D01*
X73005714Y-65630000D01*
X73034285Y-65658571D01*
X73062857Y-65715714D01*
X73091428Y-65830000D01*
X73091428Y-65972857D01*
X73062857Y-66087142D01*
X73034285Y-66144285D01*
X73005714Y-66172857D01*
X72948571Y-66201428D01*
X72891428Y-66201428D01*
X72834285Y-66172857D01*
X72805714Y-66144285D01*
X72777142Y-66087142D01*
X72748571Y-65972857D01*
X72748571Y-65830000D01*
X72777142Y-65715714D01*
X72805714Y-65658571D01*
X72834285Y-65630000D01*
X72891428Y-65601428D01*
X73462857Y-65601428D02*
X73520000Y-65601428D01*
X73577142Y-65630000D01*
X73605714Y-65658571D01*
X73634285Y-65715714D01*
X73662857Y-65830000D01*
X73662857Y-65972857D01*
X73634285Y-66087142D01*
X73605714Y-66144285D01*
X73577142Y-66172857D01*
X73520000Y-66201428D01*
X73462857Y-66201428D01*
X73405714Y-66172857D01*
X73377142Y-66144285D01*
X73348571Y-66087142D01*
X73320000Y-65972857D01*
X73320000Y-65830000D01*
X73348571Y-65715714D01*
X73377142Y-65658571D01*
X73405714Y-65630000D01*
X73462857Y-65601428D01*
X80618571Y-63491428D02*
X80275714Y-63491428D01*
X80447142Y-63491428D02*
X80447142Y-62891428D01*
X80390000Y-62977142D01*
X80332857Y-63034285D01*
X80275714Y-63062857D01*
X80875714Y-63491428D02*
X80875714Y-62891428D01*
X81075714Y-63320000D01*
X81275714Y-62891428D01*
X81275714Y-63491428D01*
X94721428Y-82652500D02*
X94721428Y-82995357D01*
X94721428Y-82823928D02*
X94121428Y-82823928D01*
X94207142Y-82881071D01*
X94264285Y-82938214D01*
X94292857Y-82995357D01*
X94121428Y-82281071D02*
X94121428Y-82223928D01*
X94150000Y-82166785D01*
X94178571Y-82138214D01*
X94235714Y-82109642D01*
X94350000Y-82081071D01*
X94492857Y-82081071D01*
X94607142Y-82109642D01*
X94664285Y-82138214D01*
X94692857Y-82166785D01*
X94721428Y-82223928D01*
X94721428Y-82281071D01*
X94692857Y-82338214D01*
X94664285Y-82366785D01*
X94607142Y-82395357D01*
X94492857Y-82423928D01*
X94350000Y-82423928D01*
X94235714Y-82395357D01*
X94178571Y-82366785D01*
X94150000Y-82338214D01*
X94121428Y-82281071D01*
X94121428Y-81709642D02*
X94121428Y-81652500D01*
X94150000Y-81595357D01*
X94178571Y-81566785D01*
X94235714Y-81538214D01*
X94350000Y-81509642D01*
X94492857Y-81509642D01*
X94607142Y-81538214D01*
X94664285Y-81566785D01*
X94692857Y-81595357D01*
X94721428Y-81652500D01*
X94721428Y-81709642D01*
X94692857Y-81766785D01*
X94664285Y-81795357D01*
X94607142Y-81823928D01*
X94492857Y-81852500D01*
X94350000Y-81852500D01*
X94235714Y-81823928D01*
X94178571Y-81795357D01*
X94150000Y-81766785D01*
X94121428Y-81709642D01*
X102908571Y-83931428D02*
X102565714Y-83931428D01*
X102737142Y-83931428D02*
X102737142Y-83331428D01*
X102680000Y-83417142D01*
X102622857Y-83474285D01*
X102565714Y-83502857D01*
X103165714Y-83931428D02*
X103165714Y-83331428D01*
X103365714Y-83760000D01*
X103565714Y-83331428D01*
X103565714Y-83931428D01*
X83530000Y-80291428D02*
X83187142Y-80291428D01*
X83358571Y-80291428D02*
X83358571Y-79691428D01*
X83301428Y-79777142D01*
X83244285Y-79834285D01*
X83187142Y-79862857D01*
X83901428Y-79691428D02*
X83958571Y-79691428D01*
X84015714Y-79720000D01*
X84044285Y-79748571D01*
X84072857Y-79805714D01*
X84101428Y-79920000D01*
X84101428Y-80062857D01*
X84072857Y-80177142D01*
X84044285Y-80234285D01*
X84015714Y-80262857D01*
X83958571Y-80291428D01*
X83901428Y-80291428D01*
X83844285Y-80262857D01*
X83815714Y-80234285D01*
X83787142Y-80177142D01*
X83758571Y-80062857D01*
X83758571Y-79920000D01*
X83787142Y-79805714D01*
X83815714Y-79748571D01*
X83844285Y-79720000D01*
X83901428Y-79691428D01*
X84472857Y-79691428D02*
X84530000Y-79691428D01*
X84587142Y-79720000D01*
X84615714Y-79748571D01*
X84644285Y-79805714D01*
X84672857Y-79920000D01*
X84672857Y-80062857D01*
X84644285Y-80177142D01*
X84615714Y-80234285D01*
X84587142Y-80262857D01*
X84530000Y-80291428D01*
X84472857Y-80291428D01*
X84415714Y-80262857D01*
X84387142Y-80234285D01*
X84358571Y-80177142D01*
X84330000Y-80062857D01*
X84330000Y-79920000D01*
X84358571Y-79805714D01*
X84387142Y-79748571D01*
X84415714Y-79720000D01*
X84472857Y-79691428D01*
X91398571Y-81631428D02*
X91055714Y-81631428D01*
X91227142Y-81631428D02*
X91227142Y-81031428D01*
X91170000Y-81117142D01*
X91112857Y-81174285D01*
X91055714Y-81202857D01*
X91655714Y-81631428D02*
X91655714Y-81031428D01*
X91855714Y-81460000D01*
X92055714Y-81031428D01*
X92055714Y-81631428D01*
X72360000Y-86751428D02*
X72017142Y-86751428D01*
X72188571Y-86751428D02*
X72188571Y-86151428D01*
X72131428Y-86237142D01*
X72074285Y-86294285D01*
X72017142Y-86322857D01*
X72731428Y-86151428D02*
X72788571Y-86151428D01*
X72845714Y-86180000D01*
X72874285Y-86208571D01*
X72902857Y-86265714D01*
X72931428Y-86380000D01*
X72931428Y-86522857D01*
X72902857Y-86637142D01*
X72874285Y-86694285D01*
X72845714Y-86722857D01*
X72788571Y-86751428D01*
X72731428Y-86751428D01*
X72674285Y-86722857D01*
X72645714Y-86694285D01*
X72617142Y-86637142D01*
X72588571Y-86522857D01*
X72588571Y-86380000D01*
X72617142Y-86265714D01*
X72645714Y-86208571D01*
X72674285Y-86180000D01*
X72731428Y-86151428D01*
X73302857Y-86151428D02*
X73360000Y-86151428D01*
X73417142Y-86180000D01*
X73445714Y-86208571D01*
X73474285Y-86265714D01*
X73502857Y-86380000D01*
X73502857Y-86522857D01*
X73474285Y-86637142D01*
X73445714Y-86694285D01*
X73417142Y-86722857D01*
X73360000Y-86751428D01*
X73302857Y-86751428D01*
X73245714Y-86722857D01*
X73217142Y-86694285D01*
X73188571Y-86637142D01*
X73160000Y-86522857D01*
X73160000Y-86380000D01*
X73188571Y-86265714D01*
X73217142Y-86208571D01*
X73245714Y-86180000D01*
X73302857Y-86151428D01*
X80558571Y-81801428D02*
X80215714Y-81801428D01*
X80387142Y-81801428D02*
X80387142Y-81201428D01*
X80330000Y-81287142D01*
X80272857Y-81344285D01*
X80215714Y-81372857D01*
X80815714Y-81801428D02*
X80815714Y-81201428D01*
X81015714Y-81630000D01*
X81215714Y-81201428D01*
X81215714Y-81801428D01*
M02*
